<svg preserveAspectRatio="none" width="100%" height="100%" overflow="visible" style="display: block;" viewBox="0 0 90.7753 144.15" fill="none" xmlns="http://www.w3.org/2000/svg">
<g id="Group">
<path id="Vector" d="M27.819 90.9986C29.4808 91.352 31.1145 90.2914 31.4679 88.6295C31.8214 86.9677 30.7607 85.334 29.0989 84.9805C27.437 84.6271 25.8033 85.6878 25.4499 87.3496C25.0965 89.0114 26.1571 90.6451 27.819 90.9986Z" fill="var(--fill-0, #FF6584)"/>
<path id="Vector_2" d="M35.1383 124.64C36.8001 124.993 38.4338 123.932 38.7872 122.271C39.1407 120.609 38.08 118.975 36.4182 118.622C34.7563 118.268 33.1226 119.329 32.7692 120.991C32.4158 122.652 33.4764 124.286 35.1383 124.64Z" fill="var(--fill-0, #F26F37)"/>
<path id="Vector_3" d="M3.95374 49.4207C7.06267 50.2896 9.92142 51.8828 12.2956 54.07C14.6698 56.2571 16.4919 58.9757 17.6124 62.0031C17.9248 62.8598 18.3658 63.8213 17.8398 64.6837C17.6498 65.0164 17.3525 65.2748 16.9966 65.4167C16.6406 65.5585 16.2471 65.5754 15.8803 65.4646C15.4345 65.2666 15.0664 64.927 14.8332 64.4985C14.6 64.07 14.5146 63.5766 14.5904 63.0947C14.6662 62.6128 14.8989 62.1693 15.2524 61.8331C15.6059 61.4969 16.0604 61.2867 16.5455 61.2351C18.929 60.7677 20.8258 62.6771 22.3632 64.2055C25.8619 67.688 29.8195 71.0061 34.6685 72.3491C39.1569 73.5922 44.4126 72.8464 47.7807 69.4411C48.3695 68.8479 47.4069 67.9739 46.8204 68.567C43.48 71.9462 38.1106 72.2704 33.8295 70.7283C31.2901 69.7548 28.9361 68.3537 26.8695 66.5859C25.7914 65.699 24.7643 64.7521 23.7685 63.7744C22.8353 62.7767 21.8153 61.8638 20.7206 61.0465C18.8733 59.7849 16.1779 59.279 14.359 60.8933C12.6599 62.3988 13.0471 65.5882 15.1467 66.5597C15.6103 66.7576 16.1157 66.8373 16.6176 66.7919C17.1196 66.7464 17.6025 66.5772 18.023 66.2994C18.4435 66.0215 18.7885 65.6437 19.0272 65.1998C19.2659 64.7559 19.3907 64.2597 19.3906 63.7557C19.3943 62.6573 18.8211 61.4599 18.3911 60.4698C17.1009 57.4879 15.1584 54.8334 12.7065 52.7016C10.2547 50.5697 7.35589 49.015 4.22362 48.1518C3.41527 47.9378 3.14728 49.2083 3.95374 49.4207Z" fill="var(--fill-0, #CCCCCC)"/>
<path id="Vector_4" d="M87.6305 20.2969C85.1579 19.606 82.8843 18.3391 80.9959 16.5999C79.1076 14.8607 77.6583 12.6988 76.7668 10.2913C76.5183 9.60953 76.1676 8.84415 76.5857 8.15936C76.7369 7.89471 76.9733 7.68916 77.2564 7.5763C77.5395 7.46345 77.8525 7.44996 78.1443 7.53806C78.4976 7.69655 78.789 7.96688 78.9734 8.30735C79.1579 8.64783 79.2253 9.03954 79.1651 9.42207C79.1049 9.80461 78.9205 10.1567 78.6404 10.4241C78.3603 10.6915 78.0001 10.8593 77.6151 10.9017C75.7198 11.2723 74.2115 9.75503 72.9879 8.53926C70.2053 5.76946 67.0577 3.1304 63.1993 2.06165C59.6316 1.07299 55.4491 1.66566 52.7702 4.37424C52.3014 4.84817 53.0672 5.54269 53.5337 5.06937C56.1902 2.3831 60.4609 2.12143 63.8658 3.35016C65.8856 4.12457 67.758 5.23903 69.4017 6.64527C70.2592 7.35045 71.076 8.10391 71.8681 8.88303C72.6103 9.67652 73.4214 10.4026 74.292 11.0526C75.7613 12.0565 77.9031 12.4579 79.3506 11.1741C79.666 10.864 79.9044 10.4845 80.0469 10.0658C80.1893 9.64709 80.2318 9.20087 80.1709 8.76282C80.1101 8.32477 79.9475 7.90704 79.6963 7.54305C79.4451 7.17906 79.1122 6.87892 78.7242 6.66663C78.3555 6.50921 77.9535 6.44569 77.5543 6.48177C77.155 6.51785 76.7709 6.6524 76.4364 6.87336C76.1019 7.09432 75.8274 7.3948 75.6376 7.74789C75.4477 8.10097 75.3484 8.49563 75.3485 8.89652C75.4411 9.81104 75.7111 10.6987 76.1434 11.5099C77.1699 13.8821 78.7155 15.9937 80.6664 17.6893C82.6172 19.3849 84.9236 20.6212 87.4156 21.3073C88.0585 21.4777 88.272 20.4665 87.6305 20.2969Z" fill="var(--fill-0, #CCCCCC)"/>
<path id="Vector_5" d="M83.1265 52.7851L80.1175 52.1451L78.0146 62.0325L81.0237 62.6724L83.1265 52.7851Z" fill="var(--fill-0, #CCCCCC)"/>
<path id="Vector_6" d="M35.9292 35.5418L38.4665 33.8936L33.0513 25.5571L30.5139 27.2054L35.9292 35.5418Z" fill="var(--fill-0, #B3B3B3)"/>
<path id="Vector_7" d="M12.4932 141.612L14.1415 144.15L22.4779 138.734L20.8297 136.197L12.4932 141.612Z" fill="var(--fill-0, #FF6584)"/>
</g>
</svg>
