<svg preserveAspectRatio="none" width="100%" height="100%" overflow="visible" style="display: block;" viewBox="0 0 44.5046 45.362" fill="none" xmlns="http://www.w3.org/2000/svg">
<g id="Group">
<path id="Vector" d="M1.82762 45.3619C1.34328 45.3603 0.879239 45.1672 0.536859 44.8246C0.194478 44.482 0.00157989 44.0178 0.000296949 43.5335C-0.001836 43.3897 0.0143323 43.2462 0.0484128 43.1064L9.50939 1.42891C9.58109 1.11493 9.73403 0.825299 9.95289 0.589024C10.1717 0.352749 10.4488 0.178125 10.7564 0.0826409C11.064 -0.0128429 11.3913 -0.0258349 11.7055 0.0449663C12.0197 0.115767 12.3097 0.267876 12.5466 0.486059L43.916 29.5329C44.1521 29.7517 44.3265 30.0286 44.422 30.3361C44.5174 30.6435 44.5304 30.9705 44.4598 31.2846C44.3891 31.5986 44.2372 31.8886 44.0193 32.1255C43.8014 32.3624 43.5251 32.5379 43.218 32.6345L2.37906 45.2797C2.20033 45.3343 2.01449 45.362 1.82762 45.3619Z" fill="var(--fill-0, #3F3D56)"/>
<path id="Vector_2" d="M27.4848 14.8943L7.7806 10.9732L8.09092 9.60485L25.5132 13.0681L27.4848 14.8943Z" fill="var(--fill-0, white)"/>
<path id="Vector_3" d="M43.0003 29.2669L5.32666 21.7706L5.63698 20.3952L41.0254 27.4331L43.0003 29.2669Z" fill="var(--fill-0, white)"/>
<path id="Vector_4" d="M29.5222 36.4324L26.6948 37.3065L2.87906 32.5674L3.18884 31.1921L29.5222 36.4324Z" fill="var(--fill-0, white)"/>
</g>
</svg>
