<svg preserveAspectRatio="none" width="100%" height="100%" overflow="visible" style="display: block;" viewBox="0 0 100.515 100.515" fill="none" xmlns="http://www.w3.org/2000/svg">
<g id="Group">
<path id="Vector" d="M50.2572 100.515C78.0136 100.515 100.514 78.0136 100.514 50.2573C100.514 22.501 78.0136 3.73011e-05 50.2572 3.73011e-05C22.5009 3.73011e-05 0 22.501 0 50.2573C0 78.0136 22.5009 100.515 50.2572 100.515Z" fill="var(--fill-0, #F26F37)"/>
<path id="Vector_2" d="M45.2741 69.429C44.1435 69.4308 43.043 69.065 42.1385 68.3867L42.0844 68.3445L30.2733 59.3095C29.18 58.4586 28.4674 57.2099 28.291 55.8357C28.1145 54.4615 28.4886 53.0733 29.3315 51.9737C30.1745 50.8742 31.418 50.1525 32.7909 49.9661C34.1637 49.7797 35.5547 50.1436 36.6603 50.9785L44.3107 56.8454L62.3888 33.2605C62.8077 32.7133 63.3303 32.2541 63.9267 31.909C64.5232 31.564 65.1818 31.3398 65.865 31.2495C66.5481 31.1591 67.2424 31.2042 67.908 31.3823C68.5737 31.5604 69.1978 31.868 69.7445 32.2874L69.6326 32.4431L69.7478 32.2874C70.8514 33.1348 71.5736 34.3854 71.7561 35.7648C71.9385 37.1442 71.5662 38.5396 70.7209 39.6448L49.457 67.3735C48.965 68.0124 48.3325 68.5293 47.6085 68.8843C46.8846 69.2393 46.0885 69.4227 45.2822 69.4204L45.2741 69.429Z" fill="var(--fill-0, white)"/>
</g>
</svg>
