<svg preserveAspectRatio="none" width="100%" height="100%" overflow="visible" style="display: block;" viewBox="0 0 90.7751 144.149" fill="none" xmlns="http://www.w3.org/2000/svg">
<g id="Group">
<path id="Vector" d="M27.819 90.9983C29.4808 91.3518 31.1145 90.2911 31.468 88.6293C31.8214 86.9674 30.7608 85.3337 29.0989 84.9803C27.4371 84.6269 25.8034 85.6875 25.4499 87.3494C25.0965 89.0112 26.1572 90.6449 27.819 90.9983Z" fill="var(--fill-0, #FF6584)"/>
<path id="Vector_2" d="M35.1383 124.639C36.8002 124.993 38.4339 123.932 38.7873 122.27C39.1407 120.608 38.0801 118.975 36.4182 118.621C34.7564 118.268 33.1227 119.329 32.7692 120.99C32.4158 122.652 33.4765 124.286 35.1383 124.639Z" fill="var(--fill-0, #F26F37)"/>
<path id="Vector_3" d="M3.95379 49.4205C7.06271 50.2893 9.92146 51.8826 12.2957 54.0697C14.6699 56.2568 16.4919 58.9755 17.6124 62.0028C17.9249 62.8596 18.3659 63.821 17.8398 64.6835C17.6498 65.0162 17.3525 65.2746 16.9966 65.4164C16.6407 65.5583 16.2471 65.5752 15.8804 65.4643C15.4345 65.2663 15.0664 64.9268 14.8332 64.4983C14.6 64.0698 14.5147 63.5763 14.5905 63.0944C14.6663 62.6125 14.899 62.1691 15.2524 61.8329C15.6059 61.4966 16.0605 61.2865 16.5456 61.2349C18.9291 60.7675 20.8259 62.6769 22.3632 64.2053C25.862 67.6878 29.8195 71.0059 34.6686 72.3489C39.157 73.5919 44.4127 72.8462 47.7808 69.4409C48.3695 68.8476 47.407 67.9737 46.8205 68.5668C43.48 71.946 38.1106 72.2702 33.8295 70.728C31.2901 69.7545 28.9361 68.3535 26.8695 66.5857C25.7915 65.6987 24.7643 64.7519 23.7686 63.7741C22.8353 62.7765 21.8153 61.8636 20.7206 61.0463C18.8734 59.7846 16.1779 59.2788 14.359 60.8931C12.66 62.3986 13.0472 65.5879 15.1468 66.5595C15.6103 66.7573 16.1157 66.8371 16.6177 66.7916C17.1196 66.7462 17.6025 66.577 18.023 66.2991C18.4435 66.0213 18.7886 65.6435 19.0272 65.1996C19.2659 64.7556 19.3908 64.2595 19.3906 63.7555C19.3943 62.657 18.8211 61.4597 18.3911 60.4696C17.101 57.4877 15.1585 54.8331 12.7066 52.7013C10.2547 50.5695 7.35594 49.0147 4.22367 48.1515C3.41532 47.9376 3.14733 49.2081 3.95379 49.4205Z" fill="var(--fill-0, #CCCCCC)"/>
<path id="Vector_4" d="M87.6305 20.2966C85.158 19.6058 82.8843 18.3389 80.996 16.5997C79.1076 14.8605 77.6583 12.6985 76.7668 10.291C76.5183 9.60928 76.1677 8.8439 76.5858 8.15911C76.7369 7.89446 76.9734 7.68891 77.2565 7.57605C77.5396 7.4632 77.8526 7.44972 78.1443 7.53781C78.4976 7.6963 78.789 7.96663 78.9735 8.30711C79.158 8.64758 79.2253 9.03929 79.1651 9.42183C79.1049 9.80436 78.9206 10.1565 78.6405 10.4239C78.3604 10.6913 78.0001 10.8591 77.6152 10.9014C75.7198 11.272 74.2116 9.75478 72.9879 8.53901C70.2053 5.76921 67.0577 3.13015 63.1993 2.0614C59.6317 1.07274 55.4492 1.66542 52.7703 4.37399C52.3014 4.84792 53.0672 5.54245 53.5338 5.06912C56.1902 2.38286 60.4609 2.12119 63.8659 3.34992C65.8857 4.12432 67.758 5.23879 69.4017 6.64503C70.2592 7.35021 71.0761 8.10366 71.8681 8.88279C72.6103 9.67628 73.4215 10.4023 74.2921 11.0524C75.7614 12.0562 77.9032 12.4576 79.3506 11.1738C79.666 10.8638 79.9045 10.4842 80.0469 10.0655C80.1894 9.64685 80.2318 9.20063 80.171 8.76257C80.1101 8.32452 79.9476 7.90679 79.6963 7.54281C79.4451 7.17882 79.1122 6.87867 78.7242 6.66638C78.3555 6.50896 77.9536 6.44544 77.5543 6.48152C77.155 6.5176 76.771 6.65215 76.4365 6.87311C76.102 7.09408 75.8275 7.39456 75.6376 7.74764C75.4478 8.10072 75.3485 8.49539 75.3486 8.89628C75.4412 9.81079 75.7112 10.6985 76.1434 11.5097C77.17 13.8818 78.7156 15.9934 80.6664 17.689C82.6173 19.3846 84.9236 20.621 87.4156 21.307C88.0586 21.4775 88.272 20.4662 87.6305 20.2966Z" fill="var(--fill-0, #CCCCCC)"/>
<path id="Vector_5" d="M83.1265 52.7849L80.1175 52.1449L78.0147 62.0322L81.0237 62.6722L83.1265 52.7849Z" fill="var(--fill-0, #CCCCCC)"/>
<path id="Vector_6" d="M35.9292 35.5416L38.4666 33.8934L33.0513 25.5569L30.514 27.2051L35.9292 35.5416Z" fill="var(--fill-0, #B3B3B3)"/>
<path id="Vector_7" d="M12.4933 141.612L14.1415 144.149L22.478 138.734L20.8297 136.197L12.4933 141.612Z" fill="var(--fill-0, #FF6584)"/>
</g>
</svg>
