<svg preserveAspectRatio="none" width="100%" height="100%" overflow="visible" style="display: block;" viewBox="0 0 83.5351 137.962" fill="none" xmlns="http://www.w3.org/2000/svg">
<g id="Group">
<path id="Vector" d="M59.9999 105.217C62.2324 104.66 63.591 102.399 63.0344 100.167C62.4778 97.9344 60.2167 96.5758 57.9842 97.1324C55.7517 97.689 54.3931 99.9501 54.9497 102.183C55.5064 104.415 57.7674 105.774 59.9999 105.217Z" fill="var(--fill-0, #F26F37)"/>
<path id="Vector_2" d="M22.9575 6.49451C24.5521 6.09694 25.5225 4.48199 25.1249 2.88742C24.7273 1.29285 23.1124 0.322491 21.5178 0.720062C19.9232 1.11763 18.9529 2.73258 19.3504 4.32715C19.748 5.92172 21.363 6.89208 22.9575 6.49451Z" fill="var(--fill-0, #FF6584)"/>
<path id="Vector_3" d="M40.0929 84.4189C41.6875 84.0213 42.6578 82.4064 42.2602 80.8118C41.8627 79.2172 40.2477 78.2469 38.6532 78.6444C37.0586 79.042 36.0882 80.657 36.4858 82.2515C36.8834 83.8461 38.4983 84.8165 40.0929 84.4189Z" fill="var(--fill-0, #F26F37)"/>
<path id="Vector_4" d="M55.364 130.907C56.9586 130.509 57.929 128.894 57.5314 127.3C57.1338 125.705 55.5189 124.735 53.9243 125.132C52.3297 125.53 51.3594 127.145 51.7569 128.74C52.1545 130.334 53.7695 131.304 55.364 130.907Z" fill="var(--fill-0, #E6E6E6)"/>
<path id="Vector_5" d="M4.32701 34.4536C5.92158 34.0561 6.89194 32.4411 6.49437 30.8465C6.0968 29.252 4.48185 28.2816 2.88728 28.6792C1.29271 29.0767 0.322354 30.6917 0.719925 32.2863C1.1175 33.8808 2.73245 34.8512 4.32701 34.4536Z" fill="var(--fill-0, #CCCCCC)"/>
<path id="Vector_6" d="M83.0703 87.7171C80.7193 86.918 78.5911 85.5731 76.8603 83.7927C75.1294 82.0123 73.8452 79.847 73.1127 77.4744C72.9086 76.801 72.6114 76.0449 73.0516 75.4058C73.2117 75.1583 73.451 74.9725 73.7304 74.8786C74.0098 74.7848 74.3128 74.7885 74.5899 74.8891C74.9226 75.0611 75.1895 75.3377 75.3494 75.6764C75.5094 76.015 75.5536 76.3969 75.4751 76.7631C75.3966 77.1293 75.1998 77.4595 74.9151 77.7028C74.6304 77.9462 74.2735 78.0891 73.8996 78.1096C72.0489 78.3676 70.6718 76.8199 69.5572 75.5812C67.0153 72.7604 64.118 70.0411 60.449 68.803C57.0531 67.6572 52.9845 68.0075 50.253 70.4804C49.7753 70.9132 50.4776 71.6229 50.9548 71.1924C53.6635 68.7397 57.8038 68.717 61.0251 70.0835C62.9344 70.9389 64.6832 72.1149 66.1956 73.5604C66.9864 74.2871 67.7347 75.0583 68.4585 75.8518C69.1333 76.6577 69.8783 77.4022 70.6847 78.0765C72.0502 79.1239 74.0972 79.6265 75.5647 78.4639C75.8857 78.1812 76.1361 77.8274 76.2959 77.4307C76.4557 77.034 76.5204 76.6054 76.485 76.1792C76.4495 75.753 76.3149 75.341 76.0917 74.9761C75.8686 74.6112 75.5632 74.3036 75.1999 74.0779C74.8522 73.906 74.4673 73.823 74.0796 73.8364C73.692 73.8498 73.3137 73.9592 72.9787 74.1548C72.6437 74.3503 72.3624 74.626 72.1601 74.9569C71.9578 75.2879 71.8408 75.6639 71.8196 76.0512C71.8601 76.9394 72.0735 77.8111 72.4477 78.6175C73.3127 80.9634 74.693 83.0854 76.4869 84.8271C78.2808 86.5688 80.4426 87.8858 82.8131 88.6811C83.4249 88.8801 83.6847 87.9155 83.0742 87.7173L83.0703 87.7171Z" fill="var(--fill-0, #CCCCCC)"/>
<path id="Vector_7" d="M11.1745 67.48L13.6815 68.9864L18.6309 60.7493L16.1238 59.2429L11.1745 67.48Z" fill="var(--fill-0, #B3B3B3)"/>
<path id="Vector_8" d="M10.8029 136.954C13.0354 136.397 14.3939 134.136 13.8373 131.904C13.2807 129.671 11.0196 128.313 8.78713 128.869C6.55461 129.426 5.19604 131.687 5.75267 133.92C6.3093 136.152 8.57034 137.511 10.8029 136.954Z" fill="var(--fill-0, #F26F37)"/>
</g>
</svg>
