<svg preserveAspectRatio="none" width="100%" height="100%" overflow="visible" style="display: block;" viewBox="0 0 90.7754 144.15" fill="none" xmlns="http://www.w3.org/2000/svg">
<g id="Group">
<path id="Vector" d="M27.8192 90.9985C29.4811 91.3519 31.1148 90.2912 31.4682 88.6294C31.8216 86.9676 30.761 85.3339 29.0991 84.9804C27.4373 84.627 25.8036 85.6877 25.4502 87.3495C25.0967 89.0113 26.1574 90.645 27.8192 90.9985Z" fill="var(--fill-0, #FF6584)"/>
<path id="Vector_2" d="M35.1385 124.639C36.8004 124.993 38.4341 123.932 38.7875 122.27C39.141 120.609 38.0803 118.975 36.4184 118.621C34.7566 118.268 33.1229 119.329 32.7695 120.991C32.416 122.652 33.4767 124.286 35.1385 124.639Z" fill="var(--fill-0, #F26F37)"/>
<path id="Vector_3" d="M3.95401 49.4206C7.06294 50.2895 9.92168 51.8828 12.2959 54.0699C14.6701 56.257 16.4921 58.9756 17.6127 62.003C17.9251 62.8597 18.3661 63.8212 17.84 64.6836C17.65 65.0163 17.3528 65.2747 16.9968 65.4166C16.6409 65.5584 16.2474 65.5753 15.8806 65.4645C15.4347 65.2665 15.0667 64.9269 14.8335 64.4984C14.6002 64.0699 14.5149 63.5765 14.5907 63.0946C14.6665 62.6127 14.8992 62.1692 15.2527 61.833C15.6061 61.4968 16.0607 61.2866 16.5458 61.235C18.9293 60.7676 20.8261 62.677 22.3635 64.2054C25.8622 67.6879 29.8197 71.006 34.6688 72.349C39.1572 73.5921 44.4129 72.8463 47.781 69.441C48.3697 68.8478 47.4072 67.9738 46.8207 68.567C43.4803 71.9461 38.1108 72.2703 33.8297 70.7282C31.2904 69.7547 28.9364 68.3536 26.8697 66.5858C25.7917 65.6989 24.7645 64.752 23.7688 63.7743C22.8355 62.7766 21.8155 61.8637 20.7208 61.0464C18.8736 59.7848 16.1782 59.2789 14.3593 60.8932C12.6602 62.3987 13.0474 65.5881 15.147 66.5596C15.6106 66.7575 16.1159 66.8372 16.6179 66.7918C17.1199 66.7463 17.6027 66.5771 18.0232 66.2993C18.4438 66.0214 18.7888 65.6436 19.0275 65.1997C19.2661 64.7558 19.391 64.2596 19.3908 63.7556C19.3945 62.6572 18.8213 61.4598 18.3914 60.4697C17.1012 57.4878 15.1587 54.8333 12.7068 52.7015C10.2549 50.5696 7.35616 49.0149 4.22389 48.1517C3.41554 47.9377 3.14755 49.2082 3.95401 49.4206Z" fill="var(--fill-0, #CCCCCC)"/>
<path id="Vector_4" d="M87.6307 20.2968C85.1582 19.6059 82.8846 18.339 80.9962 16.5998C79.1078 14.8606 77.6585 12.6987 76.767 10.2912C76.5185 9.60943 76.1679 8.84405 76.586 8.15926C76.7371 7.89461 76.9736 7.68906 77.2567 7.5762C77.5398 7.46334 77.8528 7.44986 78.1445 7.53796C78.4979 7.69645 78.7892 7.96678 78.9737 8.30725C79.1582 8.64773 79.2255 9.03944 79.1653 9.42197C79.1052 9.80451 78.9208 10.1566 78.6407 10.424C78.3606 10.6914 78.0003 10.8592 77.6154 10.9016C75.72 11.2722 74.2118 9.75493 72.9882 8.53916C70.2055 5.76936 67.058 3.1303 63.1995 2.06155C59.6319 1.07289 55.4494 1.66556 52.7705 4.37414C52.3016 4.84807 53.0675 5.54259 53.534 5.06927C56.1904 2.383 60.4611 2.12133 63.8661 3.35006C65.8859 4.12446 67.7582 5.23893 69.4019 6.64517C70.2594 7.35035 71.0763 8.10381 71.8683 8.88293C72.6105 9.67642 73.4217 10.4025 74.2923 11.0525C75.7616 12.0564 77.9034 12.4578 79.3508 11.174C79.6662 10.8639 79.9047 10.4844 80.0471 10.0657C80.1896 9.64699 80.2321 9.20077 80.1712 8.76272C80.1103 8.32467 79.9478 7.90694 79.6966 7.54295C79.4454 7.17896 79.1124 6.87882 78.7245 6.66653C78.3558 6.5091 77.9538 6.44559 77.5545 6.48167C77.1553 6.51775 76.7712 6.65229 76.4367 6.87326C76.1022 7.09422 75.8277 7.3947 75.6379 7.74779C75.448 8.10087 75.3487 8.49553 75.3488 8.89642C75.4414 9.81094 75.7114 10.6986 76.1437 11.5098C77.1702 13.882 78.7158 15.9936 80.6666 17.6892C82.6175 19.3848 84.9238 20.6211 87.4158 21.3072C88.0588 21.4776 88.2722 20.4664 87.6307 20.2968Z" fill="var(--fill-0, #CCCCCC)"/>
<path id="Vector_5" d="M83.1268 52.785L80.1177 52.145L78.0149 62.0324L81.0239 62.6723L83.1268 52.785Z" fill="var(--fill-0, #CCCCCC)"/>
<path id="Vector_6" d="M35.9294 35.5417L38.4668 33.8935L33.0516 25.5571L30.5142 27.2053L35.9294 35.5417Z" fill="var(--fill-0, #B3B3B3)"/>
<path id="Vector_7" d="M12.4935 141.612L14.1417 144.149L22.4782 138.734L20.83 136.197L12.4935 141.612Z" fill="var(--fill-0, #FF6584)"/>
</g>
</svg>
