<svg preserveAspectRatio="none" width="100%" height="100%" overflow="visible" style="display: block;" viewBox="0 0 90.7753 144.149" fill="none" xmlns="http://www.w3.org/2000/svg">
<g id="Group">
<path id="Vector" d="M27.8192 90.9984C29.481 91.3519 31.1148 90.2912 31.4682 88.6294C31.8216 86.9675 30.761 85.3338 29.0991 84.9804C27.4373 84.6269 25.8036 85.6876 25.4501 87.3494C25.0967 89.0113 26.1574 90.645 27.8192 90.9984Z" fill="var(--fill-0, #FF6584)"/>
<path id="Vector_2" d="M35.1385 124.639C36.8004 124.993 38.4341 123.932 38.7875 122.27C39.1409 120.609 38.0803 118.975 36.4184 118.621C34.7566 118.268 33.1229 119.329 32.7695 120.99C32.416 122.652 33.4767 124.286 35.1385 124.639Z" fill="var(--fill-0, #F26F37)"/>
<path id="Vector_3" d="M3.954 49.4206C7.06292 50.2894 9.92167 51.8827 12.2959 54.0698C14.6701 56.2569 16.4921 58.9756 17.6127 62.0029C17.9251 62.8597 18.3661 63.8211 17.84 64.6835C17.65 65.0163 17.3527 65.2747 16.9968 65.4165C16.6409 65.5584 16.2474 65.5753 15.8806 65.4644C15.4347 65.2664 15.0667 64.9269 14.8334 64.4984C14.6002 64.0699 14.5149 63.5764 14.5907 63.0945C14.6665 62.6126 14.8992 62.1692 15.2526 61.8329C15.6061 61.4967 16.0607 61.2866 16.5458 61.235C18.9293 60.7676 20.8261 62.677 22.3635 64.2054C25.8622 67.6879 29.8197 71.006 34.6688 72.349C39.1572 73.592 44.4129 72.8463 47.781 69.4409C48.3697 68.8477 47.4072 67.9737 46.8207 68.5669C43.4802 71.9461 38.1108 72.2703 33.8297 70.7281C31.2903 69.7546 28.9363 68.3536 26.8697 66.5857C25.7917 65.6988 24.7645 64.752 23.7688 63.7742C22.8355 62.7765 21.8155 61.8637 20.7208 61.0464C18.8736 59.7847 16.1781 59.2789 14.3592 60.8932C12.6602 62.3987 13.0474 65.588 15.147 66.5596C15.6105 66.7574 16.1159 66.8372 16.6179 66.7917C17.1199 66.7463 17.6027 66.5771 18.0232 66.2992C18.4437 66.0214 18.7888 65.6436 19.0275 65.1997C19.2661 64.7557 19.391 64.2596 19.3908 63.7555C19.3945 62.6571 18.8213 61.4597 18.3914 60.4697C17.1012 57.4878 15.1587 54.8332 12.7068 52.7014C10.2549 50.5696 7.35615 49.0148 4.22388 48.1516C3.41553 47.9377 3.14754 49.2082 3.954 49.4206Z" fill="var(--fill-0, #CCCCCC)"/>
<path id="Vector_4" d="M87.6307 20.2967C85.1582 19.6059 82.8845 18.339 80.9962 16.5998C79.1078 14.8606 77.6585 12.6986 76.767 10.2911C76.5185 9.60938 76.1679 8.84399 76.586 8.1592C76.7371 7.89455 76.9736 7.689 77.2567 7.57615C77.5398 7.46329 77.8528 7.44981 78.1445 7.5379C78.4978 7.69639 78.7892 7.96672 78.9737 8.3072C79.1582 8.64767 79.2255 9.03938 79.1653 9.42192C79.1052 9.80445 78.9208 10.1566 78.6407 10.424C78.3606 10.6914 78.0003 10.8592 77.6154 10.9015C75.72 11.2721 74.2118 9.75488 72.9881 8.5391C70.2055 5.76931 67.058 3.13024 63.1995 2.0615C59.6319 1.07283 55.4494 1.66551 52.7705 4.37408C52.3016 4.84802 53.0674 5.54254 53.534 5.06921C56.1904 2.38295 60.4611 2.12128 63.8661 3.35001C65.8859 4.12441 67.7582 5.23888 69.4019 6.64512C70.2594 7.3503 71.0763 8.10375 71.8683 8.88288C72.6105 9.67637 73.4217 10.4024 74.2923 11.0525C75.7616 12.0563 77.9034 12.4577 79.3508 11.1739C79.6662 10.8639 79.9047 10.4843 80.0471 10.0656C80.1896 9.64694 80.2321 9.20072 80.1712 8.76267C80.1103 8.32461 79.9478 7.90689 79.6966 7.5429C79.4453 7.17891 79.1124 6.87876 78.7245 6.66647C78.3558 6.50905 77.9538 6.44554 77.5545 6.48161C77.1553 6.51769 76.7712 6.65224 76.4367 6.8732C76.1022 7.09417 75.8277 7.39465 75.6378 7.74773C75.448 8.10082 75.3487 8.49548 75.3488 8.89637C75.4414 9.81088 75.7114 10.6986 76.1436 11.5098C77.1702 13.8819 78.7158 15.9935 80.6666 17.6891C82.6175 19.3847 84.9238 20.6211 87.4158 21.3071C88.0588 21.4776 88.2722 20.4663 87.6307 20.2967Z" fill="var(--fill-0, #CCCCCC)"/>
<path id="Vector_5" d="M83.1267 52.7849L80.1177 52.145L78.0149 62.0323L81.0239 62.6723L83.1267 52.7849Z" fill="var(--fill-0, #CCCCCC)"/>
<path id="Vector_6" d="M35.9294 35.5417L38.4668 33.8935L33.0515 25.557L30.5142 27.2052L35.9294 35.5417Z" fill="var(--fill-0, #B3B3B3)"/>
<path id="Vector_7" d="M12.4935 141.612L14.1417 144.149L22.4782 138.734L20.8299 136.197L12.4935 141.612Z" fill="var(--fill-0, #FF6584)"/>
</g>
</svg>
