<svg preserveAspectRatio="none" width="100%" height="100%" overflow="visible" style="display: block;" viewBox="0 0 100.515 100.515" fill="none" xmlns="http://www.w3.org/2000/svg">
<g id="Group">
<path id="Vector" d="M50.2572 100.514C78.0136 100.514 100.514 78.0136 100.514 50.2572C100.514 22.5009 78.0136 0 50.2572 0C22.5009 0 0 22.5009 0 50.2572C0 78.0136 22.5009 100.514 50.2572 100.514Z" fill="var(--fill-0, #F26F37)"/>
<path id="Vector_2" d="M45.2741 69.429C44.1435 69.4308 43.043 69.065 42.1385 68.3866L42.0844 68.3445L30.2733 59.3095C29.18 58.4586 28.4674 57.2099 28.291 55.8357C28.1145 54.4614 28.4886 53.0732 29.3315 51.9737C30.1745 50.8741 31.418 50.1525 32.7909 49.966C34.1637 49.7796 35.5547 50.1435 36.6603 50.9785L44.3107 56.8453L62.3888 33.2605C62.8077 32.7133 63.3303 32.2541 63.9267 31.909C64.5232 31.5639 65.1818 31.3398 65.865 31.2494C66.5481 31.159 67.2424 31.2042 67.908 31.3823C68.5737 31.5604 69.1978 31.8679 69.7445 32.2873L69.6326 32.443L69.7478 32.2873C70.8514 33.1347 71.5736 34.3854 71.7561 35.7648C71.9385 37.1441 71.5662 38.5396 70.7209 39.6447L49.457 67.3735C48.965 68.0124 48.3325 68.5293 47.6085 68.8843C46.8846 69.2392 46.0885 69.4227 45.2822 69.4203L45.2741 69.429Z" fill="var(--fill-0, white)"/>
</g>
</svg>
