<svg preserveAspectRatio="none" width="100%" height="100%" overflow="visible" style="display: block;" viewBox="0 0 83.5351 137.962" fill="none" xmlns="http://www.w3.org/2000/svg">
<g id="Group">
<path id="Vector" d="M59.9999 105.217C62.2324 104.66 63.591 102.399 63.0343 100.167C62.4777 97.9342 60.2167 96.5756 57.9841 97.1322C55.7516 97.6888 54.3931 99.9499 54.9497 102.182C55.5063 104.415 57.7674 105.773 59.9999 105.217Z" fill="var(--fill-0, #F26F37)"/>
<path id="Vector_2" d="M22.9575 6.49431C24.552 6.09674 25.5224 4.48179 25.1248 2.88722C24.7273 1.29265 23.1123 0.322295 21.5177 0.719866C19.9232 1.11744 18.9528 2.73239 19.3504 4.32696C19.748 5.92153 21.3629 6.89188 22.9575 6.49431Z" fill="var(--fill-0, #FF6584)"/>
<path id="Vector_3" d="M40.0928 84.4187C41.6874 84.0211 42.6578 82.4062 42.2602 80.8116C41.8626 79.217 40.2477 78.2467 38.6531 78.6442C37.0585 79.0418 36.0882 80.6568 36.4857 82.2513C36.8833 83.8459 38.4983 84.8163 40.0928 84.4187Z" fill="var(--fill-0, #F26F37)"/>
<path id="Vector_4" d="M55.364 130.907C56.9585 130.509 57.9289 128.894 57.5313 127.3C57.1338 125.705 55.5188 124.735 53.9242 125.132C52.3297 125.53 51.3593 127.145 51.7569 128.739C52.1544 130.334 53.7694 131.304 55.364 130.907Z" fill="var(--fill-0, #E6E6E6)"/>
<path id="Vector_5" d="M4.32696 34.4534C5.92153 34.0559 6.89188 32.4409 6.49431 30.8463C6.09674 29.2518 4.48179 28.2814 2.88722 28.679C1.29265 29.0766 0.322295 30.6915 0.719866 32.2861C1.11744 33.8806 2.73239 34.851 4.32696 34.4534Z" fill="var(--fill-0, #CCCCCC)"/>
<path id="Vector_6" d="M83.0702 87.7169C80.7192 86.9178 78.5911 85.5729 76.8602 83.7925C75.1294 82.0121 73.8451 79.8468 73.1126 77.4742C72.9085 76.8008 72.6114 76.0447 73.0515 75.4056C73.2116 75.1581 73.4509 74.9723 73.7304 74.8784C74.0098 74.7846 74.3128 74.7883 74.5898 74.8889C74.9225 75.0609 75.1894 75.3375 75.3494 75.6762C75.5094 76.0148 75.5535 76.3967 75.475 76.7629C75.3965 77.1291 75.1997 77.4593 74.915 77.7026C74.6303 77.946 74.2735 78.0889 73.8995 78.1094C72.0488 78.3674 70.6717 76.8197 69.5572 75.581C67.0152 72.7602 64.118 70.0409 60.4489 68.8028C57.0531 67.657 52.9844 68.0073 50.2529 70.4802C49.7752 70.913 50.4776 71.6227 50.9547 71.1922C53.6634 68.7395 57.8037 68.7168 61.025 70.0833C62.9343 70.9387 64.6831 72.1147 66.1956 73.5602C66.9863 74.2869 67.7347 75.0581 68.4585 75.8515C69.1333 76.6575 69.8783 77.402 70.6847 78.0763C72.0502 79.1237 74.0972 79.6263 75.5646 78.4637C75.8856 78.181 76.136 77.8272 76.2958 77.4305C76.4556 77.0338 76.5204 76.6052 76.4849 76.179C76.4495 75.7528 76.3148 75.3407 76.0917 74.9759C75.8685 74.611 75.5631 74.3034 75.1999 74.0777C74.8522 73.9058 74.4672 73.8228 74.0796 73.8362C73.6919 73.8496 73.3136 73.959 72.9786 74.1546C72.6436 74.3501 72.3624 74.6258 72.1601 74.9567C71.9578 75.2877 71.8408 75.6637 71.8195 76.051C71.8601 76.9392 72.0734 77.8109 72.4477 78.6173C73.3127 80.9632 74.693 83.0852 76.4869 84.8269C78.2808 86.5685 80.4426 87.8856 82.813 88.6809C83.4248 88.8799 83.6847 87.9153 83.0741 87.7171L83.0702 87.7169Z" fill="var(--fill-0, #CCCCCC)"/>
<path id="Vector_7" d="M11.1744 67.4798L13.6815 68.9862L18.6308 60.7491L16.1238 59.2427L11.1744 67.4798Z" fill="var(--fill-0, #B3B3B3)"/>
<path id="Vector_8" d="M10.8028 136.954C13.0353 136.397 14.3939 134.136 13.8373 131.904C13.2806 129.671 11.0196 128.313 8.78707 128.869C6.55455 129.426 5.19598 131.687 5.75261 133.919C6.30924 136.152 8.57028 137.511 10.8028 136.954Z" fill="var(--fill-0, #F26F37)"/>
</g>
</svg>
