<svg preserveAspectRatio="none" width="100%" height="100%" overflow="visible" style="display: block;" viewBox="0 0 32 32" fill="none" xmlns="http://www.w3.org/2000/svg">
<g id="export">
<path id="Vector" d="M20.3525 29.667H11.6592C5.1125 29.667 2.3125 26.867 2.3125 20.3204V20.147C2.3125 14.227 4.64583 11.3737 9.8725 10.8804C10.4058 10.8404 10.9125 11.2404 10.9658 11.787C11.0192 12.3337 10.6192 12.827 10.0592 12.8804C5.8725 13.267 4.3125 15.2404 4.3125 20.1604V20.3337C4.3125 25.7604 6.2325 27.6804 11.6592 27.6804H20.3525C25.7792 27.6804 27.6992 25.7604 27.6992 20.3337V20.1604C27.6992 15.2137 26.1125 13.2404 21.8458 12.8804C21.2992 12.827 20.8858 12.347 20.9392 11.8004C20.9925 11.2537 21.4592 10.8404 22.0192 10.8937C27.3258 11.347 29.6992 14.2137 29.6992 20.1737V20.347C29.6992 26.867 26.8992 29.667 20.3525 29.667Z" fill="var(--fill-0, #343434)"/>
<path id="Vector_2" d="M16 20.9989C15.4533 20.9989 15 20.5455 15 19.9989V4.82552C15 4.27885 15.4533 3.82552 16 3.82552C16.5467 3.82552 17 4.27885 17 4.82552V19.9989C17 20.5455 16.5467 20.9989 16 20.9989Z" fill="var(--fill-0, #343434)"/>
<path id="Vector_3" d="M20.4717 8.79927C20.2183 8.79927 19.965 8.70594 19.765 8.50594L16.005 4.74594L12.245 8.50594C11.8583 8.8926 11.2183 8.8926 10.8317 8.50594C10.445 8.11927 10.445 7.47927 10.8317 7.0926L15.2983 2.62594C15.685 2.23927 16.325 2.23927 16.7117 2.62594L21.1783 7.0926C21.565 7.47927 21.565 8.11927 21.1783 8.50594C20.9917 8.70594 20.725 8.79927 20.4717 8.79927Z" fill="var(--fill-0, #343434)"/>
<g id="Vector_4" opacity="0">
</g>
</g>
</svg>
