<svg preserveAspectRatio="none" width="100%" height="100%" overflow="visible" style="display: block;" viewBox="0 0 718.848 546" fill="none" xmlns="http://www.w3.org/2000/svg">
<g id="undraw_about-me_5990 1" clip-path="url(#clip0_0_90)">
<path id="Vector" d="M529.953 375.468C529.941 407.116 521.132 438.137 504.508 465.068C487.884 491.998 464.1 513.776 435.814 527.97C434.366 528.698 432.904 529.406 431.426 530.093C393.246 547.811 349.877 550.843 309.602 538.61C305.65 537.402 301.76 536.058 297.932 534.578C262.924 521.036 233.361 496.326 213.823 464.276C194.285 432.227 185.863 394.628 189.862 357.307C193.862 319.985 210.06 285.025 235.946 257.843C261.831 230.662 295.96 212.777 333.042 206.961C341.77 205.61 350.589 204.933 359.421 204.936C453.604 204.936 529.953 281.284 529.953 375.468Z" fill="var(--fill-0, #ECF5CB)"/>
<path id="Vector_2" d="M542.324 399.773C567.746 372.171 580.827 330.846 567.12 295.914C546.925 331.375 514.839 358.549 476.537 372.629C461.746 378.005 444.735 382.445 436.701 395.978C431.701 404.398 431.347 414.938 433.612 424.464C435.878 433.991 440.532 442.752 445.141 451.392L445.169 453.837C481.172 443.255 516.902 427.375 542.324 399.773Z" fill="var(--fill-0, #5379F4)"/>
<path id="Vector_3" d="M566.355 296.1C562.039 326.859 548.142 355.476 526.636 377.887C522 382.661 516.881 387.099 510.964 390.214C505.173 393.205 498.686 394.591 492.178 394.228C486.104 394.012 479.915 393.087 473.893 394.351C467.546 395.683 462.524 399.781 459.266 405.309C455.28 412.073 453.961 419.866 452.937 427.532C451.8 436.043 450.753 444.901 445.893 452.226C445.304 453.114 446.716 453.976 447.304 453.089C455.76 440.345 452.91 424.071 458.611 410.33C461.271 403.918 465.879 398.269 472.775 396.327C478.805 394.629 485.188 395.577 491.337 395.85C497.793 396.136 503.939 395.342 509.851 392.608C515.898 389.812 521.201 385.564 525.939 380.93C536.606 370.342 545.541 358.143 552.418 344.78C560.351 329.572 565.624 313.119 568.009 296.133C568.156 295.082 566.501 295.056 566.355 296.1Z" fill="var(--fill-0, white)"/>
<path id="Vector_4" d="M533.986 371.079C538.236 374.177 543.448 375.663 548.693 375.272C553.937 374.881 558.872 372.639 562.616 368.946C563.371 368.196 562.241 366.987 561.485 367.738C558.005 371.184 553.408 373.272 548.524 373.626C543.639 373.98 538.789 372.576 534.849 369.668C533.992 369.037 533.134 370.451 533.986 371.079Z" fill="var(--fill-0, white)"/>
<path id="Vector_5" d="M495.244 394.744C493.484 384.139 495.785 373.26 501.69 364.276C502.276 363.386 500.864 362.524 500.279 363.413C494.152 372.773 491.78 384.099 493.636 395.131C493.814 396.183 495.421 395.79 495.244 394.744Z" fill="var(--fill-0, white)"/>
<path id="Vector_6" d="M558.163 329.414C556.269 328.558 554.617 327.245 553.356 325.593C552.095 323.941 551.263 322.001 550.937 319.949C550.773 318.896 549.166 319.29 549.329 320.336C549.7 322.602 550.621 324.743 552.01 326.571C553.4 328.4 555.216 329.86 557.3 330.825C557.489 330.932 557.711 330.964 557.923 330.913C558.134 330.862 558.318 330.733 558.437 330.551C558.55 330.364 558.585 330.139 558.534 329.926C558.483 329.713 558.349 329.529 558.163 329.414Z" fill="var(--fill-0, white)"/>
<path id="Vector_7" d="M446.401 256.299C446.484 256.96 446.568 257.62 446.642 258.291C447.723 267.177 448.081 276.136 447.711 285.08C447.693 285.771 447.665 286.472 447.628 287.162C446.507 308.701 441.398 329.844 432.559 349.517C429.035 357.342 424.92 364.888 420.251 372.089C413.802 382.033 406.019 392.303 403.311 403.468C403.016 404.63 402.792 405.808 402.642 406.998L442.185 453.682C442.328 453.743 442.461 453.813 442.604 453.875L444.098 455.811C444.365 455.456 444.634 455.083 444.9 454.728C445.056 454.523 445.203 454.308 445.358 454.103C445.459 453.963 445.56 453.822 445.659 453.702C445.693 453.655 445.726 453.608 445.749 453.571C445.848 453.45 445.928 453.328 446.016 453.216C447.526 451.133 449.023 449.035 450.509 446.923C450.519 446.914 450.519 446.914 450.521 446.895C461.8 430.774 471.831 413.57 478.933 395.391C479.146 394.844 479.371 394.288 479.566 393.72C482.722 385.507 485.201 377.051 486.979 368.435C487.937 363.714 488.656 358.947 489.132 354.153C490.339 341.765 489.59 329.263 486.912 317.107C481.57 292.876 468.538 270.622 447.981 257.302C447.455 256.961 446.937 256.631 446.401 256.299Z" fill="var(--fill-0, #E6F1FF)"/>
<path id="Vector_8" d="M445.897 256.906C460.97 284.064 467.103 315.28 463.425 346.122C462.597 352.725 461.182 359.351 458.333 365.4C455.51 371.275 451.166 376.287 445.751 379.916C440.77 383.4 435.272 386.387 431.225 391.022C426.959 395.907 425.417 402.203 426.144 408.579C427.033 416.379 430.673 423.395 434.47 430.132C438.686 437.613 443.184 445.316 443.713 454.091C443.778 455.154 445.424 454.992 445.36 453.931C444.438 438.663 432.365 427.385 428.644 412.981C426.907 406.261 427.186 398.976 431.522 393.273C435.314 388.287 440.982 385.201 446.055 381.717C451.383 378.058 455.812 373.724 458.886 367.982C462.031 362.108 463.707 355.524 464.701 348.971C466.843 334.096 466.632 318.976 464.078 304.166C461.255 287.247 455.56 270.935 447.237 255.937C446.722 255.009 445.385 255.984 445.897 256.906Z" fill="var(--fill-0, white)"/>
<path id="Vector_9" d="M465.194 336.261C470.452 336.176 475.509 334.224 479.461 330.755C483.413 327.285 486.003 322.524 486.769 317.321C486.92 316.267 485.291 315.983 485.139 317.037C484.435 321.884 482.022 326.319 478.335 329.542C474.648 332.765 469.931 334.565 465.034 334.615C463.969 334.627 464.136 336.273 465.194 336.261Z" fill="var(--fill-0, white)"/>
<path id="Vector_10" d="M448.509 378.482C440.719 371.074 436.006 361.001 435.312 350.273C435.244 349.21 433.598 349.372 433.666 350.433C434.409 361.596 439.334 372.068 447.459 379.759C448.233 380.491 449.28 379.21 448.509 378.482Z" fill="var(--fill-0, white)"/>
<path id="Vector_11" d="M459.414 288.438C457.386 288.895 455.277 288.841 453.275 288.281C451.273 287.721 449.442 286.673 447.945 285.231C447.18 284.489 446.134 285.771 446.894 286.508C448.555 288.094 450.579 289.249 452.789 289.872C455 290.496 457.329 290.568 459.574 290.084C459.789 290.056 459.986 289.947 460.124 289.779C460.262 289.611 460.331 289.397 460.317 289.181C460.295 288.963 460.187 288.763 460.018 288.623C459.849 288.484 459.632 288.418 459.414 288.438Z" fill="var(--fill-0, white)"/>
<path id="Vector_12" d="M717.948 33.1292H0.899936C0.659404 33.1239 0.430522 33.0246 0.262296 32.8526C0.0940698 32.6806 -0.000124517 32.4495 -0.000124517 32.2089C-0.000124517 31.9683 0.0940698 31.7373 0.262296 31.5653C0.430522 31.3933 0.659404 31.294 0.899936 31.2887H717.948C718.188 31.294 718.417 31.3933 718.585 31.5653C718.753 31.7373 718.848 31.9683 718.848 32.2089C718.848 32.4495 718.753 32.6806 718.585 32.8526C718.417 33.0246 718.188 33.1239 717.948 33.1292Z" fill="var(--fill-0, #CACACA)"/>
<path id="Vector_13" d="M21.1613 20.2457C26.6301 20.2457 31.0635 15.7135 31.0635 10.1228C31.0635 4.53215 26.6301 0 21.1613 0C15.6925 0 11.2592 4.53215 11.2592 10.1228C11.2592 15.7135 15.6925 20.2457 21.1613 20.2457Z" fill="var(--fill-0, #3F3D56)"/>
<path id="Vector_14" d="M55.3693 20.2457C60.8381 20.2457 65.2714 15.7135 65.2714 10.1228C65.2714 4.53215 60.8381 0 55.3693 0C49.9005 0 45.4671 4.53215 45.4671 10.1228C45.4671 15.7135 49.9005 20.2457 55.3693 20.2457Z" fill="var(--fill-0, #3F3D56)"/>
<path id="Vector_15" d="M89.5767 20.2457C95.0455 20.2457 99.4788 15.7135 99.4788 10.1228C99.4788 4.53215 95.0455 0 89.5767 0C84.1079 0 79.6745 4.53215 79.6745 10.1228C79.6745 15.7135 84.1079 20.2457 89.5767 20.2457Z" fill="var(--fill-0, #3F3D56)"/>
<path id="Vector_16" d="M697.452 6.19173H673.146C672.665 6.18116 672.207 5.98261 671.871 5.6386C671.534 5.29459 671.346 4.83247 671.346 4.35122C671.346 3.86997 671.534 3.40785 671.871 3.06384C672.207 2.71983 672.665 2.52128 673.146 2.51071H697.452C697.933 2.52128 698.391 2.71983 698.727 3.06384C699.064 3.40785 699.252 3.86997 699.252 4.35122C699.252 4.83247 699.064 5.29459 698.727 5.6386C698.391 5.98261 697.933 6.18116 697.452 6.19173Z" fill="var(--fill-0, #3F3D56)"/>
<path id="Vector_17" d="M697.452 13.0936H673.147C672.666 13.083 672.208 12.8845 671.871 12.5404C671.535 12.1964 671.346 11.7343 671.346 11.2531C671.346 10.7719 671.535 10.3098 671.871 9.96582C672.208 9.62181 672.666 9.42323 673.147 9.41261H697.452C697.933 9.42323 698.391 9.62181 698.728 9.96582C699.064 10.3098 699.252 10.7719 699.252 11.2531C699.252 11.7343 699.064 12.1964 698.728 12.5404C698.391 12.8845 697.933 13.083 697.452 13.0936Z" fill="var(--fill-0, #3F3D56)"/>
<path id="Vector_18" d="M697.452 19.9958H673.147C672.666 19.9852 672.208 19.7866 671.871 19.4426C671.535 19.0986 671.346 18.6365 671.346 18.1553C671.346 17.6741 671.535 17.212 671.871 16.868C672.208 16.524 672.666 16.3254 673.147 16.3148H697.452C697.933 16.3254 698.391 16.524 698.728 16.868C699.064 17.212 699.252 17.6741 699.252 18.1553C699.252 18.6365 699.064 19.0986 698.728 19.4426C698.391 19.7866 697.933 19.9852 697.452 19.9958Z" fill="var(--fill-0, #3F3D56)"/>
<path id="Vector_19" d="M194.408 444.853C174.125 422.831 163.688 389.861 174.624 361.991C190.736 390.282 216.336 411.963 246.894 423.196C258.695 427.486 272.267 431.028 278.677 441.825C282.666 448.543 282.949 456.952 281.141 464.552C279.334 472.153 275.62 479.143 271.944 486.037L271.921 487.987C243.197 479.545 214.69 466.875 194.408 444.853Z" fill="var(--fill-0, #E6F1FF)"/>
<path id="Vector_20" d="M175.235 362.14C178.678 386.68 189.766 409.512 206.924 427.392C210.549 431.307 214.769 434.626 219.428 437.226C224.048 439.613 229.223 440.719 234.415 440.43C239.262 440.257 244.199 439.519 249.004 440.527C251.455 441.08 253.762 442.144 255.773 443.651C257.785 445.158 259.455 447.073 260.674 449.27C263.854 454.667 264.906 460.884 265.723 467C266.631 473.79 267.465 480.858 271.343 486.702C271.813 487.41 270.687 488.098 270.218 487.391C263.471 477.223 265.744 464.239 261.196 453.276C259.074 448.16 255.397 443.653 249.896 442.104C245.085 440.749 239.992 441.506 235.087 441.723C230.026 442.08 224.954 441.192 220.315 439.137C215.539 436.782 211.198 433.631 207.479 429.82C198.969 421.372 191.841 411.64 186.354 400.978C180.025 388.845 175.818 375.718 173.915 362.166C173.798 361.327 175.118 361.306 175.235 362.14Z" fill="var(--fill-0, white)"/>
<path id="Vector_21" d="M201.06 421.96C197.669 424.431 193.51 425.617 189.326 425.305C185.142 424.993 181.205 423.205 178.218 420.258C177.615 419.66 178.517 418.695 179.12 419.295C181.896 422.044 185.564 423.71 189.461 423.992C193.358 424.274 197.227 423.154 200.371 420.834C201.055 420.331 201.74 421.459 201.06 421.96Z" fill="var(--fill-0, white)"/>
<path id="Vector_22" d="M231.969 440.841C233.373 432.38 231.537 423.7 226.826 416.532C226.358 415.822 227.485 415.134 227.951 415.843C232.84 423.311 234.732 432.348 233.252 441.15C233.11 441.989 231.828 441.675 231.969 440.841Z" fill="var(--fill-0, white)"/>
<path id="Vector_23" d="M181.77 388.719C183.281 388.036 184.599 386.988 185.605 385.67C186.612 384.352 187.275 382.804 187.535 381.167C187.666 380.327 188.948 380.641 188.818 381.476C188.522 383.284 187.787 384.992 186.679 386.451C185.57 387.909 184.121 389.075 182.459 389.844C182.308 389.93 182.13 389.955 181.962 389.914C181.793 389.874 181.647 389.771 181.551 389.626C181.461 389.476 181.433 389.297 181.474 389.127C181.515 388.957 181.621 388.811 181.77 388.719Z" fill="var(--fill-0, white)"/>
<path id="Vector_24" d="M270.938 330.385C270.872 330.912 270.805 331.439 270.746 331.974C269.883 339.063 269.598 346.211 269.893 353.347C269.907 353.899 269.93 354.458 269.959 355.009C270.853 372.193 274.93 389.062 281.982 404.758C284.794 411.001 288.076 417.021 291.802 422.766C296.947 430.7 303.157 438.893 305.317 447.801C305.552 448.728 305.731 449.669 305.85 450.618L274.302 487.864C274.188 487.912 274.082 487.969 273.967 488.018L272.776 489.562C272.563 489.279 272.348 488.981 272.135 488.699C272.011 488.535 271.894 488.363 271.77 488.2C271.689 488.088 271.609 487.976 271.53 487.88C271.503 487.842 271.477 487.805 271.458 487.775C271.379 487.679 271.316 487.581 271.245 487.492C270.041 485.83 268.846 484.156 267.661 482.471C267.652 482.464 267.652 482.464 267.651 482.449C258.652 469.587 250.649 455.861 244.983 441.357C244.813 440.92 244.634 440.477 244.478 440.024C241.96 433.472 239.982 426.725 238.564 419.851C237.799 416.084 237.226 412.281 236.846 408.456C235.883 398.572 236.48 388.598 238.617 378.9C242.879 359.567 253.277 341.812 269.677 331.185C270.097 330.913 270.51 330.65 270.938 330.385Z" fill="var(--fill-0, #5379F4)"/>
<path id="Vector_25" d="M271.34 330.87C259.314 352.537 254.421 377.442 257.355 402.049C257.893 407.358 259.264 412.548 261.418 417.43C263.67 422.117 267.136 426.116 271.456 429.011C275.43 431.791 279.817 434.174 283.046 437.872C284.67 439.789 285.871 442.028 286.57 444.442C287.269 446.856 287.449 449.39 287.1 451.879C286.39 458.102 283.486 463.7 280.457 469.075C277.093 475.043 273.505 481.189 273.082 488.19C273.031 489.038 271.718 488.909 271.769 488.062C272.504 475.881 282.136 466.883 285.105 455.392C286.491 450.029 286.268 444.217 282.809 439.668C279.783 435.689 275.262 433.228 271.214 430.448C266.958 427.685 263.443 423.923 260.977 419.489C258.581 414.733 257.012 409.604 256.338 404.322C254.629 392.454 254.796 380.391 256.835 368.575C259.086 355.076 263.631 342.062 270.27 330.096C270.682 329.356 271.749 330.134 271.34 330.87Z" fill="var(--fill-0, white)"/>
<path id="Vector_26" d="M255.944 394.181C251.749 394.113 247.714 392.556 244.561 389.788C241.408 387.02 239.342 383.221 238.731 379.07C238.61 378.229 239.91 378.002 240.031 378.844C240.593 382.71 242.518 386.249 245.46 388.82C248.401 391.392 252.165 392.828 256.072 392.868C256.921 392.878 256.788 394.191 255.944 394.181Z" fill="var(--fill-0, white)"/>
<path id="Vector_27" d="M269.256 427.866C275.471 421.956 279.231 413.92 279.785 405.361C279.839 404.513 281.152 404.641 281.098 405.488C280.505 414.394 276.576 422.749 270.094 428.885C269.476 429.47 268.641 428.447 269.256 427.866Z" fill="var(--fill-0, white)"/>
<path id="Vector_28" d="M260.555 356.026C262.173 356.391 263.856 356.348 265.453 355.901C267.05 355.454 268.511 354.618 269.705 353.467C270.316 352.875 271.15 353.898 270.544 354.486C269.219 355.752 267.604 356.673 265.84 357.171C264.077 357.668 262.219 357.726 260.428 357.339C260.256 357.317 260.099 357.23 259.989 357.096C259.879 356.962 259.824 356.792 259.835 356.619C259.853 356.445 259.938 356.285 260.073 356.174C260.208 356.063 260.381 356.01 260.555 356.026Z" fill="var(--fill-0, white)"/>
<path id="Vector_29" d="M664.771 98.0011H101.359C100.524 98.0021 99.6969 97.8385 98.9252 97.5196C98.1535 97.2008 97.4522 96.7329 96.8614 96.1428C96.2706 95.5528 95.802 94.852 95.4822 94.0807C95.1624 93.3094 94.9979 92.4826 94.9979 91.6476C94.9979 90.8126 95.1624 89.9858 95.4822 89.2145C95.802 88.4431 96.2706 87.7424 96.8614 87.1523C97.4522 86.5622 98.1535 86.0944 98.9252 85.7756C99.6969 85.4567 100.524 85.2931 101.359 85.2941H664.771C665.606 85.2931 666.433 85.4567 667.204 85.7756C667.976 86.0944 668.677 86.5622 669.268 87.1523C669.859 87.7424 670.328 88.4431 670.647 89.2145C670.967 89.9858 671.132 90.8126 671.132 91.6476C671.132 92.4826 670.967 93.3094 670.647 94.0807C670.328 94.852 669.859 95.5528 669.268 96.1428C668.677 96.7329 667.976 97.2008 667.204 97.5196C666.433 97.8385 665.606 98.0021 664.771 98.0011Z" fill="var(--fill-0, #F26F37)"/>
<path id="Vector_30" d="M664.77 123.107H101.358C99.6732 123.107 98.0571 122.437 96.8655 121.246C95.6739 120.054 95.0045 118.438 95.0045 116.753C95.0045 115.068 95.6739 113.452 96.8655 112.26C98.0571 111.069 99.6732 110.399 101.358 110.399H664.77C666.455 110.399 668.071 111.069 669.263 112.26C670.454 113.452 671.124 115.068 671.124 116.753C671.124 118.438 670.454 120.054 669.263 121.246C668.071 122.437 666.455 123.107 664.77 123.107Z" fill="var(--fill-0, #F26F37)"/>
<path id="Vector_31" d="M554.403 148.212H101.358C99.6732 148.212 98.0571 147.543 96.8655 146.351C95.6739 145.16 95.0045 143.544 95.0045 141.859C95.0045 140.173 95.6739 138.557 96.8655 137.366C98.0571 136.174 99.6732 135.505 101.358 135.505H554.403C556.089 135.505 557.705 136.174 558.896 137.366C560.088 138.557 560.757 140.173 560.757 141.859C560.757 143.544 560.088 145.16 558.896 146.351C557.705 147.543 556.089 148.212 554.403 148.212Z" fill="var(--fill-0, #F26F37)"/>
<path id="Vector_32" d="M627.952 353.626C634.302 357.936 641.361 362.786 643.407 370.653C643.877 372.334 644.003 374.092 643.776 375.822C643.55 377.552 642.976 379.219 642.088 380.721C640.459 383.437 638.031 385.571 635.663 387.628C632.85 390.071 630.015 392.472 627.832 395.522C626.832 396.919 629.142 398.251 630.133 396.867C634.179 391.212 640.904 388.009 644.465 381.94C648.677 374.763 645.866 366.251 640.647 360.44C637.389 356.814 633.305 354.045 629.297 351.325C627.875 350.359 626.54 352.667 627.952 353.626Z" fill="var(--fill-0, #E6E7E8)"/>
<path id="Vector_33" d="M650.157 353.626C656.507 357.936 663.565 362.786 665.611 370.653C666.082 372.334 666.207 374.092 665.981 375.822C665.754 377.552 665.18 379.219 664.293 380.721C662.663 383.437 660.236 385.571 657.868 387.628C655.054 390.071 652.219 392.472 650.036 395.522C649.037 396.919 651.347 398.251 652.337 396.867C656.383 391.212 663.108 388.009 666.669 381.94C670.881 374.763 668.07 366.251 662.851 360.44C659.594 356.814 655.509 354.045 651.502 351.325C650.079 350.359 648.744 352.667 650.157 353.626Z" fill="var(--fill-0, #E6E7E8)"/>
<path id="Vector_34" d="M109.56 353.626C103.21 357.936 96.1519 362.786 94.1056 370.653C93.6352 372.334 93.5095 374.092 93.736 375.822C93.9626 377.552 94.5368 379.219 95.424 380.721C97.0534 383.437 99.4811 385.571 101.849 387.628C104.662 390.071 107.498 392.472 109.681 395.522C110.68 396.919 108.37 398.251 107.38 396.867C103.333 391.212 96.6088 388.009 93.0475 381.94C88.8358 374.763 91.6465 366.251 96.8659 360.44C100.123 356.814 104.207 354.045 108.215 351.325C109.638 350.359 110.972 352.667 109.56 353.626Z" fill="var(--fill-0, #E6E7E8)"/>
<path id="Vector_35" d="M87.3553 353.626C81.0055 357.936 73.9472 362.786 71.9009 370.653C71.4305 372.334 71.3048 374.092 71.5314 375.822C71.7579 377.552 72.3321 379.219 73.2193 380.721C74.8488 383.437 77.2765 385.571 79.6445 387.628C82.4577 390.071 85.2931 392.472 87.4758 395.522C88.4754 396.919 86.1654 398.251 85.1751 396.867C81.1286 391.212 74.404 388.009 70.8428 381.94C66.6311 374.763 69.4417 366.251 74.6612 360.44C77.9184 356.814 82.0028 354.045 86.0105 351.325C87.433 350.359 88.7677 352.667 87.3553 353.626Z" fill="var(--fill-0, #E6E7E8)"/>
<path id="Vector_36" d="M332.29 261.385C343.734 261.385 353.011 252.107 353.011 240.663C353.011 229.219 343.734 219.941 332.29 219.941C320.845 219.941 311.568 229.219 311.568 240.663C311.568 252.107 320.845 261.385 332.29 261.385Z" fill="var(--fill-0, #2F2E41)"/>
<path id="Vector_37" d="M365.444 340.127C394.437 340.127 417.939 316.625 417.939 287.632C417.939 258.64 394.437 235.137 365.444 235.137C336.452 235.137 312.949 258.64 312.949 287.632C312.949 316.625 336.452 340.127 365.444 340.127Z" fill="var(--fill-0, #2F2E41)"/>
<path id="Vector_38" d="M369.788 340.115C393.347 340.115 412.446 321.016 412.446 297.457C412.446 273.897 393.347 254.798 369.788 254.798C346.228 254.798 327.13 273.897 327.13 297.457C327.13 321.016 346.228 340.115 369.788 340.115Z" fill="var(--fill-0, #9E616A)"/>
<path id="Vector_39" d="M398.758 253.972C391.283 249.415 382.72 246.95 373.967 246.834C365.213 246.719 356.589 248.957 348.996 253.316C341.403 257.674 335.121 263.992 330.806 271.61C326.491 279.227 324.302 287.864 324.467 296.617C346.204 302.074 369.04 306.251 392.22 297.922L397.694 284.525L400.922 297.932C407.981 300.818 415.059 303.259 422.136 297.904C422.425 289.176 420.418 280.525 416.315 272.815C412.213 265.106 406.158 258.608 398.758 253.972Z" fill="var(--fill-0, #2F2E41)"/>
<path id="Vector_40" d="M288.538 376.356H288.482C285.672 376.383 282.919 375.558 280.587 373.991C278.255 372.423 276.452 370.185 275.417 367.573C274.303 364.927 274.017 362.006 274.596 359.195C275.175 356.383 276.592 353.813 278.66 351.822L278.9 351.585C286.974 343.454 291.523 332.471 291.563 321.012C291.573 304.831 282.515 289.876 274.023 277.128L272.458 274.783C263.996 262.124 255.245 249.034 253.018 233.954C250.653 217.94 256.717 201.036 268.467 190.89C280.663 180.359 299.05 177.529 313.181 184.007C327.828 190.723 337.25 207.453 335.097 222.922L335.075 223.082L329.928 227.712L329.738 227.698C317.551 226.759 305.411 234.789 301.488 246.36C298.847 254.149 299.797 262.683 301.216 270.747C304.225 287.823 309.283 304.475 316.282 320.339C316.637 321.145 316.997 321.954 317.361 322.766C321.44 331.901 325.659 341.345 324.043 351.128C321.49 366.589 305.08 375.637 290.935 376.3C290.134 376.338 289.335 376.357 288.538 376.356Z" fill="var(--fill-0, #2F2E41)"/>
<path id="Vector_41" d="M474.113 501.679C462.602 512.143 449.717 520.988 435.815 527.97L432.875 518.501L430.503 527.73L431.427 530.092C430.405 530.572 429.375 531.034 428.345 531.487C427.465 531.878 426.586 532.26 425.707 532.633C393.507 546.159 357.942 549.519 323.778 542.261C322.881 542.074 321.993 541.879 321.105 541.674C317.224 540.786 313.387 539.756 309.603 538.61L314.897 518.928L310.189 495.133L297.932 534.578C284.019 529.192 270.874 522.001 258.834 513.19C262.6 488.845 267.014 459.623 269.741 439.399C270.727 432.01 271.491 425.828 271.917 421.511C272.263 417.466 273.055 413.472 274.28 409.601C274.881 407.729 275.651 405.915 276.58 404.183C276.775 403.801 276.989 403.437 277.202 403.081C277.406 402.735 277.619 402.406 277.841 402.087C283.295 393.96 290.294 394.457 290.294 394.457L311.184 390.38L317.712 389.101L320.368 388.586L323.619 387.947C326.102 387.462 328.456 386.463 330.529 385.012C332.602 383.562 334.347 381.693 335.653 379.527L344.526 364.792C346.407 361.677 349.179 359.198 352.485 357.677C352.884 357.5 353.293 357.331 353.701 357.171C355.506 356.495 357.407 356.114 359.333 356.043L371.892 355.554L376.972 355.35L383.909 355.084C385.546 355.019 387.183 355.18 388.776 355.563H388.785C389.344 355.697 389.877 355.848 390.419 356.034C394.615 357.451 398.146 360.358 400.34 364.205L406.54 375.077C407.935 377.522 409.88 379.608 412.222 381.17C414.564 382.732 417.238 383.726 420.031 384.074L422.412 384.367L425.085 384.705L431.844 385.549L444.19 387.094L444.217 387.565C446.579 387.751 453.312 389.137 457.824 398.756C458.126 399.387 458.41 400.062 458.685 400.763C460.265 405.028 461.272 409.485 461.679 414.015C461.705 414.21 461.723 414.406 461.741 414.601C463.251 429.994 469.104 469.243 474.113 501.679Z" fill="var(--fill-0, #2F2E41)"/>
<path id="Vector_42" d="M373.525 541.932L372.682 545.867L370.079 545.307L370.854 541.698C373.296 530.311 374.399 518.678 374.14 507.034L370.87 359.827L370.808 357.18L370.772 355.572L372.122 355.546L373.437 355.519L373.57 361.63L376.805 507.299C377.063 518.932 375.963 530.555 373.525 541.932Z" fill="var(--fill-0, #F26F37)"/>
<path id="Vector_43" d="M269.137 443.805L306.6 448.921L309.221 449.276L310.819 449.498L310.633 450.83L310.446 452.136L304.389 451.31L268.772 446.443L269.137 443.805Z" fill="var(--fill-0, #F26F37)"/>
<path id="Vector_44" d="M380.942 358.006L376.972 355.35L372.122 355.546L371.891 355.555L370.808 357.18L370.87 359.827L373.57 361.63L376.989 363.912C377.377 364.173 377.813 364.355 378.271 364.447C378.729 364.54 379.201 364.541 379.659 364.451C380.118 364.36 380.554 364.18 380.943 363.921C381.332 363.662 381.666 363.329 381.926 362.94C382.186 362.552 382.367 362.116 382.458 361.657C382.549 361.199 382.549 360.727 382.458 360.269C382.366 359.81 382.185 359.375 381.925 358.986C381.665 358.598 381.331 358.265 380.942 358.006ZM380.444 361.949C380.248 362.241 379.971 362.468 379.646 362.602C379.321 362.736 378.964 362.77 378.619 362.701C378.275 362.632 377.959 362.462 377.71 362.213C377.462 361.965 377.294 361.648 377.225 361.303C377.157 360.959 377.193 360.602 377.327 360.277C377.462 359.953 377.69 359.675 377.982 359.48C378.274 359.285 378.618 359.181 378.969 359.181C379.32 359.181 379.664 359.285 379.956 359.48C380.347 359.744 380.618 360.151 380.71 360.614C380.801 361.077 380.706 361.557 380.444 361.949Z" fill="var(--fill-0, #F26F37)"/>
</g>
<defs>
<clipPath id="clip0_0_90">
<rect width="718.848" height="546" fill="white"/>
</clipPath>
</defs>
</svg>
