<svg width="243" height="179" viewBox="0 0 243 179" fill="none" xmlns="http://www.w3.org/2000/svg">
<g clip-path="url(#clip0_1_163)">
<path d="M171.875 131.286H41.4779C40.316 131.285 39.2021 130.823 38.3806 130.001C37.559 129.179 37.0969 128.066 37.0955 126.904V20.7268C37.0969 19.5649 37.559 18.451 38.3806 17.6295C39.2021 16.8079 40.316 16.3458 41.4779 16.3444H171.875C173.037 16.3458 174.15 16.8079 174.972 17.6295C175.794 18.451 176.256 19.5649 176.257 20.7268V126.904C176.256 128.066 175.794 129.179 174.972 130.001C174.15 130.823 173.037 131.285 171.875 131.286Z" fill="#4A4949"/>
<path d="M44.4346 19.4637C43.3154 19.465 42.2425 19.9102 41.4511 20.7016C40.6597 21.493 40.2146 22.566 40.2133 23.6852V123.948C40.2146 125.067 40.6598 126.14 41.4512 126.931C42.2425 127.723 43.3155 128.168 44.4346 128.169H133.686C144.146 128.157 154.175 123.997 161.571 116.6C168.968 109.204 173.128 99.1753 173.14 88.7151V23.6852C173.139 22.566 172.694 21.493 171.902 20.7016C171.111 19.9102 170.038 19.4651 168.919 19.4638L44.4346 19.4637Z" fill="#C8E4F6"/>
<path d="M148.097 64.5564H124.453C123.96 64.5558 123.487 64.3597 123.138 64.011C122.789 63.6623 122.593 63.1895 122.593 62.6964V50.9283C122.593 50.4351 122.789 49.9624 123.138 49.6137C123.487 49.265 123.96 49.0688 124.453 49.0683H148.097C148.59 49.0688 149.063 49.265 149.411 49.6137C149.76 49.9624 149.956 50.4351 149.957 50.9283C151.42 55.0927 151.628 59.0498 149.957 62.6964C149.956 63.1895 149.76 63.6623 149.411 64.011C149.063 64.3597 148.59 64.5558 148.097 64.5564Z" fill="#4A4949"/>
<path d="M145.296 63.4191H125.208C124.789 63.4186 124.387 63.252 124.091 62.9557C123.795 62.6595 123.628 62.2578 123.628 61.8388V51.8406C123.628 51.4217 123.795 51.02 124.091 50.7237C124.387 50.4275 124.789 50.2608 125.208 50.2604H145.296C145.715 50.2608 146.116 50.4275 146.413 50.7237C146.709 51.02 146.876 51.4217 146.876 51.8406C148.232 55.4014 148.45 58.7708 146.876 61.8388C146.876 62.2578 146.709 62.6595 146.413 62.9557C146.116 63.252 145.715 63.4186 145.296 63.4191Z" fill="white"/>
<path d="M144.212 70.7208H128.285C127.816 70.7215 127.367 70.5361 127.035 70.2053C126.703 69.8746 126.516 69.4255 126.515 68.957C126.514 68.4884 126.699 68.0387 127.03 67.7067C127.361 67.3748 127.81 67.1877 128.278 67.1866H144.212C144.68 67.1875 145.129 67.3741 145.46 67.7054C145.79 68.0367 145.976 68.4856 145.976 68.9537C145.976 69.4218 145.79 69.8708 145.46 70.2021C145.129 70.5334 144.68 70.7199 144.212 70.7208Z" fill="#4A4949"/>
<path d="M133.503 52.96C133.32 52.9607 133.145 53.0338 133.015 53.1635C132.886 53.2931 132.813 53.4687 132.813 53.652V61.1423C132.812 61.2633 132.844 61.3822 132.905 61.487C132.965 61.5918 133.052 61.679 133.156 61.7398C133.261 61.8005 133.38 61.8328 133.501 61.8332C133.621 61.8337 133.74 61.8024 133.845 61.7425L140.457 57.9728C140.563 57.9123 140.651 57.8247 140.713 57.7189C140.774 57.6132 140.806 57.493 140.806 57.3707C140.805 57.2485 140.773 57.1285 140.711 57.0231C140.649 56.9176 140.56 56.8305 140.454 56.7706L133.843 53.0497C133.739 52.9911 133.622 52.9602 133.503 52.96Z" fill="#4A4949"/>
<path d="M229.959 164.669C229.594 164.205 229.099 163.861 228.537 163.682C227.975 163.502 227.372 163.495 226.806 163.661L226.683 163.698L225.572 168.032C225.406 167.386 225.05 165.928 224.826 164.501L224.807 164.383L224.696 164.431C223.536 164.944 222.445 165.602 221.449 166.388C219.685 167.803 218.251 169.585 217.245 171.61C216.24 173.636 215.687 175.855 215.626 178.116L215.624 178.199L215.622 178.251L215.769 178.199L218.924 177.071C220.32 177.195 221.726 177.004 223.04 176.514C224.354 176.024 225.541 175.248 226.516 174.24C227.791 172.896 228.665 171.167 229.51 169.494C229.758 169.007 230.011 168.504 230.27 168.021C230.559 167.495 230.684 166.894 230.628 166.297C230.573 165.7 230.34 165.132 229.959 164.669Z" fill="#9E616A"/>
<path d="M149.408 54.1462C149.471 54.4743 149.605 54.7845 149.802 55.055C149.998 55.3255 150.251 55.5497 150.543 55.7118C150.835 55.8739 151.159 55.97 151.493 55.9932C151.826 56.0165 152.16 55.9664 152.472 55.8465L161.899 66.8131L163.093 62.7647L153.747 52.7314C153.51 52.2208 153.095 51.8146 152.58 51.5897C152.064 51.3649 151.484 51.337 150.949 51.5114C150.414 51.6858 149.962 52.0503 149.677 52.5359C149.393 53.0216 149.297 53.5945 149.408 54.1462Z" fill="#FFB8B8"/>
<path d="M187.401 175.577H184.281L182.797 163.544H187.401L187.401 175.577Z" fill="#FFB6B6"/>
<path d="M187.318 174.558L183.987 173.203L183.891 173.164L182.052 174.558C181.014 174.558 180.018 174.971 179.284 175.705C178.55 176.439 178.137 177.435 178.137 178.474V178.601H188.196V174.558H187.318Z" fill="#2F2E41"/>
<path d="M209.656 175.577H206.536L205.052 163.544H209.657L209.656 175.577Z" fill="#FFB6B6"/>
<path d="M209.573 174.558L206.242 173.203L206.146 173.164L204.307 174.558C203.269 174.558 202.273 174.971 201.539 175.705C200.805 176.439 200.392 177.435 200.392 178.474V178.601H210.451V174.558H209.573Z" fill="#2F2E41"/>
<path d="M202.293 103.719C202.293 103.719 206.206 107.79 206.206 111.135C206.206 114.48 205.228 119.072 206.206 120.078C207.184 121.083 208.407 122.306 206.94 123.773C205.472 125.24 204.739 125.974 205.717 126.952C206.695 127.931 206.206 145.05 206.206 145.05L211.342 168.039H204.871L196.668 145.05L194.467 125.974L187.349 144.317L188.134 168.237L181.37 168.039L178.57 142.605C178.57 142.605 182.728 118.41 181.994 117.79C181.26 117.17 181.994 115.918 181.994 115.918L183.951 106.654L202.293 103.719Z" fill="#2F2E41"/>
<path d="M194.632 74.8554C194.632 74.8554 195.963 69.6124 189.833 68.1092C183.703 66.606 166.181 64.6747 166.181 64.6747L157.325 55.2783L154.325 59.6358L164.252 71.9718L187.773 76.8031L194.632 74.8554Z" fill="#5379F4"/>
<path d="M155.783 59.3146C156.058 58.9583 156.273 58.5596 156.42 58.1343L157.69 55.0138L157.361 55C156.904 54.9142 156.435 54.9258 155.984 55.0339C155.532 55.1421 155.109 55.3444 154.741 55.6276C154.374 55.9109 154.07 56.2686 153.85 56.6774C153.63 57.0862 153.499 57.5369 153.466 57.9998C153.424 58.4003 153.496 58.8044 153.673 59.1659C153.763 59.3451 153.895 59.5004 154.057 59.6191C154.219 59.7377 154.406 59.8164 154.604 59.8486C154.829 59.8606 155.054 59.8184 155.259 59.7254C155.464 59.6325 155.644 59.4916 155.783 59.3146Z" fill="#4A4949"/>
<path d="M182.702 107.903L181.968 113.222C181.968 113.222 183.436 114.798 184.169 114.601C184.903 114.404 187.593 113.257 187.593 113.257C187.593 113.257 190.772 114.995 192.484 115.191C194.196 115.388 203.245 114.207 203.49 113.616C203.734 113.025 206.577 110.711 206.577 110.711L205.446 103.963L182.702 107.903Z" fill="#4A4949"/>
<path d="M206.53 89.2968C206.53 89.2968 205.909 94.4253 206.398 94.8973C206.887 95.3669 205.909 98.3384 204.93 100.295C203.952 102.251 205.664 102.496 205.664 103.963C205.664 105.431 206.398 110.811 206.398 110.811C206.398 110.811 198.816 111.3 197.593 110.077C196.371 108.855 194.414 109.833 191.724 112.523C189.034 115.213 183.191 113.012 181.968 111.789C180.745 110.567 182.919 106.164 183.653 105.311C184.387 104.457 182.946 105.445 182.213 102.741C181.479 100.036 182.919 100.295 184.142 99.072C185.365 97.8492 184.142 95.6481 183.164 93.4471C182.186 91.246 182.919 74.8602 182.919 70.9471C182.919 67.0341 188.3 66.545 188.3 66.545L190.43 63.867L191.995 61.8982L195.062 61.776L195.143 61.7735L198.109 61.6537L199.55 63.3314L202.729 67.0341L206.398 67.7678C209.332 68.7461 208.599 74.8602 208.599 74.8602L206.53 89.2968Z" fill="#5379F4"/>
<path d="M194.911 60.715C198.383 60.715 201.198 57.9004 201.198 54.4284C201.198 50.9565 198.383 48.1418 194.911 48.1418C191.439 48.1418 188.625 50.9565 188.625 54.4284C188.625 57.9004 191.439 60.715 194.911 60.715Z" fill="#FFB6B6"/>
<path d="M202.2 52.3137C200.471 51.2532 200.693 48.4805 199.027 47.5123C198.199 47.035 197.267 46.7648 196.313 46.7246C195.358 46.6845 194.407 46.8757 193.542 47.282C192.369 46.7799 190.963 47.1806 190.024 48.0871C189.085 48.9937 188.577 50.3311 188.427 51.676C188.319 53.0274 188.416 54.3873 188.715 55.7096C188.808 55.1783 188.901 54.647 188.995 54.1158L193.951 53.0326C193.512 53.4268 193.073 53.821 192.634 54.2152C194.879 54.7261 197.234 54.3579 199.215 53.186C201.373 54.1532 200.982 56.3254 199.088 59.2081C199.822 60.4309 204.17 53.5219 202.2 52.3137Z" fill="#2F2E41"/>
<path d="M199.55 63.3315C199.536 63.3429 199.522 63.3535 199.506 63.3633C198.988 63.6722 198.395 63.833 197.792 63.8279C197.002 63.8938 196.218 63.648 195.608 63.1431C195.288 62.8399 194.013 63.4806 193.177 63.8353C192.3 64.1989 191.316 64.2102 190.43 63.867L191.996 61.8983L194.575 61.3264H195.219L198.11 61.6537L199.55 63.3315Z" fill="#4A4949"/>
<path d="M241.761 178.901L154.253 179C154.202 179 154.152 178.991 154.106 178.972C154.059 178.953 154.017 178.924 153.981 178.889C153.945 178.854 153.917 178.812 153.897 178.765C153.878 178.719 153.868 178.669 153.867 178.619C153.867 178.568 153.877 178.518 153.896 178.472C153.915 178.425 153.943 178.383 153.978 178.347C154.014 178.311 154.056 178.283 154.102 178.263C154.149 178.244 154.198 178.233 154.249 178.233H154.253L241.761 178.134C241.863 178.135 241.96 178.175 242.031 178.247C242.103 178.319 242.143 178.416 242.143 178.518C242.143 178.619 242.103 178.716 242.031 178.788C241.96 178.86 241.863 178.9 241.761 178.901Z" fill="#CACACA"/>
<path d="M136.982 50.1364H136.338V4.07391H161.667V4.71795H136.982V50.1364Z" fill="#3F3D56"/>
<path d="M181.365 0H164.298C163.188 0 162.123 0.441051 161.338 1.22612C160.553 2.0112 160.112 3.07598 160.112 4.18624C160.112 5.2965 160.553 6.3613 161.338 7.14637C162.123 7.93144 163.188 8.37249 164.298 8.37249H181.365C182.475 8.37249 183.54 7.93144 184.325 7.14637C185.11 6.3613 185.551 5.2965 185.551 4.18624C185.551 3.07598 185.11 2.0112 184.325 1.22612C183.54 0.441051 182.475 0 181.365 0Z" fill="#F26F37"/>
<path d="M136.286 54.3505C138.411 54.3505 140.133 52.6282 140.133 50.5037C140.133 48.3791 138.411 46.6569 136.286 46.6569C134.162 46.6569 132.439 48.3791 132.439 50.5037C132.439 52.6282 134.162 54.3505 136.286 54.3505Z" fill="#F26F37"/>
<path d="M89.9309 64.9583L106.807 61.0532L111.651 59.9322C112.257 59.792 112.005 58.8592 111.399 58.9994L94.5229 62.9046L89.6789 64.0256C89.073 64.1658 89.3247 65.0986 89.9309 64.9583Z" fill="#A8C8FF"/>
<path d="M107.357 54.7883L116.392 58.9441C116.7 59.0507 116.989 59.2071 117.246 59.4069C117.496 59.6512 117.314 59.8861 117.111 60.0988C116.503 60.6666 115.861 61.1967 115.188 61.686L111.339 64.8151C110.856 65.208 111.538 65.8934 112.016 65.5043L115.368 62.7789L117.045 61.4162C117.52 61.0301 118.098 60.6361 118.288 60.0211C118.689 58.729 117.107 58.2152 116.228 57.8108L112.294 56.001L107.849 53.9566C107.289 53.6989 106.793 54.5287 107.357 54.7883Z" fill="#A8C8FF"/>
<path d="M232.028 86.4245C230.419 85.3334 228.464 84.9279 226.552 84.7903C224.38 84.6721 222.203 84.6747 220.031 84.798C217.775 84.8874 215.523 85.0506 213.276 85.2878C211.032 85.5253 208.798 85.8364 206.573 86.2213C204.581 86.5314 202.609 86.9629 200.67 87.5133C198.834 88.0214 197.105 88.8565 195.565 89.9784C194.214 90.9947 193.175 92.3697 192.566 93.9472C191.968 95.4267 191.866 97.0601 192.276 98.6023C192.494 99.3514 192.868 100.046 193.373 100.641C193.957 101.293 194.648 101.841 195.417 102.259C197.014 103.171 198.823 103.719 200.267 104.886C200.648 105.192 200.995 105.537 201.302 105.916C201.511 106.209 201.8 106.436 202.134 106.57C202.451 106.681 202.793 106.695 203.118 106.612C203.443 106.528 203.736 106.35 203.959 106.1C204.249 105.704 204.49 105.276 204.678 104.823L205.44 103.353C205.491 103.225 205.554 103.102 205.63 102.986C205.687 102.918 205.585 102.987 205.605 102.969C205.615 102.959 205.637 102.96 205.65 102.952C205.713 102.921 205.778 102.895 205.846 102.876C206.551 102.608 207.259 102.348 207.97 102.096C210.594 101.16 213.25 100.298 215.948 99.6002C217.336 99.2278 218.744 98.9333 220.165 98.7179C222.005 98.4557 223.874 98.4862 225.723 98.307C227.713 98.114 229.767 97.7111 231.475 96.615C232.886 95.7572 233.973 94.4557 234.567 92.9141C234.824 92.1794 234.912 91.3962 234.824 90.6227C234.603 88.8727 233.459 87.3947 232.028 86.4245Z" fill="#4A4949"/>
<path d="M228.734 87.4079C227.28 86.4218 225.513 86.0554 223.786 85.9311C221.823 85.8243 219.855 85.8266 217.893 85.938C215.854 86.0188 213.819 86.1663 211.788 86.3806C209.761 86.5952 207.741 86.8764 205.731 87.2242C203.93 87.5044 202.149 87.8944 200.396 88.3918C198.737 88.8509 197.175 89.6055 195.783 90.6193C194.562 91.5378 193.623 92.7804 193.073 94.2059C192.532 95.5428 192.441 97.019 192.811 98.4125C193.008 99.0895 193.346 99.7172 193.803 100.255C194.33 100.844 194.955 101.339 195.65 101.717C197.093 102.541 198.727 103.037 200.032 104.091C200.377 104.367 200.69 104.679 200.968 105.022C201.157 105.287 201.418 105.492 201.72 105.613C202.006 105.713 202.315 105.726 202.609 105.65C202.902 105.575 203.167 105.414 203.369 105.188C203.631 104.831 203.848 104.443 204.018 104.034L204.707 102.706C204.753 102.59 204.81 102.478 204.879 102.374C204.93 102.312 204.838 102.375 204.856 102.359C204.865 102.35 204.885 102.35 204.896 102.343C204.953 102.315 205.013 102.292 205.074 102.275C205.711 102.032 206.351 101.797 206.993 101.569C209.365 100.724 211.765 99.9452 214.202 99.3143C215.457 98.9778 216.729 98.7116 218.013 98.517C219.677 98.2801 221.365 98.3076 223.036 98.1457C224.835 97.9713 226.691 97.6072 228.234 96.6166C229.509 95.8415 230.492 94.6653 231.028 93.2722C231.26 92.6083 231.34 91.9005 231.261 91.2016C231.061 89.6202 230.027 88.2846 228.734 87.4079Z" fill="white"/>
<path d="M225.688 89.1885L201.987 93.5598C201.919 93.5728 201.849 93.5722 201.782 93.5581C201.714 93.5441 201.65 93.5169 201.593 93.478C201.536 93.4391 201.487 93.3894 201.45 93.3316C201.412 93.2739 201.386 93.2092 201.373 93.1414C201.36 93.0736 201.361 93.0039 201.376 92.9364C201.39 92.8689 201.417 92.8049 201.456 92.748C201.495 92.6911 201.545 92.6425 201.603 92.6049C201.661 92.5673 201.726 92.5416 201.794 92.529L201.797 92.5285L225.498 88.1571C225.565 88.1446 225.635 88.1456 225.702 88.16C225.769 88.1744 225.833 88.2019 225.89 88.2409C225.947 88.28 225.995 88.3298 226.033 88.3876C226.07 88.4454 226.096 88.51 226.108 88.5777C226.121 88.6454 226.12 88.7149 226.105 88.7823C226.091 88.8496 226.064 88.9135 226.025 88.9702C225.985 89.0269 225.936 89.0754 225.878 89.1128C225.82 89.1503 225.755 89.176 225.688 89.1885Z" fill="#4A4949"/>
<path d="M226.272 92.3538L202.571 96.7252C202.503 96.7381 202.433 96.7375 202.366 96.7235C202.298 96.7094 202.234 96.6822 202.177 96.6433C202.12 96.6044 202.071 96.5547 202.034 96.4969C201.996 96.4392 201.97 96.3745 201.957 96.3067C201.945 96.2389 201.945 96.1693 201.96 96.1018C201.974 96.0343 202.001 95.9702 202.04 95.9133C202.079 95.8565 202.129 95.8078 202.187 95.7703C202.245 95.7327 202.31 95.7069 202.378 95.6944L202.381 95.6938L226.082 91.3225C226.149 91.31 226.219 91.311 226.286 91.3253C226.353 91.3397 226.417 91.3672 226.474 91.4063C226.531 91.4453 226.579 91.4952 226.617 91.5529C226.654 91.6107 226.68 91.6753 226.692 91.743C226.705 91.8108 226.704 91.8803 226.689 91.9476C226.675 92.015 226.648 92.0788 226.609 92.1355C226.57 92.1923 226.52 92.2407 226.462 92.2782C226.404 92.3156 226.34 92.3413 226.272 92.3538Z" fill="#4A4949"/>
<path d="M205.917 99.381L203.155 99.8904C203.018 99.9151 202.877 99.8846 202.763 99.8057C202.649 99.7269 202.571 99.6059 202.546 99.4695C202.521 99.3331 202.551 99.1922 202.629 99.0778C202.708 98.9634 202.828 98.8847 202.965 98.8591L205.727 98.3496C205.863 98.3248 206.004 98.3552 206.118 98.4341C206.232 98.513 206.311 98.6339 206.336 98.7705C206.361 98.907 206.331 99.0479 206.253 99.1624C206.174 99.2768 206.053 99.3555 205.917 99.381Z" fill="#4A4949"/>
<path d="M203.916 112.54C205.126 112.317 205.926 111.155 205.703 109.944C205.48 108.734 204.318 107.933 203.107 108.156C201.897 108.38 201.096 109.542 201.319 110.753C201.543 111.963 202.705 112.763 203.916 112.54Z" fill="#D1D3D4"/>
<path d="M81.2589 63.9602H61.0148C60.075 63.9591 59.1741 63.5853 58.5095 62.9207C57.845 62.2562 57.4712 61.3552 57.4701 60.4155V47.0734C57.4712 46.1336 57.845 45.2327 58.5095 44.5681C59.1741 43.9036 60.075 43.5298 61.0148 43.5287H81.2589C82.1987 43.5298 83.0997 43.9036 83.7642 44.5681C84.4287 45.2326 84.8025 46.1336 84.8036 47.0734V60.4155C84.8025 61.3553 84.4287 62.2562 83.7642 62.9208C83.0997 63.5853 82.1987 63.9591 81.2589 63.9602Z" fill="#4A4949"/>
<path d="M79.0342 63.2414H61.4155C60.5976 63.2404 59.8134 62.9151 59.2351 62.3368C58.6567 61.7584 58.3314 60.9743 58.3304 60.1564V48.5446C58.3314 47.7267 58.6567 46.9425 59.2351 46.3642C59.8134 45.7858 60.5976 45.4605 61.4155 45.4595H79.0342C79.8521 45.4605 80.6363 45.7858 81.2146 46.3642C81.793 46.9425 82.1183 47.7267 82.1193 48.5446V60.1564C82.1183 60.9743 81.793 61.7584 81.2146 62.3368C80.6363 62.9151 79.8521 63.2404 79.0342 63.2414Z" fill="white"/>
<path d="M84.1104 75.9806H58.1346C57.974 75.9802 57.8202 75.9162 57.7069 75.8026C57.5935 75.6889 57.5298 75.535 57.5298 75.3745C57.5298 75.214 57.5935 75.06 57.7069 74.9464C57.8202 74.8328 57.974 74.7687 58.1346 74.7684H84.1104C84.2709 74.7687 84.4247 74.8328 84.5381 74.9464C84.6515 75.06 84.7151 75.214 84.7151 75.3745C84.7151 75.535 84.6515 75.6889 84.5381 75.8026C84.4247 75.9162 84.2709 75.9802 84.1104 75.9806Z" fill="#4A4949"/>
<path d="M84.1104 72.5171H58.1346C57.974 72.5168 57.8202 72.4528 57.7069 72.3391C57.5935 72.2255 57.5298 72.0715 57.5298 71.911C57.5298 71.7505 57.5935 71.5966 57.7069 71.483C57.8202 71.3693 57.974 71.3053 58.1346 71.3049H84.1104C84.2709 71.3053 84.4247 71.3693 84.5381 71.483C84.6515 71.5966 84.7151 71.7505 84.7151 71.911C84.7151 72.0715 84.6515 72.2255 84.5381 72.3391C84.4247 72.4528 84.2709 72.5168 84.1104 72.5171Z" fill="#4A4949"/>
<path d="M84.1101 79.444H58.1342C57.9735 79.444 57.8193 79.3802 57.7057 79.2665C57.592 79.1528 57.5281 78.9987 57.5281 78.8379C57.5281 78.6772 57.592 78.523 57.7057 78.4093C57.8193 78.2957 57.9735 78.2318 58.1342 78.2318H84.1101C84.2709 78.2318 84.425 78.2957 84.5387 78.4093C84.6523 78.523 84.7162 78.6772 84.7162 78.8379C84.7162 78.9987 84.6523 79.1528 84.5387 79.2665C84.425 79.3802 84.2709 79.444 84.1101 79.444Z" fill="#4A4949"/>
<path d="M84.1101 82.9074H58.1342C57.9735 82.9074 57.8193 82.8435 57.7057 82.7299C57.592 82.6162 57.5281 82.462 57.5281 82.3013C57.5281 82.1405 57.592 81.9864 57.7057 81.8727C57.8193 81.7591 57.9735 81.6952 58.1342 81.6952H84.1101C84.2709 81.6952 84.425 81.7591 84.5387 81.8727C84.6523 81.9864 84.7162 82.1405 84.7162 82.3013C84.7162 82.462 84.6523 82.6162 84.5387 82.7299C84.425 82.8435 84.2709 82.9074 84.1101 82.9074Z" fill="#4A4949"/>
<path d="M84.1101 86.3709H58.1342C57.9735 86.3709 57.8193 86.307 57.7057 86.1934C57.592 86.0797 57.5281 85.9255 57.5281 85.7648C57.5281 85.604 57.592 85.4499 57.7057 85.3362C57.8193 85.2226 57.9735 85.1587 58.1342 85.1587H84.1101C84.2709 85.1587 84.425 85.2226 84.5387 85.3362C84.6523 85.4499 84.7162 85.604 84.7162 85.7648C84.7162 85.9255 84.6523 86.0797 84.5387 86.1934C84.425 86.307 84.2709 86.3709 84.1101 86.3709Z" fill="#4A4949"/>
<path d="M84.1104 89.8343H58.1346C57.974 89.834 57.8202 89.77 57.7069 89.6563C57.5935 89.5427 57.5298 89.3887 57.5298 89.2282C57.5298 89.0677 57.5935 88.9138 57.7069 88.8002C57.8202 88.6865 57.974 88.6225 58.1346 88.6221H84.1104C84.2709 88.6225 84.4247 88.6865 84.5381 88.8002C84.6515 88.9138 84.7151 89.0677 84.7151 89.2282C84.7151 89.3887 84.6515 89.5427 84.5381 89.6563C84.4247 89.77 84.2709 89.834 84.1104 89.8343Z" fill="#4A4949"/>
<path d="M69.8235 81.8914H70.4675V106.701H23.8853V106.057H69.8235V81.8914Z" fill="#3F3D56"/>
<path d="M4.18643 110.774H21.2534C22.3637 110.774 23.4285 110.333 24.2135 109.548C24.9986 108.763 25.4397 107.698 25.4397 106.588C25.4397 105.478 24.9986 104.413 24.2135 103.628C23.4285 102.843 22.3637 102.402 21.2534 102.402H4.18643C3.07617 102.402 2.01138 102.843 1.22631 103.628C0.441234 104.413 0.000183105 105.478 0.000183105 106.588C0.000183105 107.698 0.441234 108.763 1.22631 109.548C2.01138 110.333 3.07617 110.774 4.18643 110.774Z" fill="#F26F37"/>
<path d="M70.5941 83.7608C72.7187 83.7608 74.4409 82.0385 74.4409 79.9139C74.4409 77.7894 72.7187 76.0671 70.5941 76.0671C68.4696 76.0671 66.7473 77.7894 66.7473 79.9139C66.7473 82.0385 68.4696 83.7608 70.5941 83.7608Z" fill="#F26F37"/>
<path d="M90.4772 80.9829C96.1249 82.1832 94.6883 82.4175 100.336 83.6178L105.199 84.6514C105.808 84.7807 105.974 83.829 105.366 83.6996C99.7179 82.4993 101.155 82.265 95.5068 81.0647L90.6435 80.0311C90.0351 79.9018 89.8685 80.8535 90.4772 80.9829Z" fill="#A8C8FF"/>
<path d="M103.485 78.1742L109.913 85.7618C110.147 85.9888 110.343 86.2526 110.492 86.5428C110.615 86.8696 110.351 87.0057 110.076 87.1123C109.285 87.3696 108.479 87.5782 107.662 87.737L102.851 88.944C102.247 89.0955 102.575 90.005 103.173 89.8549L107.364 88.8036L109.459 88.278C110.053 88.1291 110.743 88.0167 111.176 87.5401C112.086 86.539 110.87 85.4041 110.244 84.6656L107.445 81.3613L104.283 77.6287C103.884 77.1582 103.084 77.7001 103.485 78.1742Z" fill="#A8C8FF"/>
<path d="M123.866 111.249C128.806 111.249 132.811 107.244 132.811 102.304C132.811 97.363 128.806 93.3579 123.866 93.3579C118.925 93.3579 114.92 97.363 114.92 102.304C114.92 107.244 118.925 111.249 123.866 111.249Z" fill="#4A4949"/>
<path d="M122.994 110.109C126.75 110.109 129.795 107.064 129.795 103.308C129.795 99.552 126.75 96.5072 122.994 96.5072C119.238 96.5072 116.193 99.552 116.193 103.308C116.193 107.064 119.238 110.109 122.994 110.109Z" fill="white"/>
<path d="M121.773 107.964C121.619 107.964 121.466 107.928 121.328 107.859C121.19 107.79 121.07 107.689 120.977 107.566L118.537 104.312C118.458 104.207 118.401 104.088 118.369 103.962C118.336 103.835 118.329 103.703 118.347 103.574C118.366 103.445 118.41 103.32 118.476 103.208C118.543 103.095 118.631 102.997 118.735 102.919C118.84 102.84 118.959 102.783 119.085 102.751C119.212 102.718 119.343 102.711 119.473 102.729C119.602 102.748 119.727 102.791 119.839 102.858C119.952 102.924 120.05 103.012 120.128 103.117L120.129 103.118L121.726 105.246L125.826 99.0953C125.899 98.9863 125.992 98.8928 126.101 98.8199C126.209 98.747 126.331 98.6962 126.459 98.6705C126.588 98.6448 126.72 98.6446 126.848 98.6699C126.976 98.6953 127.098 98.7456 127.207 98.8182C127.316 98.8907 127.409 98.984 127.482 99.0927C127.555 99.2014 127.606 99.3234 127.631 99.4516C127.657 99.5799 127.657 99.712 127.631 99.8402C127.606 99.9685 127.555 100.091 127.482 100.199L122.601 107.521C122.513 107.653 122.394 107.763 122.255 107.84C122.116 107.917 121.96 107.959 121.801 107.964C121.792 107.964 121.783 107.964 121.773 107.964Z" fill="#4A4949"/>
<path d="M207.397 111.519C207.685 111.35 207.932 111.119 208.122 110.844C208.311 110.569 208.438 110.255 208.493 109.926C208.548 109.596 208.53 109.259 208.44 108.937C208.351 108.615 208.192 108.316 207.974 108.063L215.157 95.5109L210.943 95.7399L204.613 107.903C204.21 108.296 203.966 108.824 203.927 109.385C203.888 109.946 204.055 110.502 204.399 110.948C204.742 111.394 205.236 111.698 205.789 111.803C206.342 111.909 206.914 111.807 207.397 111.519Z" fill="#FFB8B8"/>
<path d="M199.306 67.5232C199.306 67.5232 206.914 65.0776 208.87 70.9471C210.827 76.8167 217.404 92.7134 217.404 92.7134L210.338 107.143L207.158 103.719L210.556 93.6916L200.774 79.0178L199.306 67.5232Z" fill="#5379F4"/>
<path d="M210.58 105.669C210.351 105.282 210.06 104.934 209.72 104.64L207.293 102.304L207.158 102.605C206.909 102.997 206.746 103.437 206.679 103.896C206.612 104.355 206.643 104.824 206.769 105.27C206.896 105.717 207.116 106.131 207.414 106.487C207.712 106.843 208.082 107.131 208.5 107.334C208.856 107.521 209.258 107.604 209.66 107.574C209.86 107.556 210.053 107.492 210.223 107.386C210.393 107.279 210.536 107.134 210.639 106.962C210.733 106.758 210.777 106.534 210.767 106.309C210.757 106.083 210.693 105.864 210.58 105.669Z" fill="#4A4949"/>
<path d="M123.788 114.339H123.144V139.148H144.931V138.504H123.788V114.339Z" fill="#3F3D56"/>
<path d="M168.816 139.036C168.815 137.926 168.374 136.861 167.589 136.077C166.804 135.292 165.74 134.85 164.63 134.849H147.563C146.452 134.849 145.388 135.29 144.603 136.075C143.818 136.861 143.376 137.925 143.376 139.036C143.376 140.146 143.818 141.211 144.603 141.996C145.388 142.781 146.452 143.222 147.563 143.222H164.63C165.74 143.221 166.804 142.779 167.589 141.994C168.374 141.21 168.815 140.145 168.816 139.036Z" fill="#F26F37"/>
<path d="M123.018 116.208C125.142 116.208 126.865 114.486 126.865 112.361C126.865 110.237 125.142 108.514 123.018 108.514C120.893 108.514 119.171 110.237 119.171 112.361C119.171 114.486 120.893 116.208 123.018 116.208Z" fill="#F26F37"/>
</g>
<defs>
<clipPath id="clip0_1_163">
<rect width="242.142" height="179" fill="white"/>
</clipPath>
</defs>
</svg>
