<svg preserveAspectRatio="none" width="100%" height="100%" overflow="visible" style="display: block;" viewBox="0 0 1072.69 737.247" fill="none" xmlns="http://www.w3.org/2000/svg">
<g id="Frame 2018776449">
<path id="Vector" d="M226.878 737.247C352.178 737.247 453.754 729.532 453.754 720.015C453.754 710.499 352.178 702.784 226.878 702.784C101.577 702.784 0.00134713 710.499 0.00134713 720.015C0.00134713 729.532 101.577 737.247 226.878 737.247Z" fill="var(--fill-0, #92DBDA)"/>
<path id="Vector_2" d="M173.425 120.786C212.908 103.993 262.086 114.633 310.112 122.018C310.559 113.075 315.976 102.191 310.302 95.9515C303.408 88.3715 304.042 80.4072 308.191 72.3969C318.799 51.9134 303.6 30.1179 288.254 11.9951C284.795 7.91957 280.424 4.71733 275.495 2.64853C270.566 0.579742 265.218 -0.297266 259.887 0.0887318L231.459 2.11929C224.542 2.61339 217.94 5.20834 212.537 9.55696C207.135 13.9056 203.189 19.8004 201.229 26.4527C194.441 35.6845 190.808 44.8908 193.095 54.0491C182.928 60.9973 181.219 69.3845 185.788 78.8395C189.662 84.7927 189.621 90.5877 185.612 96.2222C180.347 103.406 176.314 111.416 173.679 119.924L173.425 120.786Z" fill="var(--fill-0, #2F2E41)"/>
<path id="Vector_3" d="M378.404 244.145L293.823 289.112L292.753 251.639C320.359 247.031 346.624 239.007 370.909 225.944L379.755 204.089C380.719 201.708 382.286 199.618 384.301 198.025C386.317 196.432 388.712 195.39 391.252 195.002C393.791 194.614 396.388 194.894 398.787 195.813C401.186 196.732 403.305 198.259 404.936 200.244C407.322 203.148 408.515 206.851 408.272 210.602C408.03 214.353 406.371 217.872 403.632 220.446L378.404 244.145Z" fill="var(--fill-0, #FFB8B8)"/>
<path id="Vector_4" d="M171.737 503.767C171.12 501.504 170.989 499.136 171.353 496.819C171.716 494.502 172.566 492.288 173.847 490.322L192.427 461.808C196.821 455.064 203.564 450.192 211.348 448.139C219.131 446.086 227.4 446.997 234.55 450.695C226.741 463.987 227.83 475.647 237.246 485.78C222.628 492.917 209.117 502.127 197.132 513.127C194.944 514.619 192.432 515.566 189.804 515.89C187.176 516.214 184.508 515.905 182.024 514.989C179.539 514.073 177.309 512.577 175.52 510.625C173.731 508.673 172.434 506.322 171.737 503.767Z" fill="var(--fill-0, #2F2E41)"/>
<path id="Vector_5" d="M382.249 466.484C379.437 471.17 375.468 475.055 370.723 477.765C365.978 480.476 360.616 481.921 355.152 481.962L231.719 482.897L226.366 451.849L280.968 435.789L234.931 400.458L285.251 341.573L376.648 426.758C381.99 431.737 385.46 438.399 386.48 445.63C387.499 452.861 386.006 460.223 382.249 466.484Z" fill="var(--fill-0, #2F2E41)"/>
<path id="Vector_6" d="M212.453 678.824H183.546C157.591 500.916 131.172 322.511 209.241 255.922L301.316 270.911L289.539 349.067L238.148 407.952L212.453 678.824Z" fill="var(--fill-0, #2F2E41)"/>
<path id="Vector_7" d="M237.862 719.125C235.6 719.743 233.232 719.874 230.914 719.51C228.597 719.147 226.383 718.297 224.418 717.016L193.03 712.797C186.286 708.403 181.414 701.66 179.36 693.877C177.306 686.094 178.217 677.825 181.915 670.675C195.207 678.483 206.867 677.394 217 667.976C224.159 682.432 235.955 681.551 247.221 693.73C248.713 695.918 249.66 698.43 249.984 701.058C250.308 703.686 249.999 706.354 249.084 708.838C248.168 711.323 246.672 713.553 244.72 715.342C242.768 717.132 240.417 718.429 237.862 719.125Z" fill="var(--fill-0, #2F2E41)"/>
<path id="Vector_8" d="M280.973 137.081L227.441 124.234C236.332 106.035 237.064 85.7849 232.794 64.2778L269.196 63.2072C270.337 89.9519 273.787 114.938 280.973 137.081Z" fill="var(--fill-0, #FFB8B8)"/>
<path id="Vector_9" d="M295.677 303.147C256.708 329.702 229.173 304.056 208.161 264.487C211.081 240.275 206.353 211.299 197.597 179.816C193.703 165.929 195.157 151.087 201.672 138.22C208.186 125.353 219.288 115.396 232.786 110.315L278.823 129.587C317.914 161.45 325.608 195.965 310.942 232.368L295.677 303.147Z" fill="var(--fill-0, #5379F4)"/>
<path id="Vector_10" d="M183.542 163.846L140.717 186.33L216.732 231.297L227.309 257.387C228.015 259.128 228.359 260.995 228.32 262.873C228.281 264.752 227.859 266.603 227.081 268.314C226.304 270.024 225.186 271.558 223.795 272.822C222.405 274.087 220.772 275.055 218.996 275.667C216.977 276.363 214.824 276.583 212.705 276.308C210.587 276.034 208.561 275.272 206.786 274.084C205.012 272.895 203.536 271.312 202.475 269.459C201.414 267.605 200.797 265.53 200.671 263.398L199.602 245.215L102.987 213.332C99.732 212.258 96.7639 210.457 94.3078 208.066C91.8517 205.675 89.9718 202.756 88.8108 199.531C87.1183 194.829 87.0322 189.7 88.5658 184.944C90.0994 180.189 93.1663 176.076 97.2865 173.25L174.977 119.95L183.542 163.846Z" fill="var(--fill-0, #FFB8B8)"/>
<path id="Vector_11" d="M226.371 168.129C208.51 160.302 192.269 168.805 171.768 175.624L168.557 118.88C188.912 108.031 208.32 105.105 226.371 113.527L226.371 168.129Z" fill="var(--fill-0, #5379F4)"/>
<path id="Vector_12" d="M247.737 91.3142C266.613 91.3142 281.916 76.0122 281.916 57.1362C281.916 38.2601 266.613 22.9581 247.737 22.9581C228.861 22.9581 213.559 38.2601 213.559 57.1362C213.559 76.0122 228.861 91.3142 247.737 91.3142Z" fill="var(--fill-0, #FFB8B8)"/>
<path id="Vector_13" d="M288.622 52.8235C254.783 56.1378 228.998 50.6035 212.518 34.8456V22.1553H285.75L288.622 52.8235Z" fill="var(--fill-0, #2F2E41)"/>
<g id="undraw_enter-password_1kl4 1" clip-path="url(#clip0_0_52)">
<path id="Vector_14" d="M852.432 153.784H442.402C435.161 153.784 429.29 159.655 429.29 166.896V586.778C429.29 594.019 435.161 599.89 442.402 599.89H852.432C859.673 599.89 865.543 594.019 865.543 586.778V166.896C865.543 159.655 859.673 153.784 852.432 153.784Z" fill="var(--fill-0, #F2F2F2)"/>
<path id="Vector_15" d="M846.504 600.985H448.322C437.222 600.985 428.192 591.955 428.192 580.855V172.821C428.192 161.721 437.222 152.69 448.322 152.69H846.504C857.603 152.69 866.634 161.721 866.634 172.821V580.855C866.634 591.955 857.603 600.985 846.504 600.985ZM448.322 154.88C438.429 154.88 430.381 162.928 430.381 172.821V580.855C430.381 590.748 438.429 598.796 448.322 598.796H846.504C856.396 598.796 864.444 590.748 864.444 580.855V172.821C864.444 162.928 856.396 154.88 846.504 154.88H448.322Z" fill="var(--fill-0, #F26F37)"/>
<path id="Vector_16" d="M807.408 361.238H494.536C486.326 361.238 479.645 354.557 479.645 346.347V297.307C479.645 289.097 486.326 282.417 494.536 282.417H807.408C815.618 282.417 822.298 289.097 822.298 297.307V346.347C822.298 354.557 815.618 361.238 807.408 361.238ZM494.536 284.606C487.533 284.606 481.834 290.304 481.834 297.307V346.347C481.834 353.35 487.533 359.049 494.536 359.049H807.408C814.411 359.049 820.108 353.35 820.108 346.347V297.307C820.108 290.304 814.411 284.606 807.408 284.606H494.536Z" fill="var(--fill-0, #2F2E41)"/>
<path id="Vector_17" d="M807.408 456.48H494.536C486.326 456.48 479.645 449.799 479.645 441.589V392.549C479.645 384.338 486.326 377.659 494.536 377.659H807.408C815.618 377.659 822.298 384.338 822.298 392.549V441.589C822.298 449.799 815.618 456.48 807.408 456.48ZM494.536 379.848C487.533 379.848 481.834 385.545 481.834 392.549V441.589C481.834 448.592 487.533 454.29 494.536 454.29H807.408C814.411 454.29 820.108 448.592 820.108 441.589V392.549C820.108 385.545 814.411 379.848 807.408 379.848H494.536Z" fill="var(--fill-0, #2F2E41)"/>
<path id="Vector_18" d="M573.242 425.279C577.475 425.279 580.906 421.849 580.906 417.616C580.906 413.384 577.475 409.953 573.242 409.953C569.01 409.953 565.579 413.384 565.579 417.616C565.579 421.849 569.01 425.279 573.242 425.279Z" fill="var(--fill-0, #5379F4)"/>
<path id="Vector_19" d="M598.972 425.827C603.205 425.827 606.636 422.396 606.636 418.164C606.636 413.931 603.205 410.501 598.972 410.501C594.74 410.501 591.309 413.931 591.309 418.164C591.309 422.396 594.74 425.827 598.972 425.827Z" fill="var(--fill-0, #5379F4)"/>
<path id="Vector_20" d="M625.245 424.732C629.477 424.732 632.908 421.301 632.908 417.069C632.908 412.836 629.477 409.405 625.245 409.405C621.013 409.405 617.582 412.836 617.582 417.069C617.582 421.301 621.013 424.732 625.245 424.732Z" fill="var(--fill-0, #5379F4)"/>
<path id="Vector_21" d="M651.521 424.732C655.754 424.732 659.185 421.301 659.185 417.069C659.185 412.836 655.754 409.405 651.521 409.405C647.289 409.405 643.858 412.836 643.858 417.069C643.858 421.301 647.289 424.732 651.521 424.732Z" fill="var(--fill-0, #5379F4)"/>
<path id="Vector_22" d="M677.794 424.732C682.026 424.732 685.457 421.301 685.457 417.069C685.457 412.836 682.026 409.405 677.794 409.405C673.562 409.405 670.131 412.836 670.131 417.069C670.131 421.301 673.562 424.732 677.794 424.732Z" fill="var(--fill-0, #5379F4)"/>
<path id="Vector_23" d="M704.067 424.732C708.299 424.732 711.73 421.301 711.73 417.069C711.73 412.836 708.299 409.405 704.067 409.405C699.835 409.405 696.404 412.836 696.404 417.069C696.404 421.301 699.835 424.732 704.067 424.732Z" fill="var(--fill-0, #5379F4)"/>
<path id="Vector_24" d="M719.938 558.29H571.053C551.434 558.29 535.474 542.33 535.474 522.711C535.474 503.093 551.434 487.132 571.053 487.132H719.938C739.556 487.132 755.516 503.093 755.516 522.711C755.516 542.33 739.556 558.29 719.938 558.29Z" fill="var(--fill-0, #5379F4)"/>
<path id="Vector_25" d="M377.455 192.978C372.805 192.978 368.715 189.645 367.822 185.034L350.649 96.4612C350.097 93.6153 350.825 90.6893 352.646 88.4335C354.466 86.1788 357.171 84.8489 360.07 84.7869L443.054 83.0026C447.9 82.8925 452.007 86.2558 452.903 90.9843L469.179 176.881C469.705 179.66 469.007 182.531 467.261 184.758C465.516 186.983 462.896 188.349 460.072 188.501L377.985 192.963C377.808 192.972 377.63 192.978 377.455 192.978Z" fill="var(--fill-0, #D6D6E3)"/>
<path id="Vector_26" d="M372.086 178.623L390.149 129.907L420.255 152.349L430.107 142.496L464.592 178.075L372.086 178.623Z" fill="var(--fill-0, #5379F4)"/>
<path id="Vector_27" d="M427.918 125.528C423.39 125.528 419.707 121.845 419.707 117.318C419.707 112.79 423.39 109.107 427.918 109.107C432.445 109.107 436.128 112.79 436.128 117.318C436.128 121.845 432.445 125.528 427.918 125.528Z" fill="var(--fill-0, #5379F4)"/>
<path id="Vector_28" d="M380.53 527.548C377.943 527.548 375.413 526.791 373.198 525.326C370.173 523.323 368.132 520.257 367.454 516.693L350.87 429.52C349.519 422.419 353.983 415.607 361.031 414.012L435.328 397.182C438.854 396.386 442.465 397.023 445.501 398.977C448.54 400.934 450.615 403.96 451.345 407.498L469.422 495.07C470.895 502.207 466.3 509.267 459.18 510.81L383.39 527.239C382.439 527.445 381.481 527.548 380.53 527.548Z" fill="var(--fill-0, #F26F37)"/>
<path id="Vector_29" d="M374.819 449.024C373.01 449.024 371.401 447.737 371.057 445.894C370.668 443.814 372.039 441.813 374.12 441.425L434.185 430.203C436.264 429.809 438.265 431.186 438.655 433.266C439.044 435.347 437.672 437.348 435.592 437.736L375.527 448.957C375.289 449.002 375.052 449.024 374.819 449.024Z" fill="var(--fill-0, white)"/>
<path id="Vector_30" d="M380.295 472.014C378.561 472.014 376.99 470.829 376.57 469.069C376.08 467.011 377.351 464.944 379.411 464.453L435.952 450.99C438.009 450.503 440.075 451.772 440.567 453.831C441.057 455.889 439.786 457.955 437.727 458.446L381.185 471.909C380.887 471.98 380.589 472.014 380.295 472.014Z" fill="var(--fill-0, white)"/>
<path id="Vector_31" d="M384.126 494.257C382.354 494.257 380.763 493.021 380.382 491.219C379.943 489.148 381.266 487.114 383.336 486.676L421.91 478.507C423.992 478.07 426.015 479.391 426.453 481.461C426.891 483.532 425.568 485.565 423.499 486.004L384.924 494.172C384.656 494.229 384.389 494.257 384.126 494.257Z" fill="var(--fill-0, white)"/>
<path id="Vector_32" d="M939.603 259.36C938.922 259.36 938.233 259.307 937.541 259.199L860.929 247.179C857.343 246.615 854.213 244.676 852.113 241.716C850.014 238.757 849.217 235.16 849.87 231.592L865.853 144.307C867.157 137.197 873.772 132.466 880.926 133.508L956.291 144.617C959.865 145.144 963.005 147.043 965.131 149.963C967.259 152.883 968.102 156.454 967.507 160.017L952.771 248.214C951.687 254.709 946.001 259.36 939.603 259.36Z" fill="var(--fill-0, #F26F37)"/>
<path id="Vector_33" d="M942.615 182.602C942.382 182.602 942.146 182.581 941.908 182.536L881.839 171.331C879.758 170.943 878.387 168.942 878.775 166.862C879.162 164.781 881.158 163.401 883.244 163.798L943.313 175.003C945.393 175.391 946.765 177.391 946.377 179.472C946.034 181.315 944.424 182.602 942.615 182.602Z" fill="var(--fill-0, white)"/>
<path id="Vector_34" d="M936.947 202.654C936.773 202.654 936.6 202.644 936.424 202.619L878.832 194.776C876.736 194.491 875.268 192.56 875.554 190.463C875.84 188.365 877.777 186.896 879.867 187.184L937.459 195.027C939.555 195.312 941.023 197.243 940.737 199.34C940.476 201.261 938.832 202.654 936.947 202.654Z" fill="var(--fill-0, white)"/>
<path id="Vector_35" d="M913.828 223.24C913.625 223.24 913.419 223.223 913.211 223.189L874.287 216.89C872.198 216.553 870.78 214.584 871.117 212.495C871.456 210.406 873.411 208.992 875.512 209.326L914.436 215.625C916.525 215.962 917.944 217.931 917.606 220.02C917.302 221.901 915.676 223.24 913.828 223.24Z" fill="var(--fill-0, white)"/>
</g>
</g>
<defs>
<clipPath id="clip0_0_52">
<rect width="617.221" height="517.985" fill="white" transform="translate(350.469 83)"/>
</clipPath>
</defs>
</svg>
