<svg preserveAspectRatio="none" width="100%" height="100%" overflow="visible" style="display: block;" viewBox="0 0 578.077 523" fill="none" xmlns="http://www.w3.org/2000/svg">
<g id="undraw_hiring_8szx 1" clip-path="url(#clip0_0_81)">
<path id="Vector" d="M252.656 432.547H11.4539C8.41728 432.544 5.50597 431.336 3.35871 429.189C1.21146 427.041 0.00363232 424.13 0.000214756 421.093V93.6511C0.00363232 90.6145 1.21146 87.7031 3.35871 85.5559C5.50597 83.4086 8.41728 82.2008 11.4539 82.1974H252.656C255.693 82.2008 258.604 83.4086 260.752 85.5559C262.899 87.7031 264.107 90.6145 264.11 93.6511V421.093C264.107 424.13 262.899 427.041 260.752 429.189C258.604 431.336 255.693 432.544 252.656 432.547Z" fill="var(--fill-0, #E6F1FF)"/>
<path id="Vector_2" d="M121.182 167.415C121.182 176.872 118.19 186.087 112.635 193.74C107.08 201.393 99.246 207.093 90.2545 210.023C89.9856 210.109 89.717 210.194 89.444 210.276C88.2792 210.634 87.0982 210.94 85.8967 211.2C83.7224 211.672 81.5156 211.978 79.295 212.117C78.3299 212.182 77.3593 212.214 76.3831 212.214C71.3396 212.219 66.3315 211.371 61.5709 209.706C61.4325 209.657 61.2941 209.608 61.1597 209.559C53.4464 206.773 46.6457 201.924 41.4987 195.539C36.3516 189.155 33.0556 181.48 31.9699 173.352C30.8841 165.223 32.0503 156.952 35.3412 149.44C38.6322 141.929 43.9217 135.465 50.6334 130.752C57.345 126.04 65.2214 123.26 73.4042 122.715C81.5869 122.171 89.7622 123.883 97.039 127.664C104.316 131.446 110.415 137.153 114.672 144.162C118.93 151.171 121.181 159.214 121.182 167.415Z" fill="var(--fill-0, white)"/>
<path id="Vector_3" d="M75.3098 197.097C87.3476 197.097 97.1062 187.338 97.1062 175.3C97.1062 163.262 87.3476 153.504 75.3098 153.504C63.272 153.504 53.5134 163.262 53.5134 175.3C53.5134 187.338 63.272 197.097 75.3098 197.097Z" fill="var(--fill-0, #F26F37)"/>
<path id="Vector_4" d="M76.5823 187.044L76.6049 186.229C75.0896 186.187 73.7537 186.092 72.7499 185.359C72.4653 185.139 72.2313 184.861 72.064 184.542C71.8966 184.224 71.7998 183.874 71.78 183.515C71.7624 183.295 71.7956 183.075 71.877 182.87C71.9584 182.666 72.0859 182.483 72.2495 182.336C72.6288 182.106 73.063 181.982 73.5065 181.978C73.95 181.975 74.3864 182.09 74.7696 182.313L75.4436 182.622L74.1512 173.178L73.3442 173.288L74.4435 181.322C73.9935 181.155 73.5089 181.104 73.0339 181.172C72.5588 181.24 72.1084 181.427 71.7238 181.714C71.465 181.94 71.2619 182.222 71.1305 182.54C70.9991 182.857 70.9428 183.2 70.9661 183.543C70.9899 184.025 71.1189 184.497 71.344 184.924C71.5691 185.351 71.885 185.724 72.2694 186.017C73.5592 186.959 75.2354 187.006 76.5823 187.044Z" fill="var(--fill-0, #2F2E41)"/>
<path id="Vector_5" d="M69.3535 173.981H64.9667V174.796H69.3535V173.981Z" fill="var(--fill-0, #2F2E41)"/>
<path id="Vector_6" d="M83.2011 173.981H78.8143V174.796H83.2011V173.981Z" fill="var(--fill-0, #2F2E41)"/>
<path id="Vector_7" d="M81.5023 205.771C81.5601 205.504 81.5902 205.231 81.592 204.957C81.5904 203.931 81.1823 202.948 80.457 202.223C79.7318 201.498 78.7487 201.089 77.723 201.088H72.0213C70.9955 201.089 70.0119 201.497 69.2865 202.222C68.5612 202.947 68.1533 203.931 68.1523 204.957C68.1521 205.232 68.1821 205.507 68.2418 205.775C66.0894 206.454 64.0549 207.461 62.2104 208.761C61.8519 209.009 61.4977 209.278 61.1596 209.559C61.294 209.608 61.4325 209.657 61.5709 209.705C66.3315 211.371 71.3395 212.219 76.3831 212.214C77.3605 212.214 78.3311 212.182 79.2949 212.116C81.5155 211.978 83.7224 211.672 85.8967 211.2C87.0982 210.939 88.2792 210.634 89.4439 210.276C87.1396 208.237 84.4345 206.703 81.5023 205.771Z" fill="var(--fill-0, #2F2E41)"/>
<path id="Vector_8" d="M80.7689 211.599C80.2403 211.638 79.7316 211.817 79.2945 212.116C81.5151 211.978 83.722 211.672 85.8962 211.2L80.7689 211.599Z" fill="var(--fill-0, #2F2E41)"/>
<path id="Vector_9" d="M95.0771 170.122L57.2122 156.27C56.8065 156.122 56.4763 155.818 56.2944 155.426C56.1124 155.034 56.0936 154.586 56.242 154.181L56.3701 153.575C59.3273 145.491 69.1289 140.404 77.2123 143.361L88.8641 147.624C96.9476 150.581 100.461 160.153 97.5037 168.236L97.1666 169.152C97.0182 169.558 96.7146 169.888 96.3228 170.07C95.9309 170.252 95.4828 170.271 95.0771 170.122Z" fill="var(--fill-0, #2F2E41)"/>
<path id="Vector_10" d="M97.1169 170.891C44.3407 172.838 39.7292 166.207 55.8097 155.78L59.2212 149.502L98.3184 163.757L97.1169 170.891Z" fill="var(--fill-0, #2F2E41)"/>
<path id="Vector_11" d="M86.7697 146.63C87.061 145.661 85.813 144.429 83.982 143.878C82.1511 143.328 80.4306 143.668 80.1393 144.637C79.8479 145.606 81.096 146.838 82.9269 147.388C84.7578 147.939 86.4783 147.599 86.7697 146.63Z" fill="var(--fill-0, #2F2E41)"/>
<path id="Vector_12" d="M76.3826 213.436C71.2015 213.442 66.0567 212.57 61.1664 210.859L60.7414 210.707C50.4979 207.005 41.8994 199.79 36.475 190.345C31.0506 180.9 29.1521 169.837 31.1169 159.124C33.0817 148.411 38.7826 138.742 47.2057 131.836C55.6288 124.931 66.2281 121.237 77.1185 121.411C88.009 121.585 98.4848 125.617 106.683 132.788C114.881 139.959 120.269 149.805 121.891 160.576C123.512 171.346 121.26 182.343 115.537 191.61C109.813 200.876 100.988 207.813 90.6317 211.185C90.3423 211.277 90.0699 211.364 89.793 211.447C88.6363 211.803 87.409 212.122 86.1551 212.394C83.9203 212.879 81.6519 213.193 79.3696 213.336C78.389 213.402 77.3816 213.436 76.3826 213.436ZM76.3826 123.838C66.1282 123.84 56.2027 127.457 48.3518 134.054C40.5008 140.65 35.2273 149.804 33.4586 159.905C31.69 170.005 33.5395 180.406 38.6819 189.278C43.8243 198.15 51.9303 204.924 61.5741 208.41L61.9776 208.554C66.6072 210.174 71.4777 210.998 76.3826 210.993C77.3269 210.993 78.2788 210.961 79.2121 210.898C81.3734 210.763 83.5215 210.465 85.6379 210.006C86.8239 209.749 87.9835 209.447 89.0842 209.108C89.3567 209.027 89.6154 208.944 89.8743 208.862C99.7383 205.649 108.133 199.023 113.549 190.175C118.965 181.327 121.047 170.837 119.421 160.591C117.795 150.345 112.568 141.015 104.679 134.278C96.7901 127.542 86.7567 123.84 76.3826 123.838Z" fill="var(--fill-0, #5379F4)"/>
<path id="Vector_13" d="M252.656 432.547H11.4539C8.41728 432.544 5.50597 431.336 3.35871 429.189C1.21146 427.041 0.00363232 424.13 0.000214756 421.093V93.6511C0.00363232 90.6145 1.21146 87.7031 3.35871 85.5559C5.50597 83.4086 8.41728 82.2008 11.4539 82.1974H252.656C255.693 82.2008 258.604 83.4086 260.752 85.5559C262.899 87.7031 264.107 90.6145 264.11 93.6511V421.093C264.107 424.13 262.899 427.041 260.752 429.189C258.604 431.336 255.693 432.544 252.656 432.547ZM11.4539 83.5449C8.77454 83.5479 6.20576 84.6137 4.31113 86.5083C2.4165 88.4029 1.35075 90.9717 1.34771 93.6511V421.093C1.35075 423.773 2.41647 426.342 4.3111 428.236C6.20573 430.131 8.77454 431.197 11.4539 431.2H252.656C255.336 431.197 257.905 430.131 259.799 428.236C261.694 426.342 262.76 423.773 262.763 421.093V93.6511C262.76 90.9717 261.694 88.4029 259.799 86.5083C257.905 84.6137 255.336 83.5479 252.656 83.5449H11.4539Z" fill="var(--fill-0, #9E616A)"/>
<path id="Vector_14" d="M205.962 167.241H137.71C136.279 167.239 134.908 166.67 133.897 165.657C132.885 164.645 132.317 163.272 132.317 161.841C132.317 160.411 132.885 159.038 133.897 158.026C134.908 157.013 136.279 156.444 137.71 156.442H205.962C206.672 156.441 207.375 156.58 208.031 156.851C208.686 157.122 209.283 157.52 209.785 158.021C210.287 158.523 210.685 159.118 210.957 159.774C211.229 160.429 211.368 161.132 211.368 161.841C211.368 162.551 211.229 163.254 210.957 163.909C210.685 164.565 210.287 165.16 209.785 165.662C209.283 166.163 208.686 166.561 208.031 166.832C207.375 167.103 206.672 167.242 205.962 167.241Z" fill="var(--fill-0, #5379F4)"/>
<path id="Vector_15" d="M228.235 185.464H137.71C136.279 185.462 134.908 184.893 133.897 183.88C132.885 182.868 132.317 181.496 132.317 180.065C132.317 178.634 132.885 177.261 133.897 176.249C134.908 175.237 136.279 174.667 137.71 174.665H228.235C229.666 174.667 231.038 175.237 232.049 176.249C233.06 177.261 233.628 178.634 233.628 180.065C233.628 181.496 233.06 182.868 232.049 183.88C231.038 184.893 229.666 185.462 228.235 185.464Z" fill="var(--fill-0, #9E616A)"/>
<path id="Vector_16" d="M205.863 255.358H35.8751C35.1654 255.359 34.4626 255.22 33.8067 254.949C33.1508 254.678 32.5548 254.281 32.0527 253.779C31.5506 253.278 31.1523 252.682 30.8805 252.027C30.6087 251.371 30.4689 250.668 30.4689 249.959C30.4689 249.249 30.6087 248.546 30.8805 247.891C31.1523 247.235 31.5506 246.64 32.0527 246.138C32.5548 245.637 33.1508 245.239 33.8067 244.968C34.4626 244.697 35.1654 244.558 35.8751 244.559H205.863C207.294 244.561 208.666 245.131 209.677 246.143C210.688 247.156 211.256 248.528 211.256 249.959C211.256 251.39 210.688 252.762 209.677 253.774C208.666 254.787 207.294 255.357 205.863 255.358Z" fill="var(--fill-0, #DDDFE0)"/>
<path id="Vector_17" d="M228.136 273.582H35.8751C35.1654 273.582 34.4626 273.443 33.8067 273.172C33.1508 272.901 32.5548 272.504 32.0527 272.002C31.5506 271.501 31.1523 270.905 30.8805 270.25C30.6087 269.594 30.4689 268.892 30.4689 268.182C30.4689 267.472 30.6087 266.77 30.8805 266.114C31.1523 265.459 31.5506 264.863 32.0527 264.362C32.5548 263.86 33.1508 263.463 33.8067 263.192C34.4626 262.921 35.1654 262.782 35.8751 262.783H228.136C228.846 262.782 229.549 262.921 230.205 263.192C230.86 263.463 231.456 263.86 231.959 264.362C232.461 264.863 232.859 265.459 233.131 266.114C233.403 266.77 233.542 267.472 233.542 268.182C233.542 268.892 233.403 269.594 233.131 270.25C232.859 270.905 232.461 271.501 231.959 272.002C231.456 272.504 230.86 272.901 230.205 273.172C229.549 273.443 228.846 273.582 228.136 273.582Z" fill="var(--fill-0, #DDDFE0)"/>
<path id="Vector_18" d="M205.862 315.466H35.8744C34.4423 315.466 33.0689 314.897 32.0563 313.884C31.0437 312.872 30.4749 311.498 30.4749 310.066C30.4749 308.634 31.0437 307.261 32.0563 306.248C33.0689 305.236 34.4423 304.667 35.8744 304.667H205.862C207.295 304.667 208.668 305.236 209.681 306.248C210.693 307.261 211.262 308.634 211.262 310.066C211.262 311.498 210.693 312.872 209.681 313.884C208.668 314.897 207.295 315.466 205.862 315.466Z" fill="var(--fill-0, #DDDFE0)"/>
<path id="Vector_19" d="M228.135 333.689H35.8744C34.4423 333.689 33.0689 333.12 32.0563 332.108C31.0437 331.095 30.4749 329.722 30.4749 328.29C30.4749 326.858 31.0437 325.484 32.0563 324.472C33.0689 323.459 34.4423 322.89 35.8744 322.89H228.135C229.567 322.89 230.941 323.459 231.953 324.472C232.966 325.484 233.535 326.858 233.535 328.29C233.535 329.722 232.966 331.095 231.953 332.108C230.941 333.12 229.567 333.689 228.135 333.689Z" fill="var(--fill-0, #DDDFE0)"/>
<path id="Vector_20" d="M205.862 375.573H35.8744C34.4423 375.573 33.0689 375.005 32.0563 373.992C31.0437 372.979 30.4749 371.606 30.4749 370.174C30.4749 368.742 31.0437 367.369 32.0563 366.356C33.0689 365.343 34.4423 364.774 35.8744 364.774H205.862C207.295 364.774 208.668 365.343 209.681 366.356C210.693 367.369 211.262 368.742 211.262 370.174C211.262 371.606 210.693 372.979 209.681 373.992C208.668 375.005 207.295 375.573 205.862 375.573Z" fill="var(--fill-0, #DDDFE0)"/>
<path id="Vector_21" d="M228.135 393.797H35.8744C34.4423 393.797 33.0689 393.228 32.0563 392.215C31.0437 391.203 30.4749 389.829 30.4749 388.397C30.4749 386.965 31.0437 385.592 32.0563 384.579C33.0689 383.567 34.4423 382.998 35.8744 382.998H228.135C229.567 382.998 230.941 383.567 231.953 384.579C232.966 385.592 233.535 386.965 233.535 388.397C233.535 389.829 232.966 391.203 231.953 392.215C230.941 393.228 229.567 393.797 228.135 393.797Z" fill="var(--fill-0, #DDDFE0)"/>
<path id="Vector_22" d="M566.624 350.35L325.422 350.35C322.385 350.347 319.474 349.139 317.326 346.992C315.179 344.844 313.971 341.933 313.968 338.896L313.968 11.4539C313.971 8.41728 315.179 5.50596 317.326 3.3587C319.473 1.21145 322.385 0.00360933 325.421 0.000189568L566.624 0C569.66 0.00341537 572.572 1.21124 574.719 3.35849C576.866 5.50574 578.074 8.41706 578.078 11.4537L578.078 338.896C578.074 341.933 576.867 344.844 574.719 346.991C572.572 349.139 569.661 350.346 566.624 350.35Z" fill="var(--fill-0, #E6F1FF)"/>
<path id="Vector_23" d="M566.624 350.35L325.422 350.35C322.385 350.347 319.474 349.139 317.326 346.992C315.179 344.844 313.971 341.933 313.968 338.896L313.968 11.4539C313.971 8.41728 315.179 5.50596 317.326 3.3587C319.473 1.21145 322.385 0.00360933 325.421 0.000189568L566.624 0C569.66 0.00341537 572.572 1.21124 574.719 3.35849C576.866 5.50574 578.074 8.41706 578.078 11.4537L578.078 338.896C578.074 341.933 576.867 344.844 574.719 346.991C572.572 349.139 569.661 350.346 566.624 350.35ZM325.421 1.34769C322.742 1.35073 320.173 2.41647 318.279 4.3111C316.384 6.20574 315.318 8.77454 315.315 11.4539L315.315 338.896C315.318 341.576 316.384 344.145 318.279 346.039C320.173 347.934 322.742 348.999 325.422 349.003L566.624 349.002C569.303 348.999 571.872 347.934 573.767 346.039C575.661 344.144 576.727 341.576 576.73 338.896L576.73 11.4537C576.727 8.77433 575.661 6.20553 573.767 4.3109C571.872 2.41627 569.303 1.35053 566.624 1.3475L325.421 1.34769Z" fill="var(--fill-0, #5379F4)"/>
<path id="Vector_24" d="M435.263 84.7715C435.263 93.6319 432.635 102.293 427.713 109.66C422.79 117.028 415.794 122.77 407.608 126.16C399.422 129.551 390.414 130.438 381.724 128.71C373.034 126.981 365.052 122.714 358.786 116.449C352.521 110.184 348.254 102.201 346.526 93.5114C344.797 84.8212 345.684 75.8137 349.075 67.6277C352.466 59.4418 358.208 52.4452 365.575 47.5226C372.942 42.6 381.604 39.9726 390.464 39.9726C402.344 39.9763 413.737 44.6974 422.137 53.098C430.538 61.4986 435.259 72.8912 435.263 84.7715Z" fill="var(--fill-0, white)"/>
<path id="Vector_25" d="M411.169 92.4371C410.679 121.088 368.061 121.084 367.576 92.4363C368.065 63.7859 410.683 63.7903 411.169 92.4371Z" fill="var(--fill-0, #F26F37)"/>
<path id="Vector_26" d="M388.507 101.33L388.484 100.516C394.098 101.265 395.307 94.3075 389.646 96.9086L390.938 87.464L391.745 87.5746L390.646 95.6085C396.607 94.7211 394.402 102.144 388.507 101.33Z" fill="var(--fill-0, #2F2E41)"/>
<path id="Vector_27" d="M400.122 88.2672H395.735V89.0817H400.122V88.2672Z" fill="var(--fill-0, #2F2E41)"/>
<path id="Vector_28" d="M386.277 88.2672H381.89V89.0817H386.277V88.2672Z" fill="var(--fill-0, #2F2E41)"/>
<path id="Vector_29" d="M396.438 122.912C397.293 117.141 390.537 118.281 386.961 118.224C386.385 118.226 385.816 118.356 385.296 118.606C384.776 118.855 384.318 119.217 383.956 119.666C383.594 120.115 383.337 120.639 383.203 121.199C383.069 121.76 383.062 122.344 383.182 122.908C380.414 123.763 377.851 125.177 375.651 127.062C384.922 130.294 394.995 130.406 404.335 127.379C402.058 125.335 399.363 123.81 396.438 122.912Z" fill="var(--fill-0, #2F2E41)"/>
<path id="Vector_30" d="M379.125 82.1278C383.164 79.7933 388.063 81.5842 392.235 82.5634C400.152 84.997 411.253 81.9496 412.216 72.5193C413.217 63.7489 401.22 58.8609 397.385 67.59L398.502 67.444C386.065 48.9616 364.432 49.6625 364.575 75.0727C364.528 75.8577 365.75 75.855 365.796 75.0722C365.338 60.0984 375.248 49.8628 389.257 59.4856C392.385 61.9348 395.144 64.823 397.447 68.0607C398.906 69.6956 399.223 62.6545 406.205 64.4988C413.89 67.4758 411.382 78.4795 404.514 80.8951C396.027 85.2309 386.836 76.8243 378.508 81.0723C378.374 81.1569 378.278 81.2904 378.24 81.4444C378.203 81.5984 378.226 81.761 378.306 81.8979C378.386 82.0348 378.516 82.1353 378.669 82.1782C378.822 82.2211 378.985 82.203 379.125 82.1278Z" fill="var(--fill-0, #2F2E41)"/>
<path id="Vector_31" d="M390.464 130.792C378.895 130.783 367.755 126.412 359.265 118.553C350.775 110.694 345.56 99.9232 344.66 88.3894C343.759 76.8555 347.24 65.4061 354.407 56.3245C361.574 47.243 371.9 41.1967 383.328 39.3915C394.755 37.5864 406.443 40.1551 416.06 46.5853C425.677 53.0155 432.517 62.8347 435.216 74.0845C437.914 85.3343 436.273 97.1879 430.62 107.281C424.966 117.375 415.715 124.966 404.713 128.541C400.111 130.038 395.302 130.798 390.464 130.792ZM390.464 41.1944C381.843 41.1932 373.416 43.7484 366.248 48.5369C359.079 53.3255 353.492 60.1322 350.193 68.0963C346.893 76.0603 346.03 84.824 347.711 93.2789C349.393 101.734 353.544 109.5 359.639 115.596C365.735 121.691 373.501 125.842 381.956 127.524C390.411 129.205 399.175 128.342 407.139 125.042C415.103 121.743 421.91 116.156 426.698 108.987C431.487 101.819 434.042 93.392 434.041 84.7715C434.028 73.2181 429.432 62.1417 421.263 53.9722C413.093 45.8028 402.017 41.2074 390.464 41.1944Z" fill="var(--fill-0, #5379F4)"/>
<path id="Vector_32" d="M519.929 85.0433L451.677 85.0434C450.245 85.0434 448.872 84.4745 447.859 83.4619C446.847 82.4493 446.278 81.0759 446.278 79.6438C446.278 78.2118 446.847 76.8384 447.859 75.8258C448.872 74.8132 450.245 74.2443 451.677 74.2443L519.929 74.2443C521.361 74.2443 522.735 74.8132 523.747 75.8258C524.76 76.8384 525.329 78.2118 525.329 79.6438C525.329 81.0758 524.76 82.4492 523.747 83.4618C522.735 84.4744 521.361 85.0433 519.929 85.0433Z" fill="var(--fill-0, #5379F4)"/>
<path id="Vector_33" d="M542.203 103.267L451.678 103.267C450.968 103.268 450.266 103.129 449.61 102.858C448.954 102.587 448.358 102.189 447.856 101.688C447.354 101.186 446.955 100.591 446.684 99.9352C446.412 99.2797 446.272 98.577 446.272 97.8673C446.272 97.1577 446.412 96.455 446.684 95.7995C446.955 95.1439 447.354 94.5484 447.856 94.0469C448.358 93.5455 448.954 93.1479 449.61 92.8769C450.266 92.606 450.968 92.4669 451.678 92.4678L542.203 92.4678C543.635 92.4678 545.008 93.0366 546.021 94.0492C547.034 95.0618 547.603 96.4352 547.603 97.8673C547.603 99.2993 547.034 100.673 546.021 101.685C545.008 102.698 543.635 103.267 542.203 103.267Z" fill="var(--fill-0, #9E616A)"/>
<path id="Vector_34" d="M519.831 173.161L349.843 173.161C348.412 173.159 347.041 172.589 346.029 171.577C345.018 170.565 344.45 169.192 344.45 167.761C344.45 166.33 345.018 164.958 346.029 163.946C347.041 162.933 348.412 162.364 349.843 162.362L519.831 162.362C521.263 162.362 522.637 162.931 523.649 163.943C524.662 164.956 525.231 166.329 525.231 167.761C525.231 169.193 524.662 170.567 523.649 171.579C522.637 172.592 521.263 173.161 519.831 173.161Z" fill="var(--fill-0, #DDDFE0)"/>
<path id="Vector_35" d="M542.104 191.384L349.842 191.384C349.133 191.385 348.43 191.246 347.774 190.975C347.118 190.704 346.522 190.307 346.02 189.805C345.518 189.304 345.12 188.708 344.848 188.053C344.576 187.397 344.436 186.694 344.436 185.985C344.436 185.275 344.576 184.572 344.848 183.917C345.12 183.261 345.518 182.666 346.02 182.164C346.522 181.663 347.118 181.265 347.774 180.994C348.43 180.723 349.133 180.584 349.842 180.585L542.104 180.585C543.536 180.585 544.909 181.154 545.922 182.167C546.934 183.179 547.503 184.553 547.503 185.985C547.503 187.417 546.934 188.79 545.922 189.803C544.909 190.815 543.536 191.384 542.104 191.384Z" fill="var(--fill-0, #DDDFE0)"/>
<path id="Vector_36" d="M519.831 233.268L349.843 233.268C348.412 233.267 347.041 232.697 346.029 231.685C345.018 230.672 344.45 229.3 344.45 227.869C344.45 226.438 345.018 225.066 346.029 224.053C347.041 223.041 348.412 222.471 349.843 222.469L519.831 222.469C521.263 222.469 522.637 223.038 523.649 224.051C524.662 225.063 525.231 226.437 525.231 227.869C525.231 229.301 524.662 230.674 523.649 231.687C522.637 232.699 521.263 233.268 519.831 233.268Z" fill="var(--fill-0, #DDDFE0)"/>
<path id="Vector_37" d="M542.104 251.492L349.842 251.492C349.133 251.493 348.43 251.354 347.774 251.083C347.118 250.812 346.522 250.414 346.02 249.913C345.518 249.411 345.12 248.816 344.848 248.16C344.576 247.505 344.436 246.802 344.436 246.092C344.436 245.383 344.576 244.68 344.848 244.024C345.12 243.369 345.518 242.773 346.02 242.272C346.522 241.77 347.118 241.373 347.774 241.102C348.43 240.831 349.133 240.692 349.842 240.693L542.104 240.693C543.536 240.693 544.909 241.262 545.922 242.274C546.934 243.287 547.503 244.66 547.503 246.092C547.503 247.524 546.934 248.898 545.922 249.91C544.909 250.923 543.536 251.492 542.104 251.492Z" fill="var(--fill-0, #DDDFE0)"/>
<path id="Vector_38" d="M519.83 293.376L349.842 293.376C348.41 293.376 347.036 292.807 346.024 291.794C345.011 290.782 344.442 289.409 344.442 287.976C344.442 286.544 345.011 285.171 346.024 284.158C347.036 283.146 348.41 282.577 349.842 282.577L519.83 282.577C521.262 282.577 522.635 283.146 523.648 284.158C524.661 285.171 525.229 286.544 525.229 287.976C525.229 289.408 524.661 290.782 523.648 291.794C522.635 292.807 521.262 293.376 519.83 293.376Z" fill="var(--fill-0, #DDDFE0)"/>
<path id="Vector_39" d="M542.103 311.599L349.842 311.599C348.41 311.599 347.036 311.031 346.024 310.018C345.011 309.005 344.442 307.632 344.442 306.2C344.442 304.768 345.011 303.395 346.024 302.382C347.036 301.369 348.41 300.8 349.842 300.8L542.103 300.8C543.535 300.8 544.908 301.369 545.921 302.382C546.934 303.394 547.502 304.768 547.502 306.2C547.502 307.632 546.934 309.005 545.921 310.018C544.908 311.03 543.535 311.599 542.103 311.599Z" fill="var(--fill-0, #DDDFE0)"/>
<path id="Vector_40" d="M421.094 491.163H179.892C176.855 491.16 173.944 489.952 171.797 487.805C169.649 485.658 168.442 482.746 168.438 479.71V152.267C168.442 149.231 169.649 146.319 171.797 144.172C173.944 142.025 176.855 140.817 179.892 140.814H421.094C424.131 140.817 427.042 142.025 429.19 144.172C431.337 146.319 432.545 149.231 432.548 152.267V479.71C432.545 482.746 431.337 485.658 429.19 487.805C427.042 489.952 424.131 491.16 421.094 491.163Z" fill="var(--fill-0, #E6F1FF)"/>
<path id="Vector_41" d="M200.008 225.11C200.001 231.007 201.161 236.846 203.421 242.292C205.682 247.738 208.998 252.683 213.179 256.84C213.53 257.186 213.888 257.533 214.25 257.871C216.434 259.91 218.816 261.726 221.361 263.291C221.85 263.593 222.339 263.882 222.84 264.163C225.414 265.614 228.126 266.805 230.936 267.718C231.421 267.877 231.913 268.028 232.406 268.166C241.339 270.728 250.845 270.461 259.62 267.401C259.791 267.339 259.962 267.278 260.129 267.217C267.831 264.415 274.617 259.554 279.748 253.162C284.88 246.771 288.159 239.094 289.23 230.968C290.301 222.842 289.122 214.578 285.822 207.075C282.522 199.572 277.227 193.119 270.513 188.417C263.8 183.715 255.925 180.945 247.746 180.408C239.568 179.871 231.398 181.588 224.128 185.372C216.857 189.156 210.764 194.861 206.511 201.868C202.258 208.875 200.009 216.914 200.008 225.11Z" fill="var(--fill-0, white)"/>
<path id="Vector_42" d="M235.347 247.068C235.368 250.539 234.089 253.892 231.761 256.466C229.458 258.994 226.028 260.671 222.568 259.977C219.381 259.338 216.792 256.553 217.115 253.184C217.169 252.454 217.381 251.745 217.737 251.106C218.092 250.466 218.583 249.912 219.175 249.482C219.767 249.052 220.446 248.756 221.164 248.615C221.882 248.474 222.622 248.491 223.333 248.666C226.36 249.451 227.566 253.814 225.043 255.861C224.438 256.353 223.569 255.493 224.179 254.998C224.556 254.653 224.84 254.22 225.006 253.737C225.172 253.254 225.214 252.737 225.128 252.234C225.043 251.731 224.832 251.257 224.516 250.856C224.2 250.455 223.789 250.14 223.319 249.94C222.765 249.762 222.178 249.713 221.602 249.796C221.027 249.88 220.478 250.093 219.996 250.419C219.515 250.746 219.115 251.178 218.825 251.682C218.535 252.186 218.364 252.75 218.325 253.33C218.125 256.171 220.301 258.31 222.969 258.813C225.856 259.358 228.718 257.881 230.674 255.842C232.915 253.474 234.152 250.329 234.125 247.068C234.13 246.91 234.197 246.76 234.311 246.649C234.425 246.539 234.577 246.478 234.736 246.478C234.894 246.478 235.047 246.539 235.161 246.649C235.275 246.76 235.341 246.91 235.347 247.068Z" fill="var(--fill-0, #2F2E41)"/>
<path id="Vector_43" d="M247.278 254.835C259.316 254.835 269.074 245.077 269.074 233.039C269.074 221.001 259.316 211.243 247.278 211.243C235.24 211.243 225.481 221.001 225.481 233.039C225.481 245.077 235.24 254.835 247.278 254.835Z" fill="var(--fill-0, #F26F37)"/>
<path id="Vector_44" d="M246.161 242.339L246.139 241.525C247.654 241.483 248.99 241.388 249.994 240.654C250.278 240.434 250.512 240.156 250.68 239.838C250.847 239.52 250.944 239.169 250.964 238.81C250.981 238.591 250.948 238.37 250.867 238.166C250.785 237.961 250.658 237.778 250.494 237.631C250.115 237.401 249.681 237.278 249.237 237.274C248.794 237.27 248.357 237.386 247.974 237.609L247.3 237.918L248.592 228.473L249.399 228.584L248.3 236.618C248.75 236.451 249.235 236.399 249.71 236.467C250.185 236.536 250.635 236.722 251.02 237.009C251.279 237.235 251.482 237.518 251.613 237.835C251.745 238.152 251.801 238.496 251.778 238.839C251.754 239.321 251.625 239.792 251.4 240.22C251.174 240.647 250.859 241.02 250.474 241.312C249.184 242.255 247.508 242.302 246.161 242.339Z" fill="var(--fill-0, #2F2E41)"/>
<path id="Vector_45" d="M257.777 229.277H253.391V230.091H257.777V229.277Z" fill="var(--fill-0, #2F2E41)"/>
<path id="Vector_46" d="M243.931 229.277H239.544V230.091H243.931V229.277Z" fill="var(--fill-0, #2F2E41)"/>
<path id="Vector_47" d="M232.406 268.166C241.339 270.728 250.845 270.461 259.62 267.401C259.791 267.34 259.962 267.279 260.129 267.218C258.061 265.623 255.723 264.414 253.226 263.65C253.402 263.024 253.399 262.36 253.217 261.736C252.97 260.944 252.474 260.253 251.803 259.766C251.131 259.278 250.32 259.021 249.491 259.032H244.18C243.352 259.02 242.543 259.277 241.872 259.764C241.202 260.25 240.708 260.941 240.462 261.732C240.28 262.358 240.277 263.022 240.454 263.65C238.254 264.323 236.176 265.342 234.296 266.668C233.917 266.932 233.551 267.209 233.196 267.499C232.928 267.714 232.663 267.938 232.406 268.166Z" fill="var(--fill-0, #2F2E41)"/>
<path id="Vector_48" d="M264.353 230.727C264.353 234.4 266.161 237.447 268.511 237.976C268.75 238.03 268.995 238.057 269.24 238.057C271.932 238.057 274.127 234.771 274.127 230.727C274.188 228.642 273.523 226.601 272.245 224.952C271.848 224.471 271.359 224.074 270.808 223.783C270.324 223.53 269.786 223.397 269.24 223.396C268.49 223.405 267.762 223.65 267.159 224.096C265.501 225.269 264.353 227.798 264.353 230.727Z" fill="var(--fill-0, #3F3D56)"/>
<path id="Vector_49" d="M220.774 230.727C220.774 233.887 222.11 236.583 223.984 237.614C224.496 237.901 225.074 238.054 225.662 238.057C225.792 238.057 225.923 238.049 226.053 238.033C228.561 237.736 230.549 234.575 230.549 230.727C230.549 227.644 229.274 225.001 227.474 223.921C226.929 223.583 226.302 223.402 225.662 223.396C225.116 223.397 224.578 223.53 224.094 223.783C223.54 224.075 223.05 224.474 222.652 224.956C221.378 226.605 220.715 228.644 220.774 230.727Z" fill="var(--fill-0, #3F3D56)"/>
<path id="Vector_50" d="M224.289 236.911C224.386 236.911 224.482 236.888 224.568 236.843C224.654 236.799 224.729 236.735 224.785 236.656C224.842 236.577 224.879 236.486 224.893 236.39C224.908 236.294 224.899 236.196 224.868 236.104C223.701 232.632 223.349 228.938 223.842 225.308C224.334 221.678 225.657 218.211 227.707 215.176C229.758 212.14 232.48 209.618 235.664 207.806C238.847 205.994 242.405 204.94 246.062 204.727C249.719 204.513 253.376 205.146 256.748 206.576C260.121 208.006 263.118 210.194 265.508 212.97C267.897 215.746 269.614 219.037 270.525 222.584C271.437 226.132 271.517 229.843 270.762 233.427C270.728 233.585 270.76 233.75 270.848 233.886C270.937 234.021 271.075 234.116 271.233 234.149C271.392 234.183 271.557 234.152 271.693 234.064C271.828 233.976 271.923 233.837 271.957 233.679C272.752 229.911 272.668 226.01 271.71 222.279C270.752 218.549 268.947 215.089 266.435 212.17C263.923 209.251 260.772 206.95 257.226 205.447C253.68 203.944 249.835 203.279 245.99 203.503C242.145 203.727 238.404 204.835 235.057 206.741C231.71 208.646 228.848 211.298 226.692 214.49C224.537 217.682 223.147 221.327 222.63 225.144C222.112 228.96 222.482 232.845 223.71 236.495C223.751 236.616 223.829 236.721 223.933 236.796C224.037 236.871 224.161 236.911 224.289 236.911Z" fill="var(--fill-0, #3F3D56)"/>
<path id="Vector_51" d="M258.226 218.917C258.588 219.507 258.738 220.203 258.652 220.89C258.567 221.577 258.25 222.215 257.754 222.698C256.571 224.02 254.684 224.104 253.046 223.858C251.207 223.583 249.257 222.722 247.396 223.302C245.809 223.797 244.678 225.236 243.029 225.597C241.568 225.918 239.82 225.493 239.308 223.936C239.061 223.187 240.241 222.866 240.486 223.611C240.817 224.619 242.249 224.599 243.068 224.319C244.382 223.872 245.395 222.784 246.687 222.264C248.227 221.787 249.875 221.791 251.413 222.277C252.874 222.606 254.556 223.094 256.012 222.479C257.089 222.024 257.946 220.591 257.171 219.534C256.706 218.899 257.766 218.288 258.226 218.917Z" fill="var(--fill-0, #2F2E41)"/>
<path id="Vector_52" d="M244.808 271.131C240.498 271.135 236.21 270.532 232.068 269.34C231.581 269.204 231.07 269.048 230.556 268.88C227.671 267.94 224.885 266.717 222.241 265.228C221.745 264.95 221.247 264.656 220.721 264.331C218.106 262.723 215.66 260.858 213.417 258.763C213.047 258.418 212.68 258.064 212.321 257.71C205.267 250.677 200.686 241.545 199.265 231.685C197.845 221.826 199.662 211.772 204.443 203.033C209.225 194.295 216.713 187.344 225.783 183.225C234.852 179.106 245.014 178.04 254.74 180.19C264.467 182.339 273.233 187.586 279.723 195.143C286.212 202.7 290.075 212.159 290.729 222.099C291.384 232.039 288.795 241.922 283.353 250.265C277.91 258.608 269.907 264.96 260.547 268.366C260.379 268.427 260.205 268.489 260.031 268.551C255.139 270.264 249.991 271.137 244.808 271.131ZM244.808 181.533C236.183 181.534 227.752 184.093 220.583 188.888C213.414 193.683 207.829 200.497 204.535 208.468C201.241 216.438 200.386 225.207 202.078 233.664C203.771 242.121 207.934 249.886 214.042 255.975C214.38 256.309 214.73 256.647 215.084 256.977C217.209 258.961 219.526 260.728 222.002 262.251C222.501 262.558 222.97 262.835 223.438 263.097C225.942 264.508 228.581 265.667 231.314 266.556C231.797 266.715 232.275 266.86 232.737 266.99C241.428 269.484 250.678 269.225 259.216 266.248L259.71 266.07C269.338 262.565 277.423 255.781 282.546 246.908C287.669 238.035 289.502 227.64 287.723 217.55C285.945 207.46 280.668 198.319 272.82 191.732C264.971 185.146 255.054 181.535 244.808 181.533Z" fill="var(--fill-0, #403C8B)"/>
<path id="Vector_53" d="M421.094 491.163H179.892C176.855 491.16 173.944 489.952 171.797 487.805C169.649 485.658 168.442 482.746 168.438 479.71V152.267C168.442 149.231 169.649 146.319 171.797 144.172C173.944 142.025 176.855 140.817 179.892 140.814H421.094C424.131 140.817 427.042 142.025 429.19 144.172C431.337 146.319 432.545 149.231 432.548 152.267V479.71C432.545 482.746 431.337 485.658 429.19 487.805C427.042 489.952 424.131 491.16 421.094 491.163ZM179.892 142.161C177.213 142.164 174.644 143.23 172.749 145.125C170.854 147.019 169.789 149.588 169.786 152.267V479.71C169.789 482.389 170.854 484.958 172.749 486.853C174.644 488.747 177.213 489.813 179.892 489.816H421.094C423.774 489.813 426.342 488.747 428.237 486.853C430.132 484.958 431.198 482.389 431.201 479.71V152.267C431.198 149.588 430.132 147.019 428.237 145.125C426.342 143.23 423.774 142.164 421.094 142.161H179.892Z" fill="var(--fill-0, #353535)"/>
<path id="Vector_54" d="M374.4 225.857H306.148C304.716 225.857 303.343 225.288 302.33 224.276C301.317 223.263 300.748 221.89 300.748 220.457C300.748 219.025 301.317 217.652 302.33 216.639C303.343 215.627 304.716 215.058 306.148 215.058H374.4C375.832 215.058 377.205 215.627 378.218 216.639C379.231 217.652 379.799 219.025 379.799 220.457C379.799 221.89 379.231 223.263 378.218 224.276C377.205 225.288 375.832 225.857 374.4 225.857Z" fill="var(--fill-0, #F26F37)"/>
<path id="Vector_55" d="M396.673 244.08H306.148C304.716 244.08 303.343 243.512 302.33 242.499C301.317 241.486 300.748 240.113 300.748 238.681C300.748 237.249 301.317 235.875 302.33 234.863C303.343 233.85 304.716 233.281 306.148 233.281H396.673C398.105 233.281 399.478 233.85 400.491 234.863C401.504 235.875 402.072 237.249 402.072 238.681C402.072 240.113 401.504 241.486 400.491 242.499C399.478 243.512 398.105 244.08 396.673 244.08Z" fill="var(--fill-0, #F26F37)"/>
<path id="Vector_56" d="M374.301 313.975H204.312C202.88 313.975 201.507 313.406 200.494 312.393C199.482 311.38 198.913 310.007 198.913 308.575C198.913 307.143 199.482 305.77 200.494 304.757C201.507 303.744 202.88 303.176 204.312 303.176H374.301C375.733 303.176 377.106 303.744 378.119 304.757C379.131 305.77 379.7 307.143 379.7 308.575C379.7 310.007 379.131 311.38 378.119 312.393C377.106 313.406 375.733 313.975 374.301 313.975Z" fill="var(--fill-0, #CCCCCC)"/>
<path id="Vector_57" d="M396.573 332.198H204.312C202.88 332.198 201.507 331.629 200.494 330.616C199.482 329.604 198.913 328.23 198.913 326.798C198.913 325.366 199.482 323.993 200.494 322.98C201.507 321.968 202.88 321.399 204.312 321.399H396.573C398.006 321.399 399.379 321.968 400.391 322.98C401.404 323.993 401.973 325.366 401.973 326.798C401.973 328.23 401.404 329.604 400.391 330.616C399.379 331.629 398.006 332.198 396.573 332.198Z" fill="var(--fill-0, #CCCCCC)"/>
<path id="Vector_58" d="M374.301 374.082H204.313C202.882 374.08 201.51 373.51 200.499 372.498C199.488 371.486 198.92 370.113 198.92 368.682C198.92 367.252 199.488 365.879 200.499 364.867C201.51 363.854 202.882 363.285 204.313 363.283H374.301C375.733 363.283 377.106 363.852 378.119 364.864C379.131 365.877 379.7 367.25 379.7 368.682C379.7 370.114 379.131 371.488 378.119 372.5C377.106 373.513 375.733 374.082 374.301 374.082Z" fill="var(--fill-0, #CCCCCC)"/>
<path id="Vector_59" d="M396.574 392.306H204.313C202.882 392.304 201.51 391.734 200.499 390.722C199.488 389.709 198.92 388.337 198.92 386.906C198.92 385.475 199.488 384.103 200.499 383.09C201.51 382.078 202.882 381.508 204.313 381.507H396.574C398.006 381.507 399.379 382.075 400.392 383.088C401.404 384.101 401.973 385.474 401.973 386.906C401.973 388.338 401.404 389.712 400.392 390.724C399.379 391.737 398.006 392.306 396.574 392.306Z" fill="var(--fill-0, #CCCCCC)"/>
<path id="Vector_60" d="M374.301 434.19H204.312C202.88 434.19 201.507 433.621 200.494 432.608C199.482 431.596 198.913 430.222 198.913 428.79C198.913 427.358 199.482 425.985 200.494 424.972C201.507 423.96 202.88 423.391 204.312 423.391H374.301C375.733 423.391 377.106 423.96 378.119 424.972C379.131 425.985 379.7 427.358 379.7 428.79C379.7 430.222 379.131 431.596 378.119 432.608C377.106 433.621 375.733 434.19 374.301 434.19Z" fill="var(--fill-0, #CCCCCC)"/>
<path id="Vector_61" d="M396.573 452.413H204.312C202.88 452.413 201.507 451.844 200.494 450.831C199.482 449.819 198.913 448.445 198.913 447.013C198.913 445.581 199.482 444.208 200.494 443.195C201.507 442.183 202.88 441.614 204.312 441.614H396.573C398.006 441.614 399.379 442.183 400.391 443.195C401.404 444.208 401.973 445.581 401.973 447.013C401.973 448.445 401.404 449.819 400.391 450.831C399.379 451.844 398.006 452.413 396.573 452.413Z" fill="var(--fill-0, #CCCCCC)"/>
<path id="Vector_62" d="M418.295 416.602C411.304 416.594 404.38 417.965 397.918 420.635C391.457 423.305 385.586 427.222 380.639 432.163C375.693 437.103 371.769 442.971 369.092 449.429C366.415 455.887 365.037 462.81 365.037 469.801C365.037 476.792 366.415 483.715 369.092 490.173C371.769 496.631 375.693 502.499 380.639 507.439C385.585 512.38 391.457 516.297 397.918 518.967C404.379 521.637 411.303 523.008 418.295 523C432.388 522.975 445.895 517.359 455.852 507.385C465.808 497.411 471.4 483.894 471.4 469.801C471.4 455.708 465.808 442.191 455.852 432.217C445.895 422.243 432.388 416.627 418.295 416.602Z" fill="var(--fill-0, #F26F37)"/>
<path id="f276b720-7c73-4755-84a7-b208d54eb1fc" d="M413.247 491.895C411.847 491.897 410.483 491.444 409.363 490.604L409.293 490.552L394.664 479.361C393.297 478.311 392.403 476.762 392.178 475.053C391.953 473.345 392.416 471.617 393.464 470.249C394.513 468.882 396.061 467.986 397.77 467.76C399.478 467.533 401.206 467.994 402.575 469.042L412.051 476.308L434.443 447.095C434.962 446.418 435.61 445.849 436.349 445.422C437.087 444.995 437.903 444.718 438.749 444.606C439.595 444.495 440.455 444.55 441.28 444.771C442.104 444.991 442.877 445.372 443.554 445.891L443.556 445.893L443.417 446.086L443.56 445.893C444.926 446.943 445.82 448.492 446.046 450.201C446.271 451.909 445.809 453.638 444.762 455.006L418.424 489.352C417.815 490.143 417.031 490.783 416.134 491.223C415.238 491.663 414.252 491.89 413.253 491.887L413.247 491.895Z" fill="var(--fill-0, white)"/>
</g>
<defs>
<clipPath id="clip0_0_81">
<rect width="578.077" height="523" fill="white"/>
</clipPath>
</defs>
</svg>
