<svg width="1183" height="639" viewBox="0 0 1183 639" fill="none" xmlns="http://www.w3.org/2000/svg">
<g clip-path="url(#clip0_1_344)">
<path d="M74.9326 533.296L71.2425 551.809C70.9645 553.224 70.6739 554.665 70.3579 556.093C67.2738 555.454 64.0761 555.632 61.0823 556.611C63.4575 560.005 65.586 563.565 67.4514 567.264C65.1262 574.43 61.7141 581.051 56.0022 585.841C52.1872 588.968 47.6307 591.06 42.7722 591.915C37.9136 592.769 32.9168 592.357 28.2637 590.719L28.428 589.986C22.2863 578.069 25.6225 563.043 33.2554 552.037C37.1484 546.606 41.761 541.73 46.9666 537.542C52.1225 533.245 57.6956 529.391 63.218 525.587C64.4583 524.734 65.9247 524.27 67.43 524.255C68.9352 524.24 70.4108 524.673 71.6683 525.501C72.9258 526.328 73.908 527.512 74.4895 528.9C75.0709 530.289 75.2252 531.819 74.9326 533.296Z" fill="#5379F4"/>
<path d="M29.5774 635.264C28.0243 623.95 26.427 612.492 27.5163 601.057C28.4843 590.902 31.5817 580.983 37.8901 572.85C41.2384 568.541 45.3125 564.849 49.9295 561.94C51.1338 561.182 52.2408 563.089 51.0428 563.844C43.0546 568.893 36.8759 576.348 33.3976 585.134C29.5559 594.905 28.9392 605.557 29.6065 615.936C30.0071 622.213 30.855 628.447 31.7105 634.677C31.7794 634.959 31.738 635.256 31.5947 635.508C31.4514 635.761 31.2171 635.949 30.9397 636.034C30.6575 636.11 30.3567 636.072 30.1026 635.927C29.8485 635.783 29.6616 635.544 29.5825 635.263L29.5774 635.264Z" fill="#EFFFF0"/>
<path d="M42.9065 67.7777C97.0405 66.8364 151.18 66.7012 205.326 67.372C259.464 68.0469 313.583 69.5314 367.685 71.8256C398.043 73.113 428.39 74.6554 458.723 76.4526C461.161 76.5968 461.152 72.8052 458.723 72.6615C404.676 69.4633 350.589 67.0702 296.462 65.4822C242.344 63.8986 188.209 63.1246 134.059 63.1604C103.673 63.1807 73.2891 63.456 42.9065 63.9866C40.4697 64.029 40.462 67.8202 42.9065 67.7777Z" fill="#353535"/>
<path d="M420.17 44.0064L443.841 42.2446C446.259 42.0646 446.279 38.272 443.841 38.4535L420.17 40.2152C417.751 40.3952 417.732 44.1878 420.17 44.0064Z" fill="#353535"/>
<path d="M420.17 66.7532L443.841 64.9915C446.259 64.8115 446.279 61.0189 443.841 61.2003L420.17 62.9621C417.751 63.1421 417.732 66.9347 420.17 66.7532Z" fill="#353535"/>
<path d="M418.389 56.3652L452.044 59.4227C454.473 59.6434 454.458 55.8509 452.044 55.6316L418.389 52.574C415.96 52.3534 415.975 56.1459 418.389 56.3652Z" fill="#353535"/>
<path d="M56.9152 38.9079C55.2691 38.8978 53.6564 39.3723 52.2782 40.2725C50.8999 41.1726 49.8171 42.4585 49.1647 43.9698C48.4348 45.449 48.2095 47.1265 48.5233 48.7458C48.837 50.3652 49.6724 51.8372 50.9018 52.9368C52.0576 53.9201 53.4438 54.5943 54.9308 54.8964C56.4179 55.1986 57.9572 55.1187 59.4051 54.6643C60.8857 54.1472 62.1697 53.1838 63.0802 51.9068C63.9908 50.6298 64.4831 49.102 64.4894 47.5336C64.5556 45.7936 64.0842 44.0755 63.1394 42.6128C62.1946 41.1501 60.8222 40.0139 59.209 39.3587C58.7242 39.227 58.2071 39.2923 57.7703 39.5403C57.3335 39.7883 57.0125 40.1989 56.8772 40.6826C56.7576 41.1669 56.8283 41.6785 57.0745 42.1123C57.3208 42.5461 57.724 42.8689 58.2011 43.0144C58.5315 43.142 57.8993 42.852 58.2078 43.0201C58.3346 43.0892 58.4638 43.1516 58.5884 43.2254C58.6943 43.2881 58.7956 43.3567 58.8986 43.4239C59.2525 43.6549 58.7259 43.2544 58.9521 43.462C59.1482 43.642 59.3425 43.8177 59.5208 44.0164C59.5882 44.0915 59.8523 44.3004 59.6471 44.1544C59.4901 44.0427 59.5865 44.069 59.647 44.1586C59.6929 44.2267 59.7415 44.2929 59.7869 44.3614C59.9346 44.585 60.069 44.8173 60.1892 45.0569C60.217 45.1123 60.2425 45.1691 60.2708 45.2242C60.3239 45.3276 60.4009 45.3547 60.2761 45.2252C60.1568 45.1015 60.2327 45.11 60.2754 45.229C60.3034 45.3073 60.3341 45.3845 60.3613 45.4631C60.4502 45.7188 60.5248 45.9792 60.5848 46.2432C60.6126 46.3652 60.635 46.4879 60.6588 46.6107C60.7435 47.046 60.6465 46.3401 60.667 46.6634C60.6841 46.9334 60.704 47.2005 60.6993 47.4715C60.6971 47.5956 60.6917 47.7195 60.6831 47.8432C60.6787 47.9049 60.6719 47.9665 60.6678 48.0282C60.6481 48.3257 60.6475 47.9195 60.6891 47.8917C60.6025 48.1442 60.545 48.4058 60.5178 48.6714C60.4839 48.7893 60.4435 48.9046 60.4058 49.0211C60.2739 49.4278 60.5296 48.7994 60.389 49.0774C60.2733 49.3162 60.144 49.5481 60.0018 49.7721C59.94 49.8659 59.7071 50.0777 59.8976 49.9303C60.1042 49.7703 59.7892 50.0458 59.722 50.1167C59.6357 50.2078 59.5461 50.2956 59.4532 50.3804C59.3937 50.4384 59.3309 50.493 59.2652 50.5438C59.2531 50.5377 59.5819 50.3242 59.4047 50.4372C59.1794 50.5809 58.9662 50.7346 58.7288 50.8596C58.7012 50.8742 58.3977 51.0148 58.399 51.0198C58.3859 50.9686 58.7891 50.8778 58.5123 50.9672C58.4542 50.986 58.3972 51.0087 58.3392 51.0282C58.0872 51.113 57.83 51.1815 57.5692 51.2333C57.5095 51.2452 57.4464 51.2512 57.3875 51.2665C57.1916 51.3171 57.5748 51.2367 57.5863 51.2434C57.4415 51.2371 57.2964 51.25 57.1549 51.2816C56.886 51.297 56.6164 51.2969 56.3474 51.2815C56.2852 51.2779 56.2231 51.2717 56.1609 51.2681C56.0165 51.2597 55.9105 51.1556 56.1027 51.2686C56.251 51.3558 56.2386 51.2922 56.1073 51.2679C56.0458 51.2566 55.9841 51.247 55.9226 51.2355C55.6564 51.1856 55.3932 51.1211 55.1341 51.0423C54.9947 50.9998 54.8581 50.9504 54.7205 50.9023C54.6606 50.885 54.6022 50.8625 54.5461 50.8352C54.5453 50.8196 54.9006 51.005 54.713 50.9039C54.4762 50.7763 54.2314 50.6693 54.0002 50.5298C53.8768 50.4554 53.7583 50.3745 53.6383 50.2948C53.5855 50.263 53.5354 50.2271 53.4883 50.1874C53.4923 50.1714 53.7822 50.44 53.63 50.295C53.4375 50.1115 53.2316 49.9474 53.0494 49.752C53.0077 49.7074 52.9682 49.6606 52.9267 49.6158L52.8864 49.5699C52.7837 49.4443 52.7818 49.4449 52.8807 49.5716C52.9812 49.6012 52.9766 49.7115 52.8813 49.5683C52.8473 49.5173 52.8112 49.4677 52.7773 49.4167C52.6234 49.1973 52.4921 48.9629 52.3855 48.717C52.3947 48.7098 52.5497 49.1731 52.4312 48.8235C52.4088 48.7574 52.3836 48.6924 52.3617 48.6262C52.3181 48.4949 52.2798 48.3621 52.2467 48.2279C52.2139 48.0949 52.1971 47.9577 52.1641 47.8252C52.1084 47.602 52.1966 48.0014 52.1866 47.9914C52.155 47.9602 52.1684 47.7666 52.166 47.7203C52.1509 47.4228 52.1848 47.1341 52.1901 46.8385C52.1942 46.6094 52.1711 47.017 52.1663 47.005C52.1675 46.9364 52.1796 46.8684 52.2023 46.8037C52.2366 46.6478 52.2686 46.492 52.3106 46.3378C52.3587 46.1612 52.414 45.9868 52.4767 45.8146C52.5001 45.7502 52.5286 45.6867 52.5504 45.6217C52.6302 45.3837 52.3924 45.9092 52.5235 45.6945C52.7039 45.3992 52.8382 45.0796 53.0297 44.788C53.075 44.7189 53.3509 44.3337 53.2045 44.5282C53.0587 44.7218 53.3543 44.3548 53.4103 44.2925C53.6428 44.0335 53.9163 43.821 54.157 43.5731C54.2995 43.4263 54.0575 43.6453 54.0433 43.6555C54.1178 43.6023 54.1908 43.547 54.2663 43.495C54.3979 43.4043 54.5328 43.3185 54.6708 43.2377C54.8263 43.1465 55.0022 43.0786 55.1529 42.9822C55.3309 42.8682 55.0167 43.0322 55.0111 43.0356C55.0924 42.9953 55.1774 42.9629 55.265 42.9388C55.4118 42.8868 56.0502 42.6113 56.1841 42.6975C56.178 42.6936 55.6993 42.736 56.0863 42.7111C56.1777 42.7053 56.2688 42.6963 56.3604 42.6926C56.5456 42.6849 56.7302 42.6895 56.9153 42.6991C57.417 42.6958 57.8972 42.4951 58.252 42.1403C58.6068 41.7855 58.8076 41.3053 58.8108 40.8036C58.8001 40.3042 58.5969 39.8283 58.2438 39.4751C57.8906 39.1219 57.4146 38.9187 56.9152 38.9079Z" fill="#353535"/>
<path d="M83.4534 38.9079C81.8073 38.8978 80.1946 39.3723 78.8163 40.2725C77.4381 41.1726 76.3553 42.4585 75.7028 43.9698C74.973 45.449 74.7477 47.1265 75.0614 48.7458C75.3751 50.3652 76.2105 51.8372 77.44 52.9368C78.5957 53.9201 79.9819 54.5943 81.469 54.8964C82.956 55.1986 84.4954 55.1187 85.9432 54.6643C87.4239 54.1472 88.7078 53.1838 89.6184 51.9068C90.5289 50.6298 91.0212 49.102 91.0276 47.5336C91.0937 45.7936 90.6223 44.0755 89.6775 42.6128C88.7327 41.1501 87.3604 40.0139 85.7471 39.3587C85.2624 39.227 84.7453 39.2923 84.3085 39.5403C83.8717 39.7883 83.5506 40.1989 83.4153 40.6826C83.2958 41.1669 83.3664 41.6785 83.6127 42.1123C83.859 42.5461 84.2622 42.8689 84.7393 43.0144C85.0696 43.142 84.4375 42.852 84.7459 43.0201C84.8728 43.0892 85.002 43.1516 85.1265 43.2254C85.2324 43.2881 85.3338 43.3567 85.4368 43.4239C85.7906 43.6549 85.264 43.2544 85.4902 43.462C85.6863 43.642 85.8807 43.8177 86.0589 44.0164C86.1264 44.0915 86.3905 44.3004 86.1852 44.1544C86.0282 44.0427 86.1247 44.069 86.1852 44.1586C86.2311 44.2267 86.2796 44.2929 86.325 44.3614C86.4728 44.585 86.6071 44.8173 86.7273 45.0569C86.7552 45.1123 86.7806 45.1691 86.809 45.2242C86.8621 45.3276 86.939 45.3547 86.8142 45.2252C86.695 45.1015 86.7709 45.11 86.8135 45.229C86.8416 45.3073 86.8722 45.3845 86.8995 45.4631C86.9884 45.7188 87.063 45.9792 87.123 46.2432C87.1508 46.3652 87.1731 46.4879 87.197 46.6107C87.2817 47.046 87.1847 46.3401 87.2051 46.6634C87.2222 46.9334 87.2421 47.2005 87.2374 47.4715C87.2353 47.5956 87.2299 47.7195 87.2212 47.8432C87.2169 47.9049 87.21 47.9665 87.2059 48.0282C87.1863 48.3257 87.1857 47.9195 87.2273 47.8917C87.1406 48.1442 87.0832 48.4058 87.056 48.6714C87.022 48.7893 86.9817 48.9046 86.9439 49.0211C86.812 49.4278 87.0677 48.7994 86.9272 49.0774C86.8115 49.3162 86.6822 49.5481 86.5399 49.7721C86.4782 49.8659 86.2453 50.0777 86.4357 49.9303C86.6424 49.7703 86.3274 50.0458 86.2601 50.1167C86.1738 50.2078 86.0842 50.2956 85.9913 50.3804C85.9319 50.4384 85.8691 50.493 85.8033 50.5438C85.7913 50.5377 86.12 50.3242 85.9428 50.4372C85.7176 50.5809 85.5043 50.7346 85.2669 50.8596C85.2393 50.8742 84.9358 51.0148 84.9371 51.0198C84.924 50.9686 85.3272 50.8778 85.0505 50.9672C84.9923 50.986 84.9353 51.0087 84.8774 51.0282C84.6254 51.113 84.3682 51.1815 84.1074 51.2333C84.0477 51.2452 83.9845 51.2512 83.9257 51.2665C83.7297 51.3171 84.1129 51.2367 84.1245 51.2434C83.9796 51.2371 83.8346 51.25 83.6931 51.2816C83.4241 51.297 83.1545 51.2969 82.8856 51.2815C82.8233 51.2779 82.7613 51.2717 82.699 51.2681C82.5546 51.2597 82.4486 51.1556 82.6408 51.2686C82.7891 51.3558 82.7768 51.2922 82.6454 51.2679C82.584 51.2566 82.5222 51.247 82.4608 51.2355C82.1946 51.1856 81.9313 51.1211 81.6722 51.0423C81.5328 50.9998 81.3962 50.9504 81.2587 50.9023C81.1987 50.885 81.1404 50.8625 81.0843 50.8352C81.0834 50.8196 81.4388 51.005 81.2512 50.9039C81.0144 50.7763 80.7695 50.6693 80.5383 50.5298C80.4149 50.4554 80.2964 50.3745 80.1765 50.2948C80.1237 50.263 80.0735 50.2271 80.0264 50.1874C80.0304 50.1714 80.3203 50.44 80.1681 50.295C79.9757 50.1115 79.7698 49.9474 79.5875 49.752C79.5458 49.7074 79.5064 49.6606 79.4648 49.6158L79.4246 49.5699C79.3218 49.4443 79.3199 49.4449 79.4189 49.5716C79.5193 49.6012 79.5148 49.7115 79.4194 49.5683C79.3855 49.5173 79.3494 49.4677 79.3155 49.4167C79.1615 49.1973 79.0302 48.9629 78.9236 48.717C78.9329 48.7098 79.0879 49.1731 78.9694 48.8235C78.947 48.7574 78.9218 48.6924 78.8998 48.6262C78.8563 48.4949 78.818 48.3621 78.7848 48.2279C78.7521 48.0949 78.7353 47.9577 78.7022 47.8252C78.6465 47.602 78.7348 48.0014 78.7247 47.9914C78.6931 47.9602 78.7065 47.7666 78.7042 47.7203C78.689 47.4228 78.7229 47.1341 78.7282 46.8385C78.7323 46.6094 78.7093 47.017 78.7045 47.005C78.7056 46.9364 78.7178 46.8684 78.7405 46.8037C78.7748 46.6478 78.8067 46.492 78.8487 46.3378C78.8968 46.1612 78.9522 45.9868 79.0148 45.8146C79.0382 45.7502 79.0668 45.6867 79.0885 45.6217C79.1683 45.3837 78.9306 45.9092 79.0617 45.6945C79.242 45.3992 79.3763 45.0796 79.5678 44.788C79.6132 44.7189 79.8891 44.3337 79.7426 44.5282C79.5968 44.7218 79.8925 44.3548 79.9485 44.2925C80.181 44.0335 80.4544 43.821 80.6951 43.5731C80.8376 43.4263 80.5957 43.6453 80.5814 43.6555C80.656 43.6023 80.729 43.547 80.8045 43.495C80.9361 43.4043 81.0709 43.3185 81.209 43.2377C81.3645 43.1465 81.5403 43.0786 81.691 42.9822C81.8691 42.8682 81.5548 43.0322 81.5492 43.0356C81.6305 42.9953 81.7156 42.9629 81.8031 42.9388C81.9499 42.8868 82.5883 42.6113 82.7222 42.6975C82.7162 42.6936 82.2375 42.736 82.6244 42.7111C82.7159 42.7053 82.8069 42.6963 82.8985 42.6926C83.0838 42.6849 83.2684 42.6895 83.4534 42.6991C83.9551 42.6958 84.4354 42.4951 84.7902 42.1403C85.1449 41.7855 85.3457 41.3053 85.349 40.8036C85.3383 40.3042 85.1351 39.8283 84.7819 39.4751C84.4287 39.1219 83.9527 38.9187 83.4534 38.9079Z" fill="#353535"/>
<path d="M109.991 38.9079C108.345 38.8978 106.732 39.3723 105.354 40.2725C103.976 41.1726 102.893 42.4585 102.241 43.9698C101.511 45.449 101.285 47.1265 101.599 48.7458C101.913 50.3652 102.748 51.8372 103.978 52.9368C105.133 53.9201 106.52 54.5943 108.007 54.8964C109.494 55.1986 111.033 55.1187 112.481 54.6643C113.962 54.1472 115.246 53.1838 116.156 51.9068C117.067 50.6298 117.559 49.102 117.565 47.5336C117.631 45.7936 117.16 44.0755 116.215 42.6128C115.271 41.1501 113.898 40.0139 112.285 39.3587C111.8 39.227 111.283 39.2923 110.846 39.5403C110.409 39.7883 110.088 40.1989 109.953 40.6826C109.834 41.1669 109.904 41.6785 110.15 42.1123C110.397 42.5461 110.8 42.8689 111.277 43.0144C111.607 43.142 110.975 42.852 111.284 43.0201C111.411 43.0892 111.54 43.1516 111.664 43.2254C111.77 43.2881 111.872 43.3567 111.975 43.4239C112.328 43.6549 111.802 43.2544 112.028 43.462C112.224 43.642 112.418 43.8177 112.597 44.0164C112.664 44.0915 112.928 44.3004 112.723 44.1544C112.566 44.0427 112.662 44.069 112.723 44.1586C112.769 44.2267 112.817 44.2929 112.863 44.3614C113.011 44.585 113.145 44.8173 113.265 45.0569C113.293 45.1123 113.318 45.1691 113.347 45.2242C113.4 45.3276 113.477 45.3547 113.352 45.2252C113.233 45.1015 113.309 45.11 113.351 45.229C113.379 45.3073 113.41 45.3845 113.437 45.4631C113.526 45.7188 113.601 45.9792 113.661 46.2432C113.689 46.3652 113.711 46.4879 113.735 46.6107C113.819 47.046 113.722 46.3401 113.743 46.6634C113.76 46.9334 113.78 47.2005 113.775 47.4715C113.773 47.5956 113.768 47.7195 113.759 47.8432C113.755 47.9049 113.748 47.9665 113.744 48.0282C113.724 48.3257 113.723 47.9195 113.765 47.8917C113.678 48.1442 113.621 48.4058 113.594 48.6714C113.56 48.7893 113.519 48.9046 113.482 49.0211C113.35 49.4278 113.606 48.7994 113.465 49.0774C113.349 49.3162 113.22 49.5481 113.078 49.7721C113.016 49.8659 112.783 50.0777 112.973 49.9303C113.18 49.7703 112.865 50.0458 112.798 50.1167C112.712 50.2078 112.622 50.2956 112.529 50.3804C112.47 50.4384 112.407 50.493 112.341 50.5438C112.329 50.5377 112.658 50.3242 112.481 50.4372C112.255 50.5809 112.042 50.7346 111.805 50.8596C111.777 50.8742 111.474 51.0148 111.475 51.0198C111.462 50.9686 111.865 50.8778 111.588 50.9672C111.53 50.986 111.473 51.0087 111.415 51.0282C111.163 51.113 110.906 51.1815 110.645 51.2333C110.585 51.2452 110.522 51.2512 110.463 51.2665C110.268 51.3171 110.651 51.2367 110.662 51.2434C110.517 51.2371 110.372 51.25 110.231 51.2816C109.962 51.297 109.692 51.2969 109.423 51.2815C109.361 51.2779 109.299 51.2717 109.237 51.2681C109.092 51.2597 108.986 51.1556 109.179 51.2686C109.327 51.3558 109.315 51.2922 109.183 51.2679C109.122 51.2566 109.06 51.247 108.999 51.2355C108.732 51.1856 108.469 51.1211 108.21 51.0423C108.071 50.9998 107.934 50.9504 107.796 50.9023C107.737 50.885 107.678 50.8625 107.622 50.8352C107.621 50.8196 107.977 51.005 107.789 50.9039C107.552 50.7763 107.307 50.6693 107.076 50.5298C106.953 50.4554 106.834 50.3745 106.714 50.2948C106.661 50.263 106.611 50.2271 106.564 50.1874C106.568 50.1714 106.858 50.44 106.706 50.295C106.513 50.1115 106.308 49.9474 106.125 49.752C106.084 49.7074 106.044 49.6606 106.003 49.6158L105.962 49.5699C105.86 49.4443 105.858 49.4449 105.957 49.5716C106.057 49.6012 106.053 49.7115 105.957 49.5683C105.923 49.5173 105.887 49.4677 105.853 49.4167C105.699 49.1973 105.568 48.9629 105.461 48.717C105.471 48.7098 105.626 49.1731 105.507 48.8235C105.485 48.7574 105.46 48.6924 105.438 48.6262C105.394 48.4949 105.356 48.3621 105.323 48.2279C105.29 48.0949 105.273 47.9577 105.24 47.8252C105.184 47.602 105.273 48.0014 105.262 47.9914C105.231 47.9602 105.244 47.7666 105.242 47.7203C105.227 47.4228 105.261 47.1341 105.266 46.8385C105.27 46.6094 105.247 47.017 105.242 47.005C105.243 46.9364 105.256 46.8684 105.278 46.8037C105.313 46.6478 105.344 46.492 105.386 46.3378C105.435 46.1612 105.49 45.9868 105.553 45.8146C105.576 45.7502 105.605 45.6867 105.626 45.6217C105.706 45.3837 105.468 45.9092 105.599 45.6945C105.78 45.3992 105.914 45.0796 106.106 44.788C106.151 44.7189 106.427 44.3337 106.28 44.5282C106.135 44.7218 106.43 44.3548 106.486 44.2925C106.719 44.0335 106.992 43.821 107.233 43.5731C107.375 43.4263 107.133 43.6453 107.119 43.6555C107.194 43.6023 107.267 43.547 107.342 43.495C107.474 43.4043 107.609 43.3185 107.747 43.2377C107.902 43.1465 108.078 43.0786 108.229 42.9822C108.407 42.8682 108.093 43.0322 108.087 43.0356C108.168 42.9953 108.253 42.9629 108.341 42.9388C108.488 42.8868 109.126 42.6113 109.26 42.6975C109.254 42.6936 108.775 42.736 109.162 42.7111C109.254 42.7053 109.345 42.6963 109.436 42.6926C109.622 42.6849 109.806 42.6895 109.991 42.6991C110.493 42.6958 110.973 42.4951 111.328 42.1403C111.683 41.7855 111.883 41.3053 111.887 40.8036C111.876 40.3042 111.673 39.8283 111.32 39.4751C110.966 39.1219 110.491 38.9187 109.991 38.9079Z" fill="#353535"/>
<path d="M493.368 458.727H28.4415C22.5624 458.721 16.926 456.383 12.7689 452.226C8.6117 448.068 6.27327 442.432 6.26666 436.553V22.1748C6.27325 16.2957 8.61163 10.6593 12.7688 6.50213C16.9259 2.34497 22.5624 0.00659257 28.4415 0H493.368C499.247 0.00659258 504.883 2.34497 509.04 6.50213C513.197 10.6593 515.536 16.2957 515.542 22.1748V436.553C515.536 442.432 513.197 448.068 509.04 452.226C504.883 456.383 499.247 458.721 493.368 458.727ZM28.4415 2.52742C23.2325 2.53335 18.2385 4.60524 14.5552 8.28856C10.8719 11.9719 8.80001 16.9658 8.79408 22.1748V436.553C8.80014 441.762 10.8721 446.756 14.5554 450.439C18.2387 454.122 23.2326 456.194 28.4415 456.2H493.368C498.576 456.194 503.57 454.122 507.254 450.439C510.937 446.756 513.009 441.762 513.015 436.553V22.1748C513.009 16.9658 510.937 11.9719 507.254 8.28856C503.57 4.60524 498.577 2.53335 493.368 2.52742H28.4415Z" fill="#353535"/>
<path d="M27.6706 281.941L191.169 281.444L353.832 280.949L445.591 280.67C446.083 280.653 446.548 280.446 446.89 280.092C447.232 279.739 447.423 279.266 447.423 278.775C447.423 278.283 447.232 277.811 446.89 277.457C446.548 277.103 446.083 276.896 445.591 276.879L282.093 277.376L119.43 277.871L27.6706 278.15C27.1792 278.167 26.7137 278.375 26.3721 278.728C26.0305 279.082 25.8396 279.554 25.8396 280.046C25.8396 280.538 26.0305 281.01 26.3721 281.364C26.7137 281.717 27.1792 281.924 27.6706 281.941Z" fill="#353535"/>
<path d="M110.153 278.868L111.164 219.174C111.206 216.734 107.414 216.733 107.373 219.174L106.362 278.868C106.321 281.309 110.112 281.309 110.153 278.868Z" fill="#353535"/>
<path d="M188.294 279.514L190.758 204.482L191.462 183.044C191.542 180.604 187.751 180.607 187.671 183.044L185.207 258.076L184.503 279.514C184.423 281.954 188.214 281.951 188.294 279.514Z" fill="#353535"/>
<path d="M266.227 147.477C264.741 174.053 261.991 252.441 260.505 279.016C260.369 281.454 264.16 281.446 264.296 279.016C265.782 252.441 268.532 174.053 270.018 147.477C270.154 145.039 266.363 145.047 266.227 147.477Z" fill="#353535"/>
<path d="M343.783 252.349L343.318 277.893C343.274 280.334 347.065 280.334 347.11 277.893C347.658 247.724 349.066 248.708 349.221 240.193C349.265 237.753 345.474 237.752 345.43 240.193C345.43 240.193 344.332 222.181 343.783 252.349Z" fill="#353535"/>
<path d="M419.747 185.246L420.175 256.909L420.298 277.429C420.315 277.921 420.522 278.386 420.876 278.728C421.23 279.07 421.702 279.26 422.194 279.26C422.685 279.26 423.158 279.07 423.511 278.728C423.865 278.386 424.072 277.921 424.089 277.429L423.661 205.766L423.538 185.246C423.521 184.754 423.314 184.289 422.96 183.947C422.606 183.606 422.134 183.415 421.642 183.415C421.151 183.415 420.678 183.606 420.324 183.947C419.971 184.289 419.764 184.754 419.747 185.246Z" fill="#353535"/>
<path d="M27.9762 279.809C24.8381 271.185 31.912 262.891 39.1806 259.164C47.8888 254.699 57.9066 253.687 66.7071 249.383C79.8273 242.966 89.3837 231.449 97.887 219.921C106.639 208.055 114.647 195.321 125.769 185.462C131.629 180.152 138.55 176.146 146.075 173.711C155.555 170.752 165.61 170.549 175.407 171.742C195.65 174.205 214.415 182.566 233.947 187.88C252.362 192.89 272.651 195.708 290.726 187.917C299.909 183.958 307.419 177.32 315.485 171.575C323.291 165.957 332.019 161.746 341.275 159.134C359.419 154.089 379.234 155.436 396.127 163.965C411.655 171.705 423.949 184.681 430.841 200.603C438.849 219.734 437.806 241.113 435.19 261.249C434.514 266.454 433.709 271.641 432.896 276.826C432.521 279.213 436.174 280.241 436.552 277.834C439.809 257.07 443.057 235.649 439.004 214.754C435.499 196.51 425.467 180.167 410.784 168.785C396.039 157.372 377.709 151.587 359.083 152.469C349.323 152.922 339.715 155.059 330.683 158.785C321.307 162.663 313.367 168.411 305.303 174.46C297.011 180.679 288.464 185.822 278.169 187.851C268.184 189.818 257.797 189.08 247.855 187.223C227.342 183.39 208.222 174.605 187.883 170.103C169.039 165.932 148.705 165.516 131.83 176.161C118.85 184.35 109.678 197.063 100.876 209.339C92.151 221.507 83.3155 234.518 70.5571 242.831C62.7742 247.901 54.0254 249.772 45.319 252.623C36.5902 255.482 28.2104 260.305 24.6513 269.248C23.1174 272.931 22.9996 277.052 24.3204 280.816C25.1482 283.091 28.8133 282.109 27.9762 279.809Z" fill="#353535"/>
<path d="M108.895 210.92L108.89 210.922L108.899 210.92H108.895Z" fill="#353535"/>
<path d="M115.468 207.433C114.592 205.881 113.194 204.69 111.523 204.072C109.852 203.453 108.016 203.447 106.341 204.054C105.508 204.358 104.744 204.826 104.096 205.43C103.447 206.034 102.926 206.762 102.563 207.571C102.491 207.743 102.448 207.924 102.389 208.1C102.307 208.233 102.208 208.353 102.134 208.492C101.349 210.058 101.134 211.848 101.526 213.556C101.919 215.263 102.894 216.78 104.285 217.845C105.675 218.911 107.394 219.458 109.145 219.392C110.895 219.327 112.568 218.653 113.875 217.487C115.249 216.245 116.157 214.57 116.446 212.741C116.736 210.912 116.391 209.038 115.468 207.433ZM110.72 210.652C110.73 210.836 110.736 210.748 110.72 210.652V210.652ZM110.238 209.555C110.219 209.533 110.222 209.536 110.238 209.555V209.555ZM108.111 210.41C108.079 210.359 108.082 210.366 108.111 210.41V210.41ZM108.615 210.837C108.687 210.87 108.735 210.878 108.615 210.837V210.837ZM108.84 210.945L108.89 210.922C108.878 210.923 108.865 210.921 108.854 210.915L108.856 210.915L108.895 210.919L108.902 210.916L108.88 210.911C108.899 210.91 108.901 210.913 108.902 210.916C109.128 210.813 108.976 210.862 108.845 210.903L108.836 210.901C108.755 210.859 108.667 210.831 108.576 210.817C108.568 210.813 108.558 210.809 108.551 210.804C108.478 210.753 108.112 210.466 108.452 210.767C108.378 210.701 108.305 210.637 108.235 210.566C108.194 210.524 108.157 210.478 108.124 210.43C108.079 210.353 108.036 210.276 107.994 210.198L107.988 210.156C107.982 210.121 107.978 210.106 107.973 210.085C107.975 210.064 107.979 210.04 107.982 210.018C108.008 209.95 108.024 209.878 108.03 209.806L108.045 209.787C108.1 209.711 108.147 209.623 108.199 209.544C107.924 209.961 108.307 209.498 108.335 209.439C108.34 209.429 108.332 209.435 108.334 209.428C108.345 209.421 108.341 209.426 108.355 209.418C108.44 209.368 108.521 209.312 108.607 209.264C108.71 209.207 109.116 209.092 108.695 209.212C108.791 209.185 108.882 209.15 108.979 209.125C108.996 209.12 109.138 209.101 109.214 209.087C109.281 209.085 109.346 209.083 109.353 209.083C109.385 209.084 109.416 209.087 109.447 209.089C109.378 209.098 109.687 209.165 109.779 209.179C109.792 209.19 109.799 209.196 109.817 209.209C109.895 209.266 109.989 209.317 110.071 209.37C109.705 209.133 110.076 209.388 110.146 209.458C110.188 209.5 110.226 209.545 110.266 209.589C110.302 209.631 110.335 209.676 110.364 209.723C110.424 209.833 110.488 209.945 110.551 210.053L110.568 210.081C110.568 210.084 110.568 210.088 110.568 210.092C110.601 210.267 110.649 210.44 110.713 210.607C110.716 210.621 110.718 210.635 110.72 210.65C110.726 210.746 110.734 210.842 110.734 210.939L110.733 210.958C110.441 210.806 110.117 210.725 109.788 210.723C109.459 210.721 109.134 210.797 108.84 210.945Z" fill="#353535"/>
<path d="M108.907 210.917C108.911 210.919 108.906 210.919 108.906 210.919L108.907 210.917Z" fill="#353535"/>
<path d="M108.905 210.919L108.901 210.92C108.907 210.921 108.905 210.919 108.905 210.919Z" fill="#353535"/>
<path d="M108.903 210.916L108.905 210.917L108.903 210.916Z" fill="#353535"/>
<path d="M189.773 175.536L189.768 175.538L189.777 175.536H189.773Z" fill="#353535"/>
<path d="M196.347 172.049C195.471 170.497 194.073 169.306 192.402 168.688C190.73 168.069 188.894 168.063 187.219 168.67C186.386 168.974 185.623 169.442 184.974 170.046C184.325 170.65 183.804 171.378 183.441 172.187C183.369 172.359 183.326 172.54 183.267 172.716C183.185 172.849 183.086 172.969 183.013 173.108C182.227 174.674 182.012 176.464 182.404 178.172C182.797 179.879 183.772 181.396 185.163 182.461C186.554 183.527 188.272 184.074 190.023 184.008C191.773 183.943 193.446 183.269 194.754 182.103C196.128 180.861 197.035 179.186 197.325 177.357C197.615 175.528 197.269 173.654 196.347 172.049ZM191.599 175.268C191.609 175.452 191.614 175.364 191.599 175.268V175.268ZM191.116 174.171C191.097 174.149 191.1 174.152 191.116 174.171V174.171ZM188.989 175.026C188.958 174.975 188.96 174.982 188.989 175.026V175.026ZM189.493 175.454C189.566 175.486 189.613 175.494 189.493 175.454V175.454ZM189.718 175.561L189.768 175.538C189.756 175.539 189.744 175.537 189.733 175.531L189.734 175.531L189.773 175.536L189.781 175.532L189.758 175.527C189.778 175.526 189.779 175.529 189.781 175.532C190.006 175.429 189.854 175.478 189.723 175.519L189.714 175.517C189.633 175.475 189.545 175.447 189.455 175.434C189.446 175.429 189.436 175.425 189.429 175.42C189.357 175.369 188.99 175.082 189.33 175.383C189.256 175.317 189.183 175.253 189.113 175.182C189.072 175.14 189.035 175.094 189.002 175.046C188.957 174.969 188.914 174.892 188.872 174.814L188.866 174.772C188.86 174.737 188.856 174.722 188.852 174.701C188.854 174.68 188.857 174.657 188.861 174.634C188.886 174.566 188.902 174.494 188.909 174.422L188.923 174.404C188.978 174.328 189.025 174.239 189.077 174.16C188.803 174.577 189.185 174.114 189.213 174.055C189.218 174.045 189.21 174.051 189.212 174.044C189.223 174.038 189.22 174.042 189.233 174.034C189.318 173.984 189.399 173.928 189.485 173.88C189.588 173.823 189.994 173.708 189.573 173.828C189.669 173.801 189.76 173.766 189.857 173.741C189.875 173.736 190.016 173.717 190.092 173.703C190.159 173.701 190.224 173.699 190.231 173.699C190.263 173.7 190.294 173.703 190.326 173.705C190.256 173.714 190.565 173.781 190.657 173.795C190.67 173.806 190.677 173.812 190.695 173.826C190.773 173.882 190.867 173.933 190.949 173.986C190.583 173.749 190.954 174.005 191.024 174.075C191.066 174.116 191.105 174.161 191.144 174.205C191.18 174.247 191.213 174.292 191.242 174.339C191.302 174.449 191.366 174.561 191.429 174.669L191.446 174.697C191.446 174.7 191.446 174.704 191.446 174.708C191.479 174.883 191.527 175.056 191.591 175.223C191.594 175.237 191.597 175.251 191.598 175.266C191.604 175.362 191.612 175.458 191.612 175.555L191.611 175.574C191.32 175.422 190.996 175.342 190.666 175.339C190.337 175.337 190.012 175.413 189.718 175.561Z" fill="#353535"/>
<path d="M189.782 175.535L189.778 175.536C189.783 175.537 189.782 175.535 189.782 175.535Z" fill="#353535"/>
<path d="M189.781 175.532L189.783 175.533L189.781 175.532Z" fill="#353535"/>
<path d="M189.785 175.533C189.789 175.535 189.784 175.535 189.784 175.535L189.785 175.533Z" fill="#353535"/>
<path d="M268.131 193.224L268.133 193.225L268.131 193.224Z" fill="#353535"/>
<path d="M274.697 136.665C273.821 135.113 272.423 133.922 270.751 133.304C269.08 132.685 267.244 132.679 265.569 133.286C264.736 133.59 263.973 134.058 263.324 134.662C262.675 135.266 262.154 135.994 261.791 136.803C261.719 136.975 261.676 137.156 261.617 137.332C261.535 137.465 261.436 137.585 261.363 137.724C260.577 139.29 260.362 141.08 260.754 142.788C261.147 144.495 262.122 146.012 263.513 147.077C264.904 148.143 266.622 148.69 268.373 148.624C270.123 148.559 271.796 147.885 273.104 146.719C274.478 145.477 275.385 143.802 275.675 141.973C275.965 140.144 275.619 138.271 274.697 136.665ZM269.949 139.884C269.959 140.068 269.964 139.98 269.949 139.884V139.884ZM269.466 138.787C269.447 138.765 269.45 138.768 269.466 138.787V138.787ZM267.339 139.642C267.308 139.591 267.31 139.598 267.339 139.642V139.642ZM267.843 140.07C267.916 140.102 267.963 140.11 267.843 140.07V140.07ZM268.068 140.177L268.118 140.154C268.106 140.155 268.093 140.153 268.083 140.147L268.084 140.147L268.123 140.152L268.131 140.148L268.108 140.143C268.127 140.142 268.129 140.145 268.131 140.148C268.356 140.045 268.204 140.095 268.073 140.135L268.064 140.133C267.983 140.092 267.895 140.063 267.804 140.05C267.796 140.045 267.786 140.042 267.779 140.037C267.707 139.985 267.34 139.698 267.68 139.999C267.606 139.933 267.533 139.869 267.463 139.798C267.422 139.756 267.385 139.711 267.352 139.662C267.307 139.585 267.264 139.508 267.222 139.43L267.216 139.388C267.21 139.353 267.206 139.339 267.201 139.318C267.204 139.296 267.207 139.273 267.21 139.25C267.236 139.182 267.252 139.111 267.259 139.038L267.273 139.02C267.328 138.944 267.375 138.855 267.427 138.776C267.153 139.193 267.535 138.73 267.563 138.671C267.568 138.661 267.56 138.667 267.562 138.66C267.573 138.654 267.57 138.658 267.583 138.65C267.668 138.6 267.749 138.544 267.835 138.496C267.938 138.439 268.344 138.324 267.923 138.444C268.019 138.417 268.11 138.382 268.207 138.357C268.225 138.353 268.366 138.333 268.442 138.319C268.509 138.317 268.574 138.315 268.581 138.315C268.613 138.316 268.644 138.32 268.676 138.321C268.606 138.33 268.915 138.397 269.007 138.411C269.02 138.422 269.027 138.428 269.045 138.442C269.123 138.498 269.217 138.549 269.299 138.602C268.933 138.365 269.304 138.621 269.374 138.691C269.416 138.733 269.455 138.777 269.494 138.821C269.53 138.863 269.563 138.908 269.592 138.955C269.652 139.065 269.716 139.177 269.779 139.285L269.796 139.313C269.796 139.317 269.796 139.32 269.796 139.324C269.829 139.499 269.877 139.672 269.941 139.839C269.944 139.853 269.947 139.867 269.948 139.882C269.954 139.978 269.962 140.074 269.962 140.171L269.961 140.19C269.67 140.038 269.346 139.958 269.016 139.955C268.687 139.953 268.362 140.029 268.068 140.177Z" fill="#353535"/>
<path d="M268.122 193.228L268.118 193.23L268.127 193.228H268.122Z" fill="#353535"/>
<path d="M268.132 193.227L268.128 193.228C268.133 193.229 268.132 193.227 268.132 193.227Z" fill="#353535"/>
<path d="M268.135 193.225C268.14 193.227 268.135 193.227 268.135 193.227L268.135 193.225Z" fill="#353535"/>
<path d="M354.31 233.97C353.434 232.419 352.036 231.228 350.365 230.609C348.694 229.991 346.857 229.985 345.182 230.592C344.349 230.896 343.586 231.364 342.937 231.968C342.288 232.572 341.767 233.3 341.405 234.109C341.332 234.281 341.29 234.462 341.23 234.638C341.148 234.771 341.05 234.891 340.976 235.03C340.19 236.596 339.975 238.386 340.368 240.094C340.76 241.801 341.736 243.318 343.126 244.383C344.517 245.449 346.235 245.996 347.986 245.93C349.737 245.865 351.41 245.191 352.717 244.025C354.091 242.783 354.998 241.108 355.288 239.279C355.578 237.45 355.233 235.576 354.31 233.97ZM349.562 237.19C349.572 237.374 349.577 237.286 349.562 237.19V237.19ZM349.079 236.093C349.061 236.071 349.063 236.073 349.079 236.093V236.093ZM346.952 236.948C346.921 236.897 346.924 236.904 346.952 236.948V236.948ZM347.456 237.375C347.529 237.408 347.576 237.416 347.456 237.375V237.375ZM347.681 237.483L347.731 237.46C347.719 237.461 347.707 237.459 347.696 237.453L347.697 237.453L347.736 237.457L347.744 237.454L347.721 237.449C347.741 237.448 347.742 237.451 347.744 237.454C347.969 237.351 347.817 237.4 347.686 237.441L347.678 237.439C347.596 237.397 347.508 237.369 347.418 237.355C347.409 237.351 347.399 237.347 347.392 237.342C347.32 237.291 346.953 237.004 347.293 237.305C347.219 237.239 347.146 237.175 347.076 237.104C347.035 237.062 346.998 237.016 346.965 236.968C346.921 236.891 346.877 236.814 346.835 236.736L346.829 236.694C346.823 236.659 346.819 236.644 346.815 236.623C346.817 236.602 346.82 236.578 346.824 236.556C346.849 236.488 346.865 236.416 346.872 236.344L346.886 236.325C346.941 236.249 346.989 236.161 347.041 236.082C346.766 236.499 347.148 236.036 347.177 235.977C347.181 235.967 347.173 235.973 347.175 235.966C347.186 235.959 347.183 235.964 347.196 235.956C347.281 235.906 347.362 235.85 347.448 235.802C347.551 235.745 347.957 235.63 347.536 235.75C347.632 235.723 347.724 235.688 347.82 235.663C347.838 235.658 347.979 235.638 348.056 235.625C348.123 235.623 348.188 235.621 348.194 235.621C348.226 235.622 348.257 235.625 348.289 235.627C348.219 235.636 348.528 235.703 348.62 235.717C348.634 235.727 348.64 235.734 348.658 235.747C348.736 235.804 348.831 235.855 348.913 235.908C348.546 235.671 348.917 235.926 348.987 235.996C349.029 236.038 349.068 236.083 349.107 236.127C349.143 236.169 349.176 236.214 349.205 236.261C349.265 236.371 349.329 236.483 349.392 236.591L349.41 236.619C349.409 236.622 349.409 236.626 349.409 236.629C349.442 236.805 349.491 236.978 349.554 237.145C349.557 237.159 349.56 237.173 349.561 237.188C349.567 237.284 349.575 237.38 349.575 237.477L349.575 237.496C349.283 237.344 348.959 237.263 348.63 237.261C348.3 237.259 347.975 237.335 347.681 237.483Z" fill="#353535"/>
<path d="M347.736 154.053L347.732 154.055L347.741 154.053H347.736Z" fill="#353535"/>
<path d="M347.746 154.052L347.742 154.053C347.747 154.054 347.746 154.052 347.746 154.052Z" fill="#353535"/>
<path d="M347.749 154.05C347.753 154.052 347.748 154.052 347.748 154.052L347.749 154.05Z" fill="#353535"/>
<path d="M347.745 154.049L347.747 154.05L347.745 154.049Z" fill="#353535"/>
<path d="M428.869 175.84C427.992 174.288 426.595 173.097 424.923 172.479C423.252 171.86 421.416 171.854 419.741 172.461C418.908 172.765 418.145 173.233 417.496 173.837C416.847 174.441 416.326 175.17 415.963 175.978C415.891 176.15 415.848 176.331 415.789 176.507C415.707 176.64 415.608 176.76 415.535 176.899C414.749 178.465 414.534 180.255 414.926 181.963C415.319 183.67 416.294 185.187 417.685 186.252C419.076 187.318 420.794 187.865 422.545 187.799C424.295 187.734 425.968 187.06 427.276 185.894C428.65 184.652 429.557 182.977 429.847 181.148C430.136 179.319 429.791 177.446 428.869 175.84ZM424.121 179.059C424.13 179.243 424.136 179.155 424.121 179.059V179.059ZM423.638 177.962C423.619 177.94 423.622 177.943 423.638 177.962V177.962ZM421.511 178.817C421.479 178.766 421.482 178.773 421.511 178.817V178.817ZM422.015 179.245C422.087 179.277 422.135 179.286 422.015 179.245V179.245ZM422.24 179.352L422.29 179.329C422.278 179.33 422.265 179.328 422.255 179.322L422.256 179.322L422.295 179.327L422.302 179.323L422.28 179.318C422.299 179.317 422.301 179.32 422.302 179.323C422.528 179.22 422.376 179.27 422.245 179.31L422.236 179.308C422.155 179.267 422.067 179.238 421.976 179.225C421.968 179.22 421.958 179.217 421.951 179.212C421.879 179.16 421.512 178.873 421.852 179.174C421.778 179.108 421.705 179.044 421.635 178.974C421.594 178.931 421.557 178.886 421.524 178.837C421.479 178.76 421.436 178.683 421.394 178.605L421.388 178.563C421.382 178.528 421.378 178.514 421.373 178.493C421.376 178.471 421.379 178.448 421.382 178.425C421.408 178.357 421.424 178.286 421.431 178.213L421.445 178.195C421.5 178.119 421.547 178.03 421.599 177.951C421.325 178.368 421.707 177.905 421.735 177.846C421.74 177.836 421.732 177.842 421.734 177.835C421.745 177.829 421.741 177.833 421.755 177.825C421.84 177.775 421.921 177.719 422.007 177.671C422.11 177.614 422.516 177.499 422.095 177.619C422.191 177.592 422.282 177.557 422.379 177.532C422.396 177.528 422.538 177.508 422.614 177.494C422.681 177.492 422.746 177.49 422.753 177.49C422.785 177.491 422.816 177.495 422.848 177.496C422.778 177.505 423.087 177.572 423.179 177.586C423.192 177.597 423.199 177.603 423.217 177.617C423.295 177.673 423.389 177.724 423.471 177.777C423.105 177.54 423.476 177.796 423.546 177.866C423.588 177.908 423.627 177.952 423.666 177.996C423.702 178.038 423.735 178.083 423.764 178.13C423.824 178.24 423.888 178.352 423.951 178.46L423.968 178.488C423.968 178.492 423.968 178.495 423.968 178.499C424.001 178.674 424.049 178.847 424.113 179.014C424.116 179.028 424.118 179.042 424.12 179.057C424.126 179.153 424.134 179.249 424.134 179.346L424.133 179.365C423.841 179.213 423.518 179.133 423.188 179.13C422.859 179.128 422.534 179.204 422.24 179.352Z" fill="#353535"/>
<path d="M422.295 179.327L422.291 179.329L422.3 179.327H422.295Z" fill="#353535"/>
<path d="M422.304 179.323L422.306 179.324L422.304 179.323Z" fill="#353535"/>
<path d="M422.307 179.324C422.312 179.326 422.307 179.326 422.307 179.326L422.307 179.324Z" fill="#353535"/>
<path d="M422.305 179.326L422.301 179.327C422.306 179.328 422.305 179.326 422.305 179.326Z" fill="#353535"/>
<path d="M401.864 237.24L343.106 240.506C342.775 240.525 342.449 240.415 342.196 240.201C341.943 239.986 341.782 239.683 341.746 239.353C341.71 239.023 341.802 238.692 342.003 238.428C342.204 238.164 342.498 237.987 342.826 237.934L402.883 228.161L401.864 237.24Z" fill="#3F3D56"/>
<path d="M476.538 368.055L498.681 330.803L515.046 338.533C515.046 338.533 486.846 373.754 485.948 374.768C486.333 376.48 486.189 378.268 485.535 379.896C484.881 381.525 483.748 382.916 482.286 383.887C480.825 384.857 479.103 385.361 477.348 385.332C475.594 385.302 473.89 384.741 472.461 383.722C471.033 382.703 469.947 381.274 469.348 379.625C468.75 377.976 468.666 376.183 469.108 374.485C469.549 372.787 470.497 371.263 471.823 370.115C473.15 368.967 474.794 368.249 476.538 368.055Z" fill="#FFB6B6"/>
<path d="M485.749 281.522L521.623 300.238C523.865 301.853 525.745 303.918 527.143 306.301C528.541 308.685 529.427 311.333 529.744 314.078C530.06 316.823 529.8 319.604 528.981 322.243C528.161 324.881 526.8 327.32 524.984 329.403L500.253 357.772L489.48 343.173L497.784 325.81L481.704 321.57L485.749 281.522Z" fill="#5379F4"/>
<path d="M383.518 237.849L379.478 280.996L361.379 281.027C361.379 281.027 371.763 237.118 372.14 235.817C371.059 234.435 370.422 232.758 370.315 231.006C370.208 229.255 370.635 227.512 371.54 226.009C372.445 224.505 373.785 223.312 375.383 222.587C376.98 221.862 378.761 221.638 380.488 221.947C382.215 222.255 383.808 223.081 385.056 224.315C386.304 225.548 387.148 227.132 387.477 228.855C387.805 230.579 387.602 232.362 386.896 233.968C386.189 235.574 385.011 236.927 383.518 237.849Z" fill="#FFB6B6"/>
<path d="M419.545 326.084L377.887 318.444C360.345 316.335 353.146 304.793 356.311 293.534L366.498 257.304L382.489 265.877L382.427 285.123L404.812 282.063L419.545 326.084Z" fill="#5379F4"/>
<path d="M402.494 624.263H391.04L385.591 580.082H402.497L402.494 624.263Z" fill="#FFB6B6"/>
<path d="M402.898 636.213L367.674 636.212V635.766C367.674 632.13 369.119 628.643 371.69 626.072C374.261 623.501 377.748 622.057 381.384 622.057L387.819 617.175L399.824 622.057L402.899 622.057L402.898 636.213Z" fill="#2F2E41"/>
<path d="M483.542 624.263H494.996L500.445 580.082H483.539L483.542 624.263Z" fill="#FFB6B6"/>
<path d="M483.138 636.213L518.362 636.212V635.766C518.362 632.13 516.917 628.643 514.346 626.072C511.775 623.501 508.288 622.057 504.652 622.057L498.217 617.175L486.212 622.057L483.137 622.057L483.138 636.213Z" fill="#2F2E41"/>
<path d="M385.086 547.614C385.255 545.093 386.601 531.151 386.601 531.151L389.822 501.583L395.501 423.206L400.562 402.604L425.616 412.364L445.945 402.619L470.109 410.343L488.924 417.398C488.924 417.398 488.956 420.419 489.101 424.067C489.294 428.844 489.633 434.699 490.438 436.222C491.783 438.912 491.445 453.353 491.445 453.353C491.445 453.353 492.782 482.736 494.465 485.958C496.149 489.179 496.487 495.889 495.979 497.234C495.472 498.579 497.663 533.865 497.663 533.865C497.663 533.865 503.286 596.309 499.758 605.725C496.23 615.14 482.899 608.973 482.899 608.973C482.899 608.973 483.543 606.46 479.677 605.276C475.811 604.092 464.036 515.549 464.036 515.549C464.036 515.549 461.845 497.395 459.831 492.192C457.818 486.989 455.965 472.37 455.965 472.37C455.965 472.37 443.529 448.174 443.368 442.794C443.368 442.794 441.741 437.76 440.203 443.301C438.664 448.843 434.13 462.116 434.13 462.116L429.708 478.419L424.505 502.775L421.138 523.282C421.138 523.282 416.096 550.497 415.29 551.673C414.485 552.849 415.29 577.713 415.29 577.713C415.29 577.713 411.392 598.888 405.883 602.585C400.374 606.282 385.777 602.644 385.777 602.644C385.777 602.644 384.917 550.135 385.086 547.614Z" fill="#2F2E41"/>
<path d="M403.815 336.314L400.614 377.787L395.804 382.765C395.37 383.213 395.032 383.745 394.808 384.328C394.585 384.911 394.482 385.533 394.504 386.156C394.527 386.78 394.675 387.393 394.941 387.958C395.206 388.523 395.582 389.029 396.047 389.445L393.397 393.989L392.459 408.307C392.191 409.421 392.173 410.58 392.405 411.702C392.638 412.824 393.115 413.881 393.803 414.797C394.491 415.713 395.373 416.466 396.385 417.002C397.398 417.539 398.516 417.844 399.661 417.898L482.601 421.795C483.739 421.848 484.875 421.651 485.928 421.217C486.982 420.784 487.927 420.124 488.698 419.285C489.469 418.446 490.046 417.447 490.388 416.361C490.731 415.274 490.83 414.126 490.68 412.996L483.628 359.903V355.933L480.471 348.266L482.093 322.582L485.868 281.817L463.927 276.149L452.03 267.964L431.363 268.293L418.822 278.593L402.101 281.211L389.456 283.725L387.845 287.226L391.067 286.526L402.744 332.071L403.815 336.314Z" fill="#5379F4"/>
<path d="M441.234 262.407C454.681 262.407 465.581 251.507 465.581 238.06C465.581 224.614 454.681 213.714 441.234 213.714C427.788 213.714 416.888 224.614 416.888 238.06C416.888 251.507 427.788 262.407 441.234 262.407Z" fill="#FFB6B6"/>
<path d="M435.365 260.836L452.955 259.939C455.209 259.824 457.669 259.625 459.309 258.074C460.191 257.116 460.869 255.989 461.303 254.762C462.929 250.984 464.555 247.207 466.14 243.412C468.332 238.162 470.485 232.62 469.925 226.959C469.794 224.373 468.71 221.928 466.882 220.095C465.949 219.212 464.75 218.663 463.472 218.533C462.193 218.404 460.908 218.702 459.817 219.38C459.546 217.589 458.872 215.884 457.844 214.392C456.817 212.901 455.464 211.662 453.888 210.771C450.705 209.012 447.07 208.241 443.447 208.557C438.19 208.896 433.171 210.874 429.096 214.213C427.95 215.27 426.726 216.24 425.435 217.114C424.785 217.549 424.054 217.846 423.286 217.988C422.518 218.13 421.728 218.114 420.967 217.941C420.212 217.739 419.556 217.271 419.119 216.623C418.683 215.975 418.496 215.191 418.593 214.416C417.354 215.343 416.504 216.697 416.21 218.216C415.916 219.734 416.198 221.308 417.001 222.63C416.088 223.013 415.092 223.153 414.108 223.036C413.125 222.92 412.189 222.551 411.39 221.966C410.534 222.391 409.777 222.99 409.166 223.724C408.555 224.458 408.104 225.312 407.842 226.23C407.581 227.149 407.513 228.112 407.645 229.058C407.777 230.004 408.105 230.912 408.608 231.724C409.111 232.536 409.778 233.234 410.567 233.774C411.355 234.313 412.247 234.681 413.186 234.856C414.126 235.03 415.091 235.007 416.02 234.787C416.95 234.567 417.823 234.155 418.584 233.578C419.652 235.073 419.254 237.105 419.115 238.937C418.976 240.769 419.467 243.046 421.233 243.553C423.621 244.237 425.555 241.022 428.039 241.056C428.652 241.106 429.242 241.306 429.759 241.639C430.276 241.972 430.702 242.428 431.001 242.965C431.586 244.045 431.987 245.215 432.187 246.426L435.365 260.737" fill="#2F2E41"/>
<path d="M1121.24 479.751C1121.24 475.981 1119.97 472.922 1118.42 472.915H694.638C693.076 472.922 691.817 475.981 691.81 479.751V634.947C691.81 635.297 691.68 635.635 691.445 635.894C691.21 636.153 690.887 636.316 690.538 636.349C689.401 636.459 688.263 636.56 687.126 636.654C687.098 636.654 687.07 636.661 687.041 636.661C686.422 636.718 685.804 636.76 685.185 636.809H685.177C684.859 636.22 684.544 635.627 684.233 635.028C684.128 634.826 684.073 634.602 684.073 634.374V470.882C684.073 469.841 684.115 468.793 684.186 467.759C684.286 466.339 684.462 464.926 684.713 463.524C685.902 456.99 688.589 452.566 691.641 452.552H1121.41C1121.85 452.555 1122.29 452.648 1122.7 452.826C1123.3 453.091 1123.84 453.471 1124.3 453.944C1124.91 454.586 1125.44 455.307 1125.87 456.09C1127.62 459.58 1128.63 463.395 1128.83 467.294C1128.83 467.337 1128.83 467.379 1128.83 467.421C1128.93 468.561 1128.98 469.721 1128.97 470.882L1129.07 485.955L1129.14 494.944L1129.33 523.15L1129.4 533.166L1129.71 636C1129.71 636.373 1129.56 636.731 1129.29 636.995C1129.03 637.259 1128.67 637.407 1128.3 637.407H1122.64C1122.27 637.407 1121.91 637.259 1121.65 636.995C1121.39 636.731 1121.24 636.373 1121.24 636V479.751Z" fill="#353535"/>
<path d="M1006.08 382.02H960.42C959.774 382.021 959.155 382.278 958.698 382.736C958.242 383.193 957.986 383.813 957.987 384.459V456.593H1008.52V384.459C1008.52 384.138 1008.46 383.821 1008.34 383.525C1008.21 383.229 1008.03 382.96 1007.81 382.734C1007.58 382.507 1007.31 382.328 1007.02 382.205C1006.72 382.083 1006.4 382.02 1006.08 382.02ZM983.405 423.005C981.977 422.999 980.609 422.429 979.599 421.419C978.59 420.409 978.019 419.041 978.013 417.613V409.293C978.013 407.863 978.581 406.492 979.592 405.481C980.603 404.469 981.975 403.901 983.405 403.901C984.835 403.901 986.206 404.469 987.218 405.481C988.229 406.492 988.797 407.863 988.797 409.293V417.613C988.79 419.041 988.22 420.409 987.21 421.419C986.2 422.429 984.833 422.999 983.405 423.005Z" fill="#F26F37"/>
<path d="M957.83 454.286V461.245C957.831 461.606 957.975 461.951 958.23 462.206C958.485 462.461 958.83 462.605 959.191 462.606H1007.32C1007.68 462.604 1008.02 462.46 1008.28 462.205C1008.53 461.95 1008.68 461.605 1008.68 461.245V454.286H957.83Z" fill="#3F3D56"/>
<path d="M1081.7 269.447H886.505C884.828 269.449 883.221 270.117 882.035 271.303C880.849 272.488 880.182 274.096 880.179 275.773V407.489C880.181 409.166 880.848 410.774 882.034 411.96C883.22 413.146 884.828 413.813 886.505 413.815H1081.7C1083.37 413.813 1084.98 413.146 1086.17 411.96C1087.35 410.774 1088.02 409.166 1088.02 407.489V275.773C1088.02 274.096 1087.35 272.488 1086.17 271.303C1084.98 270.117 1083.37 269.449 1081.7 269.447Z" fill="#353535"/>
<path d="M1080.07 274.016H888.136C887.238 274.018 886.378 274.376 885.743 275.012C885.109 275.647 884.753 276.508 884.753 277.406V405.858C884.754 406.754 885.111 407.614 885.745 408.248C886.38 408.882 887.239 409.239 888.136 409.241H1080.07C1080.96 409.239 1081.82 408.882 1082.46 408.248C1083.09 407.614 1083.45 406.754 1083.45 405.858V277.406C1083.45 276.508 1083.09 275.647 1082.46 275.012C1081.83 274.376 1080.97 274.018 1080.07 274.016Z" fill="white"/>
<path d="M1042.68 465.027H928.493C928.181 465.027 927.872 464.958 927.59 464.823C927.308 464.689 927.059 464.493 926.862 464.25C926.665 464.008 926.525 463.724 926.452 463.42C926.378 463.116 926.374 462.8 926.438 462.494L928.21 454.079C928.311 453.608 928.569 453.186 928.943 452.883C929.317 452.579 929.784 452.413 930.265 452.411H1040.91C1041.39 452.413 1041.86 452.579 1042.23 452.883C1042.61 453.186 1042.86 453.608 1042.97 454.079L1044.74 462.494C1044.8 462.8 1044.8 463.116 1044.72 463.42C1044.65 463.724 1044.51 464.008 1044.31 464.25C1044.12 464.493 1043.87 464.689 1043.59 464.823C1043.3 464.958 1042.99 465.027 1042.68 465.027Z" fill="#F26F37"/>
<path d="M933.977 453.926H931.694C931.353 453.926 931.077 454.203 931.077 454.543V455.42C931.077 455.76 931.353 456.036 931.694 456.036H933.977C934.318 456.036 934.594 455.76 934.594 455.42V454.543C934.594 454.203 934.318 453.926 933.977 453.926Z" fill="#353535"/>
<path d="M941.01 453.926H938.727C938.386 453.926 938.11 454.203 938.11 454.543V455.42C938.11 455.76 938.386 456.036 938.727 456.036H941.01C941.351 456.036 941.627 455.76 941.627 455.42V454.543C941.627 454.203 941.351 453.926 941.01 453.926Z" fill="#353535"/>
<path d="M948.045 453.926H945.762C945.421 453.926 945.145 454.203 945.145 454.543V455.42C945.145 455.76 945.421 456.036 945.762 456.036H948.045C948.385 456.036 948.662 455.76 948.662 455.42V454.543C948.662 454.203 948.385 453.926 948.045 453.926Z" fill="#353535"/>
<path d="M955.077 453.926H952.794C952.453 453.926 952.177 454.203 952.177 454.543V455.42C952.177 455.76 952.453 456.036 952.794 456.036H955.077C955.418 456.036 955.694 455.76 955.694 455.42V454.543C955.694 454.203 955.418 453.926 955.077 453.926Z" fill="#353535"/>
<path d="M962.111 453.926H959.828C959.488 453.926 959.212 454.203 959.212 454.543V455.42C959.212 455.76 959.488 456.036 959.828 456.036H962.111C962.452 456.036 962.728 455.76 962.728 455.42V454.543C962.728 454.203 962.452 453.926 962.111 453.926Z" fill="#353535"/>
<path d="M969.145 453.926H966.862C966.521 453.926 966.245 454.203 966.245 454.543V455.42C966.245 455.76 966.521 456.036 966.862 456.036H969.145C969.485 456.036 969.762 455.76 969.762 455.42V454.543C969.762 454.203 969.485 453.926 969.145 453.926Z" fill="#353535"/>
<path d="M976.179 453.926H973.896C973.555 453.926 973.279 454.203 973.279 454.543V455.42C973.279 455.76 973.555 456.036 973.896 456.036H976.179C976.52 456.036 976.796 455.76 976.796 455.42V454.543C976.796 454.203 976.52 453.926 976.179 453.926Z" fill="#353535"/>
<path d="M983.213 453.926H980.93C980.59 453.926 980.313 454.203 980.313 454.543V455.42C980.313 455.76 980.59 456.036 980.93 456.036H983.213C983.554 456.036 983.83 455.76 983.83 455.42V454.543C983.83 454.203 983.554 453.926 983.213 453.926Z" fill="#353535"/>
<path d="M990.247 453.926H987.964C987.623 453.926 987.347 454.203 987.347 454.543V455.42C987.347 455.76 987.623 456.036 987.964 456.036H990.247C990.588 456.036 990.864 455.76 990.864 455.42V454.543C990.864 454.203 990.588 453.926 990.247 453.926Z" fill="#353535"/>
<path d="M997.281 453.926H994.998C994.657 453.926 994.381 454.203 994.381 454.543V455.42C994.381 455.76 994.657 456.036 994.998 456.036H997.281C997.622 456.036 997.898 455.76 997.898 455.42V454.543C997.898 454.203 997.622 453.926 997.281 453.926Z" fill="#353535"/>
<path d="M1004.31 453.926H1002.03C1001.69 453.926 1001.41 454.203 1001.41 454.543V455.42C1001.41 455.76 1001.69 456.036 1002.03 456.036H1004.31C1004.66 456.036 1004.93 455.76 1004.93 455.42V454.543C1004.93 454.203 1004.66 453.926 1004.31 453.926Z" fill="#353535"/>
<path d="M1011.35 453.926H1009.07C1008.73 453.926 1008.45 454.203 1008.45 454.543V455.42C1008.45 455.76 1008.73 456.036 1009.07 456.036H1011.35C1011.69 456.036 1011.97 455.76 1011.97 455.42V454.543C1011.97 454.203 1011.69 453.926 1011.35 453.926Z" fill="#353535"/>
<path d="M1018.38 453.926H1016.1C1015.76 453.926 1015.48 454.203 1015.48 454.543V455.42C1015.48 455.76 1015.76 456.036 1016.1 456.036H1018.38C1018.72 456.036 1019 455.76 1019 455.42V454.543C1019 454.203 1018.72 453.926 1018.38 453.926Z" fill="#353535"/>
<path d="M1025.42 453.926H1023.13C1022.79 453.926 1022.52 454.203 1022.52 454.543V455.42C1022.52 455.76 1022.79 456.036 1023.13 456.036H1025.42C1025.76 456.036 1026.03 455.76 1026.03 455.42V454.543C1026.03 454.203 1025.76 453.926 1025.42 453.926Z" fill="#353535"/>
<path d="M1032.45 453.926H1030.17C1029.83 453.926 1029.55 454.203 1029.55 454.543V455.42C1029.55 455.76 1029.83 456.036 1030.17 456.036H1032.45C1032.79 456.036 1033.07 455.76 1033.07 455.42V454.543C1033.07 454.203 1032.79 453.926 1032.45 453.926Z" fill="#353535"/>
<path d="M1039.48 453.926H1037.2C1036.86 453.926 1036.58 454.203 1036.58 454.543V455.42C1036.58 455.76 1036.86 456.036 1037.2 456.036H1039.48C1039.82 456.036 1040.1 455.76 1040.1 455.42V454.543C1040.1 454.203 1039.82 453.926 1039.48 453.926Z" fill="#353535"/>
<path d="M933.892 457.443H931.609C931.269 457.443 930.993 457.72 930.993 458.06V458.936C930.993 459.277 931.269 459.553 931.609 459.553H933.892C934.233 459.553 934.509 459.277 934.509 458.936V458.06C934.509 457.72 934.233 457.443 933.892 457.443Z" fill="#353535"/>
<path d="M940.927 457.443H938.644C938.303 457.443 938.027 457.72 938.027 458.06V458.936C938.027 459.277 938.303 459.553 938.644 459.553H940.927C941.268 459.553 941.544 459.277 941.544 458.936V458.06C941.544 457.72 941.268 457.443 940.927 457.443Z" fill="#353535"/>
<path d="M947.96 457.443H945.677C945.336 457.443 945.06 457.72 945.06 458.06V458.936C945.06 459.277 945.336 459.553 945.677 459.553H947.96C948.301 459.553 948.577 459.277 948.577 458.936V458.06C948.577 457.72 948.301 457.443 947.96 457.443Z" fill="#353535"/>
<path d="M954.995 457.443H952.712C952.371 457.443 952.095 457.72 952.095 458.06V458.936C952.095 459.277 952.371 459.553 952.712 459.553H954.995C955.335 459.553 955.612 459.277 955.612 458.936V458.06C955.612 457.72 955.335 457.443 954.995 457.443Z" fill="#353535"/>
<path d="M962.028 457.443H959.745C959.404 457.443 959.128 457.72 959.128 458.06V458.936C959.128 459.277 959.404 459.553 959.745 459.553H962.028C962.369 459.553 962.645 459.277 962.645 458.936V458.06C962.645 457.72 962.369 457.443 962.028 457.443Z" fill="#353535"/>
<path d="M969.062 457.443H966.779C966.439 457.443 966.162 457.72 966.162 458.06V458.936C966.162 459.277 966.439 459.553 966.779 459.553H969.062C969.403 459.553 969.679 459.277 969.679 458.936V458.06C969.679 457.72 969.403 457.443 969.062 457.443Z" fill="#353535"/>
<path d="M976.097 457.443H973.814C973.473 457.443 973.197 457.72 973.197 458.06V458.936C973.197 459.277 973.473 459.553 973.814 459.553H976.097C976.437 459.553 976.714 459.277 976.714 458.936V458.06C976.714 457.72 976.437 457.443 976.097 457.443Z" fill="#353535"/>
<path d="M983.129 457.443H980.846C980.505 457.443 980.229 457.72 980.229 458.06V458.936C980.229 459.277 980.505 459.553 980.846 459.553H983.129C983.47 459.553 983.746 459.277 983.746 458.936V458.06C983.746 457.72 983.47 457.443 983.129 457.443Z" fill="#353535"/>
<path d="M990.163 457.443H987.88C987.54 457.443 987.263 457.72 987.263 458.06V458.936C987.263 459.277 987.54 459.553 987.88 459.553H990.163C990.504 459.553 990.78 459.277 990.78 458.936V458.06C990.78 457.72 990.504 457.443 990.163 457.443Z" fill="#353535"/>
<path d="M997.197 457.443H994.914C994.573 457.443 994.297 457.72 994.297 458.06V458.936C994.297 459.277 994.573 459.553 994.914 459.553H997.197C997.537 459.553 997.814 459.277 997.814 458.936V458.06C997.814 457.72 997.537 457.443 997.197 457.443Z" fill="#353535"/>
<path d="M1004.23 457.443H1001.95C1001.61 457.443 1001.33 457.72 1001.33 458.06V458.936C1001.33 459.277 1001.61 459.553 1001.95 459.553H1004.23C1004.57 459.553 1004.85 459.277 1004.85 458.936V458.06C1004.85 457.72 1004.57 457.443 1004.23 457.443Z" fill="#353535"/>
<path d="M1011.26 457.443H1008.98C1008.64 457.443 1008.36 457.72 1008.36 458.06V458.936C1008.36 459.277 1008.64 459.553 1008.98 459.553H1011.26C1011.61 459.553 1011.88 459.277 1011.88 458.936V458.06C1011.88 457.72 1011.61 457.443 1011.26 457.443Z" fill="#353535"/>
<path d="M1018.3 457.443H1016.02C1015.68 457.443 1015.4 457.72 1015.4 458.06V458.936C1015.4 459.277 1015.68 459.553 1016.02 459.553H1018.3C1018.64 459.553 1018.92 459.277 1018.92 458.936V458.06C1018.92 457.72 1018.64 457.443 1018.3 457.443Z" fill="#353535"/>
<path d="M1025.33 457.443H1023.05C1022.71 457.443 1022.43 457.72 1022.43 458.06V458.936C1022.43 459.277 1022.71 459.553 1023.05 459.553H1025.33C1025.67 459.553 1025.95 459.277 1025.95 458.936V458.06C1025.95 457.72 1025.67 457.443 1025.33 457.443Z" fill="#353535"/>
<path d="M1032.37 457.443H1030.08C1029.74 457.443 1029.47 457.72 1029.47 458.06V458.936C1029.47 459.277 1029.74 459.553 1030.08 459.553H1032.37C1032.71 459.553 1032.98 459.277 1032.98 458.936V458.06C1032.98 457.72 1032.71 457.443 1032.37 457.443Z" fill="#353535"/>
<path d="M1039.4 457.443H1037.12C1036.78 457.443 1036.5 457.72 1036.5 458.06V458.936C1036.5 459.277 1036.78 459.553 1037.12 459.553H1039.4C1039.74 459.553 1040.02 459.277 1040.02 458.936V458.06C1040.02 457.72 1039.74 457.443 1039.4 457.443Z" fill="#353535"/>
<path d="M992.274 461.664H965.372C965.031 461.664 964.755 461.94 964.755 462.28V463.157C964.755 463.497 965.031 463.774 965.372 463.774H992.274C992.614 463.774 992.89 463.497 992.89 463.157V462.28C992.89 461.94 992.614 461.664 992.274 461.664Z" fill="#353535"/>
<path d="M1070.42 291.714H890.83C890.644 291.71 890.466 291.632 890.336 291.499C890.205 291.366 890.132 291.186 890.132 291C890.132 290.813 890.205 290.634 890.336 290.5C890.466 290.367 890.644 290.29 890.83 290.285H1070.42C1070.61 290.29 1070.78 290.367 1070.91 290.5C1071.04 290.634 1071.12 290.813 1071.12 291C1071.12 291.186 1071.04 291.366 1070.91 291.499C1070.78 291.632 1070.61 291.71 1070.42 291.714Z" fill="#CACACA"/>
<path d="M903.055 286.639C905.366 286.639 907.24 284.723 907.24 282.36C907.24 279.997 905.366 278.082 903.055 278.082C900.743 278.082 898.869 279.997 898.869 282.36C898.869 284.723 900.743 286.639 903.055 286.639Z" fill="#F26F37"/>
<path d="M917.514 286.639C919.825 286.639 921.699 284.723 921.699 282.36C921.699 279.997 919.825 278.082 917.514 278.082C915.202 278.082 913.328 279.997 913.328 282.36C913.328 284.723 915.202 286.639 917.514 286.639Z" fill="#F26F37"/>
<path d="M931.973 286.639C934.284 286.639 936.158 284.723 936.158 282.36C936.158 279.997 934.284 278.082 931.973 278.082C929.661 278.082 927.787 279.997 927.787 282.36C927.787 284.723 929.661 286.639 931.973 286.639Z" fill="#F26F37"/>
<path d="M1061.71 279.142H1051.44C1051.24 279.146 1051.05 279.23 1050.9 279.375C1050.76 279.521 1050.68 279.716 1050.68 279.92C1050.68 280.123 1050.76 280.319 1050.9 280.464C1051.05 280.61 1051.24 280.693 1051.44 280.697H1061.71C1061.92 280.693 1062.11 280.61 1062.25 280.464C1062.4 280.319 1062.48 280.123 1062.48 279.92C1062.48 279.716 1062.4 279.521 1062.25 279.375C1062.11 279.23 1061.92 279.146 1061.71 279.142Z" fill="#F26F37"/>
<path d="M1061.71 282.061H1051.44C1051.24 282.065 1051.05 282.149 1050.9 282.294C1050.76 282.44 1050.68 282.635 1050.68 282.839C1050.68 283.043 1050.76 283.238 1050.9 283.383C1051.05 283.529 1051.24 283.613 1051.44 283.617H1061.71C1061.92 283.613 1062.11 283.529 1062.25 283.383C1062.4 283.238 1062.48 283.043 1062.48 282.839C1062.48 282.635 1062.4 282.44 1062.25 282.294C1062.11 282.149 1061.92 282.065 1061.71 282.061Z" fill="#F26F37"/>
<path d="M1061.71 284.976H1051.44C1051.24 284.98 1051.05 285.064 1050.9 285.21C1050.76 285.355 1050.68 285.551 1050.68 285.754C1050.68 285.958 1050.76 286.153 1050.9 286.299C1051.05 286.444 1051.24 286.528 1051.44 286.532H1061.71C1061.92 286.528 1062.11 286.444 1062.25 286.299C1062.4 286.153 1062.48 285.958 1062.48 285.754C1062.48 285.551 1062.4 285.355 1062.25 285.21C1062.11 285.064 1061.92 284.98 1061.71 284.976Z" fill="#F26F37"/>
<path d="M995.124 330.623H972.684C970.998 330.623 969.632 331.989 969.632 333.675C969.632 335.361 970.998 336.727 972.684 336.727H995.124C996.81 336.727 998.176 335.361 998.176 333.675C998.176 331.989 996.81 330.623 995.124 330.623Z" fill="#5379F4"/>
<path d="M1009.62 342.831H958.188C956.503 342.831 955.136 344.197 955.136 345.883C955.136 347.568 956.503 348.935 958.188 348.935H1009.62C1011.31 348.935 1012.67 347.568 1012.67 345.883C1012.67 344.197 1011.31 342.831 1009.62 342.831Z" fill="#353535"/>
<path d="M1009.62 355.039H958.188C956.503 355.039 955.136 356.405 955.136 358.091C955.136 359.776 956.503 361.143 958.188 361.143H1009.62C1011.31 361.143 1012.67 359.776 1012.67 358.091C1012.67 356.405 1011.31 355.039 1009.62 355.039Z" fill="#353535"/>
<path d="M663.103 545.224L652.758 540.276L666.969 497.035L682.237 504.337L663.103 545.224Z" fill="#FFB6B6"/>
<path d="M732.457 538.253C731.705 538.724 730.952 539.188 730.193 539.651C728.68 540.578 727.153 541.49 725.626 542.387C724.858 542.835 724.083 543.283 723.316 543.724V543.747L723.27 543.754L723.255 543.762L722.085 544.051L720.405 539.613L719.63 537.569L718.536 534.674L716.53 529.378L705.968 501.49L722.389 497.44L723.004 499.955H723.012L723.316 501.201L729.053 524.469L730.223 529.226L730.261 529.37L730.968 532.212L731.576 534.674L732.252 537.425L732.457 538.253Z" fill="#FFB6B6"/>
<path d="M830.415 440.318C829.374 441.99 828.311 443.654 827.239 445.303C825.248 448.373 823.204 451.397 821.107 454.376C821.107 454.383 821.099 454.383 821.092 454.391C819.868 455.524 818.517 456.511 817.064 457.332C817.004 457.377 816.935 457.408 816.874 457.446C815.805 458.037 814.667 458.494 813.485 458.806C813.06 458.912 812.627 459.018 812.201 459.125C810.666 459.49 809.147 459.801 807.634 460.075C804.944 460.553 802.285 460.895 799.64 461.108C799.428 461.131 799.215 461.146 799.002 461.161C788.128 461.959 777.543 460.675 766.494 458.57C761.038 457.537 755.468 456.298 749.701 455.014C747.816 454.588 745.924 454.17 744.009 453.753C743.865 453.722 743.713 453.684 743.561 453.654C740.826 453.053 738.044 452.461 735.195 451.876C731.608 451.139 727.908 450.424 724.063 449.748L724.336 455.166C724.564 459.334 725.43 463.442 726.905 467.347C728.546 472.149 729.845 475.949 727.102 483.859L725.78 487.689C726.465 489.591 726.701 491.625 726.467 493.633C726.234 495.641 725.538 497.568 724.435 499.262L724.169 499.665L735.195 527.56L735.909 529.368H730.263L723.318 529.376H711.547L694.564 495.303L693.751 493.677V493.593L695.506 428.114C695.529 427.537 695.575 426.952 695.651 426.374C695.96 423.749 696.79 421.211 698.09 418.91C699.391 416.608 701.137 414.589 703.227 412.97C705.229 411.405 707.522 410.254 709.974 409.583C712.425 408.913 714.985 408.736 717.505 409.064L723.318 409.816L735.195 411.351L743.561 412.438L743.728 412.461L768.402 415.652L770.172 408.433L770.499 408.312L780.886 404.505L816.814 391.336L816.905 391.306L819.268 390.439L819.549 390.895C819.633 391.032 819.716 391.169 819.792 391.306C822.128 395.493 824.03 399.908 825.469 404.482C827.888 411.954 829.879 419.557 831.434 427.256C831.502 427.59 831.563 427.894 831.616 428.167L831.639 428.251C831.662 428.38 831.677 428.464 831.684 428.487C832.397 432.471 831.956 436.575 830.415 440.318Z" fill="#2F2E41"/>
<path d="M831.933 416.187C831.819 415.701 831.674 415.207 831.522 414.728C830.316 411.102 828.911 407.546 827.313 404.075C825.519 400.123 823.369 395.891 820.808 391.309C819.569 389.09 818.237 386.782 816.811 384.386C816.097 383.186 815.355 381.962 814.585 380.716C814.555 380.659 814.522 380.603 814.486 380.549L814.266 380.184L778.718 384.941L765.481 386.711L764.691 393.307L764.501 394.941C764.493 394.941 764.493 394.941 764.501 394.949L763.969 399.401V399.409L763.262 405.29L763.202 405.283L743.559 402.737L723.315 400.116L712.442 398.71C709.922 398.382 707.361 398.558 704.91 399.228C702.459 399.899 700.165 401.05 698.163 402.616C696.074 404.235 694.329 406.255 693.028 408.556C691.727 410.858 690.898 413.395 690.587 416.02C690.519 416.552 690.473 417.099 690.451 417.639L680.192 441.947C674.054 456.485 670.144 471.866 668.596 487.57L661.074 511.621L662.145 511.719L678.087 513.201L682.297 513.596L691.568 500.063C692.624 498.52 693.627 496.932 694.562 495.306C696.1 492.65 697.468 489.899 698.657 487.069L718.711 439.348C720.261 439.614 721.796 439.868 723.315 440.108C730.344 441.248 737.092 442.178 743.559 442.897C764.585 445.245 782.791 445.427 799 443.437C803.551 442.882 807.951 442.152 812.199 441.248C813.756 440.921 815.294 440.569 816.811 440.192C817.168 440.108 817.518 440.025 817.867 439.934C821.008 439.124 823.895 437.539 826.265 435.325C828.634 433.11 830.411 430.337 831.431 427.259C832.65 423.691 832.824 419.85 831.933 416.187Z" fill="#2F2E41"/>
<path d="M666.408 538.163L655.215 532.798L653.46 531.955L650.656 538.84L631.081 543.148C630.113 543.36 629.239 543.876 628.585 544.621C627.931 545.366 627.533 546.3 627.448 547.287C627.363 548.274 627.596 549.263 628.113 550.108C628.63 550.953 629.404 551.611 630.321 551.985L649.447 559.789L655.519 554.326L654.029 561.659L661.233 564.6L669.128 539.47L666.408 538.163Z" fill="#2F2E41"/>
<path d="M735.194 527.56L735.91 529.369H735.194V527.56Z" fill="#2F2E41"/>
<path d="M731.297 529.755L719.569 533.818L717.728 534.454L720.58 541.319L709.702 558.153C709.164 558.985 708.905 559.967 708.965 560.956C709.024 561.946 709.399 562.89 710.033 563.651C710.667 564.412 711.528 564.951 712.491 565.188C713.453 565.424 714.465 565.347 715.381 564.968L734.462 557.056L734.932 548.901L739.033 555.16L746.221 552.181L734.15 528.769L731.297 529.755Z" fill="#2F2E41"/>
<path d="M660.113 278.331C660.669 279.415 661.456 280.363 662.418 281.109C663.38 281.856 664.495 282.382 665.682 282.651C666.87 282.92 668.102 282.926 669.292 282.667C670.482 282.409 671.601 281.893 672.57 281.155L697.232 297.527L697.279 282.144L673.852 268.956C672.505 267.41 670.638 266.412 668.604 266.152C666.57 265.891 664.512 266.385 662.818 267.541C661.125 268.696 659.914 270.433 659.415 272.422C658.917 274.411 659.165 276.513 660.113 278.331Z" fill="#FFB6B6"/>
<path d="M678.537 285.441L690.044 272.351L736.895 300.164L799.001 294.477C802.071 294.196 805.165 294.594 808.063 295.643C810.962 296.692 813.594 298.367 815.773 300.548C817.952 302.729 819.624 305.362 820.67 308.262C821.717 311.162 822.112 314.256 821.828 317.326C821.309 322.87 818.611 327.981 814.328 331.539C810.045 335.096 804.525 336.809 798.98 336.302L729.034 329.828L678.537 285.441Z" fill="#F26F37"/>
<path d="M822.684 285.643L822.576 285.508C813.839 284.645 805.04 286.336 797.244 290.375C789.449 294.414 782.993 300.628 778.659 308.263L773.388 317.547C756.34 338.39 768.728 352.763 769.47 354.901L763.552 382.186L764.878 391.318L765.541 394.03L833.091 429.327C836.937 410.849 833.219 395.102 819.207 383.074L832.764 340.893C835.77 331.567 836.422 321.642 834.663 312.002C832.905 302.362 828.789 293.307 822.684 285.643Z" fill="#F26F37"/>
<path d="M768.973 490.563H747.305C746.114 490.562 744.962 490.131 744.062 489.349C743.163 488.568 742.575 487.488 742.408 486.308C741.07 476.462 741.07 466.481 742.408 456.636C742.573 455.47 743.149 454.402 744.031 453.622C744.914 452.842 746.045 452.403 747.222 452.382C754.04 449.326 761.381 449.326 769.048 452.382C769.762 452.391 770.465 452.557 771.108 452.867C771.751 453.177 772.319 453.624 772.771 454.177C773.242 454.752 773.579 455.425 773.758 456.147C773.936 456.868 773.952 457.621 773.804 458.349C772.063 467.011 772.063 475.933 773.804 484.594C773.952 485.323 773.936 486.075 773.758 486.797C773.579 487.519 773.242 488.192 772.771 488.767C772.311 489.329 771.731 489.782 771.074 490.093C770.418 490.404 769.7 490.564 768.973 490.563Z" fill="#5379F4"/>
<path d="M766.704 463.694H748.467C748.316 463.695 748.167 463.667 748.027 463.61C747.888 463.553 747.761 463.47 747.654 463.364C747.547 463.258 747.462 463.131 747.404 462.993C747.347 462.854 747.317 462.705 747.317 462.554C747.317 462.403 747.347 462.254 747.404 462.115C747.462 461.977 747.547 461.85 747.654 461.744C747.761 461.638 747.888 461.555 748.027 461.498C748.167 461.441 748.316 461.413 748.467 461.414H766.704C766.854 461.413 767.004 461.441 767.143 461.498C767.283 461.555 767.409 461.638 767.516 461.744C767.623 461.85 767.708 461.977 767.766 462.115C767.824 462.254 767.854 462.403 767.854 462.554C767.854 462.705 767.824 462.854 767.766 462.993C767.708 463.131 767.623 463.258 767.516 463.364C767.409 463.47 767.283 463.553 767.143 463.61C767.004 463.667 766.854 463.695 766.704 463.694Z" fill="white"/>
<path d="M766.704 472.813H748.467C748.316 472.814 748.167 472.785 748.027 472.729C747.888 472.672 747.761 472.588 747.654 472.482C747.547 472.376 747.462 472.25 747.404 472.111C747.347 471.972 747.317 471.823 747.317 471.673C747.317 471.522 747.347 471.373 747.404 471.234C747.462 471.095 747.547 470.969 747.654 470.863C747.761 470.757 747.888 470.673 748.027 470.617C748.167 470.56 748.316 470.532 748.467 470.533H766.704C766.854 470.532 767.004 470.56 767.143 470.617C767.283 470.673 767.409 470.757 767.516 470.863C767.623 470.969 767.708 471.095 767.766 471.234C767.824 471.373 767.854 471.522 767.854 471.673C767.854 471.823 767.824 471.972 767.766 472.111C767.708 472.25 767.623 472.376 767.516 472.482C767.409 472.588 767.283 472.672 767.143 472.729C767.004 472.785 766.854 472.814 766.704 472.813Z" fill="white"/>
<path d="M766.704 481.931H748.467C748.317 481.932 748.167 481.904 748.028 481.847C747.888 481.791 747.761 481.707 747.654 481.601C747.547 481.495 747.463 481.369 747.405 481.23C747.347 481.091 747.317 480.942 747.317 480.791C747.317 480.641 747.347 480.491 747.405 480.352C747.463 480.213 747.547 480.087 747.654 479.981C747.761 479.875 747.888 479.792 748.028 479.735C748.167 479.678 748.317 479.65 748.467 479.651H766.704C766.855 479.65 767.005 479.678 767.144 479.735C767.284 479.792 767.41 479.875 767.517 479.981C767.624 480.087 767.709 480.213 767.767 480.352C767.825 480.491 767.855 480.641 767.855 480.791C767.855 480.942 767.825 481.091 767.767 481.23C767.709 481.369 767.624 481.495 767.517 481.601C767.41 481.707 767.284 481.791 767.144 481.847C767.005 481.904 766.855 481.932 766.704 481.931Z" fill="white"/>
<path d="M664.084 285.841H642.417C641.225 285.84 640.073 285.409 639.174 284.628C638.274 283.846 637.687 282.766 637.519 281.586C636.181 271.741 636.181 261.76 637.519 251.915C637.685 250.749 638.26 249.68 639.142 248.901C640.025 248.121 641.156 247.681 642.333 247.661C649.151 244.605 656.493 244.605 664.159 247.66C664.873 247.67 665.576 247.835 666.219 248.145C666.862 248.456 667.43 248.903 667.882 249.456C668.353 250.031 668.69 250.703 668.869 251.425C669.048 252.147 669.063 252.899 668.915 253.628C667.174 262.29 667.174 271.211 668.915 279.873C669.063 280.602 669.048 281.354 668.869 282.076C668.69 282.797 668.353 283.47 667.882 284.045C667.422 284.608 666.842 285.061 666.186 285.372C665.529 285.682 664.811 285.843 664.084 285.841Z" fill="#5379F4"/>
<path d="M661.816 258.973H643.579C643.429 258.974 643.279 258.946 643.14 258.889C643 258.832 642.873 258.748 642.767 258.642C642.66 258.536 642.575 258.41 642.517 258.271C642.459 258.132 642.429 257.983 642.429 257.833C642.429 257.682 642.459 257.533 642.517 257.394C642.575 257.255 642.66 257.129 642.767 257.023C642.873 256.917 643 256.834 643.14 256.777C643.279 256.72 643.429 256.692 643.579 256.693H661.816C661.967 256.692 662.116 256.72 662.256 256.777C662.395 256.834 662.522 256.917 662.629 257.023C662.736 257.129 662.82 257.255 662.878 257.394C662.936 257.533 662.966 257.682 662.966 257.833C662.966 257.983 662.936 258.132 662.878 258.271C662.82 258.41 662.736 258.536 662.629 258.642C662.522 258.748 662.395 258.832 662.256 258.889C662.116 258.946 661.967 258.974 661.816 258.973Z" fill="white"/>
<path d="M661.816 268.091H643.579C643.429 268.092 643.279 268.064 643.14 268.007C643 267.951 642.873 267.867 642.767 267.761C642.66 267.655 642.575 267.529 642.517 267.39C642.459 267.251 642.429 267.102 642.429 266.951C642.429 266.801 642.459 266.652 642.517 266.513C642.575 266.374 642.66 266.248 642.767 266.142C642.873 266.036 643 265.952 643.14 265.895C643.279 265.839 643.429 265.81 643.579 265.811H661.816C661.967 265.81 662.116 265.839 662.256 265.895C662.395 265.952 662.522 266.036 662.629 266.142C662.736 266.248 662.82 266.374 662.878 266.513C662.936 266.652 662.966 266.801 662.966 266.951C662.966 267.102 662.936 267.251 662.878 267.39C662.82 267.529 662.736 267.655 662.629 267.761C662.522 267.867 662.395 267.951 662.256 268.007C662.116 268.064 661.967 268.092 661.816 268.091Z" fill="white"/>
<path d="M661.817 277.21H643.58C643.429 277.211 643.28 277.183 643.14 277.126C643.001 277.07 642.874 276.986 642.767 276.88C642.66 276.774 642.575 276.648 642.517 276.509C642.459 276.37 642.429 276.221 642.429 276.07C642.429 275.92 642.459 275.77 642.517 275.631C642.575 275.492 642.66 275.366 642.767 275.26C642.874 275.154 643.001 275.071 643.14 275.014C643.28 274.957 643.429 274.929 643.58 274.93H661.817C661.967 274.929 662.117 274.957 662.256 275.014C662.396 275.071 662.523 275.154 662.63 275.26C662.737 275.366 662.822 275.492 662.88 275.631C662.938 275.77 662.967 275.92 662.967 276.07C662.967 276.221 662.938 276.37 662.88 276.509C662.822 276.648 662.737 276.774 662.63 276.88C662.523 276.986 662.396 277.07 662.256 277.126C662.117 277.183 661.967 277.211 661.817 277.21Z" fill="white"/>
<path d="M283.709 341.444H262.041C260.849 341.444 259.698 341.013 258.798 340.231C257.898 339.449 257.311 338.369 257.144 337.189C255.806 327.344 255.806 317.363 257.144 307.518C257.309 306.352 257.885 305.284 258.767 304.504C259.649 303.724 260.781 303.284 261.958 303.264C268.775 300.208 276.117 300.208 283.783 303.263C284.497 303.273 285.201 303.438 285.844 303.749C286.487 304.059 287.054 304.506 287.506 305.059C287.977 305.634 288.315 306.307 288.493 307.028C288.672 307.75 288.688 308.503 288.539 309.231C286.799 317.893 286.799 326.814 288.539 335.476C288.688 336.205 288.672 336.957 288.493 337.679C288.315 338.401 287.977 339.073 287.506 339.649C287.046 340.211 286.467 340.664 285.81 340.975C285.153 341.285 284.435 341.446 283.709 341.444Z" fill="#5379F4"/>
<path d="M281.437 314.576H263.2C263.05 314.577 262.901 314.549 262.761 314.492C262.622 314.436 262.495 314.352 262.388 314.246C262.281 314.14 262.196 314.014 262.138 313.875C262.08 313.736 262.05 313.587 262.05 313.436C262.05 313.286 262.08 313.137 262.138 312.998C262.196 312.859 262.281 312.733 262.388 312.627C262.495 312.521 262.622 312.437 262.761 312.38C262.901 312.324 263.05 312.295 263.2 312.296H281.437C281.588 312.295 281.737 312.324 281.877 312.38C282.016 312.437 282.143 312.521 282.25 312.627C282.357 312.733 282.442 312.859 282.5 312.998C282.558 313.137 282.587 313.286 282.587 313.436C282.587 313.587 282.558 313.736 282.5 313.875C282.442 314.014 282.357 314.14 282.25 314.246C282.143 314.352 282.016 314.436 281.877 314.492C281.737 314.549 281.588 314.577 281.437 314.576Z" fill="white"/>
<path d="M281.437 323.694H263.2C263.05 323.696 262.901 323.667 262.761 323.611C262.622 323.554 262.495 323.47 262.388 323.364C262.281 323.258 262.196 323.132 262.138 322.993C262.08 322.854 262.05 322.705 262.05 322.555C262.05 322.404 262.08 322.255 262.138 322.116C262.196 321.977 262.281 321.851 262.388 321.745C262.495 321.639 262.622 321.555 262.761 321.499C262.901 321.442 263.05 321.413 263.2 321.415H281.437C281.588 321.413 281.737 321.442 281.877 321.499C282.016 321.555 282.143 321.639 282.25 321.745C282.357 321.851 282.442 321.977 282.5 322.116C282.558 322.255 282.587 322.404 282.587 322.555C282.587 322.705 282.558 322.854 282.5 322.993C282.442 323.132 282.357 323.258 282.25 323.364C282.143 323.47 282.016 323.554 281.877 323.611C281.737 323.667 281.588 323.696 281.437 323.694Z" fill="white"/>
<path d="M281.438 332.813H263.201C263.05 332.815 262.901 332.786 262.762 332.73C262.622 332.673 262.495 332.589 262.388 332.483C262.281 332.377 262.196 332.251 262.138 332.112C262.08 331.973 262.05 331.824 262.05 331.673C262.05 331.523 262.08 331.374 262.138 331.235C262.196 331.096 262.281 330.97 262.388 330.864C262.495 330.758 262.622 330.674 262.762 330.617C262.901 330.561 263.05 330.532 263.201 330.534H281.438C281.589 330.532 281.738 330.561 281.878 330.617C282.017 330.674 282.144 330.758 282.251 330.864C282.358 330.97 282.443 331.096 282.501 331.235C282.559 331.374 282.589 331.523 282.589 331.673C282.589 331.824 282.559 331.973 282.501 332.112C282.443 332.251 282.358 332.377 282.251 332.483C282.144 332.589 282.017 332.673 281.878 332.73C281.738 332.786 281.589 332.815 281.438 332.813Z" fill="white"/>
<path d="M775.322 462.864C776.37 462.245 777.27 461.403 777.958 460.399C778.646 459.394 779.106 458.25 779.304 457.049C779.502 455.847 779.435 454.617 779.106 453.444C778.777 452.272 778.196 451.185 777.402 450.262L792.282 424.672L776.923 425.538L765.148 449.706C763.685 451.142 762.8 453.065 762.66 455.111C762.521 457.156 763.136 459.182 764.39 460.804C765.644 462.426 767.45 463.532 769.465 463.911C771.479 464.291 773.563 463.919 775.322 462.864Z" fill="#FFB6B6"/>
<path d="M781.327 444.051L767.577 433.341L792.562 384.923L783.2 323.263C782.737 320.215 782.951 317.103 783.827 314.147C784.702 311.192 786.217 308.465 788.265 306.16C790.313 303.856 792.843 302.031 795.675 300.814C798.508 299.598 801.573 299.02 804.655 299.121C810.219 299.31 815.482 301.7 819.287 305.764C823.092 309.829 825.13 315.237 824.953 320.803L822.639 391.01L781.327 444.051Z" fill="#F26F37"/>
<path d="M116.748 430.822C117.614 429.951 118.279 428.902 118.695 427.747C119.112 426.591 119.27 425.359 119.158 424.136C119.047 422.914 118.669 421.73 118.051 420.669C117.432 419.608 116.589 418.696 115.58 417.996L128.953 351.575L114.185 356.317L103.481 420.562C102.418 422.335 102.042 424.437 102.425 426.468C102.808 428.5 103.922 430.32 105.558 431.585C107.193 432.849 109.235 433.47 111.298 433.33C113.36 433.189 115.3 432.297 116.748 430.822Z" fill="#9E616A"/>
<path d="M136.494 290.292L127.332 283.376C127.332 283.376 119.249 282.804 117.817 297.38C116.386 311.956 113.446 340.363 113.446 340.363L99.4258 405.301L118.834 409.561L133.851 339.482L142.86 318.671L136.494 290.292Z" fill="#F26F37"/>
<path d="M121.389 396.329L173.02 395.468L177.323 360.187H121.389V396.329Z" fill="#9E616A"/>
<path d="M167.857 613.44H179.776L185.446 567.465L167.854 567.466L167.857 613.44Z" fill="#9E616A"/>
<path d="M93.1833 614.544L105.103 614.459L110.451 568.446L94.9487 572.002L93.1833 614.544Z" fill="#9E616A"/>
<path d="M130.464 329.803L127.763 336.825L128.303 343.847L181.16 362.154L178.538 331.423L172.596 324.401L130.464 329.803Z" fill="#FFB6B6"/>
<path d="M153.139 266.612C163.566 266.612 172.018 258.16 172.018 247.734C172.018 237.307 163.566 228.855 153.139 228.855C142.713 228.855 134.261 237.307 134.261 247.734C134.261 258.16 142.713 266.612 153.139 266.612Z" fill="#9E616A"/>
<path d="M164.9 607.56L183.742 606.436V614.508L201.656 626.88C202.54 627.491 203.207 628.369 203.557 629.385C203.908 630.402 203.925 631.504 203.605 632.53C203.285 633.557 202.645 634.454 201.779 635.092C200.913 635.729 199.866 636.072 198.79 636.072H176.358L172.491 628.087L170.982 636.072H162.524L164.9 607.56Z" fill="#2F2E41"/>
<path d="M89.1067 608.692L107.94 607.435L107.997 615.508L125.997 627.754C126.886 628.359 127.558 629.232 127.916 630.246C128.274 631.26 128.298 632.362 127.985 633.391C127.673 634.419 127.039 635.321 126.177 635.965C125.316 636.608 124.271 636.959 123.196 636.966L100.764 637.123L96.8419 629.165L95.3881 637.161L86.9305 637.22L89.1067 608.692Z" fill="#2F2E41"/>
<path d="M89.4749 579.294L98.1542 509.919L108.481 436.774C100.918 422.73 117.946 379.119 117.946 379.119L120.35 379.234L174.753 389.498L174.741 389.445C185.868 419.794 189.555 434.787 188.945 467.106L186.753 583.286H187.44C188.582 583.286 189.676 583.739 190.483 584.546C191.29 585.353 191.743 586.447 191.743 587.588C191.743 588.729 191.29 589.824 190.483 590.631C189.676 591.438 188.582 591.891 187.44 591.891H165.927C165.362 591.892 164.801 591.781 164.279 591.565C163.756 591.35 163.28 591.033 162.88 590.633C162.48 590.234 162.162 589.759 161.946 589.236C161.729 588.714 161.617 588.154 161.617 587.588C161.617 587.023 161.729 586.463 161.946 585.94C162.162 585.418 162.48 584.943 162.88 584.543C163.28 584.144 163.756 583.827 164.279 583.611C164.801 583.395 165.362 583.285 165.927 583.286H166.482L146.736 444.951L129.994 503.035L111.062 578.761C117.946 577.04 116.877 581.027 116.877 583.286C116.877 584.427 116.424 585.521 115.617 586.328C114.81 587.135 113.716 587.588 112.575 587.588H91.0617C90.0611 587.589 89.0915 587.241 88.3201 586.604C87.5486 585.967 87.0236 585.081 86.8356 584.098C86.6476 583.115 86.8084 582.097 87.2902 581.22C87.772 580.344 88.5446 579.662 89.4749 579.294Z" fill="#2F2E41"/>
<path d="M113.71 381.378L115.431 364.167C115.61 363.465 116.006 362.838 116.564 362.375C117.121 361.912 117.81 361.637 118.533 361.59C119.25 353.392 122.268 318.023 122.448 316.48L122.455 316.415L123.827 287.108C123.877 286.043 124.317 285.034 125.063 284.274C125.81 283.514 126.81 283.055 127.873 282.985L135.12 282.512C135.219 282.508 135.313 282.467 135.382 282.395C135.452 282.324 135.49 282.228 135.49 282.129C135.49 281.328 135.648 280.536 135.954 279.797C136.26 279.057 136.709 278.386 137.275 277.82C137.841 277.254 138.513 276.805 139.252 276.499C139.991 276.192 140.784 276.035 141.584 276.035H163.038C164.427 276.035 165.769 276.543 166.811 277.463C167.853 278.382 168.523 279.65 168.696 281.029C168.706 281.124 168.751 281.212 168.822 281.275C168.894 281.338 168.986 281.372 169.082 281.37H169.084C171.522 281.32 173.897 282.145 175.778 283.696C177.66 285.247 178.922 287.421 179.338 289.824C182.271 306.889 188.149 345.62 185.243 367.153C184.231 374.649 186.412 368.712 186.795 374.983C186.832 375.589 186.751 376.197 186.553 376.771C186.356 377.346 186.047 377.876 185.645 378.33C186.469 378.63 187.141 379.242 187.516 380.034C187.891 380.826 187.939 381.734 187.649 382.561L188.026 382.468C187.915 382.906 187.719 383.318 187.45 383.681C187.18 384.043 186.841 384.349 186.453 384.581C186.065 384.813 185.635 384.966 185.188 385.032C184.741 385.097 184.285 385.074 183.847 384.964L127.718 392.569C125.875 392.105 113.245 383.221 113.71 381.378Z" fill="#F26F37"/>
<path d="M263.693 311.404C263.341 312.58 262.736 313.665 261.919 314.582C261.103 315.5 260.096 316.227 258.968 316.712C257.84 317.198 256.62 317.431 255.392 317.394C254.165 317.357 252.961 317.051 251.864 316.498L230.165 336.301L227.284 321.061L248.345 304.641C249.396 302.861 251.063 301.528 253.031 300.895C254.999 300.262 257.131 300.372 259.023 301.206C260.914 302.039 262.435 303.538 263.295 305.417C264.156 307.297 264.297 309.427 263.693 311.404Z" fill="#9E616A"/>
<path d="M188.169 296.267C188.169 296.267 180.602 279.168 171.046 282.567C161.49 285.966 166.424 302.556 166.424 302.556L202.327 356.658C202.327 356.658 254.113 323.438 247.816 323.203C241.519 322.968 239.635 311.515 239.635 311.515L212.265 325.191L211.339 320.322L209.855 321.807L206.025 318.792L188.169 296.267Z" fill="#F26F37"/>
<path d="M807.111 277.483C821.668 277.483 833.468 265.683 833.468 251.126C833.468 236.57 821.668 224.769 807.111 224.769C792.554 224.769 780.754 236.57 780.754 251.126C780.754 265.683 792.554 277.483 807.111 277.483Z" fill="#FFB6B6"/>
<path d="M891.7 289.91C888.658 294.22 884.219 297.346 879.136 298.756C877.101 299.362 875.001 299.718 872.88 299.819C872.619 297.421 871.992 295.078 871.021 292.87C871.12 295.22 870.793 297.569 870.056 299.802C866.872 299.622 863.76 298.788 860.912 297.352C858.115 295.945 855.684 293.906 853.813 291.395C851.942 288.885 850.681 285.973 850.131 282.891C849.014 275.682 852.283 268.603 853.465 261.404C854.652 254.206 852.424 245.089 845.377 243.197C840.011 241.755 840.613 242.379 836.152 245.691C840.792 252.552 823.652 277.695 816.638 275.503C812.673 274.263 810.134 270.624 809.315 270.624C803.803 280.121 814.183 296.122 803.721 299.445L804.583 298.583C810.898 290.815 797.699 274.375 804.014 266.608C805.776 264.434 807.651 261.86 807.131 259.111C806.638 256.499 802.491 255.117 801.277 257.263C803.461 252.26 800.236 245.582 794.897 244.297C790.154 243.154 790.241 244.563 785.482 245.175C785.171 243.119 784.589 241.112 783.753 239.208C783.84 241.26 783.6 243.313 783.043 245.289C781.361 245.256 779.738 244.67 778.424 243.62C774.543 240.492 775.329 233.923 778.793 230.34C782.262 226.757 787.417 225.467 792.333 224.632C793.762 214.68 821.221 213.642 824.861 223.586C826.411 216.16 835.707 212.306 842.933 214.61C850.158 216.914 855.172 223.662 857.812 230.773C860.452 237.88 861.189 245.528 862.815 252.932C864.441 260.336 867.189 267.876 872.848 272.923C878.507 277.964 887.727 279.633 893.689 274.95C894.556 277.424 894.828 280.069 894.482 282.668C894.137 285.267 893.183 287.748 891.7 289.91Z" fill="#2F2E41"/>
<path d="M1138.98 350.057L1135.29 368.571C1135.01 369.986 1134.72 371.427 1134.4 372.855C1131.32 372.215 1128.12 372.394 1125.13 373.373C1127.5 376.767 1129.63 380.327 1131.5 384.026C1129.17 391.191 1125.76 397.813 1120.05 402.602C1116.23 405.73 1111.68 407.822 1106.82 408.676C1101.96 409.531 1096.96 409.119 1092.31 407.48L1092.47 406.748C1086.33 394.831 1089.67 379.805 1097.3 368.798C1101.19 363.368 1105.81 358.492 1111.01 354.303C1116.17 350.007 1121.74 346.153 1127.26 342.349C1128.5 341.496 1129.97 341.032 1131.47 341.017C1132.98 341.001 1134.46 341.435 1135.71 342.263C1136.97 343.09 1137.95 344.274 1138.53 345.662C1139.12 347.051 1139.27 348.581 1138.98 350.057Z" fill="#5379F4"/>
<path d="M1093.62 452.026C1092.07 440.712 1090.47 429.254 1091.56 417.819C1092.53 407.664 1095.63 397.745 1101.94 389.612C1105.28 385.303 1109.36 381.611 1113.97 378.702C1115.18 377.944 1116.29 379.851 1115.09 380.606C1107.1 385.655 1100.92 393.11 1097.44 401.896C1093.6 411.667 1092.98 422.319 1093.65 432.698C1094.05 438.975 1094.9 445.208 1095.76 451.439C1095.82 451.72 1095.78 452.018 1095.64 452.27C1095.5 452.523 1095.26 452.711 1094.98 452.796C1094.7 452.872 1094.4 452.834 1094.15 452.689C1093.89 452.545 1093.71 452.306 1093.63 452.025L1093.62 452.026Z" fill="#EFFFF0"/>
<path d="M1181.5 638.16L1.50473 638.548C1.10642 638.547 0.724821 638.388 0.44358 638.106C0.162339 637.824 0.00439731 637.442 0.00439731 637.044C0.00439731 636.645 0.162339 636.263 0.44358 635.981C0.724821 635.699 1.10642 635.54 1.50473 635.539L1181.5 635.15C1181.89 635.152 1182.28 635.311 1182.56 635.593C1182.84 635.875 1183 636.257 1183 636.655C1183 637.053 1182.84 637.435 1182.56 637.718C1182.28 638 1181.89 638.159 1181.5 638.16Z" fill="#CACACA"/>
<path d="M130.921 236.174C128.025 237.564 124.784 235.473 122.285 233.402L123.179 234.174C118.761 238.473 116.695 244.657 115.686 250.744C114.676 256.825 114.563 263.045 113.291 269.083C112.018 275.114 109.377 281.174 104.445 284.869C97.837 289.817 88.7233 289.499 80.614 287.982C80.506 287.96 80.4053 287.944 80.2973 287.922C82.4792 281.622 83.3662 274.946 82.905 268.295C80.7313 274.96 77.0309 281.025 72.0986 286.008C66.722 284.528 61.4741 282.616 56.4061 280.29C53.1269 278.78 49.596 276.716 48.686 273.222C47.7736 269.754 49.8923 266.116 52.7254 263.926C55.5584 261.736 59.0355 260.594 62.263 259.034C65.4852 257.481 68.6738 255.267 69.964 251.925C72.9397 244.237 64.4628 235.414 67.7664 227.856C69.3955 224.14 73.3858 222.118 77.1363 220.56C82.8619 218.187 88.7413 216.204 94.7344 214.624C99.9954 213.236 105.489 212.158 110.848 213.068C116.208 213.977 121.458 217.237 123.387 222.327C126.606 223.415 130.023 224.641 132.088 227.35C134.153 230.052 133.986 234.705 130.921 236.174Z" fill="#2F2E41"/>
<path d="M156.683 227.265C148.4 220.726 141.703 221.842 136.537 225.905C135.668 224.939 131.972 227.597 130.72 227.215L126.194 235.712C123.865 239.823 122.909 244.018 123.286 246.38C119.001 258.395 129.161 266.508 141.177 270.793C145.971 272.514 151.202 272.59 156.044 271.008L156.192 268.961L157.102 270.639C157.102 270.639 168.086 293.256 170.682 294.271C169.107 290.186 164.953 270.768 163.793 266.721C162.204 261.214 163.29 252.464 164.224 247.1C164.806 243.793 164.837 240.412 164.314 237.095L164.291 236.95L166.861 242.138L172.627 238.512C170.424 232.093 170.38 224.415 156.683 227.265Z" fill="#2F2E41"/>
</g>
<defs>
<clipPath id="clip0_1_344">
<rect width="1182.25" height="638.144" fill="white" transform="scale(1.00063)"/>
</clipPath>
</defs>
</svg>
