<svg preserveAspectRatio="none" width="100%" height="100%" overflow="visible" style="display: block;" viewBox="0 0 726.423 705.12" fill="none" xmlns="http://www.w3.org/2000/svg">
<g id="undraw_job-hunt_5umi 1" clip-path="url(#clip0_0_62)">
<path id="Vector" d="M509.793 702.74C509.033 703.54 508.243 704.33 507.443 705.12H416.223C415.473 704.35 414.733 703.56 413.993 702.74C413.963 702.71 413.932 702.67 413.903 702.64C403.993 691.66 397.753 675.7 393.863 658.87C393.613 657.85 393.393 656.82 393.173 655.78C392.153 651.05 391.323 646.27 390.643 641.53C390.523 640.71 390.403 639.89 390.303 639.07C389.383 632.26 388.763 625.56 388.363 619.27C388.313 618.46 388.263 617.67 388.213 616.88C387.48 604.358 387.473 591.804 388.193 579.28C388.193 579.28 388.313 579.28 388.543 579.29C389.213 579.32 390.823 579.39 393.193 579.53C399.723 579.93 412.043 580.93 426.533 583.29C427.323 583.42 428.123 583.56 428.923 583.7C441.179 585.725 453.268 588.653 465.093 592.46C465.833 592.71 466.563 592.96 467.303 593.21L467.313 593.26L476.383 638.77L480.143 598.26C483.133 599.61 486.043 601.05 488.833 602.59C489.613 603.02 490.373 603.45 491.123 603.89C497.501 607.505 503.291 612.07 508.293 617.43C538.043 650.4 531.673 679.87 509.793 702.74Z" fill="var(--fill-0, #5379F4)"/>
<path id="Vector_2" d="M471.672 645.032L473.254 646.784C491.533 667.243 502.442 686.232 505.803 703.504C505.856 703.755 505.893 704.005 505.946 704.255L504.777 704.477L503.65 704.676C500.22 685.845 487.449 666.38 471.51 648.532C471.002 647.952 470.486 647.363 469.953 646.789C463.138 639.293 455.813 632.102 448.405 625.378C447.836 624.853 447.251 624.326 446.665 623.8C436.842 614.975 426.959 606.992 418.145 600.262C417.524 599.784 416.894 599.313 416.273 598.851C401.307 587.522 389.696 580.012 387.108 578.366C386.796 578.159 386.619 578.051 386.579 578.024L387.192 577.046L387.193 577.03L387.814 576.044C387.854 576.071 388.448 576.432 389.52 577.132C393.549 579.729 404.376 586.876 417.846 597.037C418.451 597.498 419.081 597.969 419.702 598.447C426.86 603.901 434.689 610.15 442.596 616.99C444.585 618.705 446.524 620.418 448.414 622.127C449.008 622.646 449.593 623.172 450.162 623.698C458.171 630.965 465.341 638.077 471.672 645.032Z" fill="var(--fill-0, white)"/>
<path id="Vector_3" d="M427.393 581.35C427.123 582 426.833 582.65 426.533 583.29C424.248 588.233 421.327 592.856 417.843 597.04C417.333 597.64 416.813 598.25 416.273 598.85C414.813 600.46 413.259 602.017 411.613 603.52C404.875 609.62 396.89 614.179 388.213 616.88C387.932 616.97 387.663 617.06 387.383 617.14C387.432 617.93 387.483 618.71 387.533 619.52C387.813 619.44 388.083 619.36 388.363 619.27C397.57 616.494 406.045 611.705 413.173 605.25C414.916 603.675 416.575 602.01 418.143 600.26C418.682 599.67 419.203 599.06 419.703 598.45C423.429 593.973 426.53 589.011 428.923 583.7C429.203 583.06 429.483 582.42 429.753 581.77C428.953 581.63 428.163 581.49 427.393 581.35Z" fill="var(--fill-0, white)"/>
<path id="Vector_4" d="M465.503 590.69C465.383 591.28 465.243 591.87 465.093 592.46C462.382 603.702 456.608 613.972 448.413 622.13C447.843 622.7 447.263 623.26 446.663 623.8C446.493 623.97 446.303 624.15 446.123 624.31C438.668 631.04 429.712 635.891 420.003 638.459C410.293 641.026 400.11 641.236 390.303 639.07C390.073 639.03 389.833 638.97 389.603 638.92C389.723 639.74 389.833 640.57 389.963 641.39C390.193 641.44 390.413 641.49 390.643 641.53C400.699 643.611 411.104 643.293 421.014 640.601C430.924 637.91 440.06 632.922 447.683 626.04C447.923 625.82 448.173 625.61 448.403 625.38C449.003 624.82 449.583 624.26 450.163 623.7C458.549 615.308 464.48 604.782 467.313 593.26C467.463 592.66 467.603 592.06 467.733 591.46C466.993 591.2 466.253 590.94 465.503 590.69Z" fill="var(--fill-0, white)"/>
<path id="Vector_5" d="M488.833 600.9C488.843 601.46 488.843 602.03 488.833 602.59C488.666 618.394 482.537 633.552 471.673 645.03C471.113 645.63 470.533 646.21 469.953 646.79C469.323 647.4 468.693 648.01 468.043 648.59C457.983 657.657 445.275 663.25 431.795 664.545C418.314 665.839 404.774 662.767 393.173 655.78C392.974 655.677 392.78 655.563 392.593 655.44C392.833 656.5 393.073 657.54 393.333 658.58C393.513 658.68 393.682 658.78 393.863 658.87C405.8 665.527 419.521 668.282 433.103 666.751C446.685 665.219 459.447 659.478 469.603 650.33C470.253 649.74 470.903 649.15 471.513 648.53C472.113 647.96 472.682 647.38 473.253 646.78C484.27 635.161 490.631 619.895 491.123 603.89C491.143 603.35 491.153 602.81 491.153 602.27C490.393 601.8 489.613 601.35 488.833 600.9Z" fill="var(--fill-0, white)"/>
<path id="Vector_6" d="M286.667 165.578H110.882C109.419 165.577 108.017 164.995 106.982 163.96C105.948 162.926 105.366 161.523 105.364 160.061V26.5855C105.366 25.1226 105.948 23.7201 106.982 22.6856C108.016 21.6511 109.419 21.0692 110.882 21.0674H326.65C328.113 21.0692 329.515 21.6511 330.55 22.6856C331.584 23.7201 332.166 25.1226 332.167 26.5855V120.078C332.154 132.141 327.356 143.707 318.826 152.236C310.296 160.766 298.731 165.565 286.667 165.578Z" fill="var(--fill-0, white)"/>
<path id="Vector_7" d="M286.667 166.078H110.882C109.286 166.076 107.757 165.442 106.629 164.314C105.501 163.185 104.866 161.656 104.864 160.061V26.5855C104.866 24.99 105.501 23.4604 106.629 22.3322C107.757 21.204 109.286 20.5693 110.882 20.5674H326.65C328.245 20.5693 329.775 21.2039 330.903 22.3321C332.031 23.4604 332.666 24.99 332.667 26.5855V120.078C332.654 132.274 327.803 143.966 319.179 152.59C310.555 161.213 298.863 166.064 286.667 166.078ZM110.882 22.5674C109.817 22.5687 108.795 22.9925 108.042 23.7458C107.289 24.499 106.865 25.5203 106.864 26.5855V160.061C106.865 161.126 107.289 162.147 108.042 162.9C108.795 163.653 109.817 164.077 110.882 164.078H286.667C298.333 164.065 309.517 159.425 317.766 151.176C326.014 142.928 330.654 131.744 330.667 120.078V26.5855C330.666 25.5203 330.243 24.499 329.49 23.7458C328.736 22.9925 327.715 22.5687 326.65 22.5674H110.882Z" fill="var(--fill-0, #CCCCCC)"/>
<path id="Vector_8" d="M283.998 66.1445H153.534C152.336 66.1445 151.187 65.6687 150.34 64.8217C149.493 63.9748 149.018 62.8261 149.018 61.6284C149.018 60.4307 149.493 59.282 150.34 58.435C151.187 57.5881 152.336 57.1123 153.534 57.1123H283.998C285.195 57.1141 286.342 57.5907 287.187 58.4374C288.033 59.2841 288.507 60.4318 288.507 61.6284C288.507 62.825 288.033 63.9726 287.187 64.8194C286.342 65.6661 285.195 66.1427 283.998 66.1445Z" fill="var(--fill-0, #CCCCCC)"/>
<path id="Vector_9" d="M283.998 97.2552H153.534C152.336 97.2552 151.187 96.7794 150.34 95.9325C149.493 95.0855 149.018 93.9369 149.018 92.7391C149.018 91.5414 149.493 90.3927 150.34 89.5458C151.187 88.6988 152.336 88.2231 153.534 88.2231H283.998C285.196 88.2231 286.344 88.6988 287.191 89.5458C288.038 90.3927 288.514 91.5414 288.514 92.7391C288.514 93.9369 288.038 95.0855 287.191 95.9325C286.344 96.7794 285.196 97.2552 283.998 97.2552Z" fill="var(--fill-0, #CCCCCC)"/>
<path id="Vector_10" d="M283.998 129.255H153.534C152.336 129.255 151.187 128.779 150.34 127.932C149.493 127.086 149.018 125.937 149.018 124.739C149.018 123.541 149.493 122.393 150.34 121.546C151.187 120.699 152.336 120.223 153.534 120.223H283.998C285.196 120.223 286.344 120.699 287.191 121.546C288.038 122.393 288.514 123.541 288.514 124.739C288.514 125.937 288.038 127.086 287.191 127.932C286.344 128.779 285.196 129.255 283.998 129.255Z" fill="var(--fill-0, #CCCCCC)"/>
<path id="Vector_11" d="M325.03 53.937C339.924 53.937 351.998 41.8628 351.998 26.9685C351.998 12.0742 339.924 -1e-05 325.03 -1e-05C310.136 -1e-05 298.061 12.0742 298.061 26.9685C298.061 41.8628 310.136 53.937 325.03 53.937Z" fill="var(--fill-0, #F26F37)"/>
<path id="Vector_12" d="M321.351 41.0044C320.885 41.0044 320.426 40.8959 320.009 40.6876C319.593 40.4793 319.231 40.1768 318.951 39.8042L311.594 29.9941C311.357 29.679 311.185 29.3203 311.088 28.9387C310.99 28.5571 310.968 28.16 311.024 27.77C311.08 27.38 311.212 27.0048 311.412 26.6658C311.613 26.3269 311.879 26.0308 312.194 25.7944C312.509 25.5581 312.868 25.3861 313.249 25.2883C313.631 25.1906 314.028 25.1689 314.418 25.2247C314.808 25.2804 315.183 25.4124 315.522 25.6131C315.861 25.8138 316.157 26.0793 316.394 26.3945L321.207 32.812L333.57 14.268C334.011 13.606 334.697 13.1465 335.478 12.9904C336.258 12.8344 337.068 12.9947 337.73 13.436C338.392 13.8773 338.852 14.5636 339.008 15.3438C339.164 16.1239 339.003 16.9342 338.562 17.5962L323.847 39.6684C323.581 40.0676 323.223 40.3972 322.803 40.6294C322.383 40.8617 321.914 40.99 321.434 41.0034C321.407 41.0039 321.379 41.0044 321.351 41.0044Z" fill="var(--fill-0, white)"/>
<path id="Vector_13" d="M221.786 281.507H46C33.9368 281.494 22.3716 276.696 13.8417 268.166C5.31172 259.636 0.513607 248.071 0.499997 236.007V142.514C0.501715 141.051 1.08364 139.649 2.1181 138.614C3.15256 137.58 4.55511 136.998 6.01806 136.996H221.786C223.249 136.998 224.651 137.58 225.686 138.614C226.72 139.649 227.302 141.051 227.304 142.514V275.989C227.302 277.452 226.72 278.855 225.686 279.889C224.651 280.924 223.249 281.506 221.786 281.507Z" fill="var(--fill-0, white)"/>
<path id="Vector_14" d="M221.786 282.007H46C33.8043 281.994 22.1121 277.143 13.4884 268.519C4.86473 259.895 0.0138632 248.203 -2.96875e-06 236.007V142.514C0.00180475 140.919 0.636432 139.389 1.76465 138.261C2.89286 137.133 4.42253 136.498 6.01806 136.496H221.786C223.381 136.498 224.911 137.133 226.039 138.261C227.167 139.389 227.802 140.919 227.804 142.514V275.989C227.802 277.585 227.167 279.115 226.039 280.243C224.911 281.371 223.381 282.006 221.786 282.007ZM6.01806 138.496C4.9528 138.497 3.93153 138.921 3.17828 139.674C2.42503 140.428 2.00128 141.449 2 142.514V236.007C2.01317 247.673 6.65311 258.857 14.9019 267.106C23.1506 275.354 34.3345 279.994 46 280.007H221.786C222.851 280.006 223.872 279.582 224.626 278.829C225.379 278.076 225.803 277.055 225.804 275.989V142.514C225.802 141.449 225.379 140.428 224.625 139.674C223.872 138.921 222.851 138.497 221.786 138.496H6.01806Z" fill="var(--fill-0, #9E616A)"/>
<path id="Vector_15" d="M179.134 182.073H48.6697C47.4719 182.073 46.3232 181.597 45.4763 180.751C44.6294 179.904 44.1536 178.755 44.1536 177.557C44.1536 176.359 44.6294 175.211 45.4763 174.364C46.3232 173.517 47.4719 173.041 48.6697 173.041H179.134C180.332 173.041 181.48 173.517 182.327 174.364C183.174 175.211 183.65 176.359 183.65 177.557C183.65 178.755 183.174 179.904 182.327 180.751C181.48 181.597 180.332 182.073 179.134 182.073Z" fill="var(--fill-0, #CCCCCC)"/>
<path id="Vector_16" d="M179.134 213.184H48.6697C47.4719 213.184 46.3232 212.708 45.4763 211.861C44.6294 211.014 44.1536 209.866 44.1536 208.668C44.1536 207.47 44.6294 206.321 45.4763 205.475C46.3232 204.628 47.4719 204.152 48.6697 204.152H179.134C180.332 204.152 181.48 204.628 182.327 205.475C183.174 206.321 183.65 207.47 183.65 208.668C183.65 209.866 183.174 211.014 182.327 211.861C181.48 212.708 180.332 213.184 179.134 213.184Z" fill="var(--fill-0, #9E616A)"/>
<path id="Vector_17" d="M179.134 245.184H48.6697C47.4719 245.184 46.3232 244.708 45.4763 243.861C44.6294 243.014 44.1536 241.866 44.1536 240.668C44.1536 239.47 44.6294 238.321 45.4763 237.475C46.3232 236.628 47.4719 236.152 48.6697 236.152H179.134C180.332 236.152 181.48 236.628 182.327 237.475C183.174 238.321 183.65 239.47 183.65 240.668C183.65 241.866 183.174 243.014 182.327 243.861C181.48 244.708 180.332 245.184 179.134 245.184Z" fill="var(--fill-0, #CCCCCC)"/>
<path id="Vector_18" d="M222.03 170.937C236.924 170.937 248.998 158.863 248.998 143.969C248.998 129.074 236.924 117 222.03 117C207.136 117 195.061 129.074 195.061 143.969C195.061 158.863 207.136 170.937 222.03 170.937Z" fill="var(--fill-0, #F26F37)"/>
<path id="Vector_19" d="M218.351 158.004C217.885 158.004 217.426 157.896 217.009 157.688C216.593 157.479 216.231 157.177 215.951 156.804L208.594 146.994C208.357 146.679 208.185 146.32 208.088 145.939C207.99 145.557 207.968 145.16 208.024 144.77C208.08 144.38 208.212 144.005 208.413 143.666C208.613 143.327 208.879 143.031 209.194 142.794C209.509 142.558 209.868 142.386 210.249 142.288C210.631 142.191 211.028 142.169 211.418 142.225C211.808 142.28 212.183 142.412 212.522 142.613C212.861 142.814 213.157 143.079 213.394 143.394L218.207 149.812L230.57 131.268C231.011 130.606 231.697 130.146 232.478 129.99C233.258 129.834 234.068 129.995 234.73 130.436C235.392 130.877 235.852 131.564 236.008 132.344C236.164 133.124 236.003 133.934 235.562 134.596L220.847 156.668C220.581 157.068 220.223 157.397 219.803 157.629C219.383 157.862 218.914 157.99 218.434 158.003C218.407 158.004 218.379 158.004 218.351 158.004Z" fill="var(--fill-0, white)"/>
<path id="Vector_20" d="M440.81 405.92H194.846C182.783 405.907 171.218 401.109 162.688 392.579C154.158 384.049 149.36 372.484 149.346 360.42V222.907C149.348 221.021 150.098 219.213 151.432 217.88C152.765 216.546 154.573 215.796 156.459 215.794H440.81C442.696 215.796 444.504 216.546 445.837 217.88C447.17 219.213 447.92 221.021 447.922 222.907V398.807C447.92 400.693 447.17 402.501 445.837 403.834C444.504 405.168 442.696 405.918 440.81 405.92Z" fill="var(--fill-0, white)"/>
<path id="Vector_21" d="M440.81 406.42H194.846C182.65 406.407 170.958 401.556 162.335 392.932C153.711 384.308 148.86 372.616 148.846 360.42V222.907C148.848 220.888 149.651 218.953 151.078 217.526C152.506 216.099 154.441 215.296 156.459 215.294H440.81C442.828 215.296 444.763 216.099 446.19 217.526C447.617 218.954 448.42 220.889 448.422 222.907V398.807C448.42 400.826 447.618 402.761 446.19 404.188C444.763 405.615 442.828 406.418 440.81 406.42ZM156.459 217.294C154.971 217.296 153.544 217.888 152.492 218.94C151.44 219.992 150.848 221.419 150.846 222.907V360.42C150.859 372.086 155.499 383.27 163.748 391.519C171.997 399.767 183.181 404.407 194.846 404.42H440.81C442.298 404.419 443.725 403.827 444.777 402.774C445.829 401.722 446.421 400.295 446.422 398.807V222.907C446.421 221.419 445.829 219.992 444.777 218.94C443.725 217.888 442.298 217.296 440.81 217.294H156.459Z" fill="var(--fill-0, #9E616A)"/>
<path id="Vector_22" d="M384.601 275.04H212.668C211.886 275.041 211.111 274.888 210.388 274.589C209.665 274.29 209.008 273.852 208.454 273.299C207.901 272.747 207.462 272.09 207.162 271.368C206.863 270.645 206.709 269.87 206.709 269.088C206.709 268.306 206.863 267.531 207.162 266.809C207.462 266.086 207.901 265.43 208.454 264.877C209.008 264.324 209.665 263.886 210.388 263.588C211.111 263.289 211.886 263.136 212.668 263.137H384.601C385.383 263.136 386.158 263.289 386.881 263.588C387.604 263.886 388.261 264.324 388.814 264.877C389.368 265.43 389.807 266.086 390.106 266.809C390.406 267.531 390.56 268.306 390.56 269.088C390.56 269.87 390.406 270.645 390.106 271.368C389.807 272.09 389.368 272.747 388.814 273.299C388.261 273.852 387.604 274.29 386.881 274.589C386.158 274.888 385.383 275.041 384.601 275.04Z" fill="var(--fill-0, #CCCCCC)"/>
<path id="Vector_23" d="M384.601 316.039H212.668C211.886 316.04 211.111 315.887 210.388 315.588C209.665 315.29 209.008 314.852 208.454 314.299C207.901 313.746 207.462 313.09 207.162 312.367C206.863 311.644 206.709 310.87 206.709 310.088C206.709 309.305 206.863 308.531 207.162 307.808C207.462 307.086 207.901 306.429 208.454 305.877C209.008 305.324 209.665 304.886 210.388 304.587C211.111 304.288 211.886 304.135 212.668 304.136H384.601C386.179 304.136 387.693 304.763 388.809 305.879C389.926 306.995 390.553 308.509 390.553 310.088C390.553 311.666 389.926 313.18 388.809 314.296C387.693 315.412 386.179 316.039 384.601 316.039Z" fill="var(--fill-0, #CCCCCC)"/>
<path id="Vector_24" d="M384.601 358.211H212.668C211.089 358.211 209.576 357.584 208.459 356.467C207.343 355.351 206.716 353.838 206.716 352.259C206.716 350.681 207.343 349.167 208.459 348.051C209.576 346.935 211.089 346.308 212.668 346.308H384.601C385.383 346.307 386.158 346.46 386.881 346.758C387.604 347.057 388.261 347.495 388.814 348.048C389.368 348.601 389.807 349.257 390.106 349.98C390.406 350.702 390.56 351.477 390.56 352.259C390.56 353.041 390.406 353.816 390.106 354.538C389.807 355.261 389.368 355.917 388.814 356.47C388.261 357.023 387.604 357.461 386.881 357.76C386.158 358.058 385.383 358.212 384.601 358.211Z" fill="var(--fill-0, #9E616A)"/>
<path id="Vector_25" d="M441.703 260.698C460.558 260.698 475.842 245.414 475.842 226.559C475.842 207.705 460.558 192.42 441.703 192.42C422.849 192.42 407.564 207.705 407.564 226.559C407.564 245.414 422.849 260.698 441.703 260.698Z" fill="var(--fill-0, #F26F37)"/>
<path id="Vector_26" d="M437.046 244.327C436.457 244.327 435.875 244.19 435.348 243.926C434.821 243.662 434.362 243.279 434.008 242.808L424.695 230.389C424.396 229.99 424.178 229.536 424.054 229.053C423.93 228.57 423.903 228.067 423.974 227.574C424.044 227.08 424.211 226.605 424.465 226.176C424.719 225.747 425.056 225.372 425.454 225.073C425.853 224.774 426.307 224.556 426.79 224.432C427.274 224.309 427.776 224.281 428.27 224.352C428.764 224.422 429.239 224.589 429.668 224.843C430.097 225.098 430.472 225.434 430.771 225.833L436.864 233.956L452.514 210.482C453.073 209.645 453.942 209.065 454.929 208.868C455.915 208.671 456.94 208.875 457.777 209.433C458.615 209.991 459.196 210.859 459.394 211.845C459.592 212.832 459.39 213.857 458.833 214.695L440.206 242.636C439.869 243.141 439.416 243.558 438.885 243.852C438.353 244.146 437.759 244.309 437.152 244.326C437.117 244.326 437.081 244.327 437.046 244.327Z" fill="var(--fill-0, white)"/>
<path id="Vector_27" d="M530.145 677.866L516.256 682.511L491.729 631.148L512.229 624.292L530.145 677.866Z" fill="var(--fill-0, #FFB6B6)"/>
<path id="Vector_28" d="M538.19 690.145L493.405 702.122L493.216 701.556C491.659 696.899 492.008 694.915 494.199 690.522C495.271 688.358 496.761 686.428 498.584 684.844C500.406 683.261 502.525 682.054 504.817 681.294L504.818 681.294L510.923 672.351L528.262 673.453L532.171 672.146L538.19 690.145Z" fill="var(--fill-0, #2F2E41)"/>
<path id="Vector_29" d="M564.461 690.925H549.816L542.848 634.435L564.464 634.436L564.461 690.925Z" fill="var(--fill-0, #FFB6B6)"/>
<path id="Vector_30" d="M568.196 702.122L520.973 702.12V701.523C520.973 696.613 522.885 694.997 526.357 691.526C528.06 689.814 530.085 688.457 532.316 687.533C534.547 686.609 536.939 686.136 539.353 686.143H539.354L547.98 679.599L564.075 686.144L568.197 686.144L568.196 702.122Z" fill="var(--fill-0, #2F2E41)"/>
<path id="Vector_31" d="M452.999 238.316C453.301 239.85 453.935 241.3 454.858 242.563C455.78 243.825 456.968 244.87 458.338 245.624C459.708 246.378 461.227 246.823 462.787 246.926C464.347 247.029 465.911 246.79 467.369 246.223L484.277 263.875L497.51 256.217L473.283 231.624C472.169 229.239 470.219 227.344 467.802 226.301C465.385 225.257 462.669 225.136 460.169 225.961C457.668 226.786 455.558 228.499 454.236 230.776C452.915 233.053 452.475 235.736 452.999 238.316Z" fill="var(--fill-0, #FFB6B6)"/>
<path id="Vector_32" d="M562.421 327.072L570.043 319.186L525.965 278.363L481.602 238.751L469.315 256.113L515.804 299.507L562.421 327.072Z" fill="var(--fill-0, #E4E4E4)"/>
<path id="Vector_33" d="M535.338 594.974C535.338 585.063 535.534 577.994 535.692 572.314C536.153 555.691 536.277 551.222 529.915 522.595L528.281 515.243L518.647 544.147C515.569 553.367 513.997 563.023 513.99 572.743L528.845 661.875H498.483L476.245 565.515L476.235 536.039C474.276 534.012 473.181 531.303 473.181 528.483C473.181 525.664 474.276 522.954 476.235 520.927L483.623 476.768L491.101 417.255H573.008C573.008 417.255 587.463 447.217 573.098 476.937L573.096 595.011L565.674 676.65H542.761L535.338 594.974Z" fill="var(--fill-0, #2F2E41)"/>
<path id="Vector_34" d="M568 424.459L491.387 418.074L490.989 418.041L497.103 307.988C497.463 301.068 499.891 294.416 504.073 288.891C508.255 283.367 514 279.225 520.562 277.002V269.3C520.564 267.394 521.323 265.566 522.67 264.218C524.018 262.871 525.846 262.112 527.752 262.11H538.946C540.282 262.106 541.593 262.476 542.73 263.178C543.866 263.881 544.784 264.888 545.377 266.085L550.851 277.032L571.549 293.591C581.772 301.77 573.544 383.768 573.102 388.094L578.108 413.125C578.383 414.502 578.35 415.923 578.011 417.285C577.671 418.648 577.034 419.918 576.145 421.005C575.256 422.092 574.138 422.969 572.87 423.572C571.602 424.175 570.216 424.489 568.812 424.493C568.543 424.492 568.272 424.481 568 424.459Z" fill="var(--fill-0, #E4E4E4)"/>
<path id="Vector_35" d="M486.868 453.517C488.079 452.528 489.058 451.285 489.737 449.877C490.416 448.468 490.778 446.928 490.798 445.364C490.817 443.8 490.493 442.251 489.849 440.827C489.205 439.402 488.256 438.135 487.07 437.117L494.671 413.886L481.68 405.823L471.407 438.78C469.828 440.887 469.076 443.5 469.294 446.123C469.513 448.747 470.686 451.199 472.592 453.016C474.498 454.832 477.003 455.886 479.634 455.979C482.266 456.071 484.839 455.195 486.868 453.517Z" fill="var(--fill-0, #FFB6B6)"/>
<path id="Vector_36" d="M513.585 295.588L503.038 292.072L487.804 360.04L473.773 427.634L494.876 430.739L511.241 358.868L513.585 295.588Z" fill="var(--fill-0, #E4E4E4)"/>
<path id="Vector_37" d="M525.103 255.076C539 255.076 550.265 243.81 550.265 229.914C550.265 216.017 539 204.751 525.103 204.751C511.206 204.751 499.941 216.017 499.941 229.914C499.941 243.81 511.206 255.076 525.103 255.076Z" fill="var(--fill-0, #FFB6B6)"/>
<path id="Vector_38" d="M491.247 217.591C491.479 215.207 492.163 212.888 493.261 210.758C494.437 213.316 498.106 213.76 500.618 212.487C503.129 211.214 504.812 208.796 506.606 206.627C511.342 200.903 517.854 196.259 525.235 195.414C532.616 194.568 540.751 198.294 543.54 205.179C544.792 203.442 547.462 203.249 549.35 204.258C551.175 205.409 552.599 207.095 553.426 209.087C555.284 212.898 556.334 217.052 556.51 221.288C556.686 225.525 555.984 229.751 554.45 233.704C551.342 241.568 543.667 252.165 535.748 255.133C530.941 256.935 526.085 254.628 520.973 255.133C521.24 249.553 522.322 242.668 522.59 237.089C522.737 234.033 522.758 230.614 520.671 228.377C520.031 227.769 519.265 227.31 518.427 227.031C517.589 226.752 516.701 226.66 515.824 226.762C514.947 226.865 514.103 227.159 513.353 227.623C512.602 228.087 511.962 228.711 511.479 229.45C511.221 227.715 510.635 226.045 509.753 224.529C509.301 223.777 508.647 223.167 507.866 222.767C507.085 222.367 506.208 222.193 505.333 222.265C503.198 222.615 501.88 224.806 499.921 225.724C498.808 226.17 497.586 226.265 496.417 225.997C495.249 225.729 494.19 225.111 493.383 224.225C492.599 223.32 492.006 222.266 491.639 221.126C491.272 219.986 491.138 218.784 491.247 217.591Z" fill="var(--fill-0, #2F2E41)"/>
<path id="Vector_39" opacity="0.1" d="M528.36 358.563L498.809 417.665H520.973L528.36 358.563Z" fill="var(--fill-0, black)"/>
<path id="Vector_40" d="M726.423 703.93C726.423 704.087 726.393 704.242 726.333 704.386C726.273 704.531 726.186 704.662 726.075 704.773C725.965 704.884 725.833 704.971 725.689 705.031C725.544 705.09 725.389 705.121 725.233 705.12H160.943C160.627 705.12 160.324 704.995 160.101 704.772C159.878 704.549 159.753 704.246 159.753 703.93C159.753 703.615 159.878 703.312 160.101 703.089C160.324 702.866 160.627 702.74 160.943 702.74H725.233C725.389 702.74 725.544 702.77 725.689 702.83C725.833 702.89 725.965 702.977 726.075 703.088C726.186 703.198 726.274 703.33 726.333 703.474C726.393 703.619 726.423 703.774 726.423 703.93Z" fill="var(--fill-0, #2F2E41)"/>
</g>
<defs>
<clipPath id="clip0_0_62">
<rect width="726.423" height="705.12" fill="white"/>
</clipPath>
</defs>
</svg>
