<svg width="183" height="146" viewBox="0 0 183 146" fill="none" xmlns="http://www.w3.org/2000/svg">
<g clip-path="url(#clip0_1_222)">
<path d="M107.408 40.9504C107.799 36.7405 108.878 32.6234 110.604 28.7634C111.084 27.6892 111.614 26.6386 112.191 25.6118C112.22 25.5581 112.227 25.4954 112.21 25.4368C112.194 25.3782 112.155 25.3284 112.103 25.2976C112.05 25.2669 111.988 25.2577 111.929 25.272C111.869 25.2863 111.818 25.323 111.785 25.3743C109.685 29.1145 108.213 33.1746 107.429 37.3921C107.211 38.5699 107.047 39.756 106.937 40.9504C106.909 41.2517 107.38 41.2498 107.408 40.9504Z" fill="#F26F37"/>
<path d="M113.33 26.366C114.975 26.366 116.309 25.0323 116.309 23.3871C116.309 21.7419 114.975 20.4082 113.33 20.4082C111.685 20.4082 110.351 21.7419 110.351 23.3871C110.351 25.0323 111.685 26.366 113.33 26.366Z" fill="#F26F37"/>
<path d="M107.713 41.0298C107.966 38.2986 108.667 35.6277 109.786 33.1235C110.098 32.4267 110.441 31.7452 110.816 31.079C110.835 31.0441 110.84 31.0032 110.829 30.9648C110.819 30.9264 110.794 30.8937 110.759 30.8736C110.725 30.8535 110.684 30.8477 110.646 30.8573C110.607 30.8668 110.574 30.8911 110.553 30.925C109.19 33.3514 108.235 35.9854 107.726 38.7215C107.585 39.4857 107.478 40.2552 107.406 41.03C107.389 41.2252 107.694 41.2238 107.713 41.0298Z" fill="#F26F37"/>
<path d="M111.555 31.5678C112.623 31.5678 113.488 30.7026 113.488 29.6353C113.488 28.568 112.623 27.7028 111.555 27.7028C110.488 27.7028 109.623 28.568 109.623 29.6353C109.623 30.7026 110.488 31.5678 111.555 31.5678Z" fill="#F26F37"/>
<path d="M107.327 40.8472C105.847 38.5377 104.757 36.0009 104.099 33.3379C103.916 32.5966 103.768 31.8481 103.654 31.0923C103.647 31.0535 103.625 31.0188 103.593 30.9955C103.562 30.9722 103.522 30.9621 103.483 30.9674C103.444 30.9727 103.408 30.9928 103.384 31.0237C103.359 31.0546 103.348 31.0937 103.351 31.133C103.769 33.8843 104.636 36.5483 105.918 39.0184C106.277 39.7079 106.666 40.38 107.087 41.0348C107.193 41.2001 107.432 41.012 107.327 40.8472H107.327Z" fill="#F26F37"/>
<path d="M103.349 31.4323C104.416 31.4323 105.282 30.5671 105.282 29.4998C105.282 28.4325 104.416 27.5673 103.349 27.5673C102.282 27.5673 101.417 28.4325 101.417 29.4998C101.417 30.5671 102.282 31.4323 103.349 31.4323Z" fill="#F26F37"/>
<path d="M101.394 42.5563V38.7599C101.395 38.3824 101.545 38.0205 101.812 37.7536C102.079 37.4867 102.441 37.3366 102.818 37.3361H111.678C112.055 37.3366 112.417 37.4867 112.684 37.7536C112.951 38.0205 113.101 38.3824 113.101 38.7599V42.5563C113.101 42.9338 112.951 43.2957 112.684 43.5626C112.417 43.8295 112.055 43.9796 111.678 43.98H102.818C102.441 43.9797 102.079 43.8295 101.812 43.5626C101.545 43.2957 101.395 42.9338 101.394 42.5563Z" fill="#1E1E1E"/>
<path d="M111.361 18.3516H107.565C107.187 18.3511 106.825 18.201 106.558 17.9341C106.292 17.6672 106.141 17.3053 106.141 16.9278V1.42391C106.141 1.0464 106.292 0.684484 106.559 0.41757C106.825 0.150655 107.187 0.000546678 107.565 0.000183698H111.361C111.739 0.000667526 112.101 0.150821 112.368 0.417716C112.634 0.684611 112.785 1.04646 112.785 1.42391V16.9278C112.785 17.3053 112.635 17.6672 112.368 17.9341C112.101 18.201 111.739 18.3511 111.361 18.3516Z" fill="#1E1E1E"/>
<path d="M112.627 3.0061H106.299V4.27165H112.627V3.0061Z" fill="#AAAAAA"/>
<path d="M112.627 12.8147H106.299V14.0803H112.627V12.8147Z" fill="#AAAAAA"/>
<path d="M120.853 18.3516H117.056C116.679 18.3511 116.317 18.201 116.05 17.9341C115.783 17.6672 115.633 17.3053 115.633 16.9278V1.42391C115.633 1.04644 115.783 0.684558 116.05 0.41765C116.317 0.150742 116.679 0.00060717 117.056 0.000183698H120.853C121.231 0.000607053 121.593 0.150734 121.859 0.417636C122.126 0.684537 122.277 1.04642 122.277 1.42391V16.9278C122.277 17.3053 122.126 17.6672 121.859 17.9341C121.593 18.201 121.231 18.3511 120.853 18.3516Z" fill="#1E1E1E"/>
<path d="M122.119 3.0061H115.791V4.27165H122.119V3.0061Z" fill="#AAAAAA"/>
<path d="M122.119 12.8147H115.791V14.0803H122.119V12.8147Z" fill="#AAAAAA"/>
<path d="M130.346 18.3516H126.549C126.172 18.3512 125.81 18.2011 125.543 17.9342C125.276 17.6673 125.126 17.3053 125.125 16.9278V1.42391C125.126 1.0464 125.276 0.684484 125.543 0.41757C125.81 0.150655 126.172 0.000546678 126.549 0.000183698H130.346C130.723 0.00060717 131.085 0.150742 131.352 0.41765C131.619 0.684558 131.769 1.04644 131.77 1.42391V16.9278C131.769 17.3053 131.619 17.6672 131.352 17.9341C131.085 18.201 130.723 18.3511 130.346 18.3516Z" fill="#1E1E1E"/>
<path d="M131.611 3.0061H125.283V4.27165H131.611V3.0061Z" fill="#AAAAAA"/>
<path d="M131.611 12.8147H125.283V14.0803H131.611V12.8147Z" fill="#AAAAAA"/>
<path d="M135.408 43.9807H131.611C131.234 43.9802 130.872 43.8301 130.605 43.5632C130.338 43.2963 130.188 42.9345 130.188 42.557V27.0531C130.188 26.6756 130.338 26.3137 130.605 26.0468C130.872 25.7799 131.234 25.6298 131.611 25.6294H135.408C135.785 25.6298 136.147 25.7799 136.414 26.0469C136.681 26.3139 136.831 26.6758 136.832 27.0533V42.5572C136.831 42.9347 136.681 43.2965 136.414 43.5633C136.147 43.8302 135.785 43.9803 135.408 43.9807Z" fill="#1E1E1E"/>
<path d="M136.674 28.635H130.346V29.9005H136.674V28.635Z" fill="#AAAAAA"/>
<path d="M136.674 38.4436H130.346V39.7091H136.674V38.4436Z" fill="#AAAAAA"/>
<path d="M144.901 43.9807H141.104C140.726 43.9802 140.364 43.8301 140.097 43.5632C139.831 43.2963 139.68 42.9345 139.68 42.557V27.0531C139.68 26.6756 139.831 26.3137 140.098 26.0468C140.364 25.7799 140.726 25.6298 141.104 25.6294H144.901C145.278 25.6298 145.64 25.7799 145.907 26.0469C146.174 26.3139 146.324 26.6758 146.324 27.0533V42.5572C146.324 42.9347 146.174 43.2966 145.907 43.5635C145.64 43.8304 145.278 43.9805 144.9 43.981L144.901 43.9807Z" fill="#1E1E1E"/>
<path d="M146.166 28.635H139.838V29.9005H146.166V28.635Z" fill="#AAAAAA"/>
<path d="M146.166 38.4436H139.838V39.7091H146.166V38.4436Z" fill="#AAAAAA"/>
<path d="M154.393 43.9807H150.596C150.219 43.9803 149.857 43.8302 149.59 43.5633C149.323 43.2964 149.173 42.9345 149.172 42.557V27.0531C149.173 26.6756 149.323 26.3137 149.59 26.0468C149.857 25.7799 150.219 25.6298 150.596 25.6294H154.393C154.77 25.6298 155.132 25.7799 155.399 26.0469C155.666 26.3139 155.816 26.6758 155.816 27.0533V42.5572C155.816 42.9347 155.666 43.2966 155.399 43.5635C155.132 43.8304 154.77 43.9805 154.393 43.981L154.393 43.9807Z" fill="#1E1E1E"/>
<path d="M155.658 28.635H149.33V29.9005H155.658V28.635Z" fill="#AAAAAA"/>
<path d="M155.658 38.4436H149.33V39.7091H155.658V38.4436Z" fill="#AAAAAA"/>
<path d="M110.412 69.6096H106.616C106.238 69.6092 105.876 69.459 105.609 69.1921C105.343 68.9252 105.192 68.5633 105.192 68.1859V52.682C105.192 52.3045 105.343 51.9426 105.609 51.6757C105.876 51.4088 106.238 51.2587 106.616 51.2582H110.412C110.79 51.2587 111.152 51.4089 111.419 51.6758C111.685 51.9427 111.836 52.3045 111.836 52.682V68.1859C111.836 68.5633 111.685 68.9252 111.419 69.1921C111.152 69.459 110.79 69.6091 110.412 69.6096Z" fill="#1E1E1E"/>
<path d="M111.678 54.2638H105.35V55.5293H111.678V54.2638Z" fill="#AAAAAA"/>
<path d="M111.678 64.0724H105.35V65.338H111.678V64.0724Z" fill="#AAAAAA"/>
<path d="M119.904 69.6096H116.108C115.73 69.6091 115.368 69.459 115.101 69.1921C114.835 68.9252 114.684 68.5633 114.684 68.1859V52.682C114.684 52.3045 114.834 51.9426 115.101 51.6757C115.368 51.4088 115.73 51.2587 116.108 51.2582H119.904C120.282 51.2587 120.644 51.4088 120.911 51.6757C121.177 51.9426 121.328 52.3045 121.328 52.682V68.1859C121.328 68.5633 121.177 68.9252 120.911 69.1921C120.644 69.459 120.282 69.6092 119.904 69.6096Z" fill="#1E1E1E"/>
<path d="M121.17 54.2638H114.842V55.5293H121.17V54.2638Z" fill="#AAAAAA"/>
<path d="M121.17 64.0724H114.842V65.338H121.17V64.0724Z" fill="#AAAAAA"/>
<path d="M129.397 69.6096H125.6C125.223 69.6092 124.861 69.4591 124.594 69.1922C124.327 68.9252 124.177 68.5634 124.176 68.1859V52.682C124.177 52.3045 124.327 51.9425 124.594 51.6756C124.861 51.4087 125.223 51.2586 125.6 51.2582H129.397C129.774 51.2587 130.136 51.4089 130.403 51.6758C130.67 51.9427 130.82 52.3045 130.821 52.682V68.1859C130.82 68.5633 130.67 68.9252 130.403 69.1921C130.136 69.459 129.774 69.6091 129.397 69.6096Z" fill="#1E1E1E"/>
<path d="M130.662 54.2638H124.334V55.5293H130.662V54.2638Z" fill="#AAAAAA"/>
<path d="M130.662 64.0724H124.334V65.338H130.662V64.0724Z" fill="#AAAAAA"/>
<path d="M139.838 18.3516H136.041C135.664 18.3511 135.302 18.201 135.035 17.9341C134.768 17.6672 134.618 17.3053 134.618 16.9278V1.42391C134.618 1.0464 134.768 0.684484 135.035 0.41757C135.302 0.150655 135.664 0.000546678 136.042 0.000183698H139.838C140.216 0.00060717 140.577 0.150742 140.844 0.41765C141.111 0.684558 141.261 1.04644 141.262 1.42391V16.9278C141.261 17.3053 141.111 17.6672 140.844 17.9341C140.577 18.201 140.216 18.3511 139.838 18.3516Z" fill="#1E1E1E"/>
<path d="M141.104 3.0061H134.776V4.27165H141.104V3.0061Z" fill="#AAAAAA"/>
<path d="M141.104 12.8147H134.776V14.0803H141.104V12.8147Z" fill="#AAAAAA"/>
<path d="M149.33 18.3516H145.533C145.156 18.3512 144.794 18.2011 144.527 17.9342C144.26 17.6673 144.11 17.3053 144.11 16.9278V1.42391C144.11 1.04644 144.26 0.684558 144.527 0.41765C144.794 0.150742 145.156 0.00060717 145.533 0.000183698H149.33C149.708 0.000667526 150.069 0.150821 150.336 0.417716C150.603 0.684611 150.753 1.04646 150.754 1.42391V16.9278C150.753 17.3053 150.603 17.6672 150.336 17.9341C150.069 18.201 149.708 18.3511 149.33 18.3516Z" fill="#1E1E1E"/>
<path d="M150.595 3.0061H144.267V4.27165H150.595V3.0061Z" fill="#AAAAAA"/>
<path d="M150.595 12.8147H144.267V14.0803H150.595V12.8147Z" fill="#AAAAAA"/>
<path d="M158.822 18.3516H155.026C154.648 18.3511 154.286 18.201 154.02 17.9341C153.753 17.6672 153.602 17.3053 153.602 16.9278V1.42391C153.603 1.04646 153.753 0.684611 154.02 0.417716C154.286 0.150821 154.648 0.000667526 155.026 0.000183698H158.822C159.2 0.000667526 159.562 0.150821 159.829 0.417716C160.096 0.684611 160.246 1.04646 160.246 1.42391V16.9278C160.246 17.3053 160.096 17.6672 159.829 17.9341C159.562 18.201 159.2 18.3511 158.822 18.3516Z" fill="#1E1E1E"/>
<path d="M160.088 3.0061H153.76V4.27165H160.088V3.0061Z" fill="#5379F4"/>
<path d="M160.088 12.8147H153.76V14.0803H160.088V12.8147Z" fill="#5379F4"/>
<path d="M168.314 18.3516H164.518C164.14 18.3511 163.778 18.201 163.511 17.9341C163.244 17.6672 163.094 17.3053 163.094 16.9278V1.42391C163.094 1.04644 163.244 0.684558 163.511 0.41765C163.778 0.150742 164.14 0.00060717 164.518 0.000183698H168.314C168.692 0.000667526 169.054 0.150821 169.321 0.417716C169.588 0.684611 169.738 1.04646 169.738 1.42391V16.9278C169.738 17.3053 169.588 17.6671 169.321 17.934C169.054 18.2009 168.692 18.3511 168.314 18.3516Z" fill="#1E1E1E"/>
<path d="M169.58 3.0061H163.252V4.27165H169.58V3.0061Z" fill="#5379F4"/>
<path d="M169.58 12.8147H163.252V14.0803H169.58V12.8147Z" fill="#5379F4"/>
<path d="M182.534 18.8265H92.3588C92.2749 18.8265 92.1944 18.7931 92.1351 18.7338C92.0757 18.6744 92.0424 18.5939 92.0424 18.51C92.0424 18.4261 92.0757 18.3456 92.1351 18.2863C92.1944 18.2269 92.2749 18.1936 92.3588 18.1936H182.534C182.618 18.1936 182.699 18.2269 182.758 18.2863C182.818 18.3456 182.851 18.4261 182.851 18.51C182.851 18.5939 182.818 18.6744 182.758 18.7338C182.699 18.7931 182.618 18.8265 182.534 18.8265Z" fill="#AAAAAA"/>
<path d="M182.534 44.4552H92.3588C92.2749 44.4552 92.1944 44.4218 92.1351 44.3625C92.0757 44.3031 92.0424 44.2226 92.0424 44.1387C92.0424 44.0548 92.0757 43.9743 92.1351 43.915C92.1944 43.8556 92.2749 43.8223 92.3588 43.8223H182.534C182.618 43.8223 182.699 43.8556 182.758 43.915C182.818 43.9743 182.851 44.0548 182.851 44.1387C182.851 44.2226 182.818 44.3031 182.758 44.3625C182.699 44.4218 182.618 44.4552 182.534 44.4552Z" fill="#AAAAAA"/>
<path d="M182.534 70.0843H92.3588C92.2749 70.0843 92.1944 70.051 92.1351 69.9917C92.0757 69.9323 92.0424 69.8518 92.0424 69.7679C92.0424 69.684 92.0757 69.6035 92.1351 69.5441C92.1944 69.4848 92.2749 69.4514 92.3588 69.4514H182.534C182.618 69.4514 182.699 69.4848 182.758 69.5441C182.818 69.6035 182.851 69.684 182.851 69.7679C182.851 69.8518 182.818 69.9323 182.758 69.9917C182.699 70.051 182.618 70.0843 182.534 70.0843Z" fill="#AAAAAA"/>
<path d="M157.024 66.6339C157.187 64.8831 157.636 63.171 158.353 61.5657C158.553 61.119 158.774 60.6821 159.014 60.2552C159.027 60.2328 159.03 60.2061 159.024 60.181C159.017 60.1559 159.001 60.1344 158.979 60.1213C158.956 60.1082 158.93 60.1046 158.904 60.1111C158.879 60.1177 158.858 60.134 158.845 60.1564C157.971 61.7118 157.359 63.4002 157.033 65.1542C156.942 65.6441 156.874 66.1373 156.829 66.6339C156.817 66.7601 157.013 66.7585 157.024 66.6339Z" fill="#F26F37"/>
<path d="M159.488 60.5689C160.172 60.5689 160.726 60.0142 160.726 59.3301C160.726 58.6459 160.172 58.0913 159.488 58.0913C158.803 58.0913 158.249 58.6459 158.249 59.3301C158.249 60.0142 158.803 60.5689 159.488 60.5689Z" fill="#F26F37"/>
<path d="M159.92 66.6583C160.173 63.9272 160.874 61.2562 161.993 58.7521C162.305 58.0553 162.648 57.3738 163.023 56.7076C163.042 56.6727 163.047 56.6317 163.036 56.5934C163.026 56.555 163.001 56.5223 162.966 56.5022C162.932 56.4821 162.891 56.4762 162.852 56.4858C162.814 56.4954 162.78 56.5197 162.759 56.5535C161.397 58.98 160.442 61.6139 159.933 64.3501C159.792 65.1142 159.685 65.8837 159.613 66.6586C159.596 66.8538 159.901 66.8524 159.92 66.6583Z" fill="#F26F37"/>
<path d="M163.762 57.1966C164.829 57.1966 165.694 56.3314 165.694 55.2641C165.694 54.1968 164.829 53.3316 163.762 53.3316C162.694 53.3316 161.829 54.1968 161.829 55.2641C161.829 56.3314 162.694 57.1966 163.762 57.1966Z" fill="#F26F37"/>
<path d="M159.534 66.4759C158.054 64.1664 156.964 61.6295 156.306 58.9666C156.123 58.2253 155.975 57.4768 155.86 56.721C155.854 56.6821 155.832 56.6475 155.8 56.6242C155.768 56.6009 155.729 56.5908 155.69 56.5961C155.651 56.6013 155.615 56.6215 155.591 56.6524C155.566 56.6832 155.554 56.7224 155.558 56.7617C155.976 59.513 156.843 62.177 158.125 64.6471C158.483 65.3366 158.873 66.0087 159.294 66.6635C159.4 66.8287 159.639 66.6406 159.534 66.4759H159.534Z" fill="#F26F37"/>
<path d="M155.557 57.0612C156.624 57.0612 157.489 56.196 157.489 55.1287C157.489 54.0614 156.624 53.1962 155.557 53.1962C154.489 53.1962 153.624 54.0614 153.624 55.1287C153.624 56.196 154.489 57.0612 155.557 57.0612Z" fill="#F26F37"/>
<path d="M153.602 68.1854V64.3889C153.603 64.0115 153.753 63.6496 154.02 63.3827C154.286 63.1158 154.648 62.9657 155.026 62.9652H163.885C164.263 62.9656 164.625 63.1157 164.892 63.3827C165.158 63.6496 165.309 64.0114 165.309 64.3889V68.1854C165.309 68.5628 165.158 68.9247 164.892 69.1916C164.625 69.4585 164.263 69.6087 163.885 69.6091H155.026C154.648 69.6087 154.287 69.4585 154.02 69.1916C153.753 68.9247 153.603 68.5628 153.602 68.1854Z" fill="#1E1E1E"/>
<path d="M89.0462 38.7176C88.0666 35.3147 86.1631 32.2499 83.547 29.8634C80.9309 27.4769 77.7046 25.8622 74.2263 25.1985C70.748 24.5348 67.1538 24.8481 63.8428 26.1037C60.5317 27.3592 57.6335 29.5078 55.4698 32.3109C53.3061 35.1141 51.9616 38.462 51.5856 41.9831C51.2097 45.5042 51.8169 49.0605 53.34 52.2573C54.863 55.4541 57.2423 58.1663 60.2135 60.0926C63.1848 62.0189 66.6318 63.0841 70.1718 63.1698L73.553 64.5919L68.7614 82.384L93.4716 87.0396L103.514 61.1907C103.514 61.1907 88.9364 61.4638 85.2152 56.4384C87.2689 54.0315 88.6938 51.153 89.3623 48.0604C90.0309 44.9679 89.9222 41.7579 89.0462 38.7176Z" fill="#ED9DA0"/>
<path d="M0.000244931 128.183L38.4595 146L75.8104 139.518L36.4587 125.916L0.000244931 128.183Z" fill="#090814"/>
<path d="M36.2456 121.594L73.0444 103.226L76.4884 111.192L41.3207 131.708C40.4562 134.456 38.3036 137.02 35.218 138.569C29.8182 141.279 23.6232 139.853 21.3808 135.384C19.1383 130.915 21.6978 125.096 27.0976 122.387C30.1832 120.838 33.5264 120.645 36.2456 121.594Z" fill="#ED9DA0"/>
<path d="M98.6913 60.8051C98.6913 60.8051 95.1006 79.427 82.562 79.0412C70.0235 78.6554 72.3382 69.7819 72.3382 69.7819L60.4949 76.437C60.4949 76.437 55.3627 83.6708 55.3627 92.7372L51.6975 110.291L46.4894 115.693L61.9216 127.845L69.8299 116.657L77.7382 140.577L135.126 143.007L134.067 93.7011C134.067 93.7011 130.981 69.9741 117.863 65.1516C104.745 60.3292 98.6913 60.8044 98.6913 60.8044V60.8051Z" fill="#5379F4"/>
<path d="M66.7707 31.0007C66.7707 31.0007 59.2509 37.8051 51.5506 36.7306C43.8503 35.6561 42.4188 32.9703 42.4188 31.896C42.4188 31.896 42.4188 32.2542 44.5673 32.9703L45.4626 25.2706C45.4626 25.2706 46.5368 27.2902 50.4764 27.9814C50.4764 27.9814 47.0742 26.56 50.4764 23.7665C50.4764 23.7665 52.2669 25.2704 53.8785 25.2704C53.8785 25.2704 62.8316 13.0944 80.5583 20.794L82.1699 21.6893L84.2498 21.5085L86.2888 21.3311C86.2888 21.3311 90.7646 26.5243 90.4064 30.1055C90.0483 33.6866 96.8409 51.6741 85.1184 57.1841C85.1184 57.1841 87.8995 41.2075 83.065 44.9673C78.2304 48.7272 75.1864 42.8188 75.1864 42.8188L66.7707 31.001V31.0007Z" fill="#090814"/>
<path d="M65.7596 126.174L106.878 125.318L108.867 139.451L66.0183 137.487C64.0614 139.601 61.0185 140.998 57.5667 141.077C51.5269 141.215 46.5379 137.276 46.4231 132.277C46.3084 127.278 51.1116 123.114 57.1514 122.975C60.6027 122.896 63.7071 124.152 65.7587 126.173L65.7596 126.174Z" fill="#ED9DA0"/>
<path d="M106.674 94.8593C106.674 94.8593 105.324 103.347 109.375 106.24C109.375 106.24 108.025 116.657 111.304 119.936C111.304 119.936 105.278 120.18 106.458 123.338C106.458 123.338 97.608 121.865 98.7654 125.53C98.7654 125.53 106.956 135.361 104.982 141.73L131.751 140.384L134.739 124.971" fill="#5379F4"/>
</g>
<defs>
<clipPath id="clip0_1_222">
<rect width="182.261" height="145.529" fill="white" transform="scale(1.00324)"/>
</clipPath>
</defs>
</svg>
