<svg preserveAspectRatio="none" width="100%" height="100%" overflow="visible" style="display: block;" viewBox="0 0 1773.2 1386.39" fill="none" xmlns="http://www.w3.org/2000/svg">
<g id="Vector">
<path d="M227.521 373.85C130.909 399.518 31.7814 342.007 6.11336 245.395C-19.5547 148.783 37.9566 49.6556 134.569 23.9875C231.18 -1.68057 330.308 55.8308 355.976 152.443C381.644 249.055 324.133 348.182 227.521 373.85Z" fill="#E6F1FF"/>
<path d="M265.634 326.475C177.029 350.016 86.1162 297.271 62.5753 208.666C39.0344 120.06 91.7796 29.1476 180.385 5.60673C268.99 -17.9342 359.903 34.811 383.444 123.416C406.985 212.022 354.239 302.934 265.634 326.475Z" fill="#F4F68B" fill-opacity="0.38"/>
<path d="M1626.86 1380.28C1530.25 1405.95 1431.12 1348.44 1405.46 1251.82C1379.79 1155.21 1437.3 1056.08 1533.91 1030.42C1630.52 1004.75 1729.65 1062.26 1755.32 1158.87C1780.99 1255.48 1723.48 1354.61 1626.86 1380.28Z" fill="#E6F1FF"/>
<path d="M1649.78 1256.24C1561.18 1279.78 1470.26 1227.03 1446.72 1138.43C1423.18 1049.82 1475.93 958.908 1564.53 935.367C1653.14 911.826 1744.05 964.571 1767.59 1053.18C1791.13 1141.78 1738.39 1232.69 1649.78 1256.24Z" fill="#F4F68B" fill-opacity="0.32"/>
<path d="M1423.65 951.296H1148.65V937.796C1148.65 936.603 1149.13 935.459 1149.97 934.616C1150.81 933.772 1151.96 933.298 1153.15 933.296H1419.15C1420.34 933.298 1421.49 933.772 1422.33 934.616C1423.18 935.459 1423.65 936.603 1423.65 937.796V951.296Z" fill="#F26F37"/>
<path d="M1075.02 402.675C1077.16 404.905 1079.27 407.202 1081.29 409.503L1079.56 411.019C1076.54 407.574 1073.33 404.158 1070.07 400.908L1071.69 399.279C1072.81 400.394 1073.92 401.526 1075.02 402.675ZM1061.42 389.725L1059.91 391.462C1056.43 388.436 1052.81 385.5 1049.14 382.731L1050.53 380.896C1054.23 383.696 1057.9 386.666 1061.42 389.725ZM1090.18 420.349C1093.01 424.056 1095.74 427.901 1098.3 431.779L1096.38 433.045C1093.85 429.212 1091.15 425.41 1088.35 421.745L1090.18 420.349ZM1039.05 372.835L1037.8 374.76C1033.94 372.245 1029.95 369.832 1025.93 367.59L1027.05 365.581C1031.12 367.85 1035.16 370.29 1039.05 372.835ZM1105.62 443.742C1107.91 447.793 1110.09 451.978 1112.1 456.181L1110.02 457.172C1108.04 453.016 1105.88 448.878 1103.62 444.873L1105.62 443.742ZM1014.57 359.175L1013.6 361.256C1009.43 359.297 1005.15 357.459 1000.87 355.793L1001.7 353.65C1006.03 355.336 1010.36 357.194 1014.57 359.175ZM1117.71 469.057C1119.42 473.398 1121.01 477.849 1122.41 482.286L1120.22 482.982C1118.83 478.595 1117.26 474.194 1115.57 469.902L1117.71 469.057ZM988.477 349.022L987.792 351.217C983.397 349.848 978.901 348.612 974.428 347.548L974.96 345.311C979.484 346.388 984.031 347.637 988.477 349.022ZM1126.2 495.803C1127.3 500.336 1128.26 504.959 1129.05 509.546L1126.78 509.934C1126 505.4 1125.05 500.828 1123.96 496.346L1126.2 495.803ZM961.22 342.533L960.842 344.8C956.3 344.042 951.677 343.432 947.097 342.985L947.319 340.697C951.952 341.148 956.628 341.765 961.22 342.533ZM1130.95 523.449C1131.42 528.079 1131.74 532.788 1131.89 537.446L1129.6 537.522C1129.44 532.918 1129.13 528.261 1128.66 523.682L1130.95 523.449ZM933.322 339.813L933.256 342.111C928.653 341.978 923.987 342.001 919.386 342.181L919.297 339.883C923.949 339.701 928.668 339.678 933.322 339.813ZM1131.89 551.472C1131.72 556.128 1131.4 560.836 1130.92 565.464L1128.64 565.228C1129.11 560.651 1129.43 555.997 1129.59 551.393L1131.89 551.472ZM905.304 340.911L905.549 343.196C900.975 343.689 896.354 344.347 891.814 345.153L891.413 342.889C896.004 342.074 900.678 341.409 905.304 340.911ZM1129.01 579.354C1128.22 583.943 1127.25 588.561 1126.15 593.079L1123.92 592.534C1125.01 588.067 1125.96 583.501 1126.74 578.962L1129.01 579.354ZM877.686 345.816L878.242 348.046C873.769 349.16 869.28 350.445 864.897 351.864L864.19 349.677C868.622 348.241 873.162 346.942 877.686 345.816ZM1122.36 606.573C1120.95 611.007 1119.37 615.448 1117.66 619.772L1115.52 618.926C1117.21 614.651 1118.78 610.26 1120.17 605.876L1122.36 606.573ZM850.988 354.458L851.846 356.591C847.568 358.311 843.295 360.202 839.146 362.212L838.144 360.142C842.34 358.109 846.662 356.196 850.988 354.458ZM1112.06 632.611C1110.06 636.814 1107.88 640.999 1105.59 645.051L1103.59 643.919C1105.85 639.913 1108 635.776 1109.99 631.62L1112.06 632.611ZM825.74 366.692L826.884 368.688C822.888 370.978 818.923 373.435 815.097 375.992L813.82 374.081C817.689 371.495 821.699 369.009 825.74 366.692ZM1098.27 657.013C1095.7 660.897 1092.97 664.742 1090.14 668.441L1088.31 667.045C1091.11 663.387 1093.81 659.586 1096.35 655.746L1098.27 657.013ZM802.437 382.269L803.842 384.088C800.205 386.899 796.613 389.875 793.166 392.935L791.64 391.215C795.125 388.121 798.758 385.111 802.437 382.269ZM1081.25 679.285C1078.18 682.776 1074.94 686.212 1071.64 689.498L1070.02 687.866C1073.29 684.618 1076.48 681.219 1079.52 677.767L1081.25 679.285ZM783.11 402.488C779.876 405.772 776.717 409.205 773.721 412.691L771.977 411.193C775.007 407.667 778.201 404.195 781.471 400.874L783.11 402.488ZM765.049 423.511C762.293 427.207 759.632 431.039 757.143 434.903L755.211 433.658C757.728 429.75 760.418 425.874 763.207 422.136L765.049 423.511ZM750.042 446.812C747.824 450.841 745.718 454.998 743.784 459.168L741.699 458.201C743.655 453.983 745.784 449.779 748.028 445.704L750.042 446.812ZM738.393 471.93C736.748 476.232 735.234 480.642 733.89 485.036L731.691 484.365C733.05 479.919 734.582 475.46 736.245 471.11L738.393 471.93ZM730.296 498.424C729.254 502.914 728.356 507.492 727.624 512.028L725.355 511.662C726.094 507.075 727.002 502.445 728.055 497.904L730.296 498.424ZM725.888 525.785C725.467 530.369 725.199 535.027 725.091 539.631L722.792 539.577C722.901 534.921 723.173 530.21 723.598 525.575L725.888 525.785ZM725.239 553.499C725.447 558.106 725.814 562.759 726.332 567.329L724.048 567.589C723.524 562.966 723.151 558.26 722.943 553.603L725.239 553.499ZM728.365 581.052C729.199 585.589 730.198 590.15 731.335 594.607L729.107 595.176C727.957 590.668 726.946 586.056 726.104 581.467L728.365 581.052ZM735.23 607.928C736.674 612.307 738.29 616.688 740.032 620.951L737.903 621.82C736.142 617.509 734.508 613.077 733.046 608.648L735.23 607.928ZM745.722 633.613C747.753 637.745 749.955 641.858 752.266 645.839L750.278 646.994C747.94 642.967 745.713 638.807 743.659 634.628L745.722 633.613ZM759.639 657.584C762.217 661.393 764.962 665.165 767.8 668.795L765.988 670.211C763.118 666.539 760.341 662.725 757.734 658.874L759.639 657.584Z" fill="#E6E6E6"/>
<path d="M1034.89 804.829C1026.53 804.806 1018.4 802.118 1011.67 797.154C1004.95 792.191 999.981 785.211 997.497 777.23C970.973 787.374 941.698 787.71 914.948 778.178C888.198 768.645 865.732 749.871 851.6 725.24C837.468 700.608 832.599 671.739 837.87 643.835C843.141 615.931 858.206 590.827 880.349 573.048C902.493 555.269 930.258 545.984 958.642 546.866C987.026 547.749 1014.16 558.74 1035.16 577.86C1056.15 596.981 1069.63 622.972 1073.16 651.149C1076.69 679.327 1070.03 707.838 1054.4 731.544C1061.9 735.846 1067.77 742.505 1071.1 750.487C1074.43 758.468 1075.03 767.326 1072.8 775.683C1070.58 784.04 1065.65 791.428 1058.8 796.698C1051.94 801.969 1043.54 804.827 1034.89 804.829ZM998.813 774.57L999.112 775.636C1001.78 785.138 1008.11 793.192 1016.71 798.028C1025.31 802.864 1035.48 804.085 1044.98 801.422C1054.49 798.76 1062.54 792.432 1067.38 783.831C1072.22 775.23 1073.44 765.059 1070.78 755.556C1069.42 750.725 1067.1 746.219 1063.95 742.305C1060.81 738.392 1056.91 735.151 1052.49 732.775L1051.52 732.253L1052.13 731.335C1067.77 708.092 1074.56 680.015 1071.27 652.196C1067.98 624.376 1054.83 598.656 1034.21 579.701C1013.58 560.745 986.845 549.808 958.847 548.874C930.849 547.939 903.444 557.069 881.6 574.608C859.757 592.146 844.921 616.932 839.785 644.471C834.648 672.009 839.551 700.476 853.603 724.71C867.655 748.944 889.926 767.34 916.378 776.561C942.83 785.783 971.711 785.22 997.783 774.974L998.813 774.57Z" fill="#3F3D56"/>
<path d="M1019.54 653.917H890.097C889.303 653.917 888.516 653.761 887.783 653.457C887.049 653.153 886.382 652.707 885.821 652.146C885.259 651.584 884.814 650.918 884.51 650.184C884.206 649.45 884.05 648.664 884.05 647.87C884.05 647.075 884.206 646.289 884.51 645.555C884.814 644.822 885.259 644.155 885.821 643.593C886.382 643.032 887.049 642.586 887.783 642.283C888.516 641.979 889.303 641.822 890.097 641.822H1019.54C1020.33 641.822 1021.12 641.979 1021.85 642.283C1022.59 642.586 1023.25 643.032 1023.81 643.593C1024.37 644.155 1024.82 644.822 1025.12 645.555C1025.43 646.289 1025.58 647.075 1025.58 647.87C1025.58 648.664 1025.43 649.45 1025.12 650.184C1024.82 650.918 1024.37 651.584 1023.81 652.146C1023.25 652.707 1022.59 653.153 1021.85 653.457C1021.12 653.761 1020.33 653.917 1019.54 653.917Z" fill="#F26F37"/>
<path d="M1019.54 672.409H890.097C889.303 672.409 888.516 672.252 887.783 671.948C887.049 671.644 886.382 671.199 885.821 670.637C885.259 670.076 884.814 669.409 884.51 668.676C884.206 667.942 884.05 667.155 884.05 666.361C884.05 665.567 884.206 664.781 884.51 664.047C884.814 663.313 885.259 662.647 885.821 662.085C886.382 661.524 887.049 661.078 887.783 660.774C888.516 660.47 889.303 660.314 890.097 660.314H1019.54C1020.33 660.314 1021.12 660.47 1021.85 660.774C1022.59 661.078 1023.25 661.524 1023.81 662.085C1024.37 662.647 1024.82 663.313 1025.12 664.047C1025.43 664.781 1025.58 665.567 1025.58 666.361C1025.58 667.155 1025.43 667.942 1025.12 668.676C1024.82 669.409 1024.37 670.076 1023.81 670.637C1023.25 671.199 1022.59 671.644 1021.85 671.948C1021.12 672.252 1020.33 672.409 1019.54 672.409Z" fill="#F26F37"/>
<path d="M1019.54 690.9H890.097C888.494 690.898 886.958 690.26 885.826 689.126C884.693 687.992 884.057 686.455 884.057 684.853C884.057 683.25 884.693 681.713 885.826 680.579C886.958 679.445 888.494 678.807 890.097 678.805H1019.54C1021.14 678.805 1022.68 679.442 1023.81 680.576C1024.95 681.711 1025.58 683.249 1025.58 684.853C1025.58 686.457 1024.95 687.995 1023.81 689.129C1022.68 690.263 1021.14 690.9 1019.54 690.9Z" fill="#F26F37"/>
<path d="M1419.15 1087.23H1153.15C1151.83 1087.23 1150.55 1086.7 1149.62 1085.76C1148.68 1084.83 1148.15 1083.55 1148.15 1082.23V937.631C1148.15 936.306 1148.68 935.035 1149.62 934.097C1150.55 933.16 1151.83 932.633 1153.15 932.631H1419.15C1420.48 932.633 1421.75 933.16 1422.68 934.097C1423.62 935.035 1424.15 936.306 1424.15 937.631V1082.23C1424.15 1083.55 1423.62 1084.83 1422.68 1085.76C1421.75 1086.7 1420.48 1087.23 1419.15 1087.23ZM1153.15 934.631C1152.36 934.632 1151.59 934.949 1151.03 935.511C1150.47 936.073 1150.15 936.836 1150.15 937.631V1082.23C1150.15 1083.02 1150.47 1083.79 1151.03 1084.35C1151.59 1084.91 1152.36 1085.23 1153.15 1085.23H1419.15C1419.95 1085.23 1420.71 1084.91 1421.27 1084.35C1421.83 1083.79 1422.15 1083.02 1422.15 1082.23V937.631C1422.15 936.836 1421.83 936.073 1421.27 935.511C1420.71 934.949 1419.95 934.632 1419.15 934.631H1153.15Z" fill="#3F3D56"/>
<path d="M1160.34 948.989C1163.76 948.989 1166.54 946.216 1166.54 942.796C1166.54 939.377 1163.76 936.604 1160.34 936.604C1156.92 936.604 1154.15 939.377 1154.15 942.796C1154.15 946.216 1156.92 948.989 1160.34 948.989Z" fill="white"/>
<path d="M1177.15 948.989C1180.57 948.989 1183.34 946.216 1183.34 942.796C1183.34 939.377 1180.57 936.604 1177.15 936.604C1173.73 936.604 1170.96 939.377 1170.96 942.796C1170.96 946.216 1173.73 948.989 1177.15 948.989Z" fill="white"/>
<path d="M1193.96 948.989C1197.38 948.989 1200.15 946.216 1200.15 942.796C1200.15 939.377 1197.38 936.604 1193.96 936.604C1190.54 936.604 1187.77 939.377 1187.77 942.796C1187.77 946.216 1190.54 948.989 1193.96 948.989Z" fill="white"/>
<path d="M1207.93 735.224H1175.22C1174.54 735.226 1173.87 735.072 1173.25 734.776C1172.64 734.48 1172.1 734.048 1171.67 733.513C1171.26 732.993 1170.96 732.385 1170.81 731.735C1170.66 731.085 1170.66 730.409 1170.81 729.759C1173.75 716.819 1173.75 703.383 1170.81 690.442C1170.66 689.792 1170.66 689.117 1170.81 688.467C1170.96 687.816 1171.26 687.209 1171.67 686.689C1172.1 686.154 1172.64 685.722 1173.25 685.426C1173.87 685.129 1174.54 684.976 1175.22 684.977H1207.93C1209.02 684.975 1210.07 685.366 1210.89 686.077C1211.71 686.789 1212.24 687.774 1212.39 688.849C1214.48 702.94 1214.48 717.262 1212.39 731.352C1212.24 732.428 1211.71 733.413 1210.89 734.124C1210.07 734.836 1209.02 735.227 1207.93 735.224Z" fill="#F26F37"/>
<path d="M1378.1 841.246H1345.39C1344.31 841.249 1343.26 840.858 1342.44 840.146C1341.62 839.434 1341.08 838.45 1340.93 837.375C1338.84 823.284 1338.84 808.962 1340.93 794.871C1341.08 793.796 1341.62 792.811 1342.44 792.099C1343.26 791.388 1344.31 790.997 1345.39 791H1378.1C1378.79 790.998 1379.46 791.151 1380.07 791.448C1380.69 791.744 1381.23 792.176 1381.65 792.71C1382.07 793.23 1382.36 793.838 1382.51 794.488C1382.66 795.139 1382.66 795.814 1382.51 796.464C1379.57 809.405 1379.57 822.841 1382.51 835.782C1382.66 836.432 1382.66 837.107 1382.51 837.758C1382.36 838.408 1382.07 839.015 1381.65 839.535C1381.23 840.07 1380.69 840.502 1380.07 840.798C1379.46 841.094 1378.79 841.248 1378.1 841.246Z" fill="#FF6584"/>
<path d="M1356.93 800.573C1358.2 799.651 1359.26 798.462 1360.02 797.089C1360.78 795.715 1361.23 794.192 1361.34 792.625C1361.45 791.058 1361.21 789.487 1360.65 788.021C1360.09 786.555 1359.21 785.23 1358.08 784.141L1360.93 662.369L1342.08 665.141L1342.28 784.906C1340.57 786.927 1339.67 789.504 1339.74 792.147C1339.8 794.79 1340.84 797.317 1342.64 799.248C1344.45 801.179 1346.9 802.381 1349.54 802.625C1352.17 802.869 1354.8 802.139 1356.93 800.573Z" fill="#FFB8B8"/>
<path d="M1206.13 678.484C1206.46 678.927 1206.76 679.396 1207.02 679.885L1256.34 685.05L1271.43 660.311L1287.53 669.095L1265.6 707.725L1205.1 692.342C1203.58 693.831 1201.64 694.82 1199.54 695.178C1197.44 695.536 1195.28 695.246 1193.34 694.346C1191.41 693.447 1189.8 691.98 1188.72 690.142C1187.64 688.304 1187.15 686.181 1187.31 684.055C1187.46 681.93 1188.26 679.903 1189.6 678.244C1190.94 676.584 1192.75 675.372 1194.79 674.767C1196.84 674.162 1199.02 674.194 1201.04 674.858C1203.07 675.522 1204.84 676.787 1206.13 678.484Z" fill="#FFB8B8"/>
<path d="M1237.6 923.29L1225.57 920.946L1234.94 832.04L1254.7 835.499L1237.6 923.29Z" fill="#FFB8B8"/>
<path d="M1217.64 915.834L1240.85 920.354L1238 934.966L1200.18 927.6C1200.56 925.681 1201.3 923.855 1202.38 922.225C1203.46 920.595 1204.85 919.194 1206.47 918.101C1208.1 917.009 1209.92 916.246 1211.83 915.857C1213.75 915.468 1215.72 915.46 1217.64 915.834Z" fill="#2F2E41"/>
<path d="M1323.37 923.582L1311.11 923.581L1305.27 857.142H1323.37L1323.37 923.582Z" fill="#FFB8B8"/>
<path d="M1302.35 920.078H1325.99V934.965H1287.46C1287.46 933.01 1287.85 931.074 1288.6 929.268C1289.34 927.462 1290.44 925.821 1291.82 924.438C1293.21 923.056 1294.85 921.959 1296.65 921.211C1298.46 920.463 1300.39 920.078 1302.35 920.078Z" fill="#2F2E41"/>
<path d="M1273.55 699.636L1229.23 839.513C1229.23 839.513 1284.71 875.606 1334.17 867.585C1347.15 812.344 1346.3 760.74 1325.69 714.34L1273.55 699.636Z" fill="#2F2E41"/>
<path d="M1320.22 627.516C1337.64 627.516 1351.77 613.389 1351.77 595.963C1351.77 578.537 1337.64 564.41 1320.22 564.41C1302.79 564.41 1288.66 578.537 1288.66 595.963C1288.66 613.389 1302.79 627.516 1320.22 627.516Z" fill="#2F2E41"/>
<path d="M1315.24 629.63C1328.81 629.63 1339.8 618.634 1339.8 605.069C1339.8 591.504 1328.81 580.508 1315.24 580.508C1301.68 580.508 1290.68 591.504 1290.68 605.069C1290.68 618.634 1301.68 629.63 1315.24 629.63Z" fill="#FFB8B8"/>
<path d="M1271.55 650.843C1271.34 652.163 1274.89 665.548 1274.89 665.548L1266.08 720.141L1325.69 718.35L1359.11 652.18C1360.3 651.659 1353.62 643.935 1349.08 640.818C1342.83 636.517 1272.84 642.819 1271.55 650.843Z" fill="#3F3D56"/>
<path d="M1274.89 651.512L1271.55 650.175C1271.55 650.175 1259.52 668.89 1263.53 670.895C1267.54 672.9 1277.56 677.579 1277.56 677.579L1274.89 651.512Z" fill="#3F3D56"/>
<path d="M1351.09 646.833L1359.11 652.18C1359.11 652.18 1365.79 678.247 1359.11 677.579C1352.42 676.91 1337.05 680.921 1336.38 679.584C1335.71 678.247 1351.09 646.833 1351.09 646.833Z" fill="#3F3D56"/>
<path d="M1316.41 600.651C1329.1 600.651 1339.39 594.477 1339.39 586.862C1339.39 579.248 1329.1 573.074 1316.41 573.074C1303.72 573.074 1293.43 579.248 1293.43 586.862C1293.43 594.477 1303.72 600.651 1316.41 600.651Z" fill="#2F2E41"/>
<path d="M1319.76 569.985C1318.08 568.735 1316.88 566.942 1316.36 564.909C1315.85 562.877 1316.05 560.729 1316.94 558.829C1318.35 556.004 1321.13 554.169 1323.79 552.467L1334.64 545.523C1339.18 542.623 1343.87 539.66 1349.17 538.732C1357.86 537.213 1366.83 541.635 1372.55 548.349C1378.28 555.063 1381.17 563.748 1382.82 572.414C1384.47 581.079 1385 589.929 1386.67 598.591C1389.27 612.022 1394.83 625.199 1404.47 634.904C1414.11 644.61 1428.19 650.405 1441.68 648.098C1435.74 653.557 1428.11 656.813 1420.06 657.32C1412.04 657.787 1404.04 656.136 1396.86 652.533C1390.23 649.259 1384.33 644.668 1379.53 639.041C1374.73 633.414 1371.13 626.869 1368.94 619.804C1364.55 605.353 1366.39 589.692 1363.04 574.966C1361.72 569.142 1359.32 563.158 1354.45 559.703C1349.58 556.248 1341.72 556.567 1338.6 561.659C1341.44 560.733 1344.23 564.321 1343.34 567.174C1342.46 570.027 1339.22 571.59 1336.23 571.561C1333.24 571.531 1330.43 570.281 1327.66 569.159C1324.89 568.038 1321.93 567.007 1318.98 567.441" fill="#2F2E41"/>
<path d="M961.933 817.224H929.222C928.54 817.226 927.866 817.072 927.251 816.776C926.636 816.48 926.097 816.048 925.673 815.513C925.255 814.993 924.96 814.385 924.811 813.735C924.661 813.085 924.661 812.409 924.81 811.759C927.754 798.819 927.754 785.383 924.81 772.442C924.661 771.792 924.661 771.117 924.811 770.467C924.96 769.816 925.255 769.209 925.673 768.689C926.097 768.154 926.636 767.722 927.251 767.426C927.866 767.129 928.54 766.976 929.222 766.977H961.933C963.019 766.975 964.069 767.366 964.889 768.077C965.709 768.789 966.243 769.774 966.393 770.849C968.483 784.94 968.483 799.262 966.393 813.352C966.243 814.428 965.709 815.412 964.889 816.124C964.069 816.836 963.019 817.227 961.933 817.224Z" fill="var(--fill-0, #CCCCCC)"/>
<path d="M1343.15 997.797H1213.71C1212.11 997.797 1210.57 997.16 1209.43 996.026C1208.3 994.892 1207.66 993.354 1207.66 991.75C1207.66 990.146 1208.3 988.608 1209.43 987.474C1210.57 986.339 1212.11 985.702 1213.71 985.702H1343.15C1344.75 985.702 1346.29 986.339 1347.43 987.474C1348.56 988.608 1349.2 990.146 1349.2 991.75C1349.2 993.354 1348.56 994.892 1347.43 996.026C1346.29 997.16 1344.75 997.797 1343.15 997.797Z" fill="#5379F4"/>
<path d="M1343.15 1016.29H1213.71C1212.11 1016.29 1210.57 1015.65 1209.43 1014.52C1208.3 1013.38 1207.66 1011.85 1207.66 1010.24C1207.66 1008.64 1208.3 1007.1 1209.43 1005.97C1210.57 1004.83 1212.11 1004.19 1213.71 1004.19H1343.15C1344.75 1004.19 1346.29 1004.83 1347.43 1005.97C1348.56 1007.1 1349.2 1008.64 1349.2 1010.24C1349.2 1011.85 1348.56 1013.38 1347.43 1014.52C1346.29 1015.65 1344.75 1016.29 1343.15 1016.29Z" fill="var(--fill-0, #CCCCCC)"/>
<path d="M1343.15 1034.78H1213.71C1212.11 1034.78 1210.57 1034.14 1209.44 1033.01C1208.31 1031.87 1207.67 1030.34 1207.67 1028.73C1207.67 1027.13 1208.31 1025.59 1209.44 1024.46C1210.57 1023.33 1212.11 1022.69 1213.71 1022.69H1343.15C1343.95 1022.68 1344.73 1022.84 1345.47 1023.14C1346.2 1023.45 1346.87 1023.89 1347.43 1024.45C1347.99 1025.02 1348.44 1025.68 1348.74 1026.42C1349.05 1027.15 1349.21 1027.94 1349.21 1028.73C1349.21 1029.53 1349.05 1030.31 1348.74 1031.05C1348.44 1031.78 1347.99 1032.45 1347.43 1033.01C1346.87 1033.57 1346.2 1034.02 1345.47 1034.32C1344.73 1034.63 1343.95 1034.78 1343.15 1034.78Z" fill="var(--fill-0, #CCCCCC)"/>
</g>
</svg>
