<svg preserveAspectRatio="none" width="100%" height="100%" overflow="visible" style="display: block;" viewBox="0 0 761.491 543.448" fill="none" xmlns="http://www.w3.org/2000/svg">
<g id="Group 33">
<path id="Rectangle 127" opacity="0.1" d="M223.603 23.8686H158.295C154.527 23.8686 151.474 26.9224 151.474 30.6895V40.9162C151.474 44.6833 154.527 47.7371 158.295 47.7371H223.603C227.37 47.7371 230.424 44.6833 230.424 40.9162V30.6895C230.424 26.9224 227.37 23.8686 223.603 23.8686Z" fill="var(--fill-0, #F26F37)"/>
<path id="Rectangle 128" opacity="0.1" d="M306.225 47.7371H240.917C237.149 47.7371 234.096 50.791 234.096 54.5581V64.7848C234.096 68.5519 237.149 71.6057 240.917 71.6057H306.225C309.992 71.6057 313.046 68.5519 313.046 64.7848V54.5581C313.046 50.791 309.992 47.7371 306.225 47.7371Z" fill="var(--fill-0, #F26F37)"/>
<path id="Rectangle 131" opacity="0.1" d="M306.225 11.9343H240.917C237.149 11.9343 234.096 14.9881 234.096 18.7552V28.982C234.096 32.749 237.149 35.8029 240.917 35.8029H306.225C309.992 35.8029 313.046 32.749 313.046 28.982V18.7552C313.046 14.9881 309.992 11.9343 306.225 11.9343Z" fill="var(--fill-0, #F26F37)"/>
<path id="Rectangle 132" opacity="0.1" d="M398.027 0H332.719C328.952 0 325.898 3.05382 325.898 6.8209V17.0477C325.898 20.8148 328.952 23.8686 332.719 23.8686H398.027C401.794 23.8686 404.848 20.8148 404.848 17.0477V6.8209C404.848 3.05382 401.794 0 398.027 0Z" fill="var(--fill-0, #F26F37)"/>
<path id="Rectangle 133" opacity="0.1" d="M480.649 23.8686H415.341C411.574 23.8686 408.52 26.9224 408.52 30.6895V40.9162C408.52 44.6833 411.574 47.7371 415.341 47.7371H480.649C484.416 47.7371 487.47 44.6833 487.47 40.9162V30.6895C487.47 26.9224 484.416 23.8686 480.649 23.8686Z" fill="var(--fill-0, #F26F37)"/>
<path id="Rectangle 134" opacity="0.1" d="M563.271 47.7371H497.963C494.196 47.7371 491.142 50.791 491.142 54.5581V64.7848C491.142 68.5519 494.196 71.6057 497.963 71.6057H563.271C567.038 71.6057 570.092 68.5519 570.092 64.7848V54.5581C570.092 50.791 567.038 47.7371 563.271 47.7371Z" fill="var(--fill-0, #F26F37)"/>
<path id="Rectangle 137" opacity="0.1" d="M563.271 11.9343H497.963C494.196 11.9343 491.142 14.9881 491.142 18.7552V28.982C491.142 32.749 494.196 35.8029 497.963 35.8029H563.271C567.038 35.8029 570.092 32.749 570.092 28.982V18.7552C570.092 14.9881 567.038 11.9343 563.271 11.9343Z" fill="var(--fill-0, #F26F37)"/>
<path id="Rectangle 165" opacity="0.1" d="M140.981 305.701H75.6726C71.9055 305.701 68.8517 308.755 68.8517 312.522V322.749C68.8517 326.516 71.9055 329.57 75.6726 329.57H140.981C144.748 329.57 147.802 326.516 147.802 322.749V312.522C147.802 308.755 144.748 305.701 140.981 305.701Z" fill="var(--fill-0, #F26F37)"/>
<path id="Rectangle 171" opacity="0.1" d="M398.027 305.701H332.719C328.952 305.701 325.898 308.755 325.898 312.522V322.749C325.898 326.516 328.952 329.57 332.719 329.57H398.027C401.794 329.57 404.848 326.516 404.848 322.749V312.522C404.848 308.755 401.794 305.701 398.027 305.701Z" fill="var(--fill-0, #F26F37)"/>
<path id="Rectangle 173" opacity="0.1" d="M563.271 353.438H497.963C494.196 353.438 491.142 356.492 491.142 360.259V370.486C491.142 374.253 494.196 377.307 497.963 377.307H563.271C567.038 377.307 570.092 374.253 570.092 370.486V360.259C570.092 356.492 567.038 353.438 563.271 353.438Z" fill="var(--fill-0, #F26F37)"/>
<path id="Rectangle 174" d="M662.619 8.2622H6.61894C2.9634 8.2622 0 11.2256 0 14.8811V336.721C0 340.377 2.9634 343.34 6.61894 343.34H662.619C666.275 343.34 669.238 340.377 669.238 336.721V14.8811C669.238 11.2256 666.275 8.2622 662.619 8.2622Z" fill="var(--fill-0, #3F3D56)"/>
<path id="Rectangle 177" d="M655.244 15.5356H15.4621C11.8065 15.5356 8.84313 18.499 8.84313 22.1545V329.448C8.84313 333.103 11.8065 336.067 15.4621 336.067H655.244C658.899 336.067 661.862 333.103 661.862 329.448V22.1545C661.862 18.499 658.899 15.5356 655.244 15.5356Z" fill="var(--fill-0, #E6F1FF)"/>
<path id="Path 448" opacity="0.1" d="M0.000896506 323.144H669.239V336.721C669.239 338.477 668.542 340.16 667.3 341.402C666.059 342.643 664.375 343.34 662.62 343.34H6.61983C4.86438 343.34 3.18083 342.643 1.93953 341.402C0.698243 340.16 0.000896506 338.477 0.000896506 336.721V323.144Z" fill="var(--fill-0, black)"/>
<path id="Rectangle 175" d="M112.458 298.357H67.4746C66.2071 298.357 65.1796 299.385 65.1796 300.652V320.849C65.1796 322.116 66.2071 323.144 67.4746 323.144H112.458C113.725 323.144 114.753 322.116 114.753 320.849V300.652C114.753 299.385 113.725 298.357 112.458 298.357Z" fill="var(--fill-0, #090814)"/>
<path id="Rectangle 176" d="M160.654 319.472H130.359C129.345 319.472 128.523 320.294 128.523 321.308C128.523 322.322 129.345 323.144 130.359 323.144H160.654C161.668 323.144 162.49 322.322 162.49 321.308C162.49 320.294 161.668 319.472 160.654 319.472Z" fill="var(--fill-0, #090814)"/>
<path id="Path 449" d="M98.3672 73.7907C122.594 78.2615 147.307 73.7907 171.433 70.7613L244.755 61.581C247.72 61.2046 252.035 59.4329 253.779 63.0591C254.761 65.0879 254.1 69.4852 254.174 71.817C254.367 78.2432 254.348 84.6693 254.174 91.0955C253.843 103.379 252.944 115.634 251.796 127.862C249.565 151.795 246.407 175.599 244.828 199.624C244.021 211.852 243.617 224.117 243.975 236.345C244.057 239.264 244.177 242.184 244.351 245.094C244.544 248.353 246.003 253.191 242.451 255.366C240.422 256.615 236.428 256.551 234.106 256.918C230.434 257.496 226.762 257.955 223.016 258.332C198.331 260.801 173.324 259.773 148.546 259.626L73.7274 259.24L55.4772 259.139C53.8247 259.139 47.8668 260.131 46.8478 258.166C46.4163 257.331 47.5638 253.42 47.7658 252.374C48.0473 250.648 48.3533 248.925 48.6838 247.205C50.8136 235.133 53.329 223.135 55.8627 211.145C61.3066 185.441 66.879 159.607 69.119 133.352C70.2298 120.178 69.4954 106.885 70.854 93.7394C71.4875 87.6345 72.2403 74.0111 80.3648 73.4694C87.2499 73.0104 94.337 73.4694 101.241 73.4694C101.606 73.4694 101.956 73.3244 102.214 73.0661C102.473 72.8079 102.618 72.4576 102.618 72.0924C102.618 71.7272 102.473 71.3769 102.214 71.1187C101.956 70.8604 101.606 70.7154 101.241 70.7154C94.7226 70.7154 88.1955 70.541 81.6775 70.6695C77.3445 70.7521 74.3333 71.7803 72.2678 75.7645C66.9892 85.9913 67.5308 99.6331 67.3656 110.796C66.9708 137.52 62.8672 163.674 57.5244 189.81C54.8346 202.966 51.9336 216.075 49.2622 229.239C48.0045 235.528 46.8019 241.835 45.7002 248.16C45.1861 251.171 42.5881 257.808 44.874 260.571C47.1599 263.335 54.1919 261.848 57.3407 261.866L79.2448 261.994L121.217 262.233C148.335 262.389 175.545 263.151 202.654 262.352C215.599 261.967 229.277 261.434 241.882 258.341C245.636 257.423 247.445 255.697 247.592 251.694C247.812 245.488 246.802 239.09 246.674 232.856C245.756 179.519 258.287 126.926 257.001 73.5704C256.919 69.9442 258.287 60.8007 254.321 58.6067C252.54 57.6152 250.226 58.1568 248.354 58.3772C244.773 58.7903 241.202 59.2952 237.622 59.7175L191.124 65.5194C176.261 67.3554 161.408 69.3383 146.517 71.0275C130.755 72.8635 114.836 73.956 99.1291 71.0275C97.3941 70.7062 96.6505 73.3593 98.3947 73.6806L98.3672 73.7907Z" fill="var(--fill-0, #F26F37)"/>
<path id="Path 450" d="M69.1371 106.243L252.576 97.2462C254.348 97.1544 254.357 94.4004 252.576 94.4922L69.1371 103.489C67.3745 103.571 67.3653 106.325 69.1371 106.243Z" fill="var(--fill-0, #F26F37)"/>
<path id="Path 451" d="M125.651 83.5402C125.138 84.0839 124.765 84.7446 124.566 85.465C124.366 86.1854 124.346 86.9436 124.506 87.6738C124.666 88.4039 125.002 89.0839 125.485 89.6547C125.967 90.2254 126.582 90.6696 127.276 90.9487C129.745 92.0778 132.646 91.1323 135.097 90.5172C138.769 89.5992 142.441 88.7821 146.214 88.112C154.426 86.6581 162.744 85.8844 171.084 85.7985C174.884 85.7526 178.657 85.9271 182.458 86.0923C185.212 86.2025 188.177 86.4228 190.509 84.7153C193.171 82.7691 194.034 78.9685 191.427 76.6C187.755 73.2492 179.842 75.1954 175.6 75.5442C160.211 76.8227 144.92 79.1043 129.828 82.3743C128.102 82.7415 128.827 85.4038 130.562 85.0274C140.52 82.8792 150.554 81.1534 160.664 79.8498C165.634 79.2378 170.612 78.7206 175.6 78.2983C177.951 78.1055 180.301 77.9311 182.651 77.7934C183.569 77.7383 184.542 77.6373 185.478 77.6649C188.388 77.7291 188.728 77.2058 186.984 80.7219C185.432 83.834 185.928 83.476 183.238 83.375C182.1 83.375 180.962 83.2464 179.823 83.1914C177.492 83.0934 175.16 83.0414 172.828 83.0353C167.865 83.0353 162.913 83.274 157.974 83.7514C153.788 84.1553 149.611 84.7245 145.471 85.4589C142.882 85.9179 140.312 86.4503 137.75 87.0379C136.621 87.3041 135.483 87.5795 134.354 87.8641C133.812 88.011 133.261 88.1395 132.72 88.2772C130.712 88.9749 129.002 88.0569 127.588 85.5231C128.818 84.2471 126.881 82.2917 125.642 83.5769L125.651 83.5402Z" fill="var(--fill-0, #F26F37)"/>
<path id="Path 452" d="M158.901 122.721C145.617 122.207 131.269 125.797 122.52 136.492C115.672 144.855 111.77 159.203 119.022 168.622C126.816 178.721 143.91 176.94 154.219 172.634C165.125 168.044 177.06 158.579 180.337 146.737C184.422 131.947 171.157 120.766 157.341 120.601C156.975 120.601 156.625 120.746 156.367 121.004C156.109 121.262 155.963 121.612 155.963 121.978C155.963 122.343 156.109 122.693 156.367 122.951C156.625 123.21 156.975 123.355 157.341 123.355C165.217 123.447 172.947 126.825 176.619 134.16C180.466 141.89 177.151 150.005 172.029 156.192C163.822 166.043 150.988 173.47 137.915 173.258C130.066 173.139 121.391 170.449 118.958 162.169C116.957 155.458 118.481 148.123 121.969 142.174C129.515 129.322 144.874 124.97 158.956 125.521C160.728 125.586 160.728 122.831 158.956 122.767L158.901 122.721Z" fill="var(--fill-0, #F26F37)"/>
<path id="Path 453" d="M145.709 143.12C145.143 142.91 144.533 142.847 143.935 142.936C143.338 143.026 142.773 143.265 142.293 143.631C141.813 143.998 141.433 144.48 141.189 145.032C140.946 145.585 140.846 146.19 140.899 146.792C141.174 150.372 145.122 151.382 148.087 151.171C150.648 150.951 153.641 150.005 152.741 146.801C152.576 146.234 152.29 145.709 151.904 145.263C151.517 144.816 151.039 144.458 150.501 144.212C149.68 143.886 148.789 143.776 147.913 143.891C147.573 143.891 144.461 145.029 145.783 143.661L143.616 143.377C143.857 143.614 144.041 143.902 144.155 144.22C144.27 144.538 144.311 144.877 144.277 145.213C144.281 145.453 144.348 145.688 144.47 145.894C144.592 146.101 144.766 146.272 144.974 146.391C145.182 146.511 145.418 146.574 145.657 146.575C145.897 146.576 146.134 146.515 146.343 146.397C146.658 146.265 147.003 146.224 147.34 146.278C147.678 146.331 147.993 146.478 148.252 146.701C148.51 146.924 148.701 147.215 148.803 147.541C148.906 147.867 148.915 148.214 148.831 148.545C148.757 148.863 148.797 149.197 148.945 149.488C149.094 149.779 149.34 150.008 149.64 150.136C149.941 150.263 150.277 150.28 150.589 150.184C150.901 150.088 151.169 149.885 151.346 149.61C152.264 147.958 153.375 144.671 151.998 142.945C151.08 141.779 149.308 142.128 148.206 142.808C147.526 143.289 146.893 143.833 146.315 144.433C145.204 145.415 144.479 145.874 144.892 143.992C145.581 140.568 148.849 137.841 151.833 136.473L149.813 134.922C148.754 138.901 146.861 142.609 144.259 145.8L146.609 146.774C146.542 145.513 146.866 144.263 147.537 143.193C148.207 142.123 149.191 141.287 150.355 140.797H149.005L149.721 141.972C149.455 143.707 152.108 144.451 152.374 142.697C152.723 140.43 151.291 137.483 148.638 138.594C145.471 139.916 143.827 143.542 143.892 146.774C143.892 147.875 145.452 148.729 146.251 147.756C149.17 144.209 151.302 140.081 152.503 135.647C152.566 135.384 152.552 135.108 152.462 134.853C152.372 134.598 152.209 134.374 151.994 134.21C151.779 134.045 151.521 133.947 151.251 133.927C150.981 133.906 150.711 133.965 150.474 134.096C147.724 135.339 145.4 137.363 143.791 139.916C142.671 141.752 141.266 144.616 142.404 146.728C142.591 147.065 142.843 147.363 143.145 147.603C143.447 147.843 143.794 148.02 144.166 148.125C144.537 148.23 144.925 148.261 145.309 148.215C145.692 148.168 146.062 148.047 146.398 147.857C147.247 147.354 148.022 146.736 148.702 146.021C149.042 145.718 149.418 145.195 149.868 145.103C150.272 144.827 150.254 144.983 149.804 145.589C149.798 146.541 149.521 147.47 149.005 148.27L151.52 149.326C151.747 148.468 151.721 147.564 151.444 146.722C151.168 145.879 150.653 145.135 149.963 144.578C149.273 144.022 148.436 143.677 147.554 143.586C146.672 143.495 145.783 143.662 144.993 144.065L147.068 145.259C147.111 144.091 146.744 142.944 146.031 142.018C145.922 141.84 145.775 141.688 145.6 141.574C145.425 141.459 145.227 141.386 145.02 141.359C144.813 141.331 144.603 141.351 144.404 141.416C144.206 141.481 144.024 141.589 143.873 141.734C142.478 143.193 142.212 145.718 143.965 147.067C145.278 148.068 145.92 147.067 147.362 146.838C152.255 146.204 149.4 148.408 147.674 148.481C146.902 148.564 146.122 148.508 145.37 148.316C143.454 147.667 143.335 146.832 145.012 145.81C146.655 146.48 147.362 143.817 145.746 143.157L145.709 143.12Z" fill="var(--fill-0, #F26F37)"/>
<path id="Path 454" d="M143.497 148.15C144.626 151.822 139.962 153.034 137.75 154.301C136.197 155.172 134.844 156.357 133.775 157.78C131.462 160.883 130.599 164.831 129.837 168.549C129.488 170.284 132.141 171.018 132.499 169.283C132.919 166.551 133.7 163.887 134.821 161.361C136.474 158.074 138.842 156.972 141.927 155.283C145.012 153.594 147.242 150.978 146.15 147.416C145.636 145.727 142.974 146.452 143.497 148.15Z" fill="var(--fill-0, #F26F37)"/>
<path id="Path 455" d="M148.087 146.305C147.43 146.396 146.831 146.729 146.407 147.238C145.982 147.747 145.763 148.397 145.792 149.059C145.792 150.152 146.517 150.849 147.013 151.722C148.19 153.506 149.088 155.459 149.675 157.514C150.116 159.488 150.548 163.022 149.519 164.858C147.619 168.264 144.186 167.613 141.257 167.613C138.503 167.613 136.373 168.531 136.465 164.693C136.52 162.536 138.026 160.351 139.219 158.653L136.704 158.322C137.234 161.125 137.514 163.97 137.539 166.823C137.539 168.099 139.495 168.806 140.1 167.512C141.576 164.407 142.748 161.166 143.598 157.836L140.89 157.468L141.367 164.445C141.375 164.743 141.479 165.03 141.663 165.265C141.847 165.499 142.101 165.668 142.389 165.746C142.676 165.824 142.981 165.808 143.258 165.699C143.536 165.591 143.771 165.396 143.929 165.143C144.25 164.788 144.486 164.364 144.617 163.904C144.709 163.472 143.864 160.562 143.525 161.6L146.224 161.967L146.416 155.339L143.662 155.706C144.245 157.575 144.42 159.547 144.176 161.489C144.002 163.022 146.582 163.371 146.931 161.857L148.656 152.952L146.141 153.273C146.739 154.505 146.904 155.902 146.609 157.239C146.407 159.002 149.161 158.983 149.363 157.239C149.597 155.411 149.304 153.554 148.519 151.887C148.379 151.657 148.176 151.473 147.933 151.356C147.691 151.24 147.42 151.197 147.153 151.232C146.887 151.267 146.636 151.379 146.432 151.554C146.228 151.729 146.079 151.959 146.003 152.217L144.268 161.122L146.976 161.489C147.252 159.301 147.042 157.079 146.361 154.981C146.269 154.664 146.067 154.392 145.791 154.212C145.516 154.032 145.184 153.957 144.858 154C144.532 154.044 144.232 154.202 144.012 154.448C143.793 154.693 143.669 155.009 143.662 155.339L143.47 161.967C143.477 162.296 143.601 162.612 143.821 162.858C144.04 163.104 144.34 163.263 144.667 163.307C144.993 163.351 145.325 163.278 145.602 163.099C145.879 162.921 146.083 162.649 146.178 162.334L146.325 161.884C146.388 161.65 146.389 161.403 146.328 161.168C146.267 160.933 146.146 160.718 145.976 160.544C143.121 157.441 142.542 162.38 141.551 163.748L144.121 164.445L143.644 157.468C143.543 155.981 141.34 155.522 140.936 157.101C140.16 160.206 139.084 163.229 137.723 166.125L140.293 166.823C140.264 163.723 139.956 160.633 139.375 157.588C139.137 156.321 137.475 156.376 136.86 157.257C135.024 159.901 131.847 165.676 134.299 168.843C136.438 171.597 143.167 170.532 146.04 170.357C150.575 170.1 152.218 167.227 152.714 162.949C152.95 160.9 152.835 158.827 152.374 156.817C152.127 155.733 149.62 148.867 148.868 149.004C150.612 148.683 149.868 146.021 148.133 146.342L148.087 146.305Z" fill="var(--fill-0, #F26F37)"/>
<path id="Path 456" d="M142.753 152.493L135.235 162.416L137.612 163.803L143.121 155.834L140.605 154.769L137.86 165.244C137.786 165.562 137.827 165.896 137.975 166.187C138.123 166.478 138.369 166.707 138.67 166.834C138.971 166.962 139.307 166.979 139.619 166.883C139.931 166.786 140.199 166.583 140.376 166.309C141.625 164.239 143.027 162.266 144.571 160.406L142.276 159.066C141.66 161.437 140.471 163.622 138.815 165.428L141.119 166.768C141.26 165.499 141.598 164.26 142.12 163.096C142.827 161.508 140.587 160.103 139.742 161.7C138.966 163.155 138.079 164.549 137.089 165.868L139.605 166.199L140.165 163.582L137.649 163.252L138.053 165.547C138.119 165.778 138.245 165.987 138.416 166.155C138.588 166.323 138.801 166.444 139.033 166.505C139.265 166.566 139.51 166.566 139.742 166.504C139.974 166.442 140.186 166.321 140.357 166.153C142.686 163.743 144.553 160.927 145.865 157.845H143.497C144.12 158.993 144.557 160.232 144.791 161.517C145.122 163.169 147.316 162.554 147.49 161.15C147.885 158.074 148.087 154.978 148.096 151.878H145.342V157.652C145.342 159.148 147.793 159.589 148.05 158.019C148.232 156.626 148.691 155.284 149.4 154.072H146.985C147.567 155.01 147.885 156.089 147.903 157.193C147.903 157.558 148.049 157.908 148.307 158.167C148.565 158.425 148.915 158.57 149.281 158.57C149.646 158.57 149.996 158.425 150.254 158.167C150.512 157.908 150.658 157.558 150.658 157.193L151.006 155.357H148.353C148.62 156.982 149.629 166.134 146.04 165.06C145.434 164.913 145.26 164.95 145.517 165.161L146.334 163.417L148.252 159.35L145.682 158.653C145.847 160.544 146.022 163.243 144.883 164.858C143.965 166.171 141.138 166.694 139.696 165.923C138.745 165.245 137.932 164.391 137.3 163.408L135.418 165.244C136.942 166.355 139.412 169.081 141.376 169.237C142.873 169.357 144.13 168.117 145.113 167.126C146.619 165.569 147.794 163.722 148.566 161.697C149.338 159.673 149.69 157.513 149.602 155.348C149.602 154.982 149.457 154.632 149.199 154.374C148.94 154.116 148.59 153.971 148.225 153.971C147.86 153.971 147.509 154.116 147.251 154.374C146.993 154.632 146.848 154.982 146.848 155.348V158.487C146.848 158.852 146.993 159.203 147.251 159.461C147.509 159.719 147.86 159.864 148.225 159.864C148.59 159.864 148.94 159.719 149.199 159.461C149.457 159.203 149.602 158.852 149.602 158.487V150.785C149.602 150.42 149.457 150.07 149.199 149.811C148.94 149.553 148.59 149.408 148.225 149.408C147.86 149.408 147.509 149.553 147.251 149.811C146.993 150.07 146.848 150.42 146.848 150.785C146.843 152.631 146.683 154.474 146.37 156.293L149.079 156.66C148.863 154.467 148.762 152.264 148.776 150.06C148.771 149.73 148.649 149.412 148.43 149.165C148.211 148.918 147.911 148.758 147.584 148.713C147.257 148.669 146.925 148.743 146.649 148.923C146.372 149.103 146.169 149.376 146.077 149.693C145.664 151.446 145.159 153.172 144.672 154.889L147.187 154.558L146.995 153.824C146.866 152.07 144.112 152.061 144.241 153.824C144.271 154.567 144.465 155.294 144.81 155.954C145.342 157.074 147.004 156.679 147.325 155.623C147.848 153.897 148.317 152.171 148.73 150.427L146.022 150.06C146.008 152.264 146.109 154.467 146.324 156.66C146.462 158.074 148.739 158.68 149.023 157.028C149.39 154.954 149.584 152.854 149.602 150.748H146.848V158.451H149.602V155.311H146.848C147.01 158.774 145.807 162.163 143.497 164.748C143.139 165.155 142.753 165.535 142.34 165.887C141.688 166.511 141.092 166.419 140.568 165.602C139.265 165.06 137.915 163.665 136.777 162.848C135.639 162.031 134.078 163.647 134.886 164.73C136.997 167.539 140.146 170.669 144.066 169.32C148.188 167.86 148.748 162.279 148.436 158.607C148.335 157.386 146.508 156.559 145.875 157.918C144.957 159.855 144.039 161.783 143.121 163.729C142.645 164.454 142.361 165.288 142.294 166.153C142.597 168.218 145.104 167.879 146.646 167.759C152.622 167.309 151.677 158.836 150.988 154.576C150.759 153.163 148.702 153.383 148.335 154.576C148.043 155.415 147.891 156.296 147.885 157.184H150.639C150.539 155.605 150.098 154.067 149.345 152.676C149.222 152.471 149.047 152.301 148.839 152.183C148.631 152.065 148.395 152.003 148.156 152.003C147.917 152.003 147.681 152.065 147.473 152.183C147.264 152.301 147.09 152.471 146.967 152.676C146.146 154.093 145.592 155.649 145.333 157.266L148.087 157.633V151.859C148.087 151.494 147.942 151.144 147.684 150.885C147.426 150.627 147.075 150.482 146.71 150.482C146.345 150.482 145.995 150.627 145.736 150.885C145.478 151.144 145.333 151.494 145.333 151.859C145.324 154.959 145.121 158.056 144.727 161.131L147.435 160.764C147.124 159.263 146.595 157.816 145.865 156.468C145.742 156.262 145.568 156.092 145.36 155.974C145.151 155.856 144.916 155.794 144.677 155.794C144.437 155.794 144.202 155.856 143.994 155.974C143.785 156.092 143.611 156.262 143.488 156.468C142.291 159.343 140.569 161.97 138.411 164.216L140.715 164.822L140.311 162.527C140.1 161.306 138.374 161.269 137.796 162.196C137.34 162.886 137.03 163.663 136.887 164.478C136.743 165.293 136.768 166.128 136.961 166.933C137.19 168.237 138.843 168.099 139.476 167.264C140.465 165.947 141.352 164.557 142.129 163.105L139.751 161.71C139.117 163.081 138.684 164.538 138.466 166.033C138.301 167.245 139.742 168.512 140.77 167.374C142.744 165.214 144.173 162.614 144.938 159.791C145.278 158.542 143.552 157.358 142.634 158.451C140.945 160.475 139.411 162.623 138.044 164.877L140.559 165.942L143.359 155.504C143.433 155.186 143.393 154.852 143.244 154.561C143.096 154.27 142.85 154.041 142.55 153.913C142.249 153.786 141.913 153.769 141.601 153.865C141.289 153.961 141.021 154.164 140.844 154.439L135.336 162.416C134.308 163.894 136.667 165.17 137.713 163.803L145.204 153.888C146.269 152.474 143.883 151.134 142.827 152.493H142.753Z" fill="var(--fill-0, #F26F37)"/>
<path id="Path 457" d="M259.875 185.624C270.891 178.886 279.649 168.833 289.38 160.424C299.937 151.308 311.018 142.816 322.429 134.775C344.59 119.168 367.861 105.205 391.115 91.2787C391.416 91.0881 391.632 90.788 391.717 90.4416C391.801 90.0952 391.748 89.7295 391.568 89.4214C391.389 89.1134 391.097 88.887 390.754 88.7899C390.411 88.6929 390.043 88.7327 389.729 88.901C366.475 102.827 343.194 116.763 321.033 132.397C310.577 139.741 300.368 147.526 290.582 155.788C279.933 164.785 270.45 175.985 258.452 183.246C256.937 184.164 258.323 186.551 259.838 185.624H259.875Z" fill="var(--fill-0, #F26F37)"/>
<path id="Path 458" d="M426.67 48.5174C414.736 49.7292 401.883 52.7679 394.539 63.2058C388.196 72.184 388.333 87.8455 394.291 97.0624C401.057 107.537 414.883 107.913 425.623 104.526C436.364 101.138 447.482 95.1988 447.381 82.3649C447.325 75.4797 444.838 68.31 442.093 62.0674C439.724 56.6786 435.529 51.9692 429.176 52.5659C427.423 52.7312 427.404 55.4852 429.176 55.32C437.686 54.5305 440.422 64.6379 442.442 71.0181C444.278 76.9761 445.976 84.0265 443.093 89.9478C440.211 95.869 433.261 98.8893 427.322 101.056C420.896 103.388 413.836 104.811 407.125 102.892C393.832 99.1739 390.16 82.3282 393.988 70.3755C398.395 56.6052 414.001 52.5567 426.716 51.2715C428.46 51.0971 428.478 48.343 426.716 48.5174H426.67Z" fill="var(--fill-0, #F26F37)"/>
<path id="Path 459" d="M445.03 155.008C433.096 156.22 420.244 159.258 412.9 169.696C406.556 178.675 406.694 194.336 412.652 203.553C419.418 214.028 433.243 214.404 443.984 211.016C454.725 207.629 465.842 201.689 465.741 188.855C465.686 181.97 463.198 174.801 460.453 168.558C458.085 163.169 453.889 158.46 447.537 159.056C445.783 159.222 445.765 161.976 447.537 161.811C456.047 161.021 458.782 171.128 460.802 177.509C462.638 183.467 464.336 190.517 461.454 196.438C458.571 202.36 451.622 205.38 445.682 207.546C439.256 209.878 432.196 211.301 425.486 209.382C412.193 205.664 408.521 188.819 412.349 176.866C416.755 163.096 432.362 159.047 445.076 157.762C446.821 157.588 446.839 154.834 445.076 155.008H445.03Z" fill="var(--fill-0, #F26F37)"/>
<path id="Path 460" d="M408.668 75.3329L417.361 85.2476C417.533 85.4137 417.746 85.5324 417.977 85.5923C418.209 85.6521 418.452 85.651 418.683 85.5891C418.914 85.5272 419.125 85.4065 419.296 85.2389C419.466 85.0713 419.59 84.8624 419.656 84.6325C421.492 79.8037 421.144 74.8005 421.575 69.7238C422.051 64.4768 423.368 59.3405 425.477 54.5122C429.712 44.719 436.893 36.4886 446.022 30.9649C447.537 30.0469 446.151 27.6601 444.636 28.5873C435.635 34.0074 428.414 41.9399 423.861 51.4093C421.632 56.0172 420.086 60.925 419.271 65.9783C418.353 71.9363 419.188 78.1788 416.985 83.8981L419.289 83.283L410.641 73.3867C409.466 72.0556 407.529 74.011 408.695 75.3329H408.668Z" fill="var(--fill-0, #F26F37)"/>
<path id="Path 461" d="M264.309 196.356C311.66 194.911 359.024 194.605 406.4 195.438C406.766 195.438 407.116 195.292 407.374 195.034C407.632 194.776 407.777 194.426 407.777 194.06C407.777 193.695 407.632 193.345 407.374 193.087C407.116 192.829 406.766 192.683 406.4 192.683C359.036 191.839 311.673 192.145 264.309 193.601C262.537 193.657 262.528 196.411 264.309 196.356Z" fill="var(--fill-0, #F26F37)"/>
<path id="Path 462" d="M416.296 169.201C432.483 175.554 448.054 183.377 462.812 192.574C464.318 193.492 465.704 191.132 464.199 190.196C449.246 180.886 433.469 172.97 417.067 166.548C415.424 165.896 414.708 168.558 416.342 169.201H416.296Z" fill="var(--fill-0, #F26F37)"/>
<path id="Path 463" d="M445.692 156.725C429.277 175.86 419.768 199.957 418.693 225.145C418.619 226.917 421.373 226.917 421.447 225.145C422.489 200.68 431.712 177.272 447.638 158.671C448.785 157.331 446.848 155.375 445.692 156.725Z" fill="var(--fill-0, #F26F37)"/>
<path id="Path 464" d="M78.5285 186.358L181.136 185.018L192.932 184.862C195.053 184.862 197.174 184.789 199.294 184.779C202.278 184.779 204.288 187.258 204.233 190.288C204.096 196.714 200.056 196.484 194.768 196.714L182.017 197.292L130.094 199.578C120.794 199.991 111.485 200.496 102.186 200.817C93.7952 201.074 77.84 198.339 81.5672 186.129C82.0813 184.431 79.4282 183.705 78.9049 185.395C77.0689 191.398 80.3186 197.494 85.5514 200.643C92.9782 205.104 102.764 203.59 110.962 203.223L174.71 200.331L190.188 199.642C194.153 199.459 199.671 200.267 203.315 198.421C207.593 196.264 208.346 187.699 205.647 184.091C204.261 182.255 202.315 182.09 200.139 182.007C194.429 181.787 188.618 182.163 182.898 182.237L151.116 182.659L78.4918 183.577C78.1266 183.577 77.7763 183.722 77.5181 183.98C77.2598 184.238 77.1147 184.589 77.1147 184.954C77.1147 185.319 77.2598 185.669 77.5181 185.928C77.7763 186.186 78.1266 186.331 78.4918 186.331L78.5285 186.358Z" fill="var(--fill-0, #F26F37)"/>
<g id="Michel">
<path id="Path 465" d="M493.089 523.731C490.775 525.182 488.131 525.999 485.745 527.275C483.358 528.551 481.035 530.47 480.356 533.114C480.102 533.934 480.144 534.818 480.475 535.611C481.069 536.568 481.978 537.289 483.046 537.649C487.894 539.802 493.132 540.944 498.437 541.004C503.742 541.064 509.004 540.041 513.9 537.998C515.623 537.169 517.403 536.464 519.225 535.886C521.47 535.428 523.755 535.195 526.046 535.188C528.454 535.048 530.85 534.741 533.215 534.27C534.405 534.138 535.532 533.67 536.465 532.921C537.317 531.94 537.829 530.71 537.925 529.414C539.011 522.262 537.373 514.963 533.335 508.96C532.826 508.119 532.144 507.396 531.333 506.84C530.346 506.329 529.259 506.038 528.148 505.986C523.558 505.426 518.747 504.398 514.111 504.288C510.788 504.214 509.117 505.793 506.767 508.079C501.911 512.936 499.074 519.995 493.089 523.731Z" fill="var(--fill-0, #323444)"/>
<path id="Path 466" d="M560.738 523.052C560.738 527.55 561.279 532.315 564.006 535.904C565.253 537.456 566.763 538.777 568.467 539.806C574.233 543.478 581.87 544.827 587.948 541.715C588.93 541.275 589.769 540.569 590.371 539.677C591.289 538.08 590.803 536.088 590.289 534.325L581.494 503.847C575.812 504.719 567.458 505.334 562.408 508.217C558.745 510.301 560.738 519.031 560.738 523.052Z" fill="var(--fill-0, #323444)"/>
<path id="Path 467" d="M487.929 335.381C487.397 337.061 485.469 337.841 484.413 339.255C483.174 340.917 483.302 343.221 483.752 345.24C484.308 348.219 485.707 350.975 487.782 353.181C488.836 354.274 490.135 355.1 491.573 355.588C493.01 356.077 494.543 356.215 496.045 355.99C497.527 355.717 498.879 354.964 499.892 353.848C500.905 352.732 501.524 351.314 501.654 349.812C501.6 348.447 501.308 347.102 500.791 345.837L494.53 327.734C494.525 327.605 494.484 327.48 494.412 327.374C494.34 327.267 494.239 327.183 494.121 327.132C494.003 327.08 493.873 327.062 493.745 327.081C493.618 327.1 493.499 327.154 493.401 327.238C491.923 327.936 488.957 328.67 488.095 330.203C487.232 331.736 488.554 333.719 487.929 335.381Z" fill="var(--fill-0, #FBB3B2)"/>
<path id="Path 468" d="M485.001 334.472C487.287 334.114 489.288 332.774 491.427 331.892C493.566 331.011 496.247 330.671 498.046 332.14C498.56 332.562 499.056 333.141 499.726 333.132C498.815 328.643 497.436 324.261 495.613 320.059C495.549 319.858 495.424 319.681 495.255 319.554C495.005 319.452 494.725 319.452 494.475 319.554L488.297 321.17C486.011 321.766 485.745 321.583 485.919 323.832C485.965 324.833 486.479 334.472 485.001 334.472Z" fill="var(--fill-0, #323444)"/>
<path id="Path 469" d="M484.321 203.746C483.403 205.159 483.403 206.922 483.403 208.584C483.403 216.708 483.486 224.879 484.689 232.92C484.973 234.848 485.331 236.776 485.515 238.722C485.723 241.432 485.766 244.151 485.643 246.865L484.725 282.209C484.615 286.533 484.395 291.178 481.723 294.575C480.913 295.713 480.533 297.102 480.649 298.495C481.347 307.363 482.816 316.158 484.276 324.925C486.626 323.865 489.194 323.376 491.769 323.499C494.344 323.622 496.854 324.353 499.092 325.632C503.724 311.068 506.286 295.925 506.703 280.648C506.914 273.13 506.593 265.565 507.749 258.139C509.686 245.635 508.897 232.81 507.474 220.233C507.024 216.249 506.069 212.146 503.517 209.061C501.101 206.362 497.884 204.509 494.337 203.773C490.94 202.883 487.902 203.801 484.321 203.746Z" fill="var(--fill-0, #5B5583)"/>
<path id="Path 470" opacity="0.1" d="M484.321 203.746C483.403 205.159 483.403 206.922 483.403 208.584C483.403 216.708 483.486 224.879 484.689 232.92C484.973 234.848 485.331 236.776 485.515 238.722C485.723 241.432 485.766 244.151 485.643 246.865L484.725 282.209C484.615 286.533 484.395 291.178 481.723 294.575C480.913 295.713 480.533 297.102 480.649 298.495C481.347 307.363 482.816 316.158 484.276 324.925C486.626 323.865 489.194 323.376 491.769 323.499C494.344 323.622 496.854 324.353 499.092 325.632C503.724 311.068 506.286 295.925 506.703 280.648C506.914 273.13 506.593 265.565 507.749 258.139C509.686 245.635 508.897 232.81 507.474 220.233C507.024 216.249 506.069 212.146 503.517 209.061C501.101 206.362 497.884 204.509 494.337 203.773C490.94 202.883 487.902 203.801 484.321 203.746Z" fill="var(--fill-0, black)"/>
<path id="Path 471" d="M495.54 306.243C489.383 337.794 492.745 370.464 505.198 400.101C506.273 402.295 507.028 404.633 507.438 407.041C507.942 411.54 505.868 415.864 504.683 420.215C501.929 430.111 503.518 440.65 505.28 450.776C506.015 454.999 506.77 459.219 507.548 463.436C508.31 467.548 509.044 472.019 507.135 475.746C508.778 482.595 509.751 489.379 511.394 496.227C511.568 496.769 511.622 497.343 511.55 497.907C511.219 498.803 510.636 499.585 509.87 500.156C508.646 501.398 507.765 502.937 507.316 504.623C506.867 506.308 506.865 508.081 507.309 509.768C511.504 506.757 517.352 507.813 522.144 509.768C526.936 511.723 531.655 514.358 536.833 514.358C536.08 508.281 535.355 501.901 537.595 496.2C538.898 492.895 541.193 489.774 541.129 486.239C541.065 483.072 539.128 480.244 538.659 477.114C538.485 475.166 538.56 473.204 538.88 471.275C540.11 460.039 538.715 448.692 537.319 437.474C537.161 435.262 536.64 433.091 535.777 431.048C535.125 429.726 534.152 428.459 534.17 426.981C534.17 425.264 535.557 423.869 536.071 422.235C536.989 419.224 535.3 415.129 537.842 413.266C544.544 408.345 541.974 396.594 541.827 388.286C541.71 381.12 541.404 373.959 540.909 366.805C545.128 378.669 546.853 391.276 545.976 403.838C545.682 407.95 545.141 412.274 546.747 416.075C547.977 418.994 550.419 421.399 551.08 424.493C551.493 426.403 551.2 428.376 551.291 430.322C551.383 432.269 552.044 434.389 553.724 435.372C553.853 444.221 554.642 453.686 554.78 462.536C554.691 467.06 555.06 471.581 555.882 476.031C556.294 477.446 556.522 478.909 556.561 480.382C556.354 482.23 555.865 484.035 555.11 485.734C553.51 490.472 553.092 495.528 553.892 500.464C554.692 505.4 556.686 510.066 559.701 514.055C561.867 510.209 566.384 508.171 570.79 507.849C575.197 507.528 579.548 508.639 583.817 509.759C583.164 504.395 584.232 498.963 586.865 494.244C587.571 493.181 588.112 492.017 588.471 490.793C588.967 488.461 587.81 486.138 587.186 483.834C586.167 480.162 586.525 476.205 586.764 472.368C587.565 459.516 586.996 446.616 585.065 433.884C584.767 431.377 584.179 428.912 583.312 426.54C582.982 425.696 582.578 424.888 582.302 424.034C581.869 422.503 581.622 420.924 581.568 419.334L580.512 404.645C579.768 394.354 583.147 384.192 585.506 374.149C586.562 369.65 587.709 365.161 588.416 360.589C589.38 354.365 589.536 348.003 590.95 341.862C592.217 336.354 594.503 330.983 594.98 325.337C595.715 316.589 592.079 308.134 588.554 300.11C587.085 296.805 581.531 297.136 577.96 296.548C552.632 292.39 525.954 292.362 502.067 301.735C499.597 302.759 497.372 304.295 495.54 306.243Z" fill="var(--fill-0, #3C354C)"/>
<path id="Path 472" d="M513.799 143.303L516.608 154.227C517.372 156.733 517.795 159.329 517.866 161.948C517.895 162.903 517.684 163.85 517.251 164.702C516.789 165.401 516.197 166.006 515.507 166.483C513.588 167.942 512.257 171.348 510.063 172.358C511.192 174.323 512.753 173.047 514.791 174.029C518.38 175.773 521.667 178.279 525.559 179.142C529.231 179.95 533.087 179.188 536.731 178.224C541.9 176.82 547.041 174.883 551.199 171.495C555.358 168.108 557.727 165.115 557.708 159.763C553.118 160.305 549.033 155.669 547.004 151.501C546.301 149.916 545.783 148.256 545.462 146.553L543.002 135.729C540.321 136.317 538.136 138.235 535.575 139.236C533.013 140.237 529.984 140.328 527.138 140.457C522.086 140.687 517.063 141.338 512.119 142.403C511.44 142.541 510.586 142.972 510.751 143.633" fill="var(--fill-0, #FBB3B2)"/>
<path id="Path 473" opacity="0.1" d="M513.799 143.303L516.608 154.227C517.372 156.733 517.795 159.329 517.866 161.948C517.895 162.903 517.684 163.85 517.251 164.702C516.789 165.401 516.197 166.006 515.507 166.483C513.588 167.942 512.257 171.348 510.063 172.358C511.192 174.323 512.753 173.047 514.791 174.029C518.38 175.773 521.667 178.279 525.559 179.142C529.231 179.95 533.087 179.188 536.731 178.224C541.9 176.82 547.041 174.883 551.199 171.495C555.358 168.108 557.727 165.115 557.708 159.763C553.118 160.305 549.033 155.669 547.004 151.501C546.301 149.916 545.783 148.256 545.462 146.553L543.002 135.729C540.321 136.317 538.136 138.235 535.575 139.236C533.013 140.237 529.984 140.328 527.138 140.457C522.086 140.687 517.063 141.338 512.119 142.403C511.44 142.541 510.586 142.972 510.751 143.633" fill="var(--fill-0, black)"/>
<path id="Ellipse 80" d="M525.862 149.325C539.288 149.325 550.171 138.441 550.171 125.016C550.171 111.59 539.288 100.707 525.862 100.707C512.436 100.707 501.553 111.59 501.553 125.016C501.553 138.441 512.436 149.325 525.862 149.325Z" fill="var(--fill-0, #FBB3B2)"/>
<path id="Path 474" d="M532.554 165.088C533.854 162.28 535.731 159.778 538.063 157.743C541.487 154.741 546.169 152.309 546.977 147.829L554.394 156.467C554.797 156.868 555.11 157.35 555.312 157.881C555.406 158.379 555.392 158.892 555.272 159.384C555.151 159.876 554.927 160.337 554.615 160.736C552.778 163.665 549.887 165.758 547.151 167.878C540.881 172.845 534.878 178.14 529.167 183.742C528.915 184.034 528.578 184.24 528.203 184.329C527.848 184.339 527.499 184.24 527.202 184.045C522.275 181.458 517.915 177.912 514.378 173.616C514.111 173.295 513.781 172.927 513.349 172.955C513.089 173.003 512.849 173.128 512.661 173.313C510.191 175.333 507.492 177.747 504.325 177.435C508.429 174.488 510.751 169.568 511.614 164.583C511.785 162.877 512.136 161.193 512.661 159.561C512.933 158.744 513.402 158.007 514.026 157.415C514.651 156.823 515.411 156.393 516.241 156.164C514.24 159.221 515.608 163.554 518.298 166.024C520.911 168.242 524.044 169.761 527.404 170.44C530.526 171.027 531.444 167.493 532.554 165.088Z" fill="var(--fill-0, #323444)"/>
<path id="Path 475" d="M500.929 308.74C504.39 309.594 507.667 311.044 511.027 312.118C517.151 314.036 523.595 314.713 529.984 314.11C531.95 314.067 533.863 313.458 535.492 312.357C535.924 312.008 536.318 311.595 536.777 311.274C537.545 310.813 538.378 310.469 539.247 310.255C547.665 307.62 554.716 301.937 561.555 296.374C561.775 296.191 562.023 295.961 562.005 295.667C561.973 295.467 561.876 295.283 561.729 295.144L558.131 291.013C548.693 292.619 539.027 292.014 529.452 291.775C527.486 291.688 525.516 291.74 523.558 291.931C521.667 292.151 519.803 292.629 517.94 293.033C510.862 294.575 503.628 295.162 496.458 296.172C495.956 296.209 495.47 296.36 495.035 296.613C494.733 296.847 494.475 297.133 494.273 297.457L491.758 300.992C490.781 302.181 490.062 303.559 489.646 305.04C489.059 307.794 490.289 308.712 492.63 308.354C495.395 307.95 498.213 308.08 500.929 308.74Z" fill="var(--fill-0, #323444)"/>
<path id="Path 476" d="M529.066 179.537C526.258 176.659 523.074 174.174 519.601 172.147C518.198 171.256 516.642 170.633 515.011 170.311C514.191 170.149 513.345 170.169 512.533 170.369C511.721 170.568 510.963 170.944 510.311 171.468C509.494 172.193 508.98 173.203 508.19 173.965C507.197 174.799 506.058 175.444 504.83 175.865C500.651 177.651 496.69 179.908 493.025 182.594C491.026 183.992 489.226 185.653 487.673 187.533C483.514 192.858 482.89 200.101 483 206.857C483.082 211.558 487.59 215.046 490.693 218.562C493.603 222.022 496.237 225.706 498.569 229.579C500.24 232.222 501.985 235.087 501.773 238.235C501.599 240.815 500.093 243.239 500.332 245.809C500.415 246.727 500.708 247.572 500.791 248.462C500.956 250.298 500.231 252.134 500.047 253.97C499.8 256.568 500.644 259.148 500.69 261.764C500.656 263.556 500.429 265.338 500.011 267.08C498.248 275.47 496.036 283.907 496.486 292.472L491.4 293.39C491.881 293.862 492.245 294.441 492.462 295.08C492.678 295.719 492.741 296.4 492.645 297.068C492.55 297.736 492.298 298.371 491.911 298.924C491.524 299.476 491.012 299.93 490.417 300.248C498.358 302.901 506.942 301.561 515.36 301.551C522.328 301.551 529.268 302.47 536.227 302.341C543.185 302.212 550.364 300.955 556.102 297.016C557.663 295.952 559.095 294.703 560.738 293.776C562.939 292.635 565.311 291.86 567.761 291.481C572.299 290.615 576.912 290.203 581.531 290.251C583.789 290.251 586.25 290.342 588.049 288.984C590.032 287.478 590.537 284.752 590.803 282.282C591.069 279.675 591.235 277.059 591.281 274.442C591.357 272.405 591.25 270.365 590.959 268.347C590.684 266.871 590.325 265.412 589.885 263.977L586.424 251.785C584.992 246.755 586.984 241.237 587.406 236.023C587.507 234.793 587.526 233.361 586.58 232.571C586.241 232.287 585.772 232.094 585.662 231.653C585.613 231.444 585.607 231.227 585.645 231.015C585.683 230.804 585.764 230.602 585.883 230.423C587.719 226.751 590.473 223.51 592.988 220.196C597.213 214.383 601.135 208.356 604.739 202.139C603.61 189.129 598.132 176.879 589.187 167.364C587.44 165.258 585.206 163.61 582.679 162.563C580.999 162.05 579.257 161.769 577.501 161.728C570.304 161.241 562.813 160.81 556.543 157.193C556.093 156.881 555.583 156.665 555.046 156.559C553.66 156.403 552.65 157.771 551.75 158.854C549.437 161.608 546.031 163.187 543.038 165.216C537.457 169.007 533.096 174.222 529.066 179.537Z" fill="var(--fill-0, #5B5583)"/>
<path id="Path 477" d="M605.363 205.894C606.795 210.429 606.657 215.276 607.125 220.004C607.403 222.857 607.903 225.684 608.622 228.459C608.95 229.984 609.54 231.441 610.366 232.764C611.192 233.976 612.377 234.958 612.9 236.326C613.186 237.253 613.313 238.221 613.276 239.19L613.386 245.525C613.622 248.881 613.111 252.249 611.89 255.384L607.933 267.42C605.794 273.938 603.6 280.556 599.745 286.23C599.201 287.19 598.378 287.962 597.385 288.442C596.608 288.648 595.811 288.771 595.008 288.809C593.608 289.059 592.339 289.789 591.419 290.873C590.499 291.957 589.986 293.328 589.968 294.749C589.049 293.407 587.902 292.235 586.58 291.288L578.529 284.862C575.775 282.622 572.902 280.345 569.56 279.051C574.054 277.647 578.045 274.969 581.046 271.342C584.048 267.714 585.932 263.293 586.47 258.616C586.467 257.223 586.781 255.848 587.388 254.595C588.058 253.512 589.297 252.685 589.389 251.409C589.499 249.803 587.682 248.591 587.682 246.984C587.682 245.92 588.471 245.038 588.82 244.038C589.146 242.801 589.146 241.501 588.82 240.264L587.709 234.095C587.644 233.477 587.457 232.878 587.158 232.333C586.743 231.81 586.282 231.325 585.781 230.882C583.872 228.743 584.717 225.374 585.781 222.739C588.227 216.891 591.378 211.364 595.164 206.279C596.511 204.572 597.759 202.788 598.9 200.936C599.873 199.247 600.093 196.906 601.122 195.428C602.443 198.898 604.234 202.323 605.363 205.894Z" fill="var(--fill-0, #5B5583)"/>
<path id="Path 478" d="M569.275 279.427C568.866 279.731 568.511 280.104 568.229 280.529C567.147 281.887 565.706 282.914 564.07 283.494C564.988 284.155 565.824 284.807 566.687 285.477C573.071 290.408 578.918 295.999 584.129 302.157C584.707 300.092 588.168 300.239 589.013 298.265C589.212 297.7 589.275 297.096 589.196 296.502C589.021 293.41 588.579 290.338 587.874 287.322C587.597 285.769 586.969 284.3 586.038 283.026C584.753 281.474 582.752 280.731 580.842 280.088C577.951 279.078 572.213 277.655 569.275 279.427Z" fill="var(--fill-0, #323444)"/>
<path id="Path 479" d="M557.8 286.643C555.046 288.681 552.632 291.233 549.538 292.629C547.353 293.62 544.865 294.051 542.956 295.529C543.993 297.815 546.692 299 549.198 298.908C551.707 298.661 554.111 297.78 556.184 296.346C557.828 295.337 559.755 294.162 561.546 294.868C561.821 296.264 560.628 297.577 560.628 298.99C560.628 300.404 561.803 301.432 562.959 302.176C568.468 305.729 575.555 305.435 582.118 305.022C582.495 305.036 582.866 304.926 583.174 304.71C583.317 304.544 583.425 304.351 583.492 304.143C583.56 303.935 583.586 303.716 583.569 303.498C583.652 302.047 583.688 300.606 583.698 299.156C583.883 297.986 583.731 296.788 583.26 295.702C582.788 294.615 582.016 293.686 581.035 293.023C577.473 289.961 573.631 287.241 569.56 284.899C565.521 282.558 561.426 283.944 557.8 286.643Z" fill="var(--fill-0, #FBB3B2)"/>
<path id="Path 480" d="M534.4 114.853C530.324 115.34 527.358 118.526 527.771 121.987C528.185 125.447 531.82 127.834 535.896 127.339C539.972 126.843 542.937 123.667 542.524 120.215C542.111 116.763 538.476 114.367 534.4 114.853ZM535.786 126.384C532.334 126.797 529.259 124.768 528.901 121.849C528.543 118.93 531.067 116.231 534.51 115.817C537.952 115.404 541.037 117.433 541.395 120.352C541.753 123.272 539.228 125.971 535.786 126.384Z" fill="var(--fill-0, #3C354C)"/>
<path id="Path 481" d="M514.534 117.24C510.458 117.727 507.493 120.912 507.906 124.364C508.319 127.816 511.954 130.212 516.03 129.725C520.106 129.239 523.071 126.053 522.658 122.592C522.245 119.131 518.61 116.754 514.534 117.24ZM515.92 128.762C512.468 129.175 509.393 127.146 509.044 124.236C508.695 121.326 511.201 118.617 514.653 118.195C518.105 117.773 521.18 119.811 521.529 122.73C521.878 125.649 519.363 128.348 515.92 128.762Z" fill="var(--fill-0, #3C354C)"/>
<path id="Path 482" d="M499.781 119.012L508.64 120.903L507.768 123.235L499.414 120.784L499.781 119.012Z" fill="var(--fill-0, #3C354C)"/>
<path id="Path 483" d="M549.161 113.082L540.991 117.02L542.396 119.076L549.933 114.716L549.161 113.082Z" fill="var(--fill-0, #3C354C)"/>
<path id="Path 484" d="M521.841 120.316L528.056 119.572L527.735 121.115L522.401 121.473L521.841 120.316Z" fill="var(--fill-0, #3C354C)"/>
<path id="Path 485" d="M509.788 118.232C510.372 116.974 510.685 115.607 510.706 114.22C510.727 113.39 510.87 112.567 511.128 111.778C511.579 110.776 512.266 109.897 513.129 109.217C515.994 106.793 520.097 105.545 524.146 105.37C528.56 105.167 532.951 106.116 536.888 108.124C538.09 108.688 539.167 109.487 540.055 110.474C541.34 112.044 541.616 114.073 542.91 115.625C543.793 116.566 544.905 117.263 546.137 117.649C547.369 118.035 548.679 118.097 549.942 117.828C550.392 116.231 549.804 114.541 550.034 112.907C550.396 111.507 550.884 110.143 551.493 108.831C552.916 104.636 550.842 99.7704 546.564 97.2642C545.067 96.3462 543.296 95.7494 542.176 94.5101C541.056 93.2708 540.789 91.9855 540.018 90.7462C537.971 87.4689 532.674 85.9358 528.644 87.4505C527.377 87.9279 526.257 88.6531 524.972 89.1672C522.585 90.1495 519.868 90.3239 517.242 90.6544C514.654 90.8937 512.123 91.5574 509.751 92.619C507.483 93.739 505.583 95.5383 505.06 97.6865C504.812 98.6779 504.867 99.7061 504.619 100.688C503.352 105.673 495.173 108.097 494.714 113.183C494.549 115.019 495.549 116.781 496.798 118.278C497.661 119.297 499.726 122.023 501.186 122.418C502.645 122.813 503.756 121.427 505.152 120.949C507.355 120.261 508.686 120.114 509.788 118.232Z" fill="var(--fill-0, #CBCEDA)"/>
</g>
<path id="Path 486" d="M650.32 477.146C650.32 511.756 672.035 539.768 698.868 539.768Z" fill="var(--fill-0, #46455B)"/>
<path id="Path 487" d="M695.197 538.444C695.197 503.439 719.433 475.119 749.38 475.119Z" fill="var(--fill-0, #F26F37)"/>
<path id="Path 488" d="M667.915 480.288C667.915 513.17 681.763 539.776 698.868 539.776Z" fill="var(--fill-0, #F26F37)"/>
<path id="Path 492" d="M151.475 492.625C151.475 517.228 166.892 537.099 185.95 537.099Z" fill="var(--fill-0, #46455B)"/>
<path id="Path 494" d="M163.965 494.862C163.965 518.231 173.804 537.111 185.95 537.111Z" fill="var(--fill-0, #F26F37)"/>
<path id="Path 495" d="M185.95 537.098C185.95 511.383 202.057 490.572 221.957 490.572Z" fill="var(--fill-0, #46455B)"/>
<path id="Rectangle 125" d="M761.491 537.111H100.971V539.777H761.491V537.111Z" fill="var(--fill-0, #3F3D56)"/>
</g>
</svg>
