<svg preserveAspectRatio="none" width="100%" height="100%" overflow="visible" style="display: block;" viewBox="0 0 670.524 528.892" fill="none" xmlns="http://www.w3.org/2000/svg">
<g id="undraw_businesswoman_8lrc 1" clip-path="url(#clip0_0_90)">
<path id="Vector" d="M404.897 356.587L427.247 331.011L427.48 331.215L431.591 326.511L431.358 326.307L438.22 318.454C438.476 318.161 438.672 317.82 438.797 317.451C438.921 317.082 438.972 316.692 438.946 316.303C438.92 315.915 438.817 315.535 438.644 315.186C438.471 314.837 438.231 314.525 437.938 314.269L421.318 299.746C421.025 299.489 420.684 299.293 420.315 299.169C419.946 299.044 419.556 298.994 419.167 299.02C418.779 299.046 418.399 299.148 418.05 299.321C417.701 299.494 417.389 299.734 417.133 300.027L412.348 305.503L411.97 305.187L409.17 308.54L409.473 308.794L408.839 309.519L408.516 309.25L405.716 312.604L405.963 312.81L383.81 338.161C383.553 338.454 383.357 338.794 383.232 339.163C383.107 339.533 383.056 339.923 383.082 340.312C383.108 340.7 383.211 341.08 383.384 341.429C383.558 341.778 383.798 342.09 384.092 342.346L400.712 356.869C401.305 357.386 402.078 357.646 402.863 357.594C403.647 357.541 404.379 357.179 404.897 356.587Z" fill="var(--fill-0, #3F3D56)"/>
<path id="Vector_2" d="M384.482 340.879C384.34 340.623 384.281 340.33 384.312 340.039C384.343 339.748 384.463 339.474 384.655 339.253L418.329 300.718C418.577 300.434 418.928 300.26 419.304 300.235C419.68 300.21 420.051 300.335 420.335 300.583L423.871 303.673L423.732 303.742C423.492 303.863 423.286 304.041 423.13 304.26C422.975 304.479 422.876 304.733 422.842 305C422.809 305.266 422.841 305.537 422.936 305.788C423.031 306.039 423.187 306.263 423.389 306.44L431.237 313.298C431.447 313.452 431.69 313.555 431.947 313.597C432.204 313.64 432.468 313.622 432.716 313.544C432.96 313.468 433.183 313.335 433.367 313.156C433.55 312.977 433.688 312.757 433.771 312.514L433.821 312.368L437.474 315.56C437.757 315.808 437.93 316.159 437.956 316.535C437.981 316.911 437.856 317.281 437.609 317.565L405.48 354.332C404.822 355.084 403.891 355.544 402.894 355.611C401.896 355.678 400.913 355.347 400.159 354.69L384.79 341.259C384.666 341.151 384.562 341.023 384.482 340.879Z" fill="var(--fill-0, white)"/>
<path id="Vector_3" d="M418.421 325.685C421.523 325.685 424.038 323.17 424.038 320.068C424.038 316.966 421.523 314.451 418.421 314.451C415.318 314.451 412.803 316.966 412.803 320.068C412.803 323.17 415.318 325.685 418.421 325.685Z" fill="var(--fill-0, #F26F37)"/>
<path id="Vector_4" d="M414.174 341.625L398.608 328.022C398.559 327.98 398.52 327.928 398.491 327.871C398.462 327.813 398.445 327.75 398.441 327.685C398.436 327.621 398.444 327.556 398.465 327.495C398.486 327.434 398.518 327.377 398.561 327.328C398.603 327.28 398.655 327.24 398.713 327.211C398.771 327.183 398.834 327.166 398.898 327.161C398.963 327.157 399.027 327.166 399.089 327.186C399.15 327.207 399.206 327.24 399.255 327.282L414.821 340.885C414.87 340.927 414.91 340.979 414.939 341.037C414.967 341.095 414.984 341.158 414.989 341.222C414.993 341.287 414.985 341.351 414.964 341.413C414.944 341.474 414.911 341.53 414.869 341.579C414.826 341.628 414.774 341.668 414.716 341.696C414.659 341.725 414.596 341.742 414.531 341.746C414.467 341.75 414.402 341.742 414.341 341.721C414.279 341.7 414.223 341.668 414.174 341.625Z" fill="var(--fill-0, white)"/>
<path id="Vector_5" d="M407.492 338.731L402.372 334.257C402.274 334.171 402.214 334.05 402.205 333.92C402.196 333.79 402.239 333.662 402.325 333.563C402.411 333.465 402.532 333.405 402.662 333.397C402.792 333.388 402.92 333.431 403.018 333.517L408.139 337.991C408.237 338.077 408.297 338.198 408.306 338.328C408.314 338.458 408.271 338.586 408.185 338.684C408.1 338.782 407.978 338.843 407.848 338.851C407.718 338.86 407.59 338.817 407.492 338.731Z" fill="var(--fill-0, white)"/>
<path id="Vector_6" d="M404.531 342.119L399.411 337.645C399.362 337.602 399.323 337.551 399.294 337.493C399.265 337.435 399.248 337.372 399.244 337.308C399.24 337.243 399.248 337.179 399.269 337.118C399.289 337.057 399.322 337 399.364 336.952C399.407 336.903 399.458 336.863 399.516 336.835C399.574 336.806 399.637 336.789 399.701 336.785C399.766 336.78 399.83 336.789 399.892 336.809C399.953 336.83 400.009 336.862 400.058 336.905L405.178 341.379C405.276 341.465 405.336 341.586 405.345 341.716C405.354 341.846 405.31 341.974 405.225 342.072C405.139 342.171 405.018 342.231 404.888 342.239C404.757 342.248 404.629 342.205 404.531 342.119Z" fill="var(--fill-0, white)"/>
<path id="Vector_7" d="M403.015 343.854L397.895 339.38C397.846 339.338 397.806 339.286 397.777 339.228C397.748 339.17 397.731 339.108 397.727 339.043C397.723 338.979 397.731 338.914 397.752 338.853C397.772 338.791 397.805 338.735 397.847 338.686C397.89 338.637 397.941 338.598 397.999 338.569C398.057 338.54 398.12 338.523 398.185 338.519C398.249 338.515 398.314 338.523 398.375 338.544C398.436 338.565 398.493 338.598 398.541 338.64L403.661 343.114C403.71 343.157 403.75 343.208 403.778 343.266C403.807 343.324 403.824 343.387 403.828 343.451C403.833 343.516 403.824 343.58 403.804 343.642C403.783 343.703 403.751 343.759 403.708 343.808C403.666 343.856 403.614 343.896 403.556 343.925C403.498 343.953 403.436 343.97 403.371 343.975C403.307 343.979 403.242 343.971 403.181 343.95C403.12 343.929 403.063 343.897 403.015 343.854Z" fill="var(--fill-0, white)"/>
<path id="Vector_8" d="M408.904 342.911L398.041 333.418C397.992 333.375 397.952 333.324 397.923 333.266C397.894 333.208 397.877 333.145 397.873 333.081C397.868 333.016 397.877 332.951 397.897 332.89C397.918 332.829 397.951 332.772 397.993 332.724C398.036 332.675 398.087 332.635 398.145 332.607C398.203 332.578 398.266 332.561 398.331 332.557C398.395 332.553 398.46 332.561 398.521 332.582C398.582 332.603 398.639 332.635 398.687 332.678L409.551 342.171C409.599 342.213 409.639 342.265 409.668 342.323C409.696 342.38 409.713 342.443 409.717 342.508C409.722 342.572 409.713 342.637 409.693 342.698C409.672 342.759 409.64 342.815 409.597 342.864C409.555 342.913 409.503 342.952 409.445 342.981C409.388 343.01 409.325 343.027 409.26 343.031C409.196 343.035 409.131 343.027 409.07 343.006C409.009 342.986 408.952 342.953 408.904 342.911Z" fill="var(--fill-0, white)"/>
<path id="Vector_9" d="M398.076 345.804L396.216 344.179C396.134 344.107 396.066 344.019 396.017 343.921C395.969 343.823 395.94 343.716 395.933 343.606C395.925 343.497 395.939 343.387 395.974 343.283C396.01 343.179 396.065 343.083 396.137 343C396.209 342.918 396.297 342.85 396.395 342.801C396.494 342.753 396.601 342.724 396.71 342.717C396.82 342.709 396.929 342.723 397.033 342.758C397.137 342.794 397.233 342.849 397.316 342.921L399.175 344.546C399.342 344.691 399.444 344.898 399.459 345.119C399.474 345.34 399.4 345.558 399.254 345.725C399.109 345.891 398.903 345.994 398.681 346.008C398.46 346.023 398.242 345.95 398.076 345.804Z" fill="var(--fill-0, white)"/>
<path id="Vector_10" d="M374.593 315.408C373.65 314.47 372.925 313.337 372.467 312.088C372.01 310.84 371.832 309.506 371.946 308.181C372.06 306.856 372.463 305.572 373.126 304.42C373.79 303.267 374.698 302.275 375.787 301.511L360.939 229.648L376.959 234.702L388.905 304.224C390.066 306.138 390.485 308.412 390.082 310.614C389.678 312.817 388.481 314.795 386.717 316.173C384.953 317.552 382.744 318.236 380.51 318.095C378.275 317.954 376.17 316.998 374.593 315.408Z" fill="var(--fill-0, #9E616A)"/>
<path id="Vector_11" d="M340.271 123.315L350.194 115.824C350.194 115.824 358.949 115.204 360.499 130.991C362.049 146.778 371.757 207.369 371.757 207.369L386.942 277.7L365.922 282.314L349.658 206.414L333.377 154.05L340.271 123.315Z" fill="var(--fill-0, #2F2E41)"/>
<path id="Vector_12" d="M342.856 252.83L310.468 211.177C309.892 210.434 309.634 209.493 309.751 208.56C309.867 207.627 310.349 206.779 311.091 206.201L358.693 169.188C359.435 168.612 360.376 168.354 361.309 168.471C362.242 168.588 363.09 169.069 363.668 169.811L396.056 211.465C396.632 212.207 396.89 213.148 396.773 214.081C396.657 215.014 396.175 215.862 395.433 216.44L347.831 253.453C347.089 254.029 346.148 254.287 345.215 254.17C344.282 254.054 343.434 253.572 342.856 252.83Z" fill="var(--fill-0, #3F3D56)"/>
<path id="Vector_13" d="M343.675 249.07L314.314 211.309C313.802 210.649 313.573 209.814 313.677 208.986C313.781 208.158 314.209 207.404 314.867 206.891L358.431 173.018C359.09 172.507 359.926 172.278 360.754 172.381C361.582 172.485 362.335 172.913 362.848 173.571L392.209 211.332C392.721 211.991 392.95 212.827 392.846 213.655C392.743 214.483 392.315 215.237 391.656 215.75L348.093 249.623C347.433 250.134 346.598 250.363 345.77 250.26C344.941 250.156 344.188 249.728 343.675 249.07Z" fill="var(--fill-0, white)"/>
<path id="Vector_14" d="M384.841 214.651L370.029 195.602C369.966 195.52 369.919 195.427 369.891 195.327C369.864 195.228 369.856 195.123 369.869 195.021C369.882 194.918 369.915 194.819 369.966 194.729C370.017 194.639 370.085 194.561 370.167 194.497C370.249 194.434 370.342 194.387 370.442 194.36C370.541 194.332 370.645 194.325 370.748 194.338C370.851 194.35 370.95 194.383 371.039 194.434C371.129 194.486 371.208 194.554 371.272 194.636L386.083 213.685C386.147 213.767 386.194 213.86 386.222 213.96C386.249 214.059 386.257 214.164 386.244 214.266C386.232 214.369 386.199 214.468 386.148 214.558C386.097 214.648 386.028 214.727 385.946 214.791C385.865 214.854 385.771 214.901 385.671 214.929C385.572 214.956 385.467 214.963 385.365 214.95C385.262 214.937 385.163 214.904 385.073 214.853C384.983 214.802 384.904 214.733 384.841 214.651Z" fill="var(--fill-0, #E4E4E4)"/>
<path id="Vector_15" d="M382.386 216.56L367.574 197.511C367.51 197.429 367.463 197.336 367.436 197.236C367.408 197.136 367.401 197.032 367.413 196.929C367.426 196.826 367.459 196.727 367.51 196.637C367.561 196.547 367.629 196.468 367.711 196.405C367.793 196.341 367.886 196.294 367.986 196.267C368.086 196.24 368.19 196.232 368.293 196.245C368.396 196.258 368.495 196.291 368.585 196.343C368.675 196.394 368.753 196.462 368.817 196.544L383.629 215.594C383.756 215.759 383.813 215.967 383.787 216.174C383.761 216.381 383.654 216.569 383.489 216.697C383.325 216.824 383.116 216.882 382.909 216.856C382.703 216.831 382.514 216.724 382.386 216.56Z" fill="var(--fill-0, #E4E4E4)"/>
<path id="Vector_16" d="M371.54 207.677L365.12 199.419C365.056 199.338 365.009 199.244 364.981 199.145C364.954 199.045 364.946 198.941 364.959 198.838C364.971 198.735 365.004 198.636 365.055 198.546C365.106 198.456 365.175 198.377 365.257 198.313C365.338 198.25 365.432 198.203 365.532 198.176C365.631 198.148 365.736 198.141 365.838 198.154C365.941 198.167 366.04 198.2 366.13 198.251C366.22 198.303 366.299 198.371 366.362 198.453L372.783 206.711C372.911 206.875 372.968 207.084 372.942 207.291C372.916 207.498 372.809 207.687 372.644 207.815C372.48 207.943 372.271 208 372.064 207.974C371.857 207.948 371.668 207.841 371.54 207.677Z" fill="var(--fill-0, #E4E4E4)"/>
<path id="Vector_17" d="M368.23 223.881L344.847 193.808C344.783 193.726 344.736 193.633 344.708 193.533C344.681 193.434 344.673 193.329 344.686 193.227C344.698 193.124 344.731 193.025 344.782 192.935C344.834 192.845 344.902 192.766 344.984 192.702C345.065 192.639 345.159 192.592 345.259 192.564C345.359 192.537 345.463 192.53 345.565 192.543C345.668 192.556 345.767 192.589 345.857 192.64C345.947 192.691 346.026 192.76 346.089 192.842L369.472 222.915C369.536 222.996 369.583 223.09 369.611 223.189C369.638 223.289 369.646 223.393 369.633 223.496C369.621 223.599 369.588 223.698 369.537 223.788C369.486 223.878 369.417 223.957 369.335 224.021C369.254 224.084 369.16 224.131 369.06 224.158C368.961 224.186 368.856 224.193 368.754 224.18C368.651 224.167 368.552 224.134 368.462 224.083C368.372 224.031 368.293 223.963 368.23 223.881Z" fill="var(--fill-0, #E4E4E4)"/>
<path id="Vector_18" d="M365.775 225.79L342.392 195.717C342.264 195.552 342.207 195.343 342.233 195.136C342.259 194.929 342.366 194.741 342.53 194.613C342.695 194.485 342.904 194.427 343.111 194.453C343.318 194.479 343.506 194.586 343.635 194.751L367.018 224.824C367.081 224.905 367.128 224.999 367.156 225.098C367.183 225.198 367.191 225.302 367.178 225.405C367.165 225.507 367.132 225.606 367.081 225.696C367.03 225.786 366.962 225.865 366.88 225.928C366.798 225.992 366.705 226.039 366.605 226.066C366.506 226.093 366.401 226.101 366.299 226.088C366.196 226.075 366.097 226.042 366.007 225.991C365.918 225.94 365.839 225.871 365.775 225.79Z" fill="var(--fill-0, #E4E4E4)"/>
<path id="Vector_19" d="M360.203 230.123L336.819 200.05C336.756 199.968 336.709 199.875 336.681 199.775C336.653 199.675 336.646 199.571 336.658 199.469C336.671 199.366 336.704 199.267 336.755 199.177C336.806 199.087 336.875 199.008 336.956 198.944C337.038 198.88 337.131 198.834 337.231 198.806C337.331 198.779 337.435 198.772 337.538 198.785C337.641 198.798 337.74 198.831 337.83 198.882C337.92 198.933 337.998 199.002 338.062 199.084L361.445 229.157C361.509 229.238 361.555 229.332 361.583 229.431C361.61 229.531 361.618 229.635 361.605 229.738C361.592 229.84 361.559 229.939 361.508 230.029C361.457 230.119 361.389 230.198 361.307 230.261C361.225 230.325 361.132 230.372 361.032 230.399C360.933 230.426 360.829 230.434 360.726 230.421C360.624 230.408 360.524 230.375 360.435 230.324C360.345 230.273 360.266 230.204 360.203 230.123Z" fill="var(--fill-0, #E4E4E4)"/>
<path id="Vector_20" d="M357.748 232.031L334.364 201.959C334.236 201.794 334.179 201.585 334.205 201.378C334.231 201.171 334.338 200.983 334.503 200.855C334.667 200.726 334.876 200.669 335.083 200.695C335.29 200.721 335.479 200.828 335.607 200.992L358.99 231.065C359.118 231.23 359.175 231.439 359.149 231.646C359.124 231.853 359.016 232.041 358.852 232.169C358.687 232.297 358.478 232.355 358.271 232.329C358.064 232.303 357.876 232.196 357.748 232.031Z" fill="var(--fill-0, #E4E4E4)"/>
<path id="Vector_21" d="M352.175 236.365L328.792 206.292C328.729 206.21 328.682 206.117 328.654 206.017C328.627 205.917 328.619 205.813 328.632 205.711C328.645 205.608 328.678 205.509 328.729 205.419C328.78 205.329 328.848 205.25 328.93 205.187C329.012 205.124 329.105 205.077 329.205 205.049C329.304 205.022 329.408 205.015 329.511 205.027C329.614 205.04 329.713 205.073 329.802 205.124C329.892 205.176 329.971 205.244 330.035 205.325L353.418 235.398C353.481 235.48 353.528 235.573 353.556 235.673C353.583 235.773 353.59 235.877 353.578 235.979C353.565 236.082 353.532 236.181 353.481 236.271C353.43 236.361 353.361 236.44 353.28 236.503C353.198 236.566 353.105 236.613 353.005 236.641C352.906 236.668 352.801 236.675 352.699 236.663C352.596 236.65 352.497 236.617 352.407 236.566C352.318 236.515 352.239 236.446 352.175 236.365Z" fill="var(--fill-0, #E4E4E4)"/>
<path id="Vector_22" d="M349.72 238.273L326.337 208.2C326.274 208.119 326.227 208.025 326.199 207.926C326.172 207.826 326.164 207.722 326.177 207.619C326.19 207.517 326.223 207.418 326.274 207.328C326.325 207.238 326.393 207.159 326.475 207.096C326.557 207.032 326.65 206.985 326.75 206.958C326.849 206.931 326.953 206.923 327.056 206.936C327.159 206.949 327.258 206.982 327.347 207.033C327.437 207.084 327.516 207.153 327.58 207.234L350.963 237.307C351.09 237.472 351.147 237.681 351.121 237.887C351.095 238.094 350.988 238.282 350.823 238.41C350.659 238.538 350.45 238.595 350.244 238.57C350.037 238.544 349.849 238.437 349.72 238.273Z" fill="var(--fill-0, #E4E4E4)"/>
<path id="Vector_23" d="M389.906 273.337C390.084 273.337 390.229 273.192 390.229 273.013C390.229 272.835 390.084 272.69 389.906 272.69C389.727 272.69 389.583 272.835 389.583 273.013C389.583 273.192 389.727 273.337 389.906 273.337Z" fill="var(--fill-0, white)"/>
<path id="Vector_24" d="M413.394 357.985H411.071V337.074C411.071 329.577 408.093 322.386 402.791 317.085C397.49 311.784 390.3 308.805 382.802 308.805C375.305 308.805 368.114 311.784 362.813 317.085C357.512 322.386 354.533 329.577 354.533 337.074V357.985H352.21V337.074C352.21 328.96 355.433 321.179 361.17 315.442C366.907 309.705 374.689 306.482 382.802 306.482C390.916 306.482 398.697 309.705 404.434 315.442C410.171 321.179 413.394 328.96 413.394 337.074V357.985Z" fill="var(--fill-0, #2F2E41)"/>
<path id="Vector_25" d="M447.975 339.026C447.205 335.707 445.33 332.749 442.658 330.635C439.986 328.522 436.675 327.378 433.268 327.393H327.922C324.312 327.404 320.824 328.702 318.085 331.055C315.347 333.407 313.537 336.659 312.982 340.226C311.401 351.234 310.88 362.368 311.425 373.475C311.603 377.75 311.921 382.139 312.378 386.641C312.672 389.584 313.023 392.579 313.431 395.625C313.93 399.246 315.721 402.565 318.473 404.97C321.226 407.375 324.755 408.705 328.41 408.714H433.066C436.502 408.73 439.839 407.568 442.521 405.422C445.203 403.275 447.068 400.274 447.805 396.919C448.579 393.48 449.22 390.054 449.726 386.641C450.384 382.277 450.823 377.883 451.042 373.475C451.639 361.905 450.606 350.308 447.975 339.026Z" fill="var(--fill-0, #F26F37)"/>
<path id="Vector_26" d="M413.394 351.402H411.071V330.491C411.071 322.994 408.093 315.803 402.791 310.502C397.49 305.2 390.3 302.222 382.802 302.222C375.305 302.222 368.114 305.2 362.813 310.502C357.512 315.803 354.533 322.994 354.533 330.491V351.402H352.21V330.491C352.21 322.377 355.433 314.596 361.17 308.859C366.907 303.122 374.689 299.899 382.802 299.899C390.916 299.899 398.697 303.122 404.434 308.859C410.171 314.596 413.394 322.377 413.394 330.491V351.402Z" fill="var(--fill-0, #2F2E41)"/>
<path id="Vector_27" d="M384.762 333.264L380.89 326.556C380.53 325.886 379.977 325.339 379.302 324.988C378.627 324.637 377.862 324.497 377.107 324.588C376.352 324.678 375.641 324.994 375.068 325.495C374.495 325.995 374.086 326.657 373.895 327.393V335.138C373.895 335.857 374.181 336.546 374.689 337.055C375.197 337.563 375.887 337.849 376.606 337.849C377.325 337.849 378.014 337.563 378.523 337.055C379.031 336.546 379.317 335.857 379.317 335.138V334.675L380.067 335.974C380.426 336.597 381.019 337.051 381.713 337.237C382.407 337.424 383.147 337.326 383.77 336.967C384.392 336.607 384.847 336.015 385.033 335.321C385.219 334.626 385.122 333.886 384.762 333.264Z" fill="var(--fill-0, #2F2E41)"/>
<path id="Vector_28" d="M354.146 356.049C356.712 356.049 358.793 353.969 358.793 351.402C358.793 348.836 356.712 346.755 354.146 346.755C351.579 346.755 349.499 348.836 349.499 351.402C349.499 353.969 351.579 356.049 354.146 356.049Z" fill="var(--fill-0, #2F2E41)"/>
<path id="Vector_29" d="M411.845 356.436C414.412 356.436 416.492 354.356 416.492 351.789C416.492 349.223 414.412 347.142 411.845 347.142C409.279 347.142 407.198 349.223 407.198 351.789C407.198 354.356 409.279 356.436 411.845 356.436Z" fill="var(--fill-0, #2F2E41)"/>
<path id="Vector_30" d="M451.042 373.475C450.823 377.883 450.384 382.277 449.726 386.641H312.378C311.921 382.134 311.603 377.745 311.425 373.475H451.042Z" fill="var(--fill-0, #3F3D56)"/>
<path id="Vector_31" d="M50.9444 444.642C53.5915 423.356 66.7834 402.383 87.0837 395.456C79.0778 417.365 79.0795 441.4 87.0886 463.308C90.2079 471.746 94.556 480.806 91.6218 489.31C89.7962 494.601 85.3301 498.65 80.3379 501.181C75.3453 503.712 69.8047 504.919 64.3334 506.101L63.2566 506.992C54.5709 487.379 48.2973 465.927 50.9444 444.642Z" fill="var(--fill-0, #9E616A)"/>
<path id="Vector_32" d="M87.2852 395.858C75.4633 409.104 68.1156 425.739 66.2859 443.399C65.8245 447.193 65.9641 451.037 66.6996 454.788C67.5342 458.419 69.326 461.761 71.8886 464.465C74.2274 467.035 76.9173 469.393 78.5907 472.486C79.4238 474.082 79.9101 475.836 80.0176 477.634C80.1252 479.431 79.8516 481.231 79.2148 482.915C77.7374 487.152 74.8254 490.606 71.8603 493.885C68.5681 497.525 65.091 501.255 63.6916 506.081C63.522 506.666 62.6245 506.368 62.7939 505.784C65.2286 497.388 73.3797 492.618 77.267 485.055C79.0809 481.526 79.8422 477.429 78.1418 473.704C76.6547 470.446 73.883 468.013 71.4924 465.431C68.9538 462.83 67.0908 459.646 66.0662 456.158C65.142 452.457 64.8545 448.625 65.216 444.827C65.8935 436.263 67.9133 427.858 71.2013 419.922C74.9038 410.843 80.1319 402.465 86.6597 395.149C87.0639 394.697 87.6868 395.409 87.2852 395.858Z" fill="var(--fill-0, white)"/>
<path id="Vector_33" d="M66.5404 437.677C63.6191 436.968 61.0451 435.244 59.278 432.812C57.5108 430.38 56.6657 427.399 56.8935 424.402C56.9416 423.795 57.8861 423.842 57.8379 424.449C57.6207 427.24 58.4082 430.016 60.0584 432.277C61.7085 434.539 64.1126 436.135 66.8368 436.78C67.4286 436.92 67.1288 437.817 66.5404 437.677Z" fill="var(--fill-0, white)"/>
<path id="Vector_34" d="M70.5312 463.318C75.8073 460.168 79.7022 455.145 81.4392 449.25C81.6108 448.666 82.5083 448.963 82.3369 449.547C80.5179 455.677 76.454 460.896 70.9563 464.163C70.4321 464.474 70.0098 463.628 70.5312 463.318Z" fill="var(--fill-0, white)"/>
<path id="Vector_35" d="M75.7808 411.739C76.8539 412.249 78.0368 412.484 79.2234 412.424C80.41 412.364 81.5631 412.01 82.579 411.394C83.0991 411.076 83.5209 411.923 83.0042 412.238C81.8786 412.914 80.6047 413.303 79.2938 413.372C77.983 413.442 76.6751 413.189 75.4844 412.637C75.3678 412.594 75.2718 412.509 75.216 412.398C75.1601 412.287 75.1486 412.159 75.1837 412.04C75.2236 411.921 75.3086 411.823 75.4204 411.767C75.5322 411.71 75.6617 411.7 75.7808 411.739Z" fill="var(--fill-0, white)"/>
<path id="Vector_36" d="M148.962 433.475C148.643 433.682 148.324 433.89 148.004 434.105C143.729 436.917 139.689 440.071 135.925 443.536C135.63 443.8 135.334 444.071 135.047 444.342C126.067 452.788 118.732 462.828 113.417 473.951C111.306 478.38 109.535 482.962 108.119 487.659C106.164 494.146 104.56 501.334 100.69 506.64C100.293 507.198 99.8612 507.731 99.3978 508.236H64.4267C64.3472 508.196 64.2674 508.164 64.1875 508.124L62.7912 508.188C62.8473 507.941 62.9108 507.686 62.9669 507.438C62.9989 507.295 63.0386 507.151 63.0706 507.007C63.0943 506.912 63.1185 506.816 63.1345 506.728C63.1422 506.696 63.1504 506.664 63.1582 506.64C63.1742 506.553 63.1983 506.473 63.2143 506.393C63.5653 504.965 63.927 503.537 64.2993 502.108C64.2993 502.1 64.2993 502.1 64.3071 502.092C67.1718 491.217 70.9695 480.486 76.2753 470.672C76.435 470.377 76.5944 470.074 76.7701 469.778C79.1862 465.368 81.9588 461.162 85.0601 457.204C86.7653 455.042 88.5788 452.967 90.4937 450.988C95.4514 445.885 101.181 441.593 107.472 438.27C120.015 431.648 134.536 429.111 147.941 433.156C148.284 433.26 148.619 433.363 148.962 433.475Z" fill="var(--fill-0, #9E616A)"/>
<path id="Vector_37" d="M148.884 433.919C131.469 437.378 115.588 446.235 103.494 459.234C100.841 461.986 98.6383 465.139 96.967 468.577C95.4472 471.979 94.8661 475.726 95.284 479.428C95.6043 482.888 96.3326 486.39 95.8063 489.867C95.5105 491.643 94.8425 493.337 93.8463 494.836C92.8501 496.336 91.5482 497.608 90.0258 498.57C86.2948 501.064 81.8902 502.068 77.5487 502.901C72.7283 503.826 67.7068 504.71 63.6837 507.72C63.1962 508.085 62.6586 507.308 63.1454 506.943C70.1449 501.705 79.5247 502.804 87.1819 499.106C90.7549 497.38 93.8295 494.567 94.7146 490.569C95.4886 487.073 94.7407 483.461 94.3861 479.961C93.9255 476.355 94.3548 472.691 95.6364 469.29C97.1272 465.778 99.2048 462.545 101.78 459.73C107.477 453.3 114.15 447.806 121.553 443.449C129.976 438.429 139.194 434.887 148.811 432.976C149.406 432.858 149.475 433.802 148.884 433.919Z" fill="var(--fill-0, white)"/>
<path id="Vector_38" d="M107.142 454.819C105.236 452.494 104.219 449.568 104.273 446.562C104.326 443.556 105.446 440.667 107.432 438.411C107.836 437.956 108.562 438.562 108.158 439.017C106.304 441.115 105.261 443.806 105.217 446.605C105.174 449.404 106.132 452.126 107.919 454.281C108.307 454.75 107.527 455.285 107.142 454.819Z" fill="var(--fill-0, white)"/>
<path id="Vector_39" d="M94.8905 477.695C101 478.356 107.134 476.69 112.07 473.03C112.559 472.667 113.096 473.444 112.608 473.807C107.465 477.607 101.078 479.327 94.7216 478.625C94.1159 478.558 94.2881 477.628 94.8905 477.695Z" fill="var(--fill-0, white)"/>
<path id="Vector_40" d="M130.137 439.672C130.686 440.725 131.489 441.625 132.473 442.292C133.457 442.958 134.59 443.37 135.772 443.489C136.379 443.549 136.206 444.479 135.603 444.42C134.298 444.281 133.047 443.825 131.958 443.091C130.87 442.358 129.977 441.368 129.359 440.21C129.292 440.106 129.267 439.98 129.289 439.858C129.311 439.736 129.379 439.626 129.479 439.553C129.582 439.482 129.709 439.455 129.832 439.477C129.955 439.499 130.065 439.569 130.137 439.672Z" fill="var(--fill-0, white)"/>
<path id="Vector_41" d="M418.586 455.227C400.9 436.024 391.799 407.274 401.335 382.972C415.384 407.642 437.707 426.547 464.354 436.342C474.644 440.083 486.478 443.172 492.068 452.586C495.546 458.444 495.793 465.777 494.216 472.404C492.64 479.032 489.402 485.127 486.196 491.138L486.176 492.839C461.129 485.477 436.272 474.429 418.586 455.227Z" fill="var(--fill-0, #E6E6E6)"/>
<path id="Vector_42" d="M401.867 383.102C404.869 404.501 414.538 424.41 429.499 440.001C432.661 443.415 436.34 446.309 440.403 448.576C444.431 450.658 448.944 451.622 453.472 451.37C457.698 451.219 462.003 450.575 466.193 451.455C468.33 451.937 470.342 452.865 472.096 454.179C473.849 455.493 475.306 457.163 476.369 459.079C479.142 463.784 480.059 469.206 480.772 474.539C481.563 480.46 482.291 486.623 485.672 491.719C486.082 492.336 485.1 492.936 484.691 492.319C478.808 483.453 480.79 472.131 476.824 462.571C474.974 458.111 471.768 454.181 466.97 452.83C462.775 451.648 458.335 452.308 454.057 452.497C449.644 452.809 445.222 452.034 441.177 450.243C437.012 448.189 433.227 445.441 429.984 442.118C422.563 434.752 416.347 426.265 411.563 416.968C406.044 406.388 402.376 394.942 400.716 383.125C400.614 382.393 401.765 382.375 401.867 383.102Z" fill="var(--fill-0, white)"/>
<path id="Vector_43" d="M424.386 435.264C421.43 437.419 417.803 438.453 414.155 438.181C410.506 437.91 407.073 436.35 404.468 433.78C403.943 433.259 404.729 432.418 405.255 432.94C407.676 435.337 410.874 436.79 414.272 437.036C417.67 437.283 421.045 436.306 423.786 434.283C424.382 433.844 424.979 434.828 424.386 435.264Z" fill="var(--fill-0, white)"/>
<path id="Vector_44" d="M451.339 451.728C452.563 444.35 450.962 436.781 446.854 430.531C446.447 429.912 447.429 429.312 447.836 429.931C452.098 436.442 453.749 444.322 452.457 451.997C452.334 452.729 451.216 452.456 451.339 451.728Z" fill="var(--fill-0, white)"/>
<path id="Vector_45" d="M407.566 406.278C408.884 405.683 410.033 404.769 410.91 403.62C411.788 402.47 412.366 401.121 412.593 399.693C412.707 398.96 413.825 399.234 413.712 399.962C413.454 401.539 412.813 403.028 411.846 404.3C410.88 405.572 409.616 406.588 408.166 407.26C408.035 407.334 407.88 407.356 407.733 407.321C407.586 407.285 407.458 407.195 407.375 407.069C407.297 406.939 407.272 406.783 407.308 406.634C407.344 406.486 407.436 406.358 407.566 406.278Z" fill="var(--fill-0, white)"/>
<path id="Vector_46" d="M485.32 355.412C485.261 355.872 485.203 356.331 485.152 356.798C484.4 362.98 484.151 369.212 484.408 375.435C484.42 375.916 484.44 376.404 484.466 376.884C485.246 391.868 488.8 406.577 494.949 420.264C497.401 425.708 500.264 430.958 503.512 435.967C507.999 442.886 513.413 450.03 515.297 457.798C515.503 458.606 515.658 459.426 515.762 460.253L488.253 492.731C488.153 492.774 488.061 492.823 487.961 492.866L486.922 494.213C486.736 493.966 486.549 493.706 486.363 493.459C486.255 493.317 486.153 493.167 486.045 493.024C485.974 492.927 485.904 492.829 485.836 492.745C485.812 492.713 485.789 492.68 485.773 492.654C485.704 492.57 485.649 492.485 485.587 492.407C484.537 490.958 483.495 489.499 482.461 488.029C482.454 488.023 482.454 488.023 482.453 488.01C474.606 476.794 467.627 464.826 462.687 452.178C462.538 451.798 462.382 451.411 462.246 451.016C460.051 445.302 458.326 439.419 457.089 433.425C456.423 430.14 455.923 426.824 455.591 423.489C454.752 414.871 455.273 406.173 457.136 397.716C460.852 380.858 469.919 365.376 484.22 356.11C484.586 355.873 484.946 355.643 485.32 355.412Z" fill="var(--fill-0, #E6E6E6)"/>
<path id="Vector_47" d="M485.67 355.835C475.183 374.728 470.916 396.446 473.475 417.902C473.944 422.531 475.14 427.057 477.018 431.314C478.982 435.401 482.004 438.888 485.771 441.412C489.236 443.836 493.061 445.915 495.877 449.139C497.294 450.811 498.341 452.763 498.95 454.868C499.559 456.973 499.717 459.183 499.412 461.353C498.793 466.78 496.261 471.661 493.62 476.348C490.686 481.552 487.557 486.911 487.189 493.016C487.144 493.756 485.999 493.643 486.044 492.904C486.684 482.283 495.084 474.437 497.673 464.416C498.881 459.74 498.687 454.672 495.67 450.705C493.032 447.236 489.089 445.089 485.56 442.665C481.849 440.257 478.784 436.976 476.633 433.11C474.544 428.963 473.176 424.49 472.588 419.884C471.098 409.535 471.244 399.016 473.021 388.713C474.985 376.943 478.947 365.595 484.737 355.16C485.096 354.515 486.026 355.193 485.67 355.835Z" fill="var(--fill-0, white)"/>
<path id="Vector_48" d="M472.245 411.042C468.587 410.982 465.069 409.625 462.319 407.211C459.569 404.797 457.767 401.484 457.235 397.865C457.13 397.132 458.263 396.934 458.369 397.668C458.859 401.039 460.537 404.125 463.102 406.367C465.667 408.61 468.949 409.861 472.356 409.896C473.097 409.905 472.981 411.05 472.245 411.042Z" fill="var(--fill-0, white)"/>
<path id="Vector_49" d="M483.852 440.415C489.272 435.261 492.551 428.254 493.034 420.79C493.081 420.051 494.226 420.163 494.179 420.901C493.662 428.667 490.235 435.952 484.583 441.303C484.044 441.813 483.316 440.921 483.852 440.415Z" fill="var(--fill-0, white)"/>
<path id="Vector_50" d="M476.266 377.771C477.677 378.089 479.144 378.051 480.537 377.662C481.929 377.272 483.204 376.543 484.245 375.54C484.777 375.023 485.505 375.915 484.976 376.428C483.82 377.532 482.412 378.335 480.874 378.769C479.337 379.203 477.716 379.253 476.155 378.916C476.005 378.897 475.868 378.821 475.772 378.704C475.676 378.587 475.628 378.439 475.638 378.288C475.653 378.136 475.728 377.997 475.846 377.9C475.963 377.803 476.114 377.757 476.266 377.771Z" fill="var(--fill-0, white)"/>
<path id="Vector_51" d="M48.4012 495.303C45.1917 495.303 41.9756 495.435 38.8349 495.702L38.3778 495.741C17.5451 497.582 2.30703 508.267 2.93373 520.594L3.05488 522.823C3.13477 524.232 3.21991 525.747 3.28998 527.428C3.32793 528.256 4.45891 528.893 5.86622 528.893H518.299C554.428 528.673 590.426 528.397 625.287 528.072C631.825 528.086 638.359 527.747 644.861 527.058C654.549 525.911 661.273 523.638 665.42 520.109H665.421C670.578 515.733 670.74 510.222 670.428 503.996C669.793 491.424 669.163 478.217 668.534 465.05C667.979 453.446 667.426 441.872 666.874 430.792C666.532 424.216 665.772 418.412 659.916 413.976C653.569 409.179 641.994 406.747 625.511 406.747C625.312 406.747 625.114 406.747 624.912 406.748C573.257 406.932 522.073 424.694 497.551 450.946C494.727 453.969 492.096 457.205 489.551 460.336C485.791 464.96 481.904 469.741 477.265 474.017C474.753 476.363 472.037 478.48 469.148 480.343C468.949 480.481 468.721 480.628 468.48 480.768C467.929 481.128 467.353 481.474 466.791 481.783C463.501 483.683 460.034 485.259 456.44 486.489L456.077 486.61C455.804 486.708 455.508 486.805 455.212 486.895C453.136 487.561 450.98 488.137 448.819 488.603C439.472 490.664 428.842 491.157 417.228 490.07C406.563 489.044 396.034 486.899 385.818 483.669C375.063 480.27 364.996 476.032 355.261 471.934C350.985 470.134 346.562 468.272 342.145 466.508C341.314 466.176 340.498 465.852 339.669 465.527C334.274 463.425 329.383 461.688 324.716 460.219C313.155 456.563 301.187 454.347 289.083 453.619C276.236 452.915 264.915 454.242 255.441 457.553C252.83 458.462 250.287 459.558 247.832 460.831C236.611 466.658 229.694 475.258 223.005 483.574C214.684 493.919 206.08 504.616 189.09 510.162C169.485 516.567 140.869 513.906 120.623 509.278C114.258 507.823 107.9 506.15 101.752 504.53C99.2686 503.876 96.7836 503.226 94.2969 502.581C89.4103 501.32 85.411 500.353 81.711 499.537L80.5407 499.277C79.8898 499.135 79.2382 498.994 78.5748 498.859C74.18 497.936 70.0877 497.21 66.0577 496.639L65.1042 496.5C63.1927 496.248 61.4055 496.039 59.6518 495.863L58.9518 495.793C55.517 495.466 51.9623 495.303 48.4012 495.303Z" fill="var(--fill-0, #F9F9D7)"/>
<path id="Vector_52" d="M183.767 176.752C182.149 175.61 180.379 174.419 178.399 174.467C173.607 174.582 171.024 181.607 166.237 181.36C163.185 181.202 161.158 178.101 158.316 176.977C154.616 175.513 149.907 178.376 149.503 182.334L149.978 181.899C164.362 185.406 179.289 186.096 193.935 183.93C190.546 181.538 187.156 179.145 183.767 176.752Z" fill="var(--fill-0, #92DBDA)"/>
<path id="Vector_53" d="M137.6 282.857C135.982 281.715 134.212 280.524 132.233 280.572C127.441 280.687 124.858 287.711 120.071 287.464C117.018 287.307 114.992 284.206 112.15 283.081C108.449 281.618 103.74 284.481 103.336 288.439L103.812 288.004C118.196 291.511 133.123 292.201 147.769 290.035C144.379 287.642 140.99 285.25 137.6 282.857Z" fill="var(--fill-0, #2F2E41)"/>
<path id="Vector_54" d="M170.6 282.857C168.982 281.715 167.212 280.524 165.233 280.572C160.441 280.687 157.858 287.711 153.071 287.464C150.018 287.307 147.992 284.206 145.15 283.081C141.449 281.618 136.74 284.481 136.336 288.439L136.812 288.004C151.196 291.511 166.123 292.201 180.769 290.035C177.379 287.642 173.99 285.25 170.6 282.857Z" fill="var(--fill-0, #92DBDA)"/>
<path id="Vector_55" d="M496.283 82.8793C492.22 77.3458 487.774 71.5756 482.802 71.8063C470.768 72.3646 464.279 106.4 452.257 105.203C444.59 104.439 439.501 89.4139 432.362 83.9657C423.068 76.8731 411.241 90.7445 410.227 109.926L411.421 107.819C447.432 124.799 485.154 128.161 521.823 117.658C513.31 106.065 504.796 94.4723 496.283 82.8793Z" fill="var(--fill-0, #92DBDA)"/>
<path id="Vector_56" d="M112.118 135.707C131.366 135.707 146.97 120.103 146.97 100.855C146.97 81.6068 131.366 66.003 112.118 66.003C92.8698 66.003 77.266 81.6068 77.266 100.855C77.266 120.103 92.8698 135.707 112.118 135.707Z" fill="var(--fill-0, #F26F37)"/>
<path id="Vector_57" d="M287.927 45.0918C294.343 45.0918 299.544 39.8906 299.544 33.4745C299.544 27.0584 294.343 21.8572 287.927 21.8572C281.511 21.8572 276.31 27.0584 276.31 33.4745C276.31 39.8906 281.511 45.0918 287.927 45.0918Z" fill="var(--fill-0, #2F2E41)"/>
<path id="Vector_58" d="M306.515 89.2377C322.769 89.2377 335.945 76.0612 335.945 59.8071C335.945 43.5531 322.769 30.3766 306.515 30.3766C290.261 30.3766 277.084 43.5531 277.084 59.8071C277.084 76.0612 290.261 89.2377 306.515 89.2377Z" fill="var(--fill-0, #2F2E41)"/>
<path id="Vector_59" d="M291.364 503.911H305.212L311.803 450.496H291.364V503.911Z" fill="var(--fill-0, #9E616A)"/>
<path id="Vector_60" d="M286.845 494.426L308.969 493.106V502.585L330.003 517.112C331.042 517.829 331.825 518.86 332.237 520.054C332.648 521.247 332.668 522.541 332.292 523.746C331.916 524.952 331.165 526.006 330.148 526.754C329.131 527.502 327.902 527.906 326.639 527.905H300.299L295.759 518.529L293.986 527.905H284.055L286.845 494.426Z" fill="var(--fill-0, #2F2E41)"/>
<path id="Vector_61" d="M209.09 486.435L220.203 494.698L257.365 455.767L240.964 443.571L209.09 486.435Z" fill="var(--fill-0, #9E616A)"/>
<path id="Vector_62" d="M211.123 476.126L229.665 488.269L224.009 495.875L232.219 520.084C232.625 521.28 232.638 522.574 232.256 523.777C231.874 524.981 231.118 526.031 230.097 526.774C229.076 527.517 227.844 527.914 226.582 527.908C225.319 527.901 224.092 527.491 223.079 526.738L201.942 511.02L203.894 500.787L196.876 507.253L188.907 501.327L211.123 476.126Z" fill="var(--fill-0, #2F2E41)"/>
<path id="Vector_63" d="M336.72 208.509H284.054V258.076H336.72V208.509Z" fill="var(--fill-0, #9E616A)"/>
<path id="Vector_64" d="M275.241 228.316C275.241 228.316 248.966 251.017 261.089 315.731L275.889 379.14L227.621 459.217L243.011 477.94L305.761 391.266L328.5 337.928L340.528 244.447L275.241 228.316Z" fill="var(--fill-0, #2F2E41)"/>
<path id="Vector_65" d="M315.968 353.128L317.548 377.603L312.711 481.903L289.953 477.94L285.604 403.68L315.968 353.128Z" fill="var(--fill-0, #2F2E41)"/>
<path id="Vector_66" d="M323.029 97.3834L297.618 98.3748L287.49 115.186L264.384 119.696L278.178 189.478L264.555 240.122L313.506 261.544L324.4 228.899L338.876 268.476L362.119 243.202L342.989 194.414L352.885 155.927L350.661 115.57L332.073 113.247L323.029 97.3834Z" fill="var(--fill-0, #2F2E41)"/>
<path id="Vector_67" d="M308.95 89.2303C322.159 89.2303 332.866 78.5229 332.866 65.3147C332.866 52.1064 322.159 41.399 308.95 41.399C295.742 41.399 285.035 52.1064 285.035 65.3147C285.035 78.5229 295.742 89.2303 308.95 89.2303Z" fill="var(--fill-0, #9E616A)"/>
<path id="Vector_68" d="M325.192 40.936C321.001 38.3812 316.201 36.9992 311.293 36.9345C306.385 36.8698 301.55 38.1248 297.294 40.5683C293.037 43.0117 289.515 46.5539 287.096 50.8245C284.677 55.095 283.449 59.9371 283.542 64.8443C295.728 67.9039 308.531 70.2454 321.526 65.5761L324.596 58.0649L326.405 65.5817C330.363 67.1993 334.33 68.568 338.298 65.5661C338.46 60.6727 337.335 55.8225 335.035 51.5002C332.735 47.178 329.341 43.5353 325.192 40.936Z" fill="var(--fill-0, #2F2E41)"/>
<path id="Vector_69" d="M277.111 1.93784C269.077 -1.74557 258.998 -0.0171993 252.309 5.75857C245.62 11.5343 242.44 20.9345 243.731 29.6772C245.049 38.5961 250.471 46.2764 255.469 53.7798C260.466 61.2833 265.349 69.5054 265.344 78.521C265.34 85.0145 262.761 91.2414 258.172 95.8362C253.584 100.431 247.36 103.018 240.867 103.031C248.488 106.312 256.443 109.658 264.731 109.269C273.019 108.88 281.707 103.551 283.059 95.3649C284.033 89.4662 281.139 83.7142 278.725 78.2444C274.794 69.3317 271.952 59.9772 270.261 50.3837C269.455 45.8049 268.93 40.9913 270.423 36.5883C271.612 33.3255 273.818 30.531 276.715 28.617C279.613 26.703 283.048 25.7708 286.516 25.9577L289.255 23.4939C290.473 14.7407 285.144 5.6212 277.111 1.93784Z" fill="var(--fill-0, #2F2E41)"/>
<path id="Vector_70" d="M666.436 528.718H0.922318C0.678205 528.717 0.444338 528.62 0.271974 528.447C0.0996107 528.274 0.00281322 528.04 0.00281322 527.796C0.00281322 527.552 0.0996107 527.317 0.271974 527.145C0.444338 526.972 0.678205 526.874 0.922318 526.874H666.436C666.68 526.874 666.914 526.972 667.086 527.145C667.258 527.317 667.355 527.552 667.355 527.796C667.355 528.04 667.258 528.274 667.086 528.447C666.914 528.62 666.68 528.717 666.436 528.718Z" fill="var(--fill-0, #5379F4)"/>
<path id="Vector_71" d="M265.394 272.792H242.536C242.021 272.79 241.511 272.902 241.043 273.118C240.575 273.335 240.16 273.651 239.827 274.044C238.984 273.889 238.116 273.936 237.295 274.182C236.473 274.427 235.722 274.864 235.102 275.456C234.483 276.048 234.012 276.779 233.729 277.588C233.447 278.398 233.36 279.262 233.477 280.112C233.593 280.961 233.909 281.77 234.399 282.474C234.889 283.177 235.539 283.754 236.295 284.158C237.051 284.561 237.893 284.78 238.75 284.795C239.607 284.811 240.455 284.623 241.225 284.247L243.896 306.671C244.12 307.401 244.573 308.04 245.187 308.494C245.802 308.948 246.546 309.193 247.309 309.192H262.17C262.934 309.192 263.678 308.948 264.292 308.494C264.906 308.04 265.359 307.401 265.584 306.671L268.807 277.413C268.972 276.879 269.008 276.314 268.915 275.763C268.821 275.212 268.599 274.691 268.267 274.241C267.935 273.792 267.502 273.426 267.003 273.175C266.504 272.923 265.953 272.792 265.394 272.792ZM238.863 283.247C237.836 283.247 236.851 282.839 236.124 282.113C235.398 281.387 234.99 280.402 234.99 279.375C234.99 278.348 235.398 277.363 236.124 276.636C236.851 275.91 237.836 275.502 238.863 275.502C238.933 275.502 238.999 275.519 239.069 275.523C238.915 276.146 238.934 276.8 239.123 277.413L240.759 282.73C240.183 283.065 239.529 283.243 238.863 283.247Z" fill="var(--fill-0, #5379F4)"/>
<path id="Vector_72" d="M246.398 309.213C247.336 308.27 248.056 307.133 248.507 305.882C248.958 304.631 249.129 303.296 249.009 301.972C248.888 300.648 248.478 299.366 247.809 298.217C247.139 297.068 246.226 296.08 245.133 295.322L259.616 223.384L243.622 228.519L232.029 298.101C230.878 300.021 230.471 302.297 230.885 304.497C231.3 306.698 232.507 308.669 234.278 310.039C236.049 311.409 238.261 312.081 240.495 311.929C242.729 311.777 244.829 310.81 246.398 309.213Z" fill="var(--fill-0, #9E616A)"/>
<path id="Vector_73" d="M274.308 127.187L264.384 119.696C264.384 119.696 255.63 119.076 254.079 134.863C252.529 150.651 242.821 211.241 242.821 211.241L227.636 281.572L248.657 286.186L264.921 210.286L281.202 157.923L274.308 127.187Z" fill="var(--fill-0, #2F2E41)"/>
<path id="Vector_74" d="M359.954 192.672C363.057 192.672 365.572 190.157 365.572 187.055C365.572 183.953 363.057 181.438 359.954 181.438C356.852 181.438 354.337 183.953 354.337 187.055C354.337 190.157 356.852 192.672 359.954 192.672Z" fill="var(--fill-0, #F26F37)"/>
</g>
<defs>
<clipPath id="clip0_0_90">
<rect width="670.524" height="528.892" fill="white"/>
</clipPath>
</defs>
</svg>
