<svg preserveAspectRatio="none" width="100%" height="100%" overflow="visible" style="display: block;" viewBox="0 0 800.313 644.708" fill="none" xmlns="http://www.w3.org/2000/svg">
<g id="Group">
<g id="Group_2">
<path id="Vector" d="M41.761 239.33C30.6853 239.33 20.0632 243.73 12.2315 251.561C4.3998 259.393 0 270.015 0 281.091C0 292.167 4.3998 302.789 12.2315 310.62C20.0632 318.452 30.6853 322.852 41.761 322.852H352.982C364.058 322.852 374.68 318.452 382.512 310.62C390.343 302.789 394.743 292.167 394.743 281.091C394.743 270.015 390.343 259.393 382.512 251.561C374.68 243.73 364.058 239.33 352.982 239.33H41.761Z" fill="var(--fill-0, #E5E5E5)"/>
<path id="Vector_2" d="M41.761 247.781C32.9268 247.781 24.4544 251.29 18.2077 257.537C11.9609 263.784 8.4515 272.256 8.4515 281.09C8.4515 289.925 11.9609 298.397 18.2077 304.644C24.4544 310.891 32.9268 314.4 41.761 314.4H352.98C361.814 314.4 370.287 310.891 376.533 304.644C382.78 298.397 386.29 289.925 386.29 281.09C386.29 272.256 382.78 263.784 376.533 257.537C370.287 251.29 361.814 247.781 352.98 247.781H41.761Z" fill="var(--fill-0, white)"/>
<path id="Vector_3" d="M110.505 301.008H48.584C48.3849 301.013 48.1868 300.978 48.0013 300.906C47.8159 300.833 47.6468 300.724 47.5041 300.585C47.3615 300.446 47.2481 300.28 47.1707 300.096C47.0933 299.913 47.0534 299.716 47.0534 299.516C47.0534 299.317 47.0933 299.12 47.1707 298.937C47.2481 298.753 47.3615 298.587 47.5041 298.448C47.6468 298.309 47.8159 298.2 48.0013 298.127C48.1868 298.055 48.3849 298.02 48.584 298.025H110.505C110.894 298.035 111.263 298.197 111.535 298.475C111.806 298.754 111.958 299.127 111.958 299.516C111.958 299.905 111.806 300.279 111.535 300.558C111.263 300.836 110.894 300.998 110.505 301.008Z" fill="var(--fill-0, #5379F4)"/>
<path id="Vector_4" d="M189.056 301.505H127.135C126.739 301.505 126.36 301.348 126.08 301.068C125.801 300.788 125.644 300.409 125.644 300.013C125.644 299.618 125.801 299.239 126.08 298.959C126.36 298.679 126.739 298.522 127.135 298.522H189.056C189.452 298.522 189.831 298.679 190.111 298.959C190.39 299.239 190.548 299.618 190.548 300.013C190.548 300.409 190.39 300.788 190.111 301.068C189.831 301.348 189.452 301.505 189.056 301.505Z" fill="var(--fill-0, #5379F4)"/>
<path id="Vector_5" d="M267.607 302.003H205.686C205.297 301.993 204.928 301.831 204.656 301.553C204.385 301.274 204.233 300.9 204.233 300.511C204.233 300.122 204.385 299.749 204.656 299.47C204.928 299.192 205.297 299.03 205.686 299.02H267.607C268.003 299.02 268.382 299.177 268.662 299.457C268.941 299.737 269.099 300.116 269.099 300.511C269.099 300.907 268.941 301.286 268.662 301.566C268.382 301.846 268.003 302.003 267.607 302.003Z" fill="var(--fill-0, #5379F4)"/>
<path id="Vector_6" d="M346.157 302.5H284.236C283.84 302.5 283.461 302.343 283.181 302.063C282.902 301.783 282.745 301.404 282.745 301.008C282.745 300.613 282.902 300.234 283.181 299.954C283.461 299.674 283.84 299.517 284.236 299.517H346.157C346.546 299.527 346.915 299.689 347.187 299.967C347.458 300.246 347.61 300.619 347.61 301.008C347.61 301.397 347.458 301.771 347.187 302.05C346.915 302.328 346.546 302.49 346.157 302.5Z" fill="var(--fill-0, #5379F4)"/>
<path id="Vector_7" d="M79.409 287.282C85.7653 287.282 90.918 282.129 90.918 275.773C90.918 269.417 85.7653 264.264 79.409 264.264C73.0528 264.264 67.9 269.417 67.9 275.773C67.9 282.129 73.0528 287.282 79.409 287.282Z" fill="var(--fill-0, #5379F4)"/>
<path id="Vector_8" d="M158.435 287.282C164.791 287.282 169.944 282.129 169.944 275.773C169.944 269.417 164.791 264.264 158.435 264.264C152.079 264.264 146.926 269.417 146.926 275.773C146.926 282.129 152.079 287.282 158.435 287.282Z" fill="var(--fill-0, #5379F4)"/>
<path id="Vector_9" d="M237.46 287.282C243.816 287.282 248.969 282.129 248.969 275.773C248.969 269.417 243.816 264.264 237.46 264.264C231.104 264.264 225.951 269.417 225.951 275.773C225.951 282.129 231.104 287.282 237.46 287.282Z" fill="var(--fill-0, #5379F4)"/>
<path id="Vector_10" d="M316.485 287.282C322.841 287.282 327.994 282.129 327.994 275.773C327.994 269.417 322.841 264.264 316.485 264.264C310.129 264.264 304.976 269.417 304.976 275.773C304.976 282.129 310.129 287.282 316.485 287.282Z" fill="var(--fill-0, #5379F4)"/>
</g>
<g id="Group_3">
<path id="Vector_11" d="M358.74 602.14C357.568 602.14 356.404 601.934 355.303 601.532L280.651 574.4C278.581 573.648 276.815 572.238 275.622 570.387C274.429 568.536 273.876 566.345 274.047 564.149C274.218 561.953 275.103 559.874 276.568 558.23C278.032 556.585 279.996 555.466 282.157 555.043L488.332 514.68C490 514.354 491.724 514.455 493.343 514.972L550.949 533.431C553.029 534.097 554.835 535.421 556.098 537.203C557.36 538.985 558.009 541.129 557.947 543.312C557.886 545.494 557.117 547.598 555.756 549.306C554.395 551.014 552.517 552.234 550.403 552.782L361.272 601.818C360.445 602.033 359.594 602.14 358.74 602.14Z" fill="var(--fill-0, #090814)"/>
<path id="Vector_12" d="M509.729 507.236L618.004 520.248L598.264 558.317L502.803 544.461C494.943 550.036 484.019 552.517 472.661 550.405C452.79 546.705 439.161 530.38 442.222 513.931C445.283 497.482 463.873 487.154 483.744 490.854C495.101 492.961 504.4 499.208 509.729 507.236Z" fill="var(--fill-0, #ED9DA0)"/>
<path id="Vector_13" d="M660.072 201.725C655.913 186.35 647.574 172.428 635.981 161.506C624.388 150.584 609.995 143.088 594.4 139.852C578.804 136.615 562.617 137.764 547.635 143.171C532.653 148.578 519.463 158.032 509.529 170.482C499.596 182.932 493.307 197.892 491.361 213.701C489.416 229.509 491.889 245.547 498.508 260.035C505.126 274.522 515.631 286.892 528.854 295.77C542.078 304.649 557.503 309.688 573.418 310.33L618.225 412.268L681.741 321.788C681.741 321.788 657.933 304.016 641.56 281.146C650.971 270.47 657.587 257.627 660.818 243.767C664.049 229.907 663.792 215.462 660.072 201.725Z" fill="var(--fill-0, #ED9DA0)"/>
<path id="Vector_14" d="M747.235 379.674C741.549 365.659 731.838 353.643 719.328 345.144C706.817 336.645 692.069 332.043 676.945 331.921C637.928 331.545 588.264 341.748 586.217 395.671C582.827 484.954 586.217 449.017 586.217 449.017C586.217 449.017 559.282 516.085 586.217 548.434C613.152 580.783 636.638 644.546 636.638 644.546H800.313C800.313 644.546 772.057 569.87 776.913 518.923C780.207 484.34 764.497 422.37 747.236 379.678L747.235 379.674Z" fill="var(--fill-0, #F26F37)"/>
<path id="Vector_15" d="M794.06 366.486C789.576 374.57 776.627 374.112 770.237 367.431C763.847 360.75 762.78 350.564 763.783 341.375C764.786 332.186 767.493 323.149 767.307 313.908C766.951 296.272 789.953 325.093 778.138 311.996C766.323 298.899 752.813 286.868 744.738 271.185L743.763 270.185C747.212 258.793 738.847 247.156 729.431 239.879C720.015 232.602 708.726 227.044 702.298 217.025C696.828 208.504 695.723 198.025 693.329 188.182C684.054 150.061 651.991 118.44 613.746 109.694C575.501 100.948 532.88 115.494 507.959 145.794L508.559 144.538C500.459 146.297 493.001 150.254 487.003 155.975C481.005 161.695 476.699 168.958 474.559 176.966C473.39 181.605 473.001 186.593 474.559 191.118C476.117 195.643 479.907 199.594 484.633 200.343C489.701 201.143 494.772 198.165 497.895 194.092C501.018 190.019 502.575 184.992 504.074 180.087C507.027 190.421 512.675 199.783 520.437 207.216C528.2 214.649 537.799 219.885 548.251 222.387C547.885 225.21 548.288 228.079 549.418 230.692C550.547 233.305 552.362 235.564 554.669 237.231C556.976 238.898 559.691 239.911 562.527 240.163C565.362 240.415 568.213 239.896 570.778 238.662L571.978 237.518L589.678 238.318C584.922 244.799 581.533 252.18 579.718 260.012C577.902 267.843 577.697 275.962 579.116 283.875C580.535 291.788 583.548 299.33 587.971 306.043C592.395 312.756 598.136 318.5 604.848 322.925C615.536 329.971 628.159 333.359 640.562 336.525C652.965 339.691 656.628 361.898 672.941 381.185C672.077 403.101 688.341 424.485 709.697 429.496L703.835 449.172C715.712 444.948 728.715 448.795 741.255 450.072C753.795 451.349 769 448.307 773.819 436.66C778.943 424.275 769.16 411.144 760.059 401.305C778.587 403.153 796.349 384.963 794.065 366.486H794.06Z" fill="var(--fill-0, #090814)"/>
<path id="Vector_16" d="M471.92 568.121L577.357 595.972L552.545 630.946L459.915 604.026C451.36 608.461 440.197 609.41 429.241 605.747C410.071 599.338 398.831 581.281 404.135 565.416C409.439 549.551 429.28 541.889 448.453 548.298C459.409 551.961 467.753 559.434 471.923 568.122L471.92 568.121Z" fill="var(--fill-0, #ED9DA0)"/>
<path id="Vector_17" d="M681.741 449.018C681.741 449.018 677.141 651.288 611.178 644.543C545.215 637.798 523.386 629.306 523.386 629.306C523.386 629.306 510.042 578.362 533.086 577.146C556.13 575.93 586.211 570.259 586.211 570.259V423.559" fill="var(--fill-0, #F26F37)"/>
</g>
<path id="Vector_18" d="M490.206 88.217C485.906 90.017 481.406 88.045 479.526 83.533C477.613 78.953 479.4 74.303 483.773 72.477C488.146 70.651 492.559 72.625 494.502 77.277C496.417 81.864 494.646 86.361 490.206 88.217ZM481.96 63.461L478.537 64.89C477.682 65.243 476.725 65.2621 475.857 64.9436C474.988 64.6251 474.271 63.9921 473.847 63.17L473.678 62.839C469.995 56.197 469.578 48.125 472.431 38.859C475.078 30.547 476.178 24.701 473.967 19.405C471.41 13.282 465.951 11.364 458.988 14.142C456.288 15.27 455.428 15.252 453.303 17.36C452.841 17.824 452.29 18.1902 451.683 18.4367C451.076 18.6833 450.426 18.8051 449.771 18.795C449.138 18.7875 448.513 18.6526 447.933 18.3983C447.353 18.144 446.83 17.7756 446.396 17.315C445.559 16.4272 445.09 15.255 445.084 14.035C445.078 12.815 445.535 11.6381 446.363 10.742C449.935 7.00316 454.243 4.04526 459.015 2.05497C473.974 -4.19103 481.504 5.03098 484.95 13.283C488.321 21.355 486.425 28.845 483.378 38.544C480.825 46.604 480.978 52.576 483.878 58.514C484.087 58.9629 484.204 59.4496 484.221 59.9447C484.237 60.4398 484.153 60.9331 483.975 61.3951C483.796 61.8571 483.525 62.2781 483.18 62.6329C482.834 62.9878 482.42 63.2691 481.963 63.46L481.96 63.461Z" fill="var(--fill-0, #5379F4)"/>
</g>
</svg>
