<svg preserveAspectRatio="none" width="100%" height="100%" overflow="visible" style="display: block;" viewBox="0 0 782.498 529.182" fill="none" xmlns="http://www.w3.org/2000/svg">
<g id="undraw_team-spirit_18vw 1" clip-path="url(#clip0_0_63)">
<path id="Vector" d="M52.6603 398.767C48.9446 398.767 45.2212 398.921 41.5851 399.23L41.056 399.274C16.9376 401.407 -0.703928 413.776 0.0216164 428.048L0.161881 430.628C0.254378 432.259 0.352931 434.013 0.43405 435.959C0.477986 436.919 1.78737 437.655 3.41664 437.655H596.671C638.498 437.401 680.174 437.081 720.533 436.705C728.103 436.721 735.667 436.329 743.195 435.531C754.411 434.203 762.195 431.572 766.996 427.486H766.998C772.967 422.42 773.155 416.04 772.794 408.832C772.059 394.277 771.33 378.987 770.602 363.743C769.959 350.309 769.319 336.91 768.679 324.082C768.283 316.469 767.404 309.749 760.625 304.614C753.276 299.06 739.875 296.245 720.793 296.245C720.562 296.245 720.333 296.245 720.1 296.246C660.296 296.458 601.041 317.022 572.651 347.415C569.382 350.914 566.335 354.661 563.389 358.285C559.036 363.639 554.536 369.174 549.165 374.124C546.257 376.84 543.112 379.291 539.768 381.448C539.538 381.608 539.274 381.778 538.995 381.94C538.356 382.356 537.689 382.757 537.039 383.115C533.23 385.314 529.217 387.139 525.055 388.563L524.635 388.704C524.319 388.817 523.977 388.93 523.634 389.033C521.231 389.805 518.734 390.472 516.233 391.011C505.411 393.396 493.105 393.968 479.659 392.709C467.311 391.522 455.123 389.038 443.295 385.299C430.843 381.364 419.189 376.457 407.918 371.713C402.968 369.628 397.847 367.473 392.733 365.431C391.772 365.047 390.827 364.671 389.867 364.296C383.621 361.861 377.958 359.851 372.556 358.15C359.171 353.918 345.316 351.352 331.303 350.509C316.43 349.695 303.323 351.231 292.355 355.063C289.332 356.116 286.387 357.385 283.545 358.859C270.555 365.605 262.547 375.561 254.803 385.189C245.17 397.165 235.209 409.55 215.539 415.97C192.842 423.385 159.712 420.304 136.273 414.947C128.904 413.263 121.544 411.325 114.426 409.45C111.551 408.693 108.674 407.941 105.795 407.194C100.137 405.733 95.5073 404.614 91.2238 403.669L89.8689 403.368C89.1153 403.204 88.361 403.04 87.5929 402.885C82.505 401.816 77.7673 400.976 73.1016 400.315L71.9977 400.154C69.7847 399.862 67.7157 399.619 65.6853 399.415L64.8749 399.335C60.8984 398.957 56.7831 398.767 52.6603 398.767Z" fill="var(--fill-0, #F9F9D2)"/>
<path id="Vector_2" d="M666.119 414.696C682.812 399.653 707.642 392.089 728.469 400.524C707.105 412.386 690.625 431.422 681.944 454.264C678.629 463.086 675.859 473.243 667.704 477.966C662.629 480.904 656.316 481.048 650.627 479.629C644.937 478.211 639.722 475.367 634.578 472.551L633.114 472.518C639.685 451.029 649.426 429.738 666.119 414.696Z" fill="var(--fill-0, #5379F4)"/>
<path id="Vector_3" d="M728.353 400.981C709.907 403.365 692.681 411.5 679.122 424.231C676.154 426.92 673.629 430.06 671.639 433.536C669.81 436.984 668.938 440.859 669.113 444.758C669.203 448.397 669.717 452.108 668.921 455.706C668.486 457.541 667.668 459.264 666.521 460.761C665.374 462.258 663.923 463.496 662.264 464.393C658.188 466.736 653.513 467.474 648.916 468.038C643.813 468.663 638.502 469.232 634.084 472.095C633.548 472.442 633.041 471.591 633.576 471.245C641.262 466.264 650.988 468.076 659.253 464.752C663.11 463.201 666.522 460.479 667.73 456.362C668.786 452.763 668.26 448.935 668.137 445.251C667.91 441.45 668.618 437.651 670.198 434.186C672.005 430.621 674.405 427.389 677.296 424.629C683.705 418.311 691.068 413.04 699.114 409.009C708.272 404.358 718.158 401.308 728.344 399.991C728.975 399.909 728.98 400.9 728.353 400.981Z" fill="var(--fill-0, white)"/>
<path id="Vector_4" d="M683.247 419.875C681.42 417.31 680.564 414.179 680.832 411.041C681.1 407.904 682.475 404.963 684.71 402.746C685.164 402.298 685.881 402.983 685.426 403.431C683.34 405.492 682.06 408.231 681.816 411.153C681.572 414.076 682.381 416.989 684.097 419.367C684.469 419.885 683.617 420.389 683.247 419.875Z" fill="var(--fill-0, white)"/>
<path id="Vector_5" d="M668.824 442.918C675.163 444.042 681.692 442.734 687.11 439.257C687.646 438.912 688.154 439.763 687.618 440.107C681.973 443.715 675.176 445.062 668.582 443.879C667.953 443.766 668.199 442.806 668.824 442.918Z" fill="var(--fill-0, white)"/>
<path id="Vector_6" d="M708.352 405.669C708.852 406.809 709.628 407.806 710.609 408.572C711.59 409.338 712.746 409.849 713.973 410.058C714.602 410.163 714.356 411.122 713.73 411.018C712.376 410.781 711.1 410.216 710.014 409.372C708.928 408.528 708.066 407.431 707.502 406.177C707.439 406.063 707.421 405.93 707.453 405.803C707.485 405.677 707.564 405.568 707.673 405.498C707.786 405.431 707.921 405.412 708.048 405.444C708.175 405.476 708.284 405.557 708.352 405.669Z" fill="var(--fill-0, white)"/>
<path id="Vector_7" d="M751.404 473.067C751.009 473.012 750.614 472.958 750.214 472.909C744.9 472.204 739.538 471.932 734.18 472.095C733.765 472.101 733.345 472.113 732.932 472.131C720.028 472.662 707.334 475.583 695.497 480.748C690.789 482.807 686.243 485.222 681.901 487.971C675.905 491.767 669.705 496.361 663.002 497.91C662.304 498.079 661.597 498.205 660.884 498.287L633.188 474.306C633.152 474.22 633.111 474.14 633.075 474.053L631.925 473.146C632.139 472.989 632.365 472.83 632.579 472.673C632.703 472.581 632.833 472.495 632.956 472.403C633.041 472.343 633.126 472.284 633.198 472.225C633.226 472.206 633.255 472.186 633.277 472.172C633.35 472.114 633.424 472.067 633.491 472.015C634.749 471.124 636.015 470.241 637.289 469.366C637.294 469.359 637.294 469.359 637.306 469.358C646.952 462.592 657.366 456.994 668.331 452.681C668.66 452.557 668.994 452.426 669.335 452.313C674.273 450.477 679.353 449.047 684.524 448.039C687.357 447.496 690.216 447.097 693.089 446.843C700.515 446.201 707.996 446.731 715.257 448.413C729.732 451.77 742.972 459.718 750.814 472.114C751.015 472.431 751.209 472.743 751.404 473.067Z" fill="var(--fill-0, #5379F4)"/>
<path id="Vector_8" d="M751.038 473.364C734.874 464.162 716.222 460.286 697.731 462.288C693.742 462.648 689.836 463.635 686.154 465.211C682.618 466.863 679.589 469.432 677.381 472.651C675.262 475.61 673.437 478.883 670.636 481.276C669.184 482.48 667.494 483.363 665.676 483.868C663.859 484.372 661.955 484.487 660.09 484.205C655.425 483.621 651.248 481.396 647.239 479.079C642.787 476.506 638.204 473.762 632.953 473.388C632.317 473.343 632.424 472.358 633.06 472.403C642.195 473.054 648.87 480.357 657.47 482.679C661.483 483.763 665.847 483.643 669.29 481.084C672.3 478.846 674.185 475.472 676.304 472.457C678.412 469.286 681.264 466.678 684.612 464.863C688.201 463.104 692.063 461.969 696.033 461.505C704.954 460.32 714.006 460.544 722.858 462.17C732.97 463.97 742.7 467.487 751.627 472.568C752.179 472.883 751.586 473.677 751.038 473.364Z" fill="var(--fill-0, white)"/>
<path id="Vector_9" d="M703.647 461.293C703.732 458.145 704.934 455.13 707.037 452.786C709.14 450.442 712.008 448.922 715.128 448.497C715.76 448.414 715.92 449.391 715.287 449.475C712.381 449.865 709.71 451.281 707.756 453.468C705.801 455.655 704.693 458.468 704.631 461.4C704.617 462.037 703.633 461.926 703.647 461.293Z" fill="var(--fill-0, white)"/>
<path id="Vector_10" d="M678.257 471.008C682.643 475.722 688.643 478.609 695.062 479.094C695.698 479.142 695.591 480.127 694.956 480.079C688.277 479.561 682.038 476.544 677.486 471.629C677.052 471.161 677.826 470.542 678.257 471.008Z" fill="var(--fill-0, white)"/>
<path id="Vector_11" d="M732.245 465.065C731.958 466.276 731.977 467.54 732.299 468.742C732.621 469.944 733.237 471.048 734.091 471.953C734.53 472.416 733.755 473.034 733.319 472.574C732.38 471.569 731.702 470.35 731.343 469.022C730.984 467.695 730.956 466.299 731.26 464.958C731.278 464.83 731.345 464.713 731.446 464.631C731.548 464.55 731.676 464.51 731.806 464.519C731.936 464.534 732.055 464.6 732.138 464.702C732.22 464.804 732.258 464.935 732.245 465.065Z" fill="var(--fill-0, white)"/>
<path id="Vector_12" d="M229.131 429.656C242.8 408.924 267.251 393.927 291.873 397.154C272.323 415.783 259.993 440.728 257.064 467.574C255.972 477.931 255.836 489.565 248.427 496.885C243.817 501.439 237.105 503.349 230.625 503.415C224.145 503.48 217.776 501.89 211.491 500.309L209.917 500.681C210.966 475.87 215.462 450.389 229.131 429.656Z" fill="var(--fill-0, #E6E6E6)"/>
<path id="Vector_13" d="M291.876 397.675C272.81 405.356 256.65 418.849 245.69 436.238C243.264 439.939 241.437 444 240.275 448.271C239.278 452.467 239.423 456.854 240.695 460.976C241.804 464.842 243.386 468.669 243.535 472.738C243.581 474.822 243.186 476.892 242.375 478.813C241.564 480.733 240.357 482.461 238.832 483.882C235.124 487.521 230.33 489.612 225.571 491.493C220.286 493.582 214.764 495.668 210.835 499.959C210.359 500.479 209.581 499.71 210.056 499.191C216.891 491.726 227.798 490.958 235.712 485.104C239.406 482.372 242.298 478.511 242.445 473.772C242.573 469.628 240.945 465.68 239.788 461.775C238.489 457.772 238.189 453.513 238.915 449.367C239.855 445.051 241.523 440.927 243.847 437.171C248.944 428.631 255.352 420.945 262.837 414.396C271.338 406.873 281.062 400.861 291.591 396.618C292.242 396.355 292.523 397.414 291.876 397.675Z" fill="var(--fill-0, white)"/>
<path id="Vector_14" d="M248.89 430.431C246.222 428.196 244.435 425.086 243.849 421.655C243.263 418.225 243.915 414.698 245.69 411.704C246.051 411.099 247.007 411.632 246.646 412.237C244.988 415.022 244.381 418.308 244.933 421.501C245.486 424.694 247.161 427.585 249.658 429.652C250.2 430.101 249.429 430.878 248.89 430.431Z" fill="var(--fill-0, white)"/>
<path id="Vector_15" d="M239.875 459.089C246.967 458.527 253.587 455.312 258.414 450.086C258.892 449.568 259.671 450.337 259.193 450.854C254.16 456.283 247.264 459.615 239.883 460.183C239.179 460.237 239.175 459.142 239.875 459.089Z" fill="var(--fill-0, white)"/>
<path id="Vector_16" d="M271.789 408.253C272.641 409.333 273.748 410.184 275.01 410.73C276.272 411.277 277.651 411.501 279.021 411.383C279.724 411.32 279.727 412.415 279.029 412.477C277.514 412.601 275.992 412.351 274.596 411.751C273.2 411.15 271.973 410.217 271.02 409.032C270.921 408.928 270.866 408.79 270.865 408.647C270.863 408.503 270.917 408.364 271.015 408.259C271.117 408.156 271.256 408.098 271.401 408.097C271.545 408.095 271.685 408.152 271.789 408.253Z" fill="var(--fill-0, white)"/>
<path id="Vector_17" d="M336.584 468.36C336.146 468.411 335.709 468.463 335.266 468.523C329.387 469.247 323.576 470.447 317.891 472.112C317.45 472.234 317.004 472.364 316.567 472.498C302.913 476.656 290.15 483.312 278.926 492.129C274.463 495.641 270.274 499.488 266.395 503.636C261.037 509.365 255.685 516.003 248.946 519.524C248.247 519.899 247.526 520.231 246.786 520.517L210.492 502.573C210.43 502.491 210.364 502.417 210.301 502.334L208.82 501.684C209.005 501.456 209.202 501.224 209.387 500.996C209.494 500.863 209.609 500.735 209.715 500.602C209.789 500.515 209.863 500.428 209.925 500.345C209.949 500.316 209.974 500.287 209.995 500.266C210.056 500.183 210.122 500.113 210.18 500.038C211.277 498.736 212.385 497.439 213.504 496.148C213.508 496.14 213.508 496.14 213.521 496.136C222.073 486.319 231.521 477.131 242.063 469.668C242.38 469.444 242.701 469.211 243.035 468.995C247.805 465.657 252.841 462.715 258.09 460.198C260.969 458.829 263.916 457.607 266.919 456.536C274.682 453.783 282.831 452.269 291.065 452.048C307.48 451.611 323.852 456.429 335.688 467.505C335.99 467.788 336.285 468.068 336.584 468.36Z" fill="var(--fill-0, #E6E6E6)"/>
<path id="Vector_18" d="M336.274 468.78C316.427 463.434 295.4 464.478 276.18 471.763C272.014 473.258 268.11 475.4 264.612 478.111C261.289 480.861 258.764 484.451 257.298 488.508C255.855 492.263 254.814 496.271 252.483 499.61C251.265 501.301 249.703 502.716 247.9 503.761C246.096 504.807 244.092 505.459 242.019 505.676C236.867 506.349 231.781 505.132 226.848 503.769C221.371 502.255 215.706 500.596 209.986 501.656C209.293 501.785 209.134 500.702 209.826 500.574C219.778 498.728 228.948 504.682 238.793 504.773C243.386 504.815 248.02 503.474 250.99 499.778C253.587 496.547 254.664 492.415 256.092 488.6C257.464 484.622 259.79 481.04 262.865 478.168C266.214 475.288 270.029 472.999 274.146 471.399C283.358 467.649 293.102 465.371 303.021 464.647C314.337 463.759 325.722 464.814 336.683 467.764C337.361 467.947 336.948 468.962 336.274 468.78Z" fill="var(--fill-0, white)"/>
<path id="Vector_19" d="M282.23 469.053C281.446 465.662 281.892 462.103 283.489 459.011C285.087 455.919 287.731 453.496 290.951 452.174C291.603 451.908 292.046 452.909 291.393 453.175C288.392 454.401 285.929 456.659 284.448 459.541C282.966 462.423 282.564 465.74 283.313 468.893C283.475 469.579 282.391 469.735 282.23 469.053Z" fill="var(--fill-0, white)"/>
<path id="Vector_20" d="M257.778 486.508C263.779 490.329 271 491.747 278.001 490.481C278.694 490.355 278.853 491.438 278.161 491.564C270.873 492.868 263.362 491.376 257.126 487.387C256.532 487.006 257.187 486.129 257.778 486.508Z" fill="var(--fill-0, white)"/>
<path id="Vector_21" d="M313.867 465.132C313.897 466.507 314.268 467.853 314.947 469.05C315.626 470.246 316.592 471.255 317.757 471.985C318.356 472.358 317.699 473.235 317.104 472.864C315.821 472.051 314.756 470.935 314.003 469.615C313.25 468.295 312.831 466.811 312.784 465.292C312.768 465.149 312.806 465.005 312.892 464.89C312.978 464.775 313.104 464.696 313.245 464.671C313.389 464.65 313.535 464.687 313.651 464.773C313.767 464.86 313.845 464.989 313.867 465.132Z" fill="var(--fill-0, white)"/>
<path id="Vector_22" d="M326.413 274.219C327.319 273.316 328.018 272.226 328.458 271.025C328.898 269.823 329.069 268.54 328.959 267.266C328.85 265.991 328.462 264.756 327.823 263.647C327.185 262.538 326.311 261.583 325.263 260.849L339.549 191.712L324.137 196.574L312.643 263.459C311.526 265.3 311.123 267.488 311.511 269.607C311.899 271.725 313.051 273.628 314.748 274.955C316.446 276.281 318.571 276.939 320.72 276.803C322.87 276.667 324.895 275.748 326.413 274.219Z" fill="var(--fill-0, #FFB6B6)"/>
<path id="Vector_23" d="M359.432 89.4123L349.885 82.2056C349.885 82.2056 341.463 81.6092 339.971 96.7974C338.48 111.986 329.141 170.277 329.141 170.277L314.531 237.94L334.754 242.379L350.402 169.359L366.065 118.982L359.432 89.4123Z" fill="var(--fill-0, #E6E6E6)"/>
<path id="Vector_24" d="M352.159 214.614L306.363 179.005C305.649 178.449 305.186 177.633 305.073 176.735C304.961 175.838 305.209 174.933 305.764 174.218L336.923 134.145C337.479 133.431 338.295 132.968 339.192 132.856C340.09 132.743 340.995 132.992 341.71 133.546L387.506 169.155C388.219 169.711 388.682 170.527 388.795 171.424C388.907 172.321 388.659 173.227 388.105 173.941L356.945 214.015C356.389 214.728 355.573 215.192 354.676 215.304C353.779 215.416 352.873 215.168 352.159 214.614Z" fill="var(--fill-0, #3F3D56)"/>
<path id="Vector_25" d="M351.907 210.929L309.996 178.341C309.363 177.847 308.951 177.122 308.851 176.326C308.752 175.529 308.972 174.725 309.464 174.091L337.711 137.762C338.205 137.129 338.93 136.717 339.726 136.618C340.523 136.518 341.327 136.738 341.961 137.23L383.873 169.819C384.506 170.312 384.918 171.037 385.017 171.834C385.117 172.63 384.897 173.434 384.404 174.069L356.157 210.397C355.664 211.03 354.939 211.442 354.142 211.542C353.345 211.641 352.542 211.421 351.907 210.929Z" fill="var(--fill-0, white)"/>
<path id="Vector_26" d="M315.49 177.417C315.332 177.293 315.229 177.112 315.204 176.913C315.179 176.714 315.234 176.513 315.357 176.354L329.607 158.028C329.73 157.869 329.912 157.766 330.111 157.741C330.209 157.729 330.31 157.736 330.405 157.762C330.501 157.789 330.591 157.834 330.67 157.895C330.748 157.956 330.814 158.032 330.863 158.118C330.912 158.204 330.944 158.3 330.956 158.398C330.968 158.497 330.961 158.597 330.935 158.693C330.908 158.789 330.863 158.879 330.802 158.957L316.553 177.284C316.429 177.442 316.248 177.545 316.049 177.57C315.85 177.595 315.649 177.54 315.49 177.417Z" fill="var(--fill-0, #E4E4E4)"/>
<path id="Vector_27" d="M317.852 179.253C317.694 179.13 317.591 178.948 317.566 178.749C317.541 178.55 317.596 178.349 317.719 178.191L331.969 159.864C332.092 159.705 332.273 159.602 332.473 159.577C332.672 159.552 332.873 159.608 333.032 159.731C333.19 159.854 333.293 160.035 333.318 160.235C333.343 160.434 333.288 160.635 333.164 160.793L318.915 179.12C318.791 179.278 318.61 179.381 318.411 179.406C318.212 179.431 318.011 179.376 317.852 179.253Z" fill="var(--fill-0, #E4E4E4)"/>
<path id="Vector_28" d="M328.287 170.707C328.128 170.584 328.026 170.403 328.001 170.203C327.976 170.004 328.031 169.803 328.154 169.645L334.331 161.7C334.392 161.622 334.468 161.556 334.554 161.507C334.641 161.457 334.736 161.425 334.835 161.413C334.933 161.401 335.034 161.408 335.13 161.434C335.226 161.46 335.315 161.505 335.394 161.566C335.473 161.628 335.538 161.704 335.588 161.79C335.637 161.877 335.668 161.972 335.681 162.071C335.693 162.17 335.686 162.27 335.659 162.366C335.633 162.462 335.587 162.551 335.526 162.63L329.349 170.574C329.226 170.732 329.045 170.835 328.846 170.86C328.646 170.885 328.445 170.83 328.287 170.707Z" fill="var(--fill-0, #E4E4E4)"/>
<path id="Vector_29" d="M331.471 186.296C331.313 186.173 331.21 185.992 331.185 185.793C331.16 185.593 331.215 185.392 331.338 185.234L353.835 156.302C353.896 156.223 353.972 156.158 354.058 156.108C354.144 156.059 354.24 156.028 354.338 156.015C354.437 156.003 354.537 156.01 354.633 156.037C354.729 156.063 354.819 156.108 354.897 156.169C354.976 156.23 355.041 156.306 355.09 156.392C355.14 156.479 355.171 156.574 355.184 156.673C355.196 156.771 355.189 156.871 355.162 156.967C355.136 157.063 355.091 157.153 355.03 157.231L332.534 186.163C332.41 186.322 332.229 186.425 332.03 186.45C331.831 186.474 331.63 186.419 331.471 186.296Z" fill="var(--fill-0, #E4E4E4)"/>
<path id="Vector_30" d="M333.833 188.133C333.675 188.01 333.572 187.828 333.547 187.629C333.522 187.43 333.577 187.229 333.7 187.07L356.196 158.138C356.257 158.06 356.333 157.994 356.419 157.945C356.506 157.896 356.601 157.864 356.7 157.852C356.798 157.84 356.899 157.847 356.994 157.873C357.09 157.899 357.18 157.944 357.259 158.005C357.337 158.066 357.403 158.142 357.452 158.229C357.501 158.315 357.533 158.41 357.545 158.509C357.557 158.608 357.55 158.708 357.524 158.804C357.498 158.9 357.453 158.989 357.392 159.068L334.895 188C334.772 188.158 334.591 188.261 334.392 188.286C334.192 188.311 333.992 188.256 333.833 188.133Z" fill="var(--fill-0, #E4E4E4)"/>
<path id="Vector_31" d="M339.194 192.301C339.036 192.178 338.933 191.997 338.908 191.798C338.883 191.598 338.938 191.398 339.061 191.239L361.557 162.307C361.618 162.228 361.694 162.163 361.781 162.114C361.867 162.064 361.962 162.033 362.061 162.02C362.16 162.008 362.26 162.015 362.356 162.042C362.452 162.068 362.541 162.113 362.62 162.174C362.698 162.235 362.764 162.311 362.813 162.397C362.862 162.484 362.894 162.579 362.906 162.678C362.919 162.776 362.911 162.876 362.885 162.972C362.859 163.068 362.814 163.158 362.753 163.236L340.257 192.168C340.133 192.327 339.952 192.43 339.753 192.455C339.554 192.48 339.353 192.424 339.194 192.301Z" fill="var(--fill-0, #E4E4E4)"/>
<path id="Vector_32" d="M341.556 194.138C341.398 194.015 341.295 193.833 341.27 193.634C341.245 193.435 341.3 193.234 341.423 193.076L363.919 164.143C363.98 164.065 364.056 163.999 364.143 163.95C364.229 163.901 364.324 163.869 364.423 163.857C364.522 163.845 364.622 163.852 364.718 163.878C364.814 163.904 364.903 163.949 364.982 164.01C365.06 164.072 365.126 164.147 365.175 164.234C365.224 164.32 365.256 164.416 365.268 164.514C365.281 164.613 365.273 164.713 365.247 164.809C365.221 164.905 365.176 164.994 365.115 165.073L342.619 194.005C342.495 194.163 342.314 194.266 342.115 194.291C341.916 194.316 341.715 194.261 341.556 194.138Z" fill="var(--fill-0, #E4E4E4)"/>
<path id="Vector_33" d="M346.917 198.306C346.759 198.183 346.656 198.002 346.631 197.803C346.606 197.604 346.661 197.403 346.784 197.244L369.28 168.312C369.341 168.233 369.417 168.168 369.503 168.119C369.59 168.069 369.685 168.038 369.784 168.025C369.883 168.013 369.983 168.02 370.078 168.047C370.174 168.073 370.264 168.118 370.343 168.179C370.421 168.24 370.487 168.316 370.536 168.402C370.585 168.489 370.617 168.584 370.629 168.683C370.641 168.781 370.634 168.881 370.608 168.977C370.582 169.073 370.537 169.163 370.476 169.241L347.979 198.173C347.856 198.332 347.675 198.435 347.476 198.46C347.276 198.485 347.076 198.43 346.917 198.306Z" fill="var(--fill-0, #E4E4E4)"/>
<path id="Vector_34" d="M349.279 200.143C349.121 200.019 349.018 199.838 348.993 199.639C348.968 199.44 349.023 199.239 349.146 199.08L371.642 170.148C371.766 169.991 371.947 169.888 372.146 169.864C372.344 169.839 372.545 169.894 372.703 170.017C372.861 170.14 372.964 170.321 372.989 170.52C373.015 170.719 372.96 170.919 372.838 171.078L350.341 200.01C350.218 200.168 350.037 200.271 349.838 200.296C349.638 200.321 349.438 200.266 349.279 200.143Z" fill="var(--fill-0, #E4E4E4)"/>
<path id="Vector_35" d="M311.68 233.743C311.852 233.743 311.991 233.604 311.991 233.432C311.991 233.26 311.852 233.121 311.68 233.121C311.509 233.121 311.369 233.26 311.369 233.432C311.369 233.604 311.509 233.743 311.68 233.743Z" fill="var(--fill-0, white)"/>
<path id="Vector_36" d="M356.978 19.5435C355.885 25.4181 354.092 31.1406 351.638 36.5888C337.584 66.3185 377.606 56.6281 391.908 56.6281C407.545 56.6281 422.507 64.851 420.222 28.3141C419.246 12.7071 407.545 0 391.908 0C378.551 0 359.771 5.9369 356.978 19.5435Z" fill="var(--fill-0, #2F2E41)"/>
<path id="Vector_37" d="M406.484 455.57H393.161L386.821 404.181H406.484V455.57Z" fill="var(--fill-0, #FFB6B6)"/>
<path id="Vector_38" d="M413.516 478.654H403.961L402.256 469.634L397.888 478.654H372.547C371.332 478.654 370.149 478.266 369.171 477.546C368.192 476.827 367.47 475.813 367.108 474.653C366.747 473.494 366.765 472.249 367.162 471.1C367.558 469.952 368.311 468.961 369.31 468.27L389.547 454.294V445.175L410.832 446.445L413.516 478.654Z" fill="var(--fill-0, #2F2E41)"/>
<path id="Vector_39" d="M485.637 438.757L474.945 446.707L439.193 409.253L454.972 397.519L485.637 438.757Z" fill="var(--fill-0, #FFB6B6)"/>
<path id="Vector_40" d="M505.054 453.084L497.387 458.786L490.636 452.565L492.514 462.41L472.179 477.531C471.204 478.256 470.023 478.65 468.809 478.656C467.594 478.663 466.409 478.28 465.427 477.566C464.445 476.851 463.717 475.841 463.35 474.683C462.982 473.525 462.995 472.28 463.385 471.13L471.284 447.839L465.843 440.521L483.681 428.84L505.054 453.084Z" fill="var(--fill-0, #2F2E41)"/>
<path id="Vector_41" d="M362.848 219.061L426.093 209.211L413.516 171.374H362.848V219.061Z" fill="var(--fill-0, #FFB6B6)"/>
<path id="Vector_42" d="M421.995 190.431C421.995 190.431 447.274 212.27 435.611 274.529L421.372 335.533L460.166 402.885L440.44 413.645L392.633 347.199L370.756 295.884L359.185 205.95L421.995 190.431Z" fill="var(--fill-0, #2F2E41)"/>
<path id="Vector_43" d="M382.814 310.508L381.294 334.055L385.745 403.782L407.842 411.39L412.026 339.947L382.814 310.508Z" fill="var(--fill-0, #2F2E41)"/>
<path id="Vector_44" d="M376.021 64.4647L400.468 65.4185L410.211 81.5917L432.44 85.9313L419.17 153.066L421.61 191.278L399.476 191.143C383.524 191.045 368.098 196.841 356.156 207.417L356.818 157.815L347.297 120.787L349.437 81.9618L367.319 79.7265L376.021 64.4647Z" fill="var(--fill-0, #E6E6E6)"/>
<path id="Vector_45" d="M389.565 56.6211C402.272 56.6211 412.573 46.3199 412.573 33.6127C412.573 20.9055 402.272 10.6043 389.565 10.6043C376.857 10.6043 366.556 20.9055 366.556 33.6127C366.556 46.3199 376.857 56.6211 389.565 56.6211Z" fill="var(--fill-0, #FFB6B6)"/>
<path id="Vector_46" d="M373.939 10.159C377.971 7.70104 382.589 6.37144 387.311 6.30919C392.032 6.24695 396.684 7.45434 400.779 9.80512C404.874 12.1559 408.263 15.5637 410.59 19.6723C412.917 23.7808 414.098 28.4391 414.009 33.1602C402.285 36.1038 389.968 38.3564 377.466 33.8643L374.513 26.638L372.772 33.8697C368.965 35.4259 365.147 36.7427 361.33 33.8546C361.174 29.1468 362.257 24.4806 364.469 20.3224C366.682 16.1641 369.948 12.6596 373.939 10.159Z" fill="var(--fill-0, #2F2E41)"/>
<path id="Vector_47" d="M428.184 237.665L431.286 265.813C431.502 266.515 431.938 267.13 432.529 267.567C433.12 268.003 433.835 268.239 434.57 268.239H448.867C449.602 268.239 450.317 268.003 450.908 267.567C451.5 267.13 451.935 266.515 452.151 265.813L454.72 244.239C455.462 244.603 456.279 244.785 457.105 244.771C457.93 244.757 458.741 244.548 459.47 244.16C460.199 243.771 460.825 243.216 461.297 242.538C461.77 241.861 462.075 241.081 462.187 240.263C462.299 239.445 462.215 238.611 461.943 237.832C461.67 237.052 461.216 236.349 460.619 235.779C460.021 235.209 459.297 234.788 458.505 234.553C457.714 234.317 456.878 234.273 456.066 234.424C455.745 234.045 455.346 233.741 454.895 233.533C454.445 233.325 453.955 233.218 453.459 233.219H431.469C430.931 233.219 430.401 233.345 429.921 233.587C429.441 233.829 429.024 234.181 428.705 234.613C428.385 235.046 428.172 235.547 428.081 236.077C427.991 236.607 428.026 237.151 428.184 237.665ZM455.169 242.78L456.743 237.665C456.925 237.075 456.943 236.446 456.795 235.847C456.862 235.843 456.925 235.827 456.993 235.827C457.981 235.827 458.929 236.219 459.628 236.918C460.326 237.616 460.719 238.564 460.719 239.552C460.719 240.54 460.326 241.488 459.628 242.186C458.929 242.885 457.981 243.278 456.993 243.278C456.352 243.274 455.723 243.102 455.169 242.78Z" fill="var(--fill-0, #F26F37)"/>
<path id="Vector_48" d="M449.744 268.258C448.841 267.351 448.149 266.257 447.715 265.054C447.281 263.85 447.116 262.566 447.232 261.292C447.348 260.018 447.742 258.785 448.386 257.679C449.03 256.574 449.909 255.623 450.961 254.894L437.027 185.686L452.414 190.626L463.567 257.568C464.675 259.416 465.067 261.605 464.668 263.722C464.269 265.839 463.108 267.736 461.404 269.053C459.7 270.371 457.572 271.018 455.423 270.871C453.274 270.725 451.253 269.795 449.744 268.258Z" fill="var(--fill-0, #FFB6B6)"/>
<path id="Vector_49" d="M422.893 93.138L432.44 85.9313C432.44 85.9313 440.862 85.3349 442.354 100.523C443.846 115.711 453.185 174.003 453.185 174.003L467.794 241.666L447.571 246.105L431.924 173.084L416.261 122.708L422.893 93.138Z" fill="var(--fill-0, #E6E6E6)"/>
<path id="Vector_50" d="M340.495 156.139C343.48 156.139 345.9 153.719 345.9 150.734C345.9 147.75 343.48 145.33 340.495 145.33C337.511 145.33 335.091 147.75 335.091 150.734C335.091 153.719 337.511 156.139 340.495 156.139Z" fill="var(--fill-0, #F26F37)"/>
<path id="Vector_51" d="M168.161 518.264L179.424 518.264L184.782 474.822L168.159 474.823L168.161 518.264Z" fill="var(--fill-0, #FFB6B6)"/>
<path id="Vector_52" d="M165.288 514.587L168.458 514.587L180.834 509.554L187.468 514.586C191.217 514.586 194.813 516.075 197.463 518.726C200.114 521.377 201.603 524.972 201.604 528.721V529.18L165.288 529.181L165.288 514.587Z" fill="var(--fill-0, #2F2E41)"/>
<path id="Vector_53" d="M211.806 511.167L222.792 513.648L237.588 472.453L221.373 468.792L211.806 511.167Z" fill="var(--fill-0, #FFB6B6)"/>
<path id="Vector_54" d="M209.814 506.947L212.906 507.645L226.087 505.462L231.449 511.832L231.45 511.832C235.107 512.658 238.286 514.903 240.288 518.072C242.289 521.242 242.95 525.077 242.125 528.734L242.023 529.182L206.6 521.183L209.814 506.947Z" fill="var(--fill-0, #2F2E41)"/>
<path id="Vector_55" d="M147.543 294.807L157.727 408.913C157.727 408.913 153.911 477.418 166.225 501.524H184.083L192.925 402.657L194.035 336.298L232.321 392.283L207.936 499.908L229.915 501.872L269.486 385.075L226.012 275.429L147.543 294.807Z" fill="var(--fill-0, #2F2E41)"/>
<path id="Vector_56" d="M158.209 113.095C172.715 113.095 184.474 101.336 184.474 86.8297C184.474 72.3237 172.715 60.5643 158.209 60.5643C143.703 60.5643 131.943 72.3237 131.943 86.8297C131.943 101.336 143.703 113.095 158.209 113.095Z" fill="var(--fill-0, #FFB8B8)"/>
<path id="Vector_57" d="M204.381 138.124L182.834 128.879L172.344 117.753L146.14 121.979L139.187 133.9L116.68 154.828L143.05 274.058L142.251 300.098C142.251 300.098 159.128 307.696 232.321 290.203C233.199 289.993 231.362 289.074 231.362 289.074L204.381 138.124Z" fill="var(--fill-0, #3F3D56)"/>
<path id="Vector_58" d="M130.897 101.733C130.714 101.483 130.533 101.231 130.353 100.977C130.281 101.13 130.223 101.287 130.141 101.436L130.897 101.733Z" fill="var(--fill-0, #2F2E41)"/>
<path id="Vector_59" d="M184.335 67.6174C182.58 63.7927 179.449 60.7686 175.566 59.1459C171.718 57.5936 167.416 57.5973 163.57 59.1564C160.098 56.9626 156.24 55.2234 152.177 55.008C148.114 54.7925 143.818 56.2999 141.314 59.6181C140.755 60.494 140.12 61.319 139.416 62.0837C137.403 63.9476 134.345 63.6787 131.669 63.2976C132.869 64.326 134.069 65.3544 135.27 66.3828C133.818 66.7622 132.365 67.1417 130.912 67.5211C132.607 68.5492 134.302 69.5773 135.997 70.6053C131.076 73.5589 128.84 80.0053 129.431 85.8601C129.99 91.4032 132.666 96.472 135.865 100.977C137.141 98.2842 136.866 95.0618 136.845 92.0286C136.823 88.8238 137.39 85.1846 139.958 83.3935C141.69 82.1853 143.918 82.1313 146.007 82.1428C156.544 82.2006 167.069 82.8577 177.532 84.1109C178.952 84.1723 180.336 84.5738 181.568 85.2815C183.882 86.86 184.333 90.1174 184.565 92.9752C185.788 88.2566 186.386 83.398 186.345 78.5238C186.448 74.7877 185.763 71.0716 184.335 67.6174Z" fill="var(--fill-0, #2F2E41)"/>
<path id="Vector_60" d="M192.513 374.797C215.345 374.797 233.853 356.288 233.853 333.457C233.853 310.625 215.345 292.117 192.513 292.117C169.682 292.117 151.173 310.625 151.173 333.457C151.173 356.288 169.682 374.797 192.513 374.797Z" fill="var(--fill-0, white)"/>
<path id="Vector_61" d="M192.513 291.198C190.388 291.198 188.266 291.358 186.165 291.676C185.09 291.832 184.043 292.034 183.005 292.282C175.378 294.04 168.39 297.882 162.82 303.38C157.25 308.879 153.317 315.816 151.46 323.419C149.604 331.022 149.896 338.991 152.304 346.438C154.713 353.885 159.143 360.516 165.1 365.591C165.808 366.189 166.524 366.767 167.268 367.318C172.631 371.317 178.867 373.985 185.463 375.103C192.059 376.221 198.826 375.756 205.207 373.748C211.588 371.739 217.401 368.244 222.168 363.55C226.934 358.855 230.518 353.097 232.624 346.747C234.729 340.397 235.297 333.638 234.281 327.026C233.264 320.414 230.691 314.138 226.775 308.714C222.859 303.29 217.71 298.874 211.754 295.829C205.797 292.784 199.203 291.197 192.513 291.198ZM192.513 373.878C183.918 373.887 175.547 371.14 168.628 366.042C167.875 365.49 167.149 364.921 166.441 364.314C160.637 359.418 156.33 352.985 154.015 345.753C151.7 338.521 151.47 330.783 153.352 323.426C155.233 316.069 159.15 309.392 164.654 304.16C170.157 298.927 177.023 295.352 184.466 293.844C185.494 293.633 186.523 293.467 187.571 293.339C189.21 293.135 190.861 293.034 192.513 293.035C203.233 293.035 213.515 297.294 221.095 304.874C228.675 312.455 232.934 322.736 232.934 333.457C232.934 344.177 228.675 354.458 221.095 362.039C213.515 369.619 203.233 373.878 192.513 373.878Z" fill="var(--fill-0, #3F3D56)"/>
<path id="Vector_62" d="M172.236 325.189H212.79C214.275 325.189 215.479 323.984 215.479 322.499V322.367C215.479 320.881 214.275 319.677 212.79 319.677H172.236C170.751 319.677 169.546 320.881 169.546 322.367V322.499C169.546 323.984 170.751 325.189 172.236 325.189Z" fill="var(--fill-0, #F26F37)"/>
<path id="Vector_63" d="M172.236 336.212H212.79C214.275 336.212 215.479 335.008 215.479 333.522V333.39C215.479 331.905 214.275 330.7 212.79 330.7H172.236C170.751 330.7 169.546 331.905 169.546 333.39V333.522C169.546 335.008 170.751 336.212 172.236 336.212Z" fill="var(--fill-0, #F26F37)"/>
<path id="Vector_64" d="M172.236 347.236H212.79C214.275 347.236 215.479 346.032 215.479 344.546V344.414C215.479 342.929 214.275 341.724 212.79 341.724H172.236C170.751 341.724 169.546 342.929 169.546 344.414V344.546C169.546 346.032 170.751 347.236 172.236 347.236Z" fill="var(--fill-0, #F26F37)"/>
<path id="Vector_65" d="M655.015 516.862L643.205 516.861L637.587 471.31L655.017 471.311L655.015 516.862Z" fill="var(--fill-0, #9E616A)"/>
<path id="Vector_66" d="M599.144 516.862L587.336 516.861L581.717 471.31L599.147 471.311L599.144 516.862Z" fill="var(--fill-0, #9E616A)"/>
<path id="Vector_67" d="M599.56 529.181L563.245 529.18V528.721C563.245 524.972 564.734 521.377 567.385 518.726C570.036 516.075 573.631 514.586 577.38 514.586H577.381L584.014 509.554L596.391 514.587L599.561 514.587L599.56 529.181Z" fill="var(--fill-0, #2F2E41)"/>
<path id="Vector_68" d="M656.946 529.181L620.63 529.18V528.721C620.631 524.972 622.12 521.377 624.771 518.726C627.421 516.075 631.016 514.586 634.765 514.586H634.766L641.4 509.554L653.776 514.587L656.946 514.587L656.946 529.181Z" fill="var(--fill-0, #2F2E41)"/>
<path id="Vector_69" d="M587.56 247.275L569.612 356.561L574.497 372.847L568.088 384.381L577.5 485.675L573.679 494.086L584.354 500.67H606.076L607.229 408.968L612.595 395.504V388.084L623.518 332.166L625.529 410.475L628.706 423.96L626.037 433.561L629.525 440.288L638.788 502.668H663.146L661.262 488.155C663.384 487.081 665.088 485.332 666.107 483.184C667.127 481.035 667.403 478.609 666.893 476.286L665.497 469.925L668.675 451.117L674.463 346.189L672.831 261.525L644.337 239.736L587.56 247.275Z" fill="var(--fill-0, #2F2E41)"/>
<path id="Ellipse 219" d="M628.707 106.938C641.205 106.938 651.337 96.806 651.337 84.3077C651.337 71.8095 641.205 61.6776 628.707 61.6776C616.208 61.6776 606.076 71.8095 606.076 84.3077C606.076 96.806 616.208 106.938 628.707 106.938Z" fill="var(--fill-0, #9E616A)"/>
<path id="Vector_70" d="M579.262 290.643C580.247 289.625 580.997 288.404 581.459 287.065C581.921 285.727 582.083 284.303 581.935 282.895C581.788 281.486 581.333 280.128 580.603 278.914C579.873 277.7 578.886 276.662 577.711 275.871L586.511 242.592L569.557 248.295L563.8 279.023C562.602 281.084 562.202 283.513 562.676 285.85C563.149 288.187 564.464 290.268 566.37 291.701C568.276 293.133 570.641 293.816 573.017 293.621C575.393 293.426 577.615 292.367 579.262 290.643Z" fill="var(--fill-0, #9E616A)"/>
<path id="Path 1101" d="M588.524 130.866L584.884 130.111L581.781 131.829C581.781 131.829 573.111 143.389 573.111 153.985C573.111 164.581 562.515 266.688 562.515 266.688L581.781 275.357L597.193 195.405L588.524 130.866Z" fill="var(--fill-0, #E6E6E6)"/>
<path id="Path 1104" d="M648.525 67.7156C648.525 67.7156 654.443 56.4006 641.422 55.3719C641.422 55.3719 630.321 45.3018 619.006 53.531C619.006 53.531 612.834 53.531 609.459 60.5151C609.459 60.5151 604.605 58.6742 603.538 63.6011C603.538 63.6011 599.986 73.8875 603.538 83.1453C607.09 92.4031 608.27 93.4318 608.27 93.4318C608.27 93.4318 602.433 74.0223 616.64 72.9937C630.846 71.965 646.744 63.0868 647.928 74.4019C649.112 85.7169 650.894 88.5049 650.894 88.5049C650.894 88.5049 662.139 72.3446 648.525 67.7156Z" fill="var(--fill-0, #2F2E41)"/>
<path id="Vector_71" d="M731.191 384.381C729.483 384.383 727.834 383.754 726.562 382.615L658.076 321.651C656.695 320.42 655.86 318.691 655.753 316.845C655.646 314.998 656.275 313.185 657.503 311.802L701.376 262.516C702.607 261.135 704.336 260.3 706.182 260.192C708.029 260.085 709.843 260.715 711.226 261.943L779.712 322.908C781.094 324.138 781.931 325.866 782.038 327.713C782.145 329.56 781.515 331.374 780.285 332.756L736.411 382.042C735.804 382.729 735.066 383.288 734.241 383.687C733.416 384.086 732.52 384.318 731.605 384.369C731.467 384.377 731.329 384.381 731.191 384.381Z" fill="var(--fill-0, white)"/>
<path id="Vector_72" d="M731.19 384.829C729.373 384.832 727.618 384.163 726.264 382.95L657.777 321.986C656.309 320.676 655.42 318.836 655.306 316.871C655.191 314.905 655.861 312.975 657.168 311.503L701.041 262.217C702.352 260.748 704.192 259.86 706.157 259.745C708.122 259.631 710.052 260.301 711.524 261.607L780.01 322.572C781.481 323.881 782.371 325.721 782.486 327.687C782.6 329.653 781.928 331.583 780.619 333.054L736.746 382.341C736.1 383.071 735.315 383.666 734.437 384.091C733.559 384.516 732.605 384.763 731.631 384.817C731.484 384.825 731.337 384.829 731.19 384.829ZM706.59 261.525C705.795 261.523 705.009 261.69 704.283 262.015C703.558 262.34 702.909 262.815 702.381 263.409L658.508 312.696C657.517 313.812 657.008 315.276 657.095 316.767C657.182 318.257 657.856 319.653 658.97 320.647L727.456 381.61C728.009 382.102 728.652 382.48 729.351 382.723C730.049 382.966 730.789 383.069 731.527 383.026C732.265 382.983 732.988 382.795 733.654 382.473C734.319 382.151 734.915 381.701 735.407 381.148L779.28 331.862C780.273 330.746 780.782 329.282 780.695 327.791C780.609 326.3 779.933 324.905 778.818 323.912L710.331 262.947C709.302 262.029 707.97 261.523 706.59 261.525Z" fill="var(--fill-0, #3F3D56)"/>
<path id="Vector_73" d="M756.026 337.704C755.286 337.705 754.572 337.434 754.02 336.941L700.261 289.087C699.963 288.823 699.721 288.504 699.547 288.147C699.373 287.79 699.271 287.402 699.247 287.005C699.224 286.609 699.278 286.211 699.409 285.836C699.539 285.461 699.742 285.115 700.006 284.818C700.27 284.521 700.59 284.28 700.948 284.107C701.306 283.934 701.694 283.834 702.09 283.811C702.487 283.789 702.884 283.845 703.259 283.976C703.634 284.108 703.979 284.312 704.275 284.577L758.035 332.432C758.492 332.839 758.815 333.375 758.96 333.97C759.105 334.564 759.067 335.189 758.849 335.761C758.631 336.333 758.244 336.825 757.74 337.172C757.235 337.519 756.638 337.705 756.026 337.704Z" fill="var(--fill-0, #F26F37)"/>
<path id="Vector_74" d="M745.772 349.223C745.032 349.224 744.318 348.952 743.766 348.46L690.007 300.605C689.711 300.342 689.47 300.022 689.297 299.666C689.125 299.309 689.024 298.921 689.001 298.526C688.978 298.13 689.033 297.734 689.164 297.359C689.294 296.985 689.497 296.64 689.76 296.344C690.024 296.048 690.343 295.807 690.7 295.634C691.057 295.461 691.444 295.361 691.84 295.338C692.235 295.315 692.632 295.37 693.006 295.5C693.381 295.63 693.726 295.833 694.022 296.097L747.781 343.951C748.239 344.358 748.561 344.894 748.707 345.489C748.852 346.084 748.813 346.708 748.595 347.28C748.377 347.852 747.99 348.344 747.486 348.691C746.982 349.038 746.384 349.223 745.772 349.223Z" fill="var(--fill-0, #F26F37)"/>
<path id="Vector_75" d="M735.517 360.743C734.777 360.744 734.063 360.473 733.511 359.98L679.752 312.126C679.455 311.862 679.213 311.543 679.04 311.186C678.867 310.829 678.766 310.441 678.743 310.045C678.72 309.649 678.775 309.253 678.905 308.878C679.035 308.503 679.238 308.158 679.502 307.861C679.766 307.565 680.085 307.324 680.442 307.151C680.8 306.978 681.187 306.878 681.583 306.855C681.979 306.832 682.376 306.888 682.751 307.018C683.125 307.149 683.47 307.352 683.766 307.616L737.525 355.471C737.983 355.878 738.306 356.414 738.451 357.009C738.597 357.603 738.558 358.228 738.34 358.8C738.122 359.372 737.735 359.864 737.231 360.211C736.727 360.558 736.129 360.744 735.517 360.743Z" fill="var(--fill-0, #F26F37)"/>
<path id="Vector_76" d="M674.039 292.607C673.349 291.37 672.939 289.998 672.837 288.585C672.735 287.173 672.944 285.755 673.45 284.432C673.955 283.109 674.744 281.913 675.761 280.928C676.779 279.943 678 279.194 679.339 278.732L679.397 244.309L694.313 254.182L691.971 285.357C692.598 287.657 692.359 290.107 691.301 292.243C690.242 294.379 688.436 296.053 686.226 296.947C684.015 297.84 681.554 297.892 679.308 297.092C677.062 296.293 675.187 294.697 674.039 292.607Z" fill="var(--fill-0, #9E616A)"/>
<path id="Path 1100" d="M675.418 140.299L682.082 133.876L686.977 137.409C686.977 137.409 691.794 143.189 695.647 160.528C699.5 177.867 695.647 273.231 695.647 273.231L674.455 270.341L677.345 220.251L668.675 177.867L675.418 140.299Z" fill="var(--fill-0, #E6E6E6)"/>
<path id="Vector_77" d="M685.258 135.442L662.807 124.718L647.564 110.58L619.768 110.372L610.802 122.028L587.13 130.069L591.076 211.692L588.386 217.969C588.386 217.969 590.26 219.662 591.116 220.609C591.972 221.555 589.933 229.482 589.933 229.482L588.783 238.106L591.972 240.385L587.826 245.282L586.797 253.002C586.797 253.002 659.169 235.014 672.844 264.813C673.567 266.388 671.787 251 671.787 251L670.008 239.736L671.773 229.625L674.463 226.935L669.952 222.424L672.844 201.017L685.258 135.442Z" fill="var(--fill-0, #3F3D56)"/>
<path id="Vector_78" d="M176.109 316.394C176.666 314.98 176.906 313.46 176.813 311.942C176.719 310.425 176.294 308.946 175.567 307.611C174.84 306.275 173.829 305.115 172.605 304.213C171.382 303.31 169.975 302.687 168.484 302.387L163.497 265.765L149.036 278.405L155.989 311.245C155.651 313.782 156.256 316.355 157.688 318.477C159.121 320.599 161.282 322.121 163.762 322.756C166.242 323.391 168.868 323.094 171.144 321.921C173.42 320.749 175.186 318.782 176.109 316.394Z" fill="var(--fill-0, #FFB8B8)"/>
<path id="Path 1101_2" d="M119.455 154.158L115.535 154.909L113.166 157.892C113.166 157.892 109.333 172.925 113.7 183.431C118.066 193.938 149.634 299.544 149.634 299.544L172.308 300.201L154.645 214.577L119.455 154.158Z" fill="var(--fill-0, #3F3D56)"/>
<path id="Vector_79" d="M208.843 311.023C207.798 309.918 207.009 308.597 206.53 307.154C206.051 305.711 205.894 304.18 206.071 302.67C206.247 301.16 206.753 299.707 207.552 298.413C208.351 297.119 209.424 296.017 210.695 295.182L201.668 259.342L219.799 265.679L225.591 298.742C226.851 300.971 227.25 303.584 226.712 306.087C226.174 308.589 224.736 310.808 222.672 312.322C220.607 313.835 218.059 314.539 215.51 314.3C212.962 314.06 210.589 312.894 208.843 311.023Z" fill="var(--fill-0, #FFB8B8)"/>
<path id="Path 1101_3" d="M200.921 139.361L204.838 138.597L208.148 140.481C208.148 140.481 217.31 153.001 217.176 164.378C217.042 175.754 227.127 285.515 227.127 285.515L206.333 294.579L190.797 208.544L200.921 139.361Z" fill="var(--fill-0, #3F3D56)"/>
<path id="Vector_80" d="M554.219 31.4197C552.981 29.7118 551.626 27.9309 550.112 28.0021C546.445 28.1744 544.468 38.6791 540.805 38.3097C538.469 38.0741 536.919 33.4366 534.744 31.755C531.912 29.5659 528.309 33.8473 528 39.7677L528.364 39.1172C539.335 44.3581 550.828 45.3958 562 42.1541C559.406 38.576 556.813 34.9978 554.219 31.4197Z" fill="var(--fill-0, #92DBDA)"/>
</g>
<defs>
<clipPath id="clip0_0_63">
<rect width="782.498" height="529.182" fill="white"/>
</clipPath>
</defs>
</svg>
