<svg preserveAspectRatio="none" width="100%" height="100%" overflow="visible" style="display: block;" viewBox="0 0 716 733.099" fill="none" xmlns="http://www.w3.org/2000/svg">
<g id="undraw_fitting-piece_y3bi 1" clip-path="url(#clip0_0_62)">
<path id="Vector" d="M450.06 694.813L428.386 732.353H471.733L450.06 694.813L428.386 732.353H471.733L450.06 694.813Z" fill="var(--fill-0, #92DBDA)"/>
<path id="Vector_2" d="M394.643 188.619V291.597C394.638 294.39 393.527 297.067 391.552 299.041C389.578 301.016 386.901 302.127 384.108 302.132H305.119L305.846 301.203C347.402 273.459 376.851 236.443 393.714 189.799L394.643 188.619Z" fill="var(--fill-0, #F2F2F2)"/>
<path id="Vector_3" d="M474.684 86.0562H27.0407C19.8717 86.0648 12.9988 88.9165 7.92957 93.9858C2.86033 99.055 0.00864463 105.928 0 113.097V381.978C0.00864463 389.147 2.86033 396.02 7.92957 401.09C12.9988 406.159 19.8717 409.011 27.0407 409.019H474.684C481.853 409.011 488.726 406.159 493.795 401.09C498.864 396.02 501.716 389.147 501.725 381.978V113.097C501.716 105.928 498.864 99.055 493.795 93.9858C488.726 88.9165 481.853 86.0648 474.684 86.0562ZM499.341 381.978C499.342 385.217 498.705 388.423 497.466 391.415C496.227 394.407 494.411 397.125 492.121 399.415C489.831 401.705 487.113 403.521 484.121 404.76C481.129 405.999 477.922 406.636 474.684 406.636H27.0407C23.8025 406.636 20.5959 405.999 17.604 404.76C14.6122 403.521 11.8937 401.705 9.60397 399.415C7.31421 397.125 5.498 394.407 4.25909 391.415C3.02017 388.423 2.38285 385.217 2.38349 381.978V273.971C2.38349 267.678 2.68936 261.461 3.30112 255.32C7.90223 209.564 29.3413 167.149 63.4561 136.312C97.5709 105.474 141.927 88.4123 187.914 88.4397H474.684C481.223 88.4404 487.495 91.0384 492.119 95.6624C496.743 100.286 499.341 106.558 499.341 113.097V381.978Z" fill="var(--fill-0, #F26F37)"/>
<path id="Vector_4" d="M331.723 211.44H98.8914C96.9839 211.44 95.1546 212.197 93.8058 213.546C92.457 214.895 91.6992 216.724 91.6992 218.632C91.6992 220.539 92.457 222.369 93.8058 223.718C95.1546 225.066 96.9839 225.824 98.8914 225.824H331.723C333.63 225.824 335.459 225.066 336.808 223.718C338.157 222.369 338.915 220.539 338.915 218.632C338.915 216.724 338.157 214.895 336.808 213.546C335.459 212.197 333.63 211.44 331.723 211.44Z" fill="var(--fill-0, #E6E6E6)"/>
<path id="Vector_5" d="M171.077 171.099H98.8927C96.9836 171.099 95.1528 171.858 93.8029 173.207C92.4529 174.557 91.6946 176.388 91.6946 178.297C91.6946 180.206 92.4529 182.037 93.8029 183.387C95.1528 184.737 96.9836 185.495 98.8927 185.495H171.077C172.986 185.495 174.817 184.737 176.167 183.387C177.516 182.037 178.275 180.206 178.275 178.297C178.275 176.388 177.516 174.557 176.167 173.207C174.817 171.858 172.986 171.099 171.077 171.099Z" fill="var(--fill-0, #E6E6E6)"/>
<path id="Vector_6" d="M98.8914 211.44H134.584C130.079 216.6 125.187 221.409 119.95 225.824H98.8914C96.9839 225.824 95.1546 225.066 93.8058 223.718C92.457 222.369 91.6992 220.539 91.6992 218.632C91.6992 216.724 92.457 214.895 93.8058 213.546C95.1546 212.197 96.9839 211.44 98.8914 211.44Z" fill="var(--fill-0, #5379F4)"/>
<path id="Vector_7" d="M98.8927 171.099H159.135C157.212 176.026 154.996 180.834 152.497 185.495H98.8927C96.9837 185.495 95.1528 184.737 93.8029 183.387C92.4529 182.037 91.6946 180.206 91.6946 178.297C91.6946 176.388 92.4529 174.557 93.8029 173.207C95.1528 171.858 96.9837 171.099 98.8927 171.099Z" fill="var(--fill-0, #5379F4)"/>
<path id="Vector_8" d="M164.914 89.8579C123.226 95.0771 84.5419 114.284 55.1857 144.34C25.8295 174.395 7.53784 213.521 3.30112 255.32C2.1928 255.105 1.09641 254.855 0 254.593V113.097C0.00864463 105.928 2.86033 99.055 7.92957 93.9858C12.9988 88.9165 19.8717 86.0648 27.0407 86.0562H163.96C164.306 87.3075 164.616 88.5827 164.914 89.8579Z" fill="var(--fill-0, #5379F4)"/>
<path id="Vector_9" d="M163.568 110.843C175.999 110.843 186.077 100.765 186.077 88.3341C186.077 75.9028 175.999 65.8252 163.568 65.8252C151.136 65.8252 141.059 75.9028 141.059 88.3341C141.059 100.765 151.136 110.843 163.568 110.843Z" fill="var(--fill-0, white)"/>
<path id="Vector_10" d="M163.568 112.035C158.88 112.035 154.298 110.645 150.4 108.04C146.503 105.436 143.465 101.735 141.671 97.4039C139.877 93.0732 139.408 88.3078 140.323 83.7104C141.237 79.113 143.494 74.8899 146.809 71.5754C150.123 68.2608 154.346 66.0035 158.944 65.089C163.541 64.1745 168.307 64.6439 172.637 66.4377C176.968 68.2316 180.67 71.2693 183.274 75.1668C185.878 79.0644 187.268 83.6466 187.268 88.3341C187.261 94.6177 184.762 100.642 180.319 105.085C175.875 109.528 169.851 112.027 163.568 112.035ZM163.568 67.0171C159.352 67.0171 155.23 68.2674 151.725 70.6097C148.219 72.952 145.487 76.2813 143.873 80.1765C142.26 84.0716 141.838 88.3578 142.66 92.4929C143.483 96.628 145.513 100.426 148.494 103.408C151.476 106.389 155.274 108.419 159.409 109.242C163.544 110.064 167.83 109.642 171.725 108.028C175.62 106.415 178.95 103.683 181.292 100.177C183.634 96.6717 184.885 92.5502 184.885 88.3341C184.878 82.6824 182.63 77.264 178.634 73.2677C174.638 69.2713 169.219 67.0234 163.568 67.0171Z" fill="var(--fill-0, #3F3D56)"/>
<path id="Vector_11" d="M160.494 100.049C160.105 100.049 159.722 99.9584 159.374 99.7845C159.027 99.6106 158.724 99.3582 158.491 99.0472L152.35 90.8593C152.153 90.5963 152.01 90.297 151.928 89.9784C151.846 89.6599 151.828 89.3285 151.875 89.003C151.921 88.6775 152.032 88.3643 152.199 88.0814C152.367 87.7985 152.588 87.5513 152.851 87.3541C153.114 87.1568 153.414 87.0133 153.732 86.9317C154.051 86.8501 154.382 86.832 154.708 86.8786C155.033 86.9251 155.346 87.0352 155.629 87.2027C155.912 87.3703 156.159 87.5919 156.357 87.8549L160.374 93.2112L170.693 77.7337C171.061 77.1823 171.634 76.7997 172.285 76.6701C172.935 76.5405 173.611 76.6744 174.163 77.0424C174.715 77.4104 175.098 77.9824 175.229 78.6329C175.359 79.2833 175.226 79.959 174.859 80.5115L162.578 98.9338C162.355 99.267 162.057 99.542 161.706 99.7359C161.356 99.9298 160.964 100.037 160.564 100.048L160.494 100.049Z" fill="var(--fill-0, #5379F4)"/>
<path id="Vector_12" d="M341.138 269.345C353.569 269.345 363.647 259.268 363.647 246.836C363.647 234.405 353.569 224.327 341.138 224.327C328.707 224.327 318.629 234.405 318.629 246.836C318.629 259.268 328.707 269.345 341.138 269.345Z" fill="var(--fill-0, #F26F37)"/>
<path id="Vector_13" d="M341.138 270.537C336.45 270.537 331.868 269.147 327.97 266.542C324.073 263.938 321.035 260.237 319.241 255.906C317.447 251.575 316.978 246.81 317.893 242.213C318.807 237.615 321.064 233.392 324.379 230.077C327.693 226.763 331.917 224.506 336.514 223.591C341.111 222.677 345.877 223.146 350.207 224.94C354.538 226.734 358.24 229.771 360.844 233.669C363.448 237.567 364.838 242.149 364.838 246.836C364.831 253.12 362.332 259.144 357.889 263.587C353.445 268.03 347.421 270.53 341.138 270.537ZM341.138 225.519C336.922 225.519 332.8 226.769 329.295 229.112C325.789 231.454 323.057 234.783 321.443 238.679C319.83 242.574 319.408 246.86 320.23 250.995C321.053 255.13 323.083 258.928 326.064 261.91C329.046 264.891 332.844 266.921 336.979 267.744C341.114 268.566 345.4 268.144 349.295 266.531C353.191 264.917 356.52 262.185 358.862 258.679C361.204 255.174 362.455 251.052 362.455 246.836C362.448 241.185 360.2 235.766 356.204 231.77C352.208 227.773 346.789 225.526 341.138 225.519Z" fill="var(--fill-0, #5379F4)"/>
<path id="Vector_14" d="M338.064 258.551C337.675 258.551 337.292 258.46 336.944 258.287C336.597 258.113 336.294 257.86 336.061 257.549L329.921 249.361C329.723 249.098 329.58 248.799 329.498 248.481C329.417 248.162 329.398 247.831 329.445 247.505C329.539 246.848 329.89 246.255 330.421 245.856C330.953 245.458 331.62 245.287 332.278 245.381C332.935 245.475 333.528 245.826 333.927 246.357L337.944 251.713L348.263 236.236C348.631 235.684 349.204 235.302 349.855 235.172C350.505 235.043 351.181 235.177 351.733 235.545C352.285 235.913 352.668 236.485 352.799 237.135C352.929 237.785 352.796 238.461 352.429 239.014L340.148 257.436C339.925 257.769 339.627 258.044 339.276 258.238C338.926 258.432 338.534 258.539 338.134 258.55L338.064 258.551Z" fill="var(--fill-0, white)"/>
<path id="Vector_15" d="M280.506 11.1292C270.568 3.86552 258.569 -0.0336784 246.26 0.000189506C236.944 0.109121 227.798 2.50078 219.621 6.96565C211.445 11.4305 204.488 17.8323 199.361 25.6103C198.488 26.9432 200.397 28.5652 201.278 27.218C207.526 17.7073 216.559 10.3595 227.143 6.18017C235.655 2.90048 244.854 1.81052 253.897 3.01025C262.939 4.20997 271.536 7.66098 278.898 13.0467C280.191 13.9975 281.806 12.0856 280.506 11.1292Z" fill="var(--fill-0, #92DBDA)"/>
<path id="Vector_16" d="M185.308 16.8947L179.726 37.6348C179.693 37.8242 179.703 38.0187 179.756 38.2034C179.81 38.388 179.905 38.558 180.035 38.7002C180.164 38.8423 180.324 38.9529 180.503 39.0234C180.682 39.094 180.875 39.1225 181.066 39.107L204.426 35.3662C206.007 35.113 205.801 32.6183 204.207 32.8734L180.847 36.6142L182.188 38.0863L187.77 17.3461C188.189 15.7887 185.724 15.3497 185.308 16.8947Z" fill="var(--fill-0, #92DBDA)"/>
<path id="Vector_17" d="M198.03 294.297C207.968 301.561 219.967 305.46 232.276 305.426C241.592 305.317 250.738 302.926 258.915 298.461C267.091 293.996 274.048 287.594 279.175 279.816C280.048 278.483 278.139 276.861 277.258 278.208C271.01 287.719 261.977 295.067 251.393 299.246C242.881 302.526 233.682 303.616 224.639 302.416C215.597 301.216 207 297.765 199.638 292.38C198.345 291.429 196.73 293.341 198.03 294.297Z" fill="var(--fill-0, #92DBDA)"/>
<path id="Vector_18" d="M293.226 288.532L298.808 267.792C298.841 267.602 298.831 267.408 298.777 267.223C298.724 267.038 298.629 266.868 298.499 266.726C298.37 266.584 298.209 266.473 298.031 266.403C297.852 266.332 297.659 266.304 297.467 266.319L274.108 270.06C272.527 270.313 272.733 272.808 274.327 272.553L297.686 268.812L296.346 267.34L290.764 288.08C290.345 289.638 292.81 290.077 293.226 288.532Z" fill="var(--fill-0, #92DBDA)"/>
<path id="Vector_19" d="M491.451 60.0958H402.187C399.317 60.0958 396.565 58.9559 394.536 56.9269C392.507 54.8978 391.367 52.1459 391.367 49.2764C391.367 46.407 392.507 43.655 394.536 41.626C396.565 39.597 399.317 38.4571 402.187 38.4571H491.451C494.32 38.4571 497.072 39.597 499.101 41.626C501.13 43.655 502.27 46.407 502.27 49.2764C502.27 52.1459 501.13 54.8978 499.101 56.9269C497.072 58.9559 494.32 60.0958 491.451 60.0958Z" fill="var(--fill-0, #E3E3E3)"/>
<path id="Vector_20" d="M489.399 49.2764L493.659 45.0163C493.78 44.8964 493.876 44.7537 493.942 44.5966C494.008 44.4394 494.042 44.2708 494.042 44.1004C494.042 43.9301 494.009 43.7613 493.944 43.6038C493.879 43.4464 493.784 43.3033 493.663 43.1828C493.543 43.0624 493.4 42.9669 493.242 42.9019C493.085 42.8368 492.916 42.8036 492.746 42.804C492.575 42.8044 492.407 42.8384 492.25 42.9041C492.092 42.9698 491.95 43.066 491.83 43.187L487.57 47.447L483.31 43.187C483.19 43.066 483.047 42.9698 482.89 42.9041C482.733 42.8384 482.564 42.8044 482.394 42.804C482.223 42.8036 482.055 42.8368 481.897 42.9019C481.74 42.9669 481.597 43.0624 481.476 43.1828C481.356 43.3033 481.26 43.4464 481.195 43.6038C481.13 43.7613 481.097 43.9301 481.097 44.1004C481.098 44.2708 481.132 44.4394 481.198 44.5966C481.263 44.7537 481.359 44.8964 481.48 45.0163L485.74 49.2764L481.511 53.5062C481.39 53.6261 481.294 53.7687 481.228 53.9259C481.162 54.083 481.128 54.2517 481.128 54.422C481.127 54.5924 481.161 54.7611 481.226 54.9186C481.291 55.0761 481.386 55.2191 481.507 55.3396C481.627 55.4601 481.77 55.5556 481.928 55.6206C482.085 55.6856 482.254 55.7189 482.424 55.7185C482.594 55.7181 482.763 55.6841 482.92 55.6183C483.077 55.5526 483.22 55.4565 483.34 55.3355L487.57 51.1057L491.799 55.3355C492.042 55.5762 492.371 55.711 492.713 55.7102C493.055 55.7094 493.383 55.5732 493.625 55.3314C493.867 55.0895 494.003 54.7617 494.004 54.4196C494.004 54.0775 493.87 53.7491 493.629 53.5062L489.399 49.2764Z" fill="var(--fill-0, #F26F37)"/>
<path id="Vector_21" d="M349.66 387.621C349.501 387.622 349.344 387.59 349.198 387.528C349.051 387.467 348.919 387.376 348.808 387.263L342.008 380.311C341.79 380.089 341.668 379.79 341.668 379.478C341.668 379.167 341.79 378.867 342.008 378.645L348.808 371.694C348.917 371.58 349.047 371.489 349.192 371.426C349.336 371.364 349.492 371.33 349.649 371.327C349.806 371.325 349.963 371.354 350.109 371.412C350.255 371.47 350.389 371.557 350.501 371.667C350.614 371.777 350.704 371.908 350.765 372.053C350.827 372.198 350.859 372.354 350.86 372.512C350.861 372.669 350.83 372.825 350.771 372.971C350.711 373.117 350.623 373.249 350.512 373.361L344.527 379.478L350.512 385.596C350.676 385.764 350.787 385.976 350.83 386.207C350.874 386.437 350.849 386.675 350.758 386.892C350.667 387.108 350.515 387.292 350.319 387.422C350.124 387.552 349.894 387.621 349.66 387.621Z" fill="var(--fill-0, #3F3D56)"/>
<path id="Vector_22" d="M361.085 387.621C360.85 387.621 360.621 387.552 360.425 387.422C360.23 387.292 360.077 387.108 359.986 386.892C359.895 386.675 359.87 386.437 359.914 386.207C359.958 385.976 360.069 385.764 360.233 385.596L366.217 379.478L360.233 373.36C360.015 373.134 359.896 372.831 359.901 372.516C359.906 372.202 360.035 371.903 360.26 371.684C360.484 371.464 360.786 371.342 361.1 371.344C361.414 371.346 361.715 371.472 361.937 371.694L368.736 378.645C368.954 378.867 369.076 379.167 369.076 379.478C369.076 379.79 368.954 380.089 368.736 380.311L361.937 387.263C361.826 387.376 361.693 387.467 361.547 387.528C361.401 387.59 361.244 387.621 361.085 387.621Z" fill="var(--fill-0, #3F3D56)"/>
<path id="Vector_23" d="M383.998 262.279C384.634 260.532 385.646 258.946 386.961 257.632C388.277 256.319 389.865 255.31 391.612 254.676C393.36 254.042 395.226 253.8 397.077 253.965C398.929 254.13 400.722 254.7 402.33 255.633L514.749 226.172L516.594 249.332L406.592 273.867C404.845 276.465 402.206 278.331 399.176 279.113C396.145 279.894 392.933 279.537 390.148 278.108C387.363 276.68 385.198 274.28 384.065 271.362C382.932 268.444 382.908 265.213 383.998 262.279Z" fill="var(--fill-0, #A0616A)"/>
<path id="Vector_24" d="M553.484 221.495C550.809 217.643 547.071 214.652 542.727 212.886C538.382 211.119 533.618 210.655 529.014 211.548L487.675 219.567C487.675 219.567 501.906 267.207 519.928 266.155C527.524 265.712 537.136 261.249 545.715 256.235C548.608 254.557 551.122 252.299 553.099 249.602C555.076 246.906 556.473 243.829 557.203 240.565C557.933 237.302 557.979 233.923 557.339 230.641C556.699 227.359 555.386 224.245 553.484 221.495Z" fill="var(--fill-0, #3F3D56)"/>
<path id="Vector_25" d="M512.081 708.105L501.127 708.014L496.278 664.778L512.444 664.914L512.081 708.105Z" fill="var(--fill-0, #A0616A)"/>
<path id="Vector_26" d="M517.027 730.266L514.989 703.058L512.129 702.868L500.462 702.069L496.708 701.819L496.636 709.649L479.142 721.519C478.375 722.04 477.771 722.768 477.402 723.618C477.032 724.468 476.912 725.406 477.054 726.322C477.196 727.238 477.596 728.095 478.206 728.793C478.816 729.491 479.611 730.002 480.5 730.266C480.94 730.401 481.398 730.469 481.859 730.469L503.632 730.647L503.823 730.266L507.445 722.925L508.768 730.266L508.84 730.695L517.063 730.767L517.027 730.266Z" fill="var(--fill-0, #2F2E41)"/>
<path id="Vector_27" d="M627.406 700.103L616.935 703.32L599.262 663.566L614.715 658.817L627.406 700.103Z" fill="var(--fill-0, #A0616A)"/>
<path id="Vector_28" d="M628.66 694.418L625.871 695.098L614.514 697.851H614.502L610.855 698.744L613.155 706.24L600.058 722.83C599.493 723.554 599.143 724.422 599.047 725.335C598.95 726.248 599.112 727.17 599.512 727.996C599.913 728.822 600.537 729.52 601.314 730.009C602.091 730.499 602.989 730.761 603.907 730.767C604.392 730.765 604.874 730.693 605.337 730.552L606.267 730.266L626.157 724.152L627.456 715.631L631.138 722.615L638.992 720.196L628.66 694.418Z" fill="var(--fill-0, #2F2E41)"/>
<path id="Vector_29" d="M490.047 344.56L469.144 405.308L468.454 410.169C463.187 415.17 469.803 416.818 467.322 418.136C464.841 419.455 463.173 423.152 466.516 423.813C469.859 424.473 480.638 661.415 494.857 670.615C509.075 679.814 517.728 686.469 515.116 672.998C514.064 667.57 515.552 638.471 517.705 605.655C517.949 601.936 521.802 597.999 518.459 594.383C515.116 590.768 518.871 588.388 519.081 585.387C522.08 542.536 525.543 500.23 525.543 500.23C525.543 500.23 547.702 576.332 553.457 570.44C559.211 564.549 556.933 579.054 558.692 583.388C560.161 587.01 553.891 594.124 563.106 594.234C572.32 594.343 593.96 668.315 596.155 668.231C600.504 668.065 612.73 668.534 619.99 667.039C623.575 666.301 607.661 610.297 594.372 561.936C593.312 558.079 587.544 557.989 591.254 550.544C594.963 543.098 576.507 494.92 578.09 492.692C582.294 486.777 583.895 484.207 579.749 483.819C575.603 483.432 574.379 485.706 574.155 479.969C573.931 474.232 573.215 460.085 573.215 460.085C573.215 460.085 570.212 404.134 549.182 373.222L547.389 354.855L490.047 344.56Z" fill="var(--fill-0, #2F2E41)"/>
<path id="Vector_30" d="M491.001 345.86C472.886 348.491 443.26 364.554 463.858 329.176L485.516 275.158C469.645 262.836 482.98 240.067 496.279 217.312L527.159 186.431H553.985L561.08 213.413C569.848 232.297 570.967 253.841 564.202 273.531C559.788 286.358 570.636 314.195 568.465 316.273C563.698 320.834 555.355 315.279 563.698 324.015C572.04 332.751 573.71 335.547 570.492 338.916C567.273 342.285 560.122 353.011 560.122 353.011L549.184 373.222L491.001 345.86Z" fill="var(--fill-0, #3F3D56)"/>
<path id="Vector_31" d="M547.004 180.093C562.741 173.974 570.537 156.255 564.417 140.518C558.297 124.781 540.579 116.985 524.842 123.105C509.105 129.225 501.309 146.943 507.429 162.68C513.549 178.417 531.267 186.213 547.004 180.093Z" fill="var(--fill-0, #A0616A)"/>
<path id="Vector_32" d="M577.059 191.321C581.216 197.271 583.997 204.072 585.2 211.23C581.849 213.373 577.949 214.499 573.972 214.47C573.837 213.95 573.702 213.429 573.548 212.908C572.395 208.875 570.681 205.024 568.455 201.468C568.76 205.302 568.241 209.157 566.931 212.773C564.829 211.818 562.577 211.237 560.276 211.056C558.401 211.056 556.552 211.492 554.874 212.329C552.926 205.867 551.132 199.925 549.859 195.662C549.82 206.349 534.156 215.667 517.064 214.316C516.447 213.93 522.639 196.356 522.041 195.951C520.672 195.045 519.341 194.061 518.01 193.096C523.604 184.454 529.68 175.194 528.639 173.806C528.716 175.522 522.582 183.779 515.907 191.572C512.203 188.852 533.249 144.599 522.852 141.011C522.678 142.574 520.382 142.574 517.585 142.246C516.847 139.668 515.75 137.206 514.325 134.935C514.51 137.223 514.235 139.525 513.515 141.706C510.753 141.706 507.998 141.997 505.297 142.574C504.672 141.59 503.982 140.649 503.233 139.757C503.307 140.844 503.275 141.936 503.137 143.017C500.378 143.615 498.102 144.31 497.774 144.869C495.613 144.078 499.298 140.51 497.947 138.658C494.513 134.028 499.606 127.276 502.828 122.492C509.445 112.692 523.971 109.297 534.253 115.181C534.716 113.58 537.088 112.519 540.136 111.805C541.428 111.52 542.75 111.397 544.072 111.438C557.189 111.67 575.4 122.492 576.114 135.59C576.172 136.902 576.268 138.33 576.364 139.854C577.29 154.515 576.152 168.038 586.164 178.763C589.791 182.641 589.829 201.006 588.44 210.458C584.833 206.658 582.267 191.881 577.059 191.321Z" fill="var(--fill-0, #2F2E41)"/>
<path id="Vector_33" d="M651.337 712.442C651.891 712.468 652.439 712.322 652.908 712.026C653.376 711.729 653.742 711.296 653.956 710.784C654.17 710.272 654.221 709.707 654.103 709.165C653.986 708.624 653.704 708.131 653.297 707.755L653.111 707.018C653.136 706.959 653.16 706.9 653.185 706.841C653.743 705.523 654.678 704.399 655.873 703.611C657.068 702.822 658.469 702.405 659.9 702.41C661.331 702.415 662.729 702.843 663.918 703.641C665.107 704.438 666.034 705.569 666.582 706.891C668.773 712.168 671.563 717.454 672.25 723.034C672.552 725.501 672.425 728.001 671.872 730.424C677.019 719.197 679.691 706.996 679.708 694.647C679.709 691.548 679.537 688.451 679.193 685.371C678.908 682.846 678.513 680.34 678.007 677.851C675.249 664.347 669.327 651.69 660.727 640.919C656.564 638.648 653.198 635.156 651.082 630.913C650.315 629.387 649.773 627.759 649.473 626.079C649.943 626.14 651.244 618.989 650.89 618.551C651.544 617.558 652.715 617.064 653.43 616.095C656.984 611.277 661.881 612.118 664.437 618.666C669.898 621.422 669.951 625.993 666.6 630.389C664.468 633.186 664.175 636.97 662.305 639.965C662.497 640.211 662.697 640.45 662.89 640.696C666.407 645.219 669.473 650.076 672.043 655.198C671.418 649.46 672.164 643.657 674.22 638.264C676.303 633.238 680.209 629.005 683.647 624.66C684.557 623.493 685.792 622.621 687.197 622.156C688.601 621.691 690.112 621.652 691.539 622.045C692.965 622.439 694.243 623.246 695.211 624.365C696.179 625.485 696.793 626.866 696.976 628.334C696.983 628.398 696.99 628.462 696.996 628.526C696.486 628.815 695.986 629.12 695.496 629.444C694.882 629.855 694.406 630.441 694.13 631.127C693.855 631.813 693.793 632.566 693.953 633.288C694.113 634.009 694.487 634.666 695.026 635.171C695.566 635.677 696.245 636.007 696.976 636.12L697.05 636.131C696.868 637.972 696.547 639.797 696.088 641.589C700.5 658.65 690.975 664.863 677.376 665.143C677.076 665.297 676.783 665.451 676.483 665.597C679.065 672.915 680.685 680.537 681.302 688.273C681.651 692.837 681.63 697.422 681.24 701.982L681.263 701.82C682.248 696.749 684.954 692.173 688.922 688.866C694.816 684.024 703.143 682.241 709.501 678.35C710.177 677.916 710.963 677.684 711.766 677.682C712.569 677.68 713.356 677.908 714.034 678.338C714.712 678.769 715.252 679.384 715.592 680.112C715.931 680.84 716.056 681.65 715.95 682.446L715.924 682.616C714.976 683.002 714.053 683.446 713.161 683.947C712.65 684.235 712.15 684.541 711.661 684.865C711.046 685.275 710.57 685.862 710.295 686.548C710.019 687.234 709.957 687.987 710.117 688.708C710.277 689.43 710.651 690.087 711.191 690.592C711.73 691.097 712.409 691.428 713.14 691.541L713.215 691.552C713.269 691.56 713.315 691.568 713.369 691.575C711.749 695.442 709.476 699.002 706.649 702.097C703.891 716.991 692.043 718.404 679.37 714.067H679.362C677.971 720.109 675.957 725.991 673.35 731.617H651.875C651.798 731.378 651.729 731.132 651.659 730.893C653.647 731.018 655.643 730.899 657.602 730.539C656.008 728.584 654.415 726.613 652.822 724.658C652.786 724.622 652.753 724.583 652.721 724.543C651.913 723.542 651.097 722.549 650.289 721.549L650.289 721.548C650.246 718.48 650.598 715.42 651.337 712.442Z" fill="var(--fill-0, #92DBDA)"/>
<path id="Vector_34" d="M411.138 731.681C411.138 731.867 411.174 732.052 411.245 732.224C411.316 732.396 411.421 732.553 411.552 732.685C411.684 732.816 411.841 732.921 412.013 732.992C412.185 733.063 412.37 733.099 412.556 733.099H714.414C714.79 733.099 715.15 732.949 715.416 732.683C715.682 732.417 715.832 732.057 715.832 731.681C715.832 731.304 715.682 730.944 715.416 730.678C715.15 730.412 714.79 730.262 714.414 730.262H412.556C412.37 730.262 412.185 730.298 412.013 730.369C411.841 730.44 411.684 730.545 411.552 730.676C411.421 730.808 411.316 730.965 411.245 731.137C411.174 731.309 411.138 731.494 411.138 731.681Z" fill="var(--fill-0, #F26F37)"/>
<path id="Vector_35" d="M555.035 425.694L492.528 483.694L411.045 458.561L392.07 375.428L454.577 317.428L536.06 342.561L555.035 425.694Z" fill="var(--fill-0, #F2F2F2)"/>
<path id="Vector_36" d="M451.116 382.648C450.2 381.03 449.65 379.232 449.504 377.378C449.358 375.525 449.621 373.662 450.273 371.921C450.925 370.18 451.951 368.603 453.278 367.302C454.605 366 456.202 365.006 457.956 364.388L508.492 259.736L527.31 273.361L474.595 372.978C475.438 375.992 475.145 379.211 473.773 382.024C472.401 384.837 470.045 387.05 467.151 388.242C464.257 389.434 461.026 389.523 458.071 388.492C455.115 387.461 452.641 385.382 451.116 382.648Z" fill="var(--fill-0, #A0616A)"/>
<path id="Vector_37" d="M530.073 227.227C525.406 226.762 520.705 227.665 516.542 229.824C512.379 231.984 508.934 235.307 506.625 239.39L485.902 276.046C485.902 276.046 531.384 296.133 542.278 281.738C546.869 275.671 549.712 265.462 551.464 255.681C552.065 252.391 551.978 249.013 551.209 245.759C550.44 242.504 549.006 239.444 546.996 236.772C544.987 234.099 542.446 231.871 539.534 230.228C536.621 228.585 533.4 227.563 530.073 227.227Z" fill="var(--fill-0, #3F3D56)"/>
<path id="Vector_38" d="M400.602 213.645V316.624C400.597 319.417 399.486 322.093 397.511 324.068C395.536 326.043 392.86 327.154 390.067 327.159H311.078L311.805 326.23C353.361 298.486 382.809 261.47 399.673 214.825L400.602 213.645Z" fill="var(--fill-0, #5379F4)"/>
<path id="Vector_39" d="M67.5099 289.023L45.8356 326.563H89.183L67.5099 289.023L45.8356 326.563H89.183L67.5099 289.023Z" fill="var(--fill-0, #F26F37)"/>
<path id="Vector_40" d="M231.547 465.878C271.253 465.878 303.442 433.69 303.442 393.984C303.442 354.277 271.253 322.089 231.547 322.089C191.84 322.089 159.652 354.277 159.652 393.984C159.652 433.69 191.84 465.878 231.547 465.878Z" fill="var(--fill-0, #F2F2F2)"/>
</g>
<defs>
<clipPath id="clip0_0_62">
<rect width="716" height="733.099" fill="white"/>
</clipPath>
</defs>
</svg>
