<svg width="246" height="109" viewBox="0 0 246 109" fill="none" xmlns="http://www.w3.org/2000/svg">
<g clip-path="url(#clip0_1_126)">
<path d="M104.516 69.6362H5.05715C3.71637 69.6347 2.43094 69.1014 1.48287 68.1533C0.534794 67.2053 0.00150493 65.9198 0 64.5791V3.85119C0.00113011 2.83016 0.407224 1.85128 1.12919 1.12928C1.85115 0.407295 2.83003 0.00116563 3.85106 0H105.665C106.701 0.00116707 107.694 0.413314 108.427 1.14602C109.16 1.87872 109.572 2.87213 109.573 3.90832V64.5791C109.572 65.9198 109.038 67.2053 108.09 68.1533C107.142 69.1014 105.857 69.6347 104.516 69.6362Z" fill="#E6F1FF"/>
<path d="M104.516 69.6362H5.05715C3.71637 69.6347 2.43094 69.1014 1.48287 68.1533C0.534794 67.2053 0.00150493 65.9198 0 64.5791V3.85119C0.00113011 2.83016 0.407224 1.85128 1.12919 1.12928C1.85115 0.407295 2.83003 0.00116563 3.85106 0H105.665C106.701 0.00116707 107.694 0.413314 108.427 1.14602C109.16 1.87872 109.572 2.87213 109.573 3.90832V64.5791C109.572 65.9198 109.038 67.2053 108.09 68.1533C107.142 69.1014 105.857 69.6347 104.516 69.6362ZM3.85106 1.09344C3.11993 1.09429 2.419 1.38512 1.90203 1.90212C1.38505 2.41912 1.09426 3.12007 1.09344 3.85119V64.5791C1.09463 65.6299 1.51262 66.6374 2.2557 67.3805C2.99879 68.1236 4.00628 68.5416 5.05715 68.5428H104.516C105.567 68.5416 106.574 68.1236 107.317 67.3805C108.06 66.6374 108.478 65.6299 108.48 64.5791V3.90832C108.479 3.16203 108.182 2.44654 107.654 1.91882C107.127 1.39111 106.411 1.09427 105.665 1.09344H3.85106Z" fill="#F26F37"/>
<path d="M45.4082 54.2608H15.6065C14.8774 54.2597 14.1734 53.9941 13.6252 53.5134C13.077 53.0327 12.7218 52.3694 12.6255 51.6466C12.6074 51.5165 12.5988 51.3852 12.5996 51.2538V18.3823C12.6005 17.5851 12.9176 16.8208 13.4813 16.2571C14.045 15.6934 14.8093 15.3763 15.6065 15.3754H45.4082C46.2054 15.3763 46.9697 15.6934 47.5334 16.2571C48.0971 16.8208 48.4142 17.5851 48.4151 18.3823V51.2538C48.4142 52.051 48.0971 52.8153 47.5334 53.3791C46.9697 53.9428 46.2054 54.2599 45.4082 54.2608ZM15.6065 17.0155C15.2442 17.0159 14.8967 17.1601 14.6405 17.4163C14.3843 17.6725 14.2401 18.02 14.2397 18.3823V51.2538C14.2391 51.31 14.2426 51.3662 14.2501 51.4219C14.292 51.7524 14.4527 52.0563 14.7024 52.2769C14.952 52.4975 15.2734 52.6197 15.6065 52.6206H45.4082C45.7706 52.6202 46.118 52.4761 46.3742 52.2198C46.6304 51.9636 46.7746 51.6162 46.775 51.2538V18.3823C46.7746 18.02 46.6304 17.6725 46.3742 17.4163C46.118 17.1601 45.7706 17.0159 45.4082 17.0155H15.6065Z" fill="#5379F4"/>
<path d="M94.7865 43.5723H58.7031C58.1231 43.5723 57.5668 43.3419 57.1567 42.9318C56.7466 42.5217 56.5162 41.9654 56.5162 41.3854C56.5162 40.8054 56.7466 40.2492 57.1567 39.8391C57.5668 39.4289 58.1231 39.1985 58.7031 39.1985H94.7865C95.3665 39.1985 95.9228 39.4289 96.3329 39.8391C96.743 40.2492 96.9734 40.8054 96.9734 41.3854C96.9734 41.9654 96.743 42.5217 96.3329 42.9318C95.9228 43.3419 95.3665 43.5723 94.7865 43.5723Z" fill="#F26F37"/>
<path d="M78.3849 34.2781H58.7031C58.1231 34.2781 57.5668 34.0477 57.1567 33.6376C56.7466 33.2275 56.5162 32.6712 56.5162 32.0912C56.5162 31.5112 56.7466 30.955 57.1567 30.5449C57.5668 30.1348 58.1231 29.9044 58.7031 29.9044H78.3849C78.9649 29.9044 79.5212 30.1348 79.9313 30.5449C80.3414 30.955 80.5718 31.5112 80.5718 32.0912C80.5718 32.6712 80.3414 33.2275 79.9313 33.6376C79.5212 34.0477 78.9649 34.2781 78.3849 34.2781Z" fill="#9E616A"/>
<path d="M40.3337 33.9147C40.3337 38.7458 35.8666 38.0151 30.3561 38.0151C24.8456 38.0151 20.3785 38.7458 20.3785 33.9147C20.3785 29.0836 22.5606 20.5201 30.3561 20.5201C38.4202 20.5201 40.3337 29.0836 40.3337 33.9147Z" fill="#2F2E41"/>
<path d="M40.7368 42.0454C40.5443 41.4899 40.1606 41.0209 39.6543 40.7223C39.5565 40.6623 39.4542 40.6102 39.3481 40.5665C38.904 40.3818 38.4158 40.3305 37.943 40.4189C37.4703 40.5073 37.0335 40.7315 36.6861 41.0641C36.3387 41.3967 36.0958 41.8233 35.9869 42.2917C35.8781 42.7602 35.9081 43.2502 36.0732 43.7019L40.0479 52.7364H45.2827L40.7368 42.0454Z" fill="#3F3D56"/>
<path d="M23.3923 42.5373C23.0782 42.3855 22.7355 42.3019 22.3867 42.2918C22.0379 42.2817 21.691 42.3455 21.3686 42.479C21.0462 42.6124 20.7557 42.8125 20.516 43.0661C20.2764 43.3198 20.0931 43.6212 19.9781 43.9506L16.2769 52.6571C16.4664 52.71 16.6623 52.7367 16.8591 52.7364H21.5035L24.6416 45.6072C24.8509 45.0317 24.839 44.3989 24.6081 43.8317C24.3773 43.2644 23.944 42.8032 23.3923 42.5373Z" fill="#3F3D56"/>
<path d="M30.3227 38.007C34.0307 38.007 37.0367 35.0011 37.0367 31.293C37.0367 27.585 34.0307 24.579 30.3227 24.579C26.6146 24.579 23.6087 27.585 23.6087 31.293C23.6087 35.0011 26.6146 38.007 30.3227 38.007Z" fill="#FFB8B8"/>
<path d="M39.7719 40.8289C39.7337 40.7933 39.6954 40.7551 39.6544 40.7222C39.1864 40.3003 38.6324 39.9847 38.0308 39.7974C37.4291 39.61 36.7939 39.5553 36.1691 39.637L23.7967 41.2034C22.6634 41.3435 21.6292 41.9198 20.9137 42.8099C20.1982 43.6999 19.8576 44.8337 19.9642 45.9707C20.1338 47.8788 20.4071 50.2871 20.8445 52.7364H40.3897L41.1086 44.3825C41.1665 43.7279 41.0764 43.0686 40.845 42.4534C40.6136 41.8383 40.2468 41.2831 39.7719 40.8289Z" fill="#3F3D56"/>
<path d="M22.565 30.6343H25.2205L26.392 27.354L26.6263 30.6343H27.8955L28.5789 28.7207L28.7156 30.6343H38.1465C38.1465 28.7493 37.3977 26.9415 36.0648 25.6086C34.7319 24.2757 32.9241 23.5269 31.0391 23.5269H29.6723C27.7873 23.5269 25.9796 24.2757 24.6467 25.6086C23.3138 26.9415 22.565 28.7493 22.565 30.6343Z" fill="#2F2E41"/>
<path d="M135.931 64.5791V3.90832C135.932 2.87213 136.344 1.87872 137.077 1.14602C137.809 0.413314 138.803 0.00116707 139.839 0H241.653C242.674 0.00116563 243.653 0.407295 244.375 1.12928C245.097 1.85128 245.503 2.83016 245.504 3.85119V64.5791C245.502 65.9198 244.969 67.2053 244.021 68.1533C243.073 69.1014 241.787 69.6347 240.447 69.6362H140.988C139.647 69.6347 138.362 69.1014 137.414 68.1533C136.466 67.2053 135.932 65.9198 135.931 64.5791Z" fill="#E6F1FF"/>
<path d="M135.931 64.5791V3.90832C135.932 2.87213 136.344 1.87872 137.077 1.14602C137.809 0.413314 138.803 0.00116707 139.839 0H241.653C242.674 0.00116563 243.653 0.407295 244.375 1.12928C245.097 1.85128 245.503 2.83016 245.504 3.85119V64.5791C245.502 65.9198 244.969 67.2053 244.021 68.1533C243.073 69.1014 241.787 69.6347 240.447 69.6362H140.988C139.647 69.6347 138.362 69.1014 137.414 68.1533C136.466 67.2053 135.932 65.9198 135.931 64.5791ZM139.839 1.09344C139.093 1.09427 138.377 1.39111 137.85 1.91882C137.322 2.44654 137.025 3.16203 137.024 3.90832V64.5791C137.025 65.6299 137.443 66.6374 138.187 67.3805C138.93 68.1236 139.937 68.5416 140.988 68.5428H240.447C241.498 68.5416 242.505 68.1236 243.248 67.3805C243.991 66.6374 244.409 65.6299 244.41 64.5791V3.85119C244.41 3.12007 244.119 2.41912 243.602 1.90212C243.085 1.38512 242.384 1.09429 241.653 1.09344H139.839Z" fill="#F26F37"/>
<path d="M197.088 51.2538V18.3823C197.089 17.5851 197.406 16.8208 197.97 16.2571C198.534 15.6934 199.298 15.3763 200.095 15.3754H229.897C230.694 15.3763 231.458 15.6934 232.022 16.2571C232.586 16.8208 232.903 17.5851 232.904 18.3823V51.2538C232.905 51.3852 232.896 51.5165 232.878 51.6466C232.782 52.3694 232.426 53.0327 231.878 53.5134C231.33 53.9941 230.626 54.2597 229.897 54.2608H200.095C199.298 54.2599 198.534 53.9428 197.97 53.3791C197.406 52.8153 197.089 52.051 197.088 51.2538ZM200.095 17.0155C199.733 17.0159 199.386 17.1601 199.129 17.4163C198.873 17.6725 198.729 18.02 198.729 18.3823V51.2538C198.729 51.6162 198.873 51.9636 199.129 52.2198C199.386 52.4761 199.733 52.6202 200.095 52.6206H229.897C230.23 52.6197 230.552 52.4975 230.801 52.2769C231.051 52.0563 231.212 51.7524 231.253 51.4219C231.261 51.3662 231.264 51.31 231.264 51.2538V18.3823C231.263 18.02 231.119 17.6725 230.863 17.4163C230.607 17.1601 230.259 17.0159 229.897 17.0155H200.095Z" fill="#5379F4"/>
<path d="M148.53 41.3854C148.531 40.8056 148.761 40.2498 149.171 39.8398C149.581 39.4298 150.137 39.1992 150.717 39.1985H186.8C187.38 39.1985 187.936 39.4289 188.347 39.8391C188.757 40.2492 188.987 40.8054 188.987 41.3854C188.987 41.9654 188.757 42.5217 188.347 42.9318C187.936 43.3419 187.38 43.5723 186.8 43.5723H150.717C150.137 43.5716 149.581 43.341 149.171 42.931C148.761 42.5211 148.531 41.9652 148.53 41.3854Z" fill="#F26F37"/>
<path d="M148.53 32.0912C148.531 31.5114 148.761 30.9556 149.171 30.5456C149.581 30.1356 150.137 29.905 150.717 29.9044H170.399C170.979 29.9044 171.535 30.1348 171.945 30.5449C172.355 30.955 172.586 31.5112 172.586 32.0912C172.586 32.6712 172.355 33.2275 171.945 33.6376C171.535 34.0477 170.979 34.2781 170.399 34.2781H150.717C150.137 34.2774 149.581 34.0468 149.171 33.6369C148.761 33.2269 148.531 32.671 148.53 32.0912Z" fill="#9E616A"/>
<path d="M207.631 28.1495C209.548 31.9174 211.058 35.8036 215.285 35.8036C217.315 35.8036 219.262 34.9972 220.698 33.5617C222.133 32.1263 222.94 30.1795 222.94 28.1495C222.94 26.1195 222.133 24.1727 220.698 22.7372C219.262 21.3018 217.315 20.4954 215.285 20.4954C210.989 20.4416 204.064 21.1363 207.631 28.1495Z" fill="#2F2E41"/>
<path d="M214.909 35.9525C218.617 35.9525 221.623 32.9466 221.623 29.2385C221.623 25.5305 218.617 22.5245 214.909 22.5245C211.201 22.5245 208.195 25.5305 208.195 29.2385C208.195 32.9466 211.201 35.9525 214.909 35.9525Z" fill="#A0616A"/>
<path d="M224.075 41.4768C223.642 41.0053 223.171 40.5701 222.667 40.1756C220.463 38.4483 217.701 37.5921 214.907 37.77C214.795 37.7755 214.683 37.7837 214.57 37.7946C212.952 37.924 211.38 38.3965 209.958 39.1808C208.537 39.9652 207.298 41.0432 206.326 42.3433C205.338 43.6633 204.644 45.1789 204.29 46.7888C203.935 48.3988 203.929 50.0659 204.27 51.6786C204.344 52.0203 204.41 52.3647 204.473 52.7091H226.729L226.986 50.987C227.243 49.285 227.115 47.547 226.611 45.9011C226.107 44.2552 225.241 42.7433 224.075 41.4768Z" fill="#3F3D56"/>
<path d="M227.484 43.2728C227.327 42.3745 226.86 41.5597 226.164 40.9703C225.468 40.3809 224.588 40.0542 223.676 40.0471C223.64 40.0471 223.602 40.0498 223.566 40.0498C223.263 40.0568 222.961 40.099 222.667 40.1756C222.173 40.3069 221.71 40.5345 221.304 40.8452C220.898 41.156 220.558 41.5439 220.302 41.9866C220.047 42.4293 219.881 42.9182 219.815 43.425C219.749 43.9319 219.784 44.4468 219.917 44.9403L222.019 52.7091H229.094L227.484 43.2728Z" fill="#3F3D56"/>
<path d="M211.916 41.2362C211.649 40.7125 211.267 40.2563 210.798 39.9022C210.466 39.6514 210.094 39.4574 209.699 39.3281C209.537 39.2729 209.372 39.2291 209.204 39.1969C208.29 39.0239 207.344 39.1834 206.537 39.6466C205.73 40.1097 205.115 40.8461 204.803 41.7228L200.954 52.7091H208.258L211.984 44.6286C212.233 44.0954 212.355 43.5125 212.344 42.9245C212.332 42.3364 212.185 41.7589 211.916 41.2362Z" fill="#3F3D56"/>
<path d="M207.784 25.4442C209.318 26.5017 211.139 27.0645 213.003 27.057C212.338 27.5179 211.581 27.8292 210.785 27.9695C213.262 28.5009 215.823 28.5153 218.306 28.0118C218.858 27.9233 219.39 27.7403 219.88 27.471C220.124 27.3347 220.337 27.1485 220.505 26.9246C220.672 26.7006 220.79 26.444 220.852 26.1713C221.017 25.2286 220.283 24.3721 219.519 23.7949C218.351 22.9247 217.003 22.3251 215.574 22.0396C214.145 21.754 212.671 21.7897 211.257 22.1439C210.334 22.3825 209.41 22.7856 208.81 23.5267C208.211 24.2679 208.033 25.4106 208.604 26.1738L207.784 25.4442Z" fill="#2F2E41"/>
<path d="M172.481 109H73.0225C71.6818 108.999 70.3963 108.465 69.4483 107.517C68.5002 106.569 67.9669 105.284 67.9654 103.943V43.215C67.9665 42.194 68.3726 41.2151 69.0946 40.4931C69.8166 39.7711 70.7954 39.365 71.8165 39.3638H173.63C174.666 39.365 175.66 39.7771 176.392 40.5098C177.125 41.2425 177.537 42.236 177.538 43.2722V103.943C177.537 105.284 177.004 106.569 176.056 107.517C175.107 108.465 173.822 108.999 172.481 109Z" fill="#E6F1FF"/>
<path d="M172.481 109H73.0225C71.6818 108.999 70.3963 108.465 69.4483 107.517C68.5002 106.569 67.9669 105.284 67.9654 103.943V43.215C67.9665 42.194 68.3726 41.2151 69.0946 40.4931C69.8166 39.7711 70.7954 39.365 71.8165 39.3638H173.63C174.666 39.365 175.66 39.7771 176.392 40.5098C177.125 41.2425 177.537 42.236 177.538 43.2722V103.943C177.537 105.284 177.004 106.569 176.056 107.517C175.107 108.465 173.822 108.999 172.481 109ZM71.8165 40.4573C71.0853 40.4581 70.3844 40.749 69.8674 41.266C69.3504 41.7829 69.0597 42.4839 69.0588 43.215V103.943C69.06 104.994 69.478 106.001 70.2211 106.744C70.9642 107.487 71.9717 107.905 73.0225 107.907H172.481C173.532 107.905 174.54 107.487 175.283 106.744C176.026 106.001 176.444 104.994 176.445 103.943V43.2722C176.444 42.5259 176.147 41.8104 175.62 41.2827C175.092 40.7549 174.376 40.4581 173.63 40.4573H71.8165Z" fill="#3F3D56"/>
<path d="M113.374 93.6246H83.572C82.8428 93.6235 82.1389 93.358 81.5907 92.8772C81.0425 92.3965 80.6873 91.7332 80.591 91.0105C80.5729 90.8803 80.5642 90.749 80.565 90.6177V57.7462C80.5659 56.9489 80.883 56.1846 81.4467 55.6209C82.0105 55.0572 82.7748 54.7401 83.572 54.7392H113.374C114.171 54.7401 114.935 55.0572 115.499 55.6209C116.063 56.1846 116.38 56.9489 116.381 57.7462V90.6177C116.38 91.4149 116.063 92.1792 115.499 92.7429C114.935 93.3066 114.171 93.6237 113.374 93.6246ZM83.572 56.3794C83.2096 56.3798 82.8622 56.5239 82.606 56.7801C82.3497 57.0364 82.2056 57.3838 82.2052 57.7462V90.6177C82.2046 90.6738 82.2081 90.73 82.2156 90.7857C82.2574 91.1162 82.4182 91.4201 82.6678 91.6407C82.9174 91.8614 83.2388 91.9835 83.572 91.9845H113.374C113.736 91.984 114.083 91.8399 114.34 91.5837C114.596 91.3274 114.74 90.98 114.74 90.6177V57.7462C114.74 57.3838 114.596 57.0364 114.34 56.7801C114.083 56.5239 113.736 56.3798 113.374 56.3794H83.572Z" fill="#F26F37"/>
<path d="M98.04 60.7487C96.1 59.8462 93.7181 59.5503 91.7441 60.3889C89.77 61.2276 88.4242 63.3772 89.0625 65.2796C89.3519 66.1421 90.0111 66.9903 89.7543 67.8614C89.5566 68.532 88.8671 68.9746 88.19 69.2894C87.5128 69.6042 86.772 69.8688 86.2823 70.3997C85.7926 70.9305 85.6905 71.8444 86.3022 72.2561C86.5038 72.3918 86.7557 72.4561 86.9511 72.599C87.1177 72.7344 87.2379 72.9183 87.2949 73.1252C87.352 73.3321 87.3431 73.5516 87.2694 73.7532C87.1065 74.1588 86.8373 74.513 86.4901 74.7785C85.7956 75.3774 84.8778 76.0629 85.0934 76.9131C85.1735 77.1403 85.3071 77.3449 85.483 77.5094C85.659 77.674 85.872 77.7937 86.1041 77.8583C86.586 77.9973 87.086 78.0633 87.5875 78.0541L108.08 78.6997C108.757 78.7505 109.437 78.7125 110.104 78.5867C110.428 78.5276 110.736 78.4023 111.009 78.2186C111.283 78.0349 111.515 77.7968 111.693 77.5192C112.085 76.7928 111.827 75.898 111.343 75.2197C110.858 74.5415 110.172 74.0064 109.606 73.3836C109.039 72.7607 108.575 71.9832 108.675 71.1782C108.755 70.5338 109.18 69.9769 109.485 69.3914C109.79 68.8059 109.967 68.0742 109.572 67.5356C109.015 66.7765 107.679 66.8452 107.046 66.1379C106.568 65.6042 106.66 64.8358 106.613 64.1475C106.498 62.4919 105.352 60.9283 103.72 60.2022C102.891 59.8461 101.988 59.6923 101.087 59.7536C100.186 59.815 99.3131 60.0897 98.5393 60.5551L98.04 60.7487Z" fill="#2F2E41"/>
<path d="M98.7983 78.5409C102.506 78.5409 105.512 75.5349 105.512 71.8269C105.512 68.1189 102.506 65.1129 98.7983 65.1129C95.0902 65.1129 92.0843 68.1189 92.0843 71.8269C92.0843 75.5349 95.0902 78.5409 98.7983 78.5409Z" fill="#A0616A"/>
<path d="M107.613 87.2116C107.606 86.0348 107.28 84.8818 106.67 83.8757C106.059 82.8695 105.187 82.0479 104.146 81.4984C104.062 81.4519 103.974 81.4109 103.887 81.3699C103.131 81.0118 102.313 80.8038 101.479 80.7576L95.0874 80.3995C94.1848 80.3479 93.2814 80.4867 92.4358 80.8068C92.2299 80.8835 92.0282 80.9711 91.8317 81.0692C91.214 81.3735 90.6491 81.775 90.1587 82.2583C89.5128 82.896 89.0074 83.6617 88.675 84.5062C88.3427 85.3508 88.1906 86.2556 88.2287 87.1624L88.3436 89.8714L89.1473 91.9571H107.017C107.238 91.6885 107.431 91.3971 107.591 91.0878C107.894 90.4874 108.053 89.8248 108.057 89.1523C108.061 88.4797 107.909 87.8155 107.613 87.2116Z" fill="#5379F4"/>
<path d="M107.175 83.6195C106.884 82.9869 106.427 82.4447 105.852 82.0505C105.438 81.7665 104.973 81.5643 104.483 81.4545C104.286 81.4114 104.087 81.3831 103.887 81.3698C103.492 81.3429 103.096 81.377 102.711 81.4709C102.138 81.6137 101.604 81.885 101.15 82.2643C100.697 82.6436 100.335 83.1211 100.093 83.6606C99.8512 84.2001 99.735 84.7875 99.7533 85.3785C99.7717 85.9695 99.9242 86.5486 100.199 87.0721L102.657 91.7247L102.78 91.957H111.033L107.175 83.6195Z" fill="#5379F4"/>
<path d="M93.669 81.1948C93.2824 80.9981 92.8658 80.8669 92.4362 80.8067C92.1165 80.7611 91.7922 80.7565 91.4713 80.793C90.6546 80.8854 89.8881 81.2337 89.2812 81.788C88.6744 82.3423 88.2583 83.0742 88.0925 83.8792L86.4278 91.957H92.9391L94.1556 91.4595L95.6701 85.6479C95.8904 84.7887 95.8123 83.8802 95.4488 83.0712C95.0852 82.2622 94.4577 81.6006 93.669 81.1948Z" fill="#5379F4"/>
<path d="M91.9294 70.8724C94.0497 70.7021 95.8101 68.584 95.5896 66.4683C95.5648 67.3403 95.8613 68.1911 96.4229 68.8587C96.9844 69.5263 97.7718 69.9643 98.6352 70.0892C99.6078 70.1963 100.674 69.9021 101.521 70.3927C102.458 70.9362 102.758 72.2559 103.735 72.7253C104.679 73.1788 105.878 72.5602 106.344 71.6227C106.81 70.6852 106.696 69.5588 106.387 68.5583C105.946 67.1316 105.144 65.8432 104.057 64.8184C102.971 63.7936 101.638 63.0674 100.188 62.7103C98.7385 62.3533 97.2208 62.3776 95.783 62.7808C94.3453 63.184 93.0363 63.9525 91.9835 65.0115C91.0919 65.9082 90.384 67.0511 90.2692 68.3104C90.1544 69.5697 90.7386 70.9361 91.8695 71.5019L91.9294 70.8724Z" fill="#2F2E41"/>
<path d="M162.752 82.9363H126.669C126.089 82.9363 125.532 82.7059 125.122 82.2957C124.712 81.8856 124.482 81.3294 124.482 80.7494C124.482 80.1694 124.712 79.6132 125.122 79.203C125.532 78.7929 126.089 78.5625 126.669 78.5625H162.752C163.332 78.5625 163.888 78.7929 164.298 79.203C164.708 79.6132 164.939 80.1694 164.939 80.7494C164.939 81.3294 164.708 81.8856 164.298 82.2957C163.888 82.7059 163.332 82.9363 162.752 82.9363Z" fill="#F26F37"/>
<path d="M146.35 73.6419H126.669C126.089 73.6419 125.532 73.4115 125.122 73.0014C124.712 72.5913 124.482 72.0351 124.482 71.4551C124.482 70.8751 124.712 70.3188 125.122 69.9087C125.532 69.4986 126.089 69.2682 126.669 69.2682H146.35C146.93 69.2682 147.487 69.4986 147.897 69.9087C148.307 70.3188 148.537 70.8751 148.537 71.4551C148.537 72.0351 148.307 72.5913 147.897 73.0014C147.487 73.4115 146.93 73.6419 146.35 73.6419Z" fill="#5379F4"/>
<path d="M156.911 89.6127C155.001 89.6162 153.17 90.3774 151.821 91.7293C150.471 93.0812 149.713 94.9132 149.713 96.8233C149.713 98.7334 150.471 100.565 151.821 101.917C153.17 103.269 155.001 104.03 156.911 104.034C158.821 104.03 160.651 103.269 162.001 101.917C163.35 100.565 164.108 98.7334 164.108 96.8233C164.108 94.9132 163.35 93.0812 162.001 91.7293C160.651 90.3774 158.821 89.6162 156.911 89.6127Z" fill="#5379F4"/>
<path d="M156.227 99.8179C156.037 99.8182 155.852 99.7568 155.7 99.643L155.691 99.6359L153.708 98.119C153.523 97.9767 153.402 97.7667 153.371 97.5352C153.341 97.3037 153.404 97.0696 153.546 96.8843C153.688 96.699 153.898 96.5776 154.129 96.5469C154.36 96.5161 154.595 96.5785 154.78 96.7204L156.065 97.7053L159.1 93.7457C159.17 93.6539 159.258 93.5768 159.358 93.519C159.458 93.4611 159.569 93.4235 159.683 93.4083C159.798 93.3932 159.915 93.4008 160.026 93.4307C160.138 93.4606 160.243 93.5122 160.335 93.5826L160.335 93.5828L160.316 93.6089L160.335 93.5828C160.521 93.7251 160.642 93.9351 160.672 94.1667C160.703 94.3982 160.64 94.6325 160.498 94.818L156.928 99.4732C156.846 99.5805 156.74 99.6673 156.618 99.7269C156.496 99.7865 156.363 99.8173 156.227 99.8169L156.227 99.8179Z" fill="#E6F6C8"/>
</g>
<defs>
<clipPath id="clip0_1_126">
<rect width="245.504" height="109" fill="white"/>
</clipPath>
</defs>
</svg>
